<?xml version="1.0" standalone="no"?>
<!DOCTYPE svg PUBLIC "-//W3C//DTD SVG 20010904//EN"
 "http://www.w3.org/TR/2001/REC-SVG-20010904/DTD/svg10.dtd">
<svg version="1.0" xmlns="http://www.w3.org/2000/svg"
 width="4405.000000pt" height="1021.000000pt" viewBox="0 0 4405.000000 1021.000000"
 preserveAspectRatio="xMidYMid meet">

<g transform="translate(0.000000,1021.000000) scale(0.100000,-0.100000)"
fill="#000000" stroke="none">
<path d="M21945 9897 c-8 -12 -15 -25 -15 -29 0 -9 -78 -138 -126 -210 -19
-28 -34 -55 -34 -61 0 -6 -20 -52 -45 -102 -53 -107 -70 -126 -560 -653 -22
-24 -63 -76 -92 -115 -29 -40 -60 -82 -70 -94 -17 -22 -475 -258 -649 -335
l-81 -36 -6 -76 c-6 -70 -5 -80 18 -116 14 -22 25 -42 25 -45 0 -2 14 -27 31
-55 17 -28 29 -53 27 -56 -3 -2 -18 7 -34 21 -40 35 -138 95 -156 95 -8 0 -23
7 -34 15 -18 14 -16 15 27 9 l46 -6 7 99 c10 152 27 305 38 334 5 15 40 48 83
78 84 58 105 77 105 94 -1 7 -18 31 -38 54 -35 38 -41 41 -73 34 -22 -5 -43
-3 -61 6 -31 15 -34 25 -15 45 29 29 48 67 40 80 -4 7 -8 33 -8 57 l0 44 -67
-2 c-49 -2 -74 2 -92 14 -35 23 -69 13 -95 -27 l-21 -33 0 33 c0 19 8 40 20
52 11 11 20 23 20 28 0 26 -163 91 -236 93 l-29 1 30 13 c17 8 44 14 61 15 40
0 120 -27 163 -56 19 -13 37 -21 39 -19 9 8 -47 83 -81 109 -74 56 -179 51
-239 -13 -24 -25 -40 -35 -46 -29 -20 20 -143 -52 -222 -132 -89 -89 -123
-150 -141 -247 -15 -89 -2 -177 44 -298 55 -146 39 -282 -43 -360 -15 -14 -69
-47 -121 -73 -113 -57 -140 -89 -138 -166 1 -58 12 -106 21 -91 3 6 8 26 12
46 4 21 16 49 28 64 22 29 95 85 110 85 4 0 -10 -27 -32 -59 -31 -45 -44 -78
-56 -138 -31 -162 -62 -225 -126 -256 -31 -15 -31 -17 -8 -17 33 0 109 35 116
54 3 8 11 17 18 19 9 4 13 -13 16 -61 8 -162 6 -186 -18 -216 -29 -37 -21 -44
18 -16 33 23 75 83 81 115 8 40 27 25 33 -28 5 -40 3 -65 -8 -92 -19 -44 -19
-45 -6 -45 6 0 30 20 55 45 l44 45 11 -54 c11 -52 7 -84 -15 -138 -6 -16 -4
-16 36 0 50 19 139 103 160 150 7 17 17 32 21 32 14 0 8 -34 -16 -92 -13 -32
-20 -58 -15 -58 5 0 30 20 55 45 44 44 94 133 94 167 0 16 20 37 20 21 1 -14
27 -154 48 -253 82 -382 94 -448 122 -675 25 -202 25 -195 -2 -196 l-23 0 23
-9 c17 -7 22 -17 22 -45 0 -35 -16 -48 -26 -20 -9 23 -24 18 -24 -10 0 -13 7
-50 15 -82 15 -58 20 -158 9 -187 -3 -9 -15 -16 -25 -16 -14 0 -19 -7 -19 -25
0 -14 -4 -25 -9 -25 -15 0 -26 43 -12 48 15 5 14 35 -1 50 -17 17 -48 -14 -48
-47 0 -14 -4 -33 -10 -41 -12 -20 -25 16 -35 100 -4 36 -12 68 -18 72 -8 5 -7
14 2 31 19 36 11 61 -22 65 -23 3 -27 8 -27 37 0 43 -9 65 -26 65 -21 0 -17
-57 7 -106 l20 -43 -20 -44 c-11 -24 -27 -49 -35 -56 -18 -15 -36 -7 -36 17
-1 28 -47 113 -68 126 -10 6 -39 25 -63 41 -42 29 -49 30 -150 30 -59 0 -116
-5 -130 -11 -31 -16 -177 -75 -259 -107 -109 -42 -141 -50 -152 -39 -17 17 -1
29 48 37 28 4 76 24 118 49 109 66 207 107 306 130 20 5 50 50 160 243 74 131
158 278 187 326 30 49 51 92 48 97 -3 5 -20 5 -38 0 -17 -5 -73 -11 -122 -15
-110 -8 -166 -19 -177 -37 -24 -39 -130 -222 -163 -283 -21 -38 -49 -87 -62
-107 -12 -21 -23 -40 -23 -43 0 -11 -163 -291 -179 -306 -18 -19 -201 -37
-201 -20 0 11 25 21 56 21 47 0 42 29 -24 168 -46 98 -52 102 -143 102 -46 0
-79 4 -79 10 0 6 8 10 18 10 12 1 9 5 -11 16 -42 23 -97 21 -152 -5 -49 -23
-86 -40 -210 -96 -73 -34 -128 -35 -300 -5 -66 12 -156 28 -200 35 -44 8 -116
21 -160 30 -44 8 -118 22 -165 30 -147 26 -155 29 -154 51 2 23 51 274 63 324
5 19 12 55 16 80 4 25 10 61 15 80 5 19 14 61 20 93 10 51 14 58 33 55 19 -3
22 -9 19 -43 -1 -22 -9 -69 -17 -105 -37 -173 -79 -425 -73 -442 4 -9 35 -20
79 -28 41 -7 120 -23 176 -35 57 -12 105 -20 107 -17 3 2 0 16 -7 31 -16 38
-14 385 3 496 21 134 19 440 -3 535 -24 101 -43 156 -73 209 -13 24 -24 51
-24 60 0 18 152 172 188 190 28 15 50 8 129 -40 35 -22 72 -39 82 -39 21 0 51
40 51 69 0 11 12 33 26 50 l26 31 -26 30 c-24 29 -51 99 -41 108 2 3 23 -12
45 -32 42 -38 86 -48 96 -21 4 11 21 15 58 15 29 0 55 2 58 5 3 4 2 23 -3 44
-5 21 -9 65 -11 98 -2 51 3 69 29 119 17 33 38 91 46 129 l14 70 23 -50 c12
-27 24 -44 27 -37 3 7 0 19 -6 26 -22 27 3 24 38 -4 36 -30 61 -38 61 -21 0 6
-4 12 -9 15 -13 9 -41 95 -32 100 4 3 22 -11 40 -30 19 -19 35 -33 38 -30 2 2
-5 23 -17 46 -26 52 -21 70 22 70 47 0 68 16 31 23 -16 3 -51 22 -78 41 -28
20 -66 43 -85 52 l-35 17 30 7 c17 3 40 12 50 18 20 11 19 11 -1 12 -12 0 -44
15 -70 33 -62 42 -112 67 -135 67 -25 0 -33 17 -13 28 22 12 -129 62 -193 63
l-48 0 39 18 c53 23 36 32 -71 39 -75 4 -84 7 -68 19 18 12 18 13 -2 13 -11 0
-34 -5 -52 -11 -45 -16 -49 -5 -10 30 25 24 29 31 16 31 -32 0 -98 -41 -115
-71 -13 -22 -22 -28 -37 -24 -59 17 -84 16 -126 -4 -43 -20 -43 -20 -14 -21
57 -1 61 -16 8 -34 -48 -16 -123 -69 -123 -87 0 -5 13 -3 30 6 45 23 56 18 28
-12 -91 -101 -115 -194 -93 -364 15 -114 14 -136 -11 -201 l-14 -38 36 0 36 0
-19 -30 c-40 -62 -174 -200 -195 -200 -51 0 -182 -91 -305 -212 -204 -200
-316 -440 -379 -813 -25 -145 -23 -515 4 -680 25 -157 57 -299 93 -411 31 -98
35 -124 19 -124 -5 0 -10 6 -10 14 0 14 -36 46 -52 46 -4 0 -8 -15 -10 -32 -2
-26 -8 -34 -27 -36 -13 -2 -28 1 -34 7 -21 21 -27 11 -27 -43 0 -130 -59 -145
-75 -19 -4 32 -13 69 -20 83 -7 14 -17 39 -23 55 -29 83 -37 104 -60 153 -13
29 -28 55 -33 57 -4 3 -10 19 -14 35 -4 17 -11 30 -16 30 -15 0 -10 -57 6 -64
8 -3 15 -18 15 -33 0 -15 6 -40 14 -55 8 -15 19 -68 26 -119 6 -50 17 -103 24
-118 7 -14 16 -63 20 -108 6 -75 4 -85 -14 -103 -23 -23 -30 -24 -54 -7 -17
13 -35 39 -61 94 -8 17 -19 34 -25 38 -5 3 -10 14 -10 24 0 10 -11 26 -25 35
-48 31 -59 15 -23 -34 20 -28 21 -39 19 -196 -2 -130 -6 -172 -18 -190 -19
-30 -33 -22 -33 19 0 20 -8 39 -20 50 -11 9 -20 27 -20 39 0 37 -32 128 -68
193 -11 21 -16 57 -17 124 -2 83 0 94 17 99 20 5 23 24 7 53 -8 15 -14 18 -24
9 -7 -6 -11 -19 -8 -30 3 -10 -2 -29 -11 -42 -9 -12 -16 -32 -16 -45 0 -12 -4
-25 -10 -28 -5 -3 -10 -32 -10 -64 0 -32 -7 -78 -15 -101 -8 -24 -15 -77 -15
-121 0 -46 -4 -79 -10 -79 -5 0 -10 7 -10 16 0 9 -9 32 -21 51 -20 32 -22 62
-8 113 3 10 -5 16 -23 18 l-28 3 0 -70 c0 -38 -4 -72 -9 -75 -4 -3 -11 -27
-14 -54 -9 -76 -37 -156 -51 -142 -10 10 -13 210 -4 382 2 40 -1 69 -7 70 -6
2 -11 -23 -13 -54 -2 -32 -6 -58 -11 -58 -17 0 -51 48 -57 80 -11 69 -15 80
-24 80 -15 0 -12 -86 5 -158 16 -68 14 -82 -13 -82 -20 1 -62 63 -62 93 -1 12
-7 38 -14 58 -9 25 -9 40 -2 52 8 12 7 20 -1 28 -10 10 -15 7 -23 -12 -6 -13
-22 -42 -35 -64 -13 -22 -24 -50 -24 -62 -1 -12 -6 -25 -12 -28 -5 -4 -15 -18
-20 -33 -12 -32 -25 -19 -32 35 -4 33 1 54 24 100 37 74 38 97 4 91 l-25 -5 6
78 c5 52 3 79 -3 79 -12 0 -23 -23 -23 -50 0 -9 -6 -23 -14 -29 -8 -7 -16 -28
-19 -49 -8 -69 -29 -157 -38 -167 -5 -5 -9 -22 -9 -38 0 -31 -35 -97 -51 -97
-12 0 -17 30 -23 150 -2 58 -8 113 -12 123 -13 34 -24 -4 -24 -80 0 -39 -4
-74 -9 -77 -13 -8 -49 43 -85 122 -18 39 -36 34 -36 -9 0 -17 -5 -29 -13 -29
-16 0 -57 42 -57 58 0 7 -4 12 -10 12 -13 0 -13 -43 0 -56 6 -6 13 -40 17 -77
10 -107 -40 -185 -59 -92 -5 21 -13 43 -18 50 -9 11 -29 103 -34 158 -2 15
-13 38 -25 51 -12 13 -26 40 -32 60 -6 21 -15 35 -22 33 -17 -6 -12 -89 8
-139 19 -49 33 -262 17 -272 -19 -12 -41 5 -53 41 -6 20 -25 55 -41 78 -26 37
-31 54 -35 129 -4 59 -10 86 -18 86 -17 0 -25 -20 -41 -100 -15 -75 -33 -145
-45 -178 -14 -36 -46 -9 -54 46 -7 46 -22 89 -56 154 -10 20 -19 46 -19 56 0
11 -7 25 -15 32 -8 7 -15 18 -15 26 0 7 -9 21 -19 31 -10 10 -20 27 -22 37 -2
11 -10 21 -16 24 -19 6 -16 -45 2 -52 17 -6 21 -86 4 -86 -5 0 -23 14 -39 32
-16 17 -32 29 -36 25 -4 -4 7 -21 25 -39 17 -17 31 -37 31 -44 0 -7 6 -19 13
-26 7 -7 23 -33 36 -58 19 -36 24 -67 30 -180 7 -125 6 -138 -13 -180 -12 -25
-35 -60 -53 -77 -63 -64 -81 -41 -89 108 -5 92 -11 125 -31 168 -20 43 -24 66
-21 119 2 44 -1 67 -9 69 -7 3 -13 -9 -15 -29 -2 -28 -7 -34 -30 -36 -26 -3
-28 0 -28 30 0 18 7 46 15 61 11 22 12 33 3 52 -6 14 -15 25 -19 25 -9 0 -19
-26 -19 -51 0 -10 -4 -19 -9 -19 -6 0 -13 -21 -16 -47 -10 -69 -36 -144 -48
-140 -6 2 -15 19 -20 38 -5 19 -13 38 -18 44 -13 13 -11 89 2 119 7 14 8 33 4
43 -6 16 -9 14 -17 -9 -13 -36 -24 -35 -44 3 -22 44 -33 22 -27 -52 6 -61 -2
-99 -17 -83 -5 5 -11 45 -14 88 -7 86 -10 96 -28 78 -8 -8 -8 -71 1 -239 6
-126 8 -243 5 -261 -7 -36 -28 -42 -44 -12 -16 30 -32 312 -20 345 11 30 -7
115 -25 115 -13 0 -55 -91 -55 -120 0 -10 -4 -29 -9 -42 -5 -13 -12 -35 -15
-50 -4 -16 -10 -28 -15 -28 -4 0 -20 27 -35 60 -33 73 -60 82 -50 18 4 -24 13
-61 20 -83 23 -70 28 -165 10 -207 -9 -20 -20 -39 -25 -42 -5 -3 -21 13 -37
37 -16 23 -42 55 -57 71 -25 26 -28 34 -22 70 10 68 11 126 0 128 -5 2 -11
-19 -13 -46 -2 -36 -9 -54 -25 -66 -12 -10 -25 -16 -28 -14 -4 2 -10 28 -14
59 -7 58 -18 74 -39 56 -17 -15 -30 13 -17 37 14 29 2 42 -32 35 -44 -8 -50
-16 -36 -46 13 -28 6 -68 -15 -90 -8 -7 -26 -37 -40 -65 -35 -70 -65 -68 -80
5 -4 17 -14 37 -22 44 -8 6 -14 19 -14 28 0 9 -7 27 -16 40 -12 17 -15 36 -11
74 4 29 4 46 1 40 -14 -31 -60 0 -86 57 l-12 25 -4 -25 c-2 -13 1 -26 7 -28 6
-2 13 -19 17 -38 3 -19 10 -37 15 -40 12 -7 11 -61 -1 -69 -5 -3 -10 -14 -10
-24 0 -10 -9 -30 -21 -45 -18 -23 -23 -25 -37 -14 -30 26 -42 76 -42 182 l0
105 27 3 c34 4 42 32 13 48 -18 9 -23 7 -38 -19 -9 -16 -26 -35 -37 -40 -37
-20 -57 -36 -106 -86 -57 -59 -74 -56 -95 15 -20 72 -39 118 -57 138 -17 18
-17 22 2 71 l21 51 -33 -18 c-18 -9 -41 -24 -51 -32 -43 -34 -156 -152 -187
-194 -18 -25 -36 -46 -41 -46 -16 0 -49 41 -55 70 -4 20 -13 32 -29 36 -12 3
-25 12 -28 20 -6 16 -36 19 -36 4 0 -5 9 -14 20 -20 22 -12 28 -64 9 -75 -5
-4 -15 -17 -20 -28 -5 -12 -19 -38 -30 -57 -16 -27 -19 -38 -10 -52 16 -26 14
-68 -4 -68 -8 0 -15 7 -15 15 0 8 -7 15 -15 15 -21 0 -19 -16 6 -41 17 -17 20
-28 14 -57 -12 -68 -37 -63 -39 6 -1 30 -5 37 -25 42 -24 5 -49 37 -73 93 -18
41 -28 33 -28 -22 0 -100 -19 -106 -49 -16 -22 70 -28 150 -10 160 19 12 5 40
-21 40 -20 0 -26 6 -30 35 -7 43 -18 62 -31 55 -14 -9 -11 -71 6 -110 13 -33
12 -38 -12 -85 -14 -28 -32 -50 -38 -50 -13 0 -27 29 -50 99 -32 99 -49 -8
-19 -122 15 -58 14 -98 -1 -174 -20 -94 -81 26 -85 165 0 6 -5 12 -11 12 -9 0
-10 -21 -6 -73 5 -56 3 -79 -8 -93 -13 -19 -14 -19 -20 1 -21 66 -85 174 -103
175 -8 0 -11 -7 -8 -17 14 -52 16 -82 6 -88 -16 -10 -40 14 -40 39 0 12 -7 32
-16 44 -13 20 -14 32 -5 86 6 34 11 70 11 79 0 26 -19 20 -26 -8 -7 -30 -28
-28 -32 3 -2 12 -12 26 -22 32 -17 9 -18 3 -13 -130 4 -95 3 -140 -5 -140 -6
0 -13 37 -16 88 -9 123 -15 154 -29 149 -9 -3 -12 -51 -12 -173 -1 -159 -15
-264 -37 -264 -12 0 -48 52 -48 70 0 10 -9 29 -20 43 -24 30 -26 89 -5 107 18
15 20 63 3 58 -7 -3 -15 -13 -17 -24 -2 -10 -12 -27 -22 -37 -10 -10 -19 -22
-19 -27 0 -6 -5 -10 -11 -10 -7 0 -9 24 -5 73 11 141 11 160 1 164 -5 1 -20
-32 -33 -75 -31 -104 -49 -142 -67 -142 -8 0 -15 5 -15 11 0 5 -4 7 -10 4 -6
-4 -4 -15 6 -30 12 -18 15 -43 11 -107 -7 -132 -36 -220 -52 -155 -15 61 -45
245 -45 272 0 17 6 39 14 50 21 30 7 99 -20 103 -23 3 -34 -19 -34 -70 0 -15
-4 -29 -9 -32 -12 -8 -21 29 -21 91 0 39 -4 55 -17 62 -17 9 -37 42 -62 105
-6 16 -15 25 -19 21 -4 -4 -7 -77 -8 -163 0 -143 -12 -254 -29 -281 -12 -20
-45 -12 -55 13 -5 13 -14 27 -19 31 -14 8 -14 72 0 80 17 11 4 30 -20 30 -18
0 -31 14 -57 60 -19 33 -37 67 -41 75 -3 8 -12 22 -20 30 -62 68 -75 81 -79
77 -7 -7 7 -37 17 -37 5 0 9 -8 9 -17 0 -9 6 -24 14 -32 16 -17 41 -83 58
-146 5 -22 16 -54 24 -72 19 -42 19 -123 0 -123 -22 0 -33 21 -45 85 -7 33
-18 74 -25 90 -8 17 -23 51 -35 78 -11 26 -21 59 -21 72 0 14 -9 33 -20 42
-22 20 -28 78 -7 87 8 3 6 10 -8 21 -19 15 -20 15 -23 -22 -2 -21 4 -79 13
-128 15 -81 15 -98 2 -161 -9 -43 -13 -99 -10 -141 4 -52 1 -77 -11 -101 -9
-17 -16 -43 -16 -57 0 -31 -37 -85 -44 -64 -2 8 -9 48 -16 89 -7 41 -16 98
-21 125 -5 28 -6 69 -3 91 4 26 2 44 -5 48 -7 5 -11 -3 -11 -21 0 -16 -9 -36
-20 -46 -17 -14 -20 -29 -20 -94 0 -42 -4 -90 -10 -107 -5 -17 -12 -44 -16
-61 l-6 -30 -10 25 c-12 29 -14 275 -3 368 4 39 3 62 -3 62 -14 0 -22 -26 -22
-71 0 -21 -4 -39 -10 -39 -5 0 -12 -17 -15 -37 -4 -21 -9 -45 -11 -53 -9 -27
-22 10 -29 84 -8 86 -14 108 -26 101 -5 -4 -9 -50 -9 -104 0 -79 -3 -101 -16
-112 -14 -12 -20 -9 -41 16 -13 17 -28 39 -34 50 -5 11 -15 28 -21 39 -10 15
-10 19 -1 23 14 5 18 43 5 43 -4 0 -13 -5 -20 -12 -10 -10 -22 -3 -57 32 -24
25 -44 51 -45 58 0 17 -30 15 -30 -3 0 -7 6 -18 13 -22 6 -4 28 -40 48 -79 35
-69 35 -72 18 -93 -19 -24 -39 -21 -39 6 0 9 -16 35 -35 59 -19 23 -35 47 -35
53 0 6 -7 11 -15 11 -19 0 -20 -24 -1 -39 22 -18 26 -72 8 -103 -16 -27 -9
-55 8 -29 4 8 15 11 23 8 10 -4 16 -29 19 -92 7 -105 0 -140 -30 -140 -11 0
-24 -4 -28 -8 -29 -28 -42 59 -20 133 9 30 16 60 16 67 0 24 -29 14 -36 -13
-4 -16 -12 -24 -23 -22 -13 3 -17 22 -21 113 -5 113 -22 148 -28 58 -6 -82
-57 -114 -68 -43 -4 22 -10 40 -15 40 -14 0 -11 -49 6 -104 20 -64 20 -140 0
-156 -8 -7 -15 -23 -15 -37 0 -14 -4 -22 -11 -18 -5 4 -8 12 -6 18 3 7 -5 22
-17 35 -15 17 -22 41 -26 85 -4 54 -8 62 -25 62 -18 0 -20 -6 -17 -65 4 -63
-19 -150 -38 -150 -10 0 -20 52 -20 101 0 21 -7 59 -16 85 -17 51 -9 84 29
112 9 7 17 19 17 27 0 22 -22 29 -35 12 -7 -10 -16 -17 -21 -17 -12 1 -54 67
-54 85 0 21 -11 45 -21 45 -14 0 -10 -56 7 -100 18 -45 18 -45 -30 -140 -15
-29 -22 -56 -19 -76 3 -18 0 -35 -6 -38 -6 -4 -11 -20 -11 -35 0 -15 -7 -36
-15 -47 -8 -10 -15 -28 -15 -40 0 -11 -6 -29 -14 -40 -13 -17 -16 -17 -30 -4
-11 11 -18 56 -26 160 -12 166 -18 202 -31 194 -5 -3 -9 -54 -9 -115 0 -129
-4 -132 -89 -69 -29 22 -57 40 -62 40 -19 0 0 355 21 405 25 57 19 146 -7 113
-6 -7 -13 -24 -16 -38 -6 -27 -23 -78 -44 -127 -7 -17 -13 -45 -13 -62 0 -17
-4 -50 -10 -73 -5 -24 -12 -59 -15 -80 -11 -75 -65 -52 -65 28 0 23 -3 49 -6
58 -7 19 -24 21 -24 3 0 -7 -5 -18 -11 -24 -17 -17 -59 13 -59 43 0 24 -15 30
-37 16 -7 -4 -30 -31 -52 -60 -42 -57 -85 -95 -95 -85 -3 3 -6 38 -6 77 0 69
-11 108 -26 93 -9 -9 -34 -73 -41 -107 -3 -14 -11 -31 -17 -39 -6 -7 -14 -39
-18 -70 -7 -57 -15 -107 -24 -148 -5 -28 -39 -31 -49 -5 -14 35 -27 128 -26
184 1 64 -11 79 -40 52 -16 -14 -19 -26 -14 -49 13 -62 0 -174 -21 -181 -47
-14 -47 -14 -34 -29 7 -8 9 -23 5 -32 -6 -17 -7 -17 -18 2 -13 24 -19 71 -20
180 0 71 5 111 29 243 4 20 2 32 -5 32 -6 0 -11 -6 -11 -13 0 -8 -9 -22 -21
-33 -18 -16 -20 -26 -14 -72 5 -37 3 -58 -7 -69 -7 -9 -15 -38 -18 -66 -3 -28
-9 -52 -15 -54 -12 -4 -55 69 -55 94 0 10 7 27 15 37 8 11 15 26 15 33 0 21
-21 15 -27 -7 -6 -23 -11 -24 -48 -10 -20 8 -26 15 -22 30 3 11 1 23 -4 26
-13 8 -69 -51 -69 -73 -1 -15 -2 -16 -10 -3 -5 9 -11 52 -15 95 -8 107 -14
145 -25 145 -5 0 -11 -9 -15 -19 -3 -11 -16 -35 -29 -54 -13 -18 -26 -54 -30
-79 -4 -28 -17 -57 -31 -72 -13 -15 -36 -47 -51 -71 -43 -74 -53 -62 -56 73
-2 71 -7 116 -13 115 -5 -1 -11 -10 -13 -20 -6 -43 -38 -126 -49 -130 -9 -4
-13 -30 -13 -83 0 -63 -3 -80 -19 -94 -22 -20 -30 -12 -42 43 -4 20 -14 54
-23 76 -8 22 -15 69 -16 105 0 36 -5 72 -10 80 -21 32 -30 -13 -23 -122 3 -60
2 -108 -2 -108 -16 0 -54 51 -60 82 -13 64 -16 72 -26 57 -5 -8 -9 -31 -9 -51
0 -54 -16 -47 -34 16 -20 68 -20 64 7 68 23 3 34 35 22 66 -6 15 -9 14 -25 -5
-21 -27 -36 -29 -44 -8 -10 28 -26 15 -26 -21 0 -29 -8 -43 -41 -75 -22 -21
-47 -39 -54 -39 -15 0 -25 -22 -25 -55 0 -13 -6 -30 -14 -37 -7 -8 -17 -24
-21 -37 -5 -17 -12 -21 -28 -17 -12 3 -25 6 -29 6 -5 0 -8 12 -8 26 0 23 12
52 41 104 5 8 13 25 18 37 6 11 15 24 21 28 5 3 8 11 4 16 -13 22 -129 -134
-158 -214 -10 -26 -23 -53 -30 -60 -16 -16 -46 -76 -46 -92 0 -17 -39 -65 -52
-65 -6 0 -8 12 -4 31 4 24 0 38 -21 65 -21 29 -27 49 -31 110 -3 52 -9 77 -19
81 -7 3 -20 17 -28 32 -13 24 -14 25 -15 4 0 -12 4 -24 9 -27 18 -12 22 -91 6
-135 -8 -24 -15 -63 -15 -87 0 -23 -4 -45 -9 -48 -15 -9 -49 56 -56 104 -9 61
-64 206 -110 292 -10 19 -35 25 -35 8 0 -6 6 -23 14 -38 8 -17 10 -35 5 -47
-4 -11 -8 -36 -8 -57 -1 -20 -7 -38 -13 -41 -7 -2 -45 29 -85 70 -68 68 -114
95 -99 57 3 -9 6 -24 6 -35 0 -10 13 -25 30 -34 27 -14 30 -21 30 -61 0 -30
-5 -46 -15 -50 -8 -4 -15 -17 -15 -31 0 -14 -6 -37 -14 -51 -8 -15 -18 -40
-21 -57 -6 -29 -7 -29 -21 -11 -8 12 -15 47 -16 85 -2 96 1 121 17 138 19 19
19 53 0 53 -22 0 -38 36 -25 60 6 11 15 20 20 20 19 0 10 29 -10 35 -11 3 -20
11 -20 16 0 6 -4 7 -10 4 -5 -3 -9 -38 -8 -78 1 -72 -24 -187 -41 -187 -15 0
-51 85 -60 139 -4 27 -13 56 -18 63 -6 7 -14 29 -18 48 -4 19 -14 44 -21 55
-8 11 -14 27 -14 36 0 9 -9 28 -20 42 -11 14 -20 32 -20 41 0 9 -7 16 -16 16
-18 0 -16 -18 10 -85 8 -22 15 -55 16 -73 0 -18 6 -45 13 -60 14 -28 40 -196
41 -270 1 -37 -3 -47 -29 -65 -16 -12 -42 -34 -57 -50 -15 -16 -31 -26 -36
-23 -12 7 -26 128 -26 225 -1 46 -5 76 -12 78 -12 4 -14 -19 -32 -314 -4 -61
-11 -115 -15 -120 -12 -11 -47 34 -47 61 0 12 -6 28 -12 34 -9 9 -10 17 -1 30
6 10 14 36 17 58 8 48 -9 70 -48 60 -21 -5 -28 1 -50 38 -21 37 -26 57 -26
115 0 54 -3 71 -14 71 -14 0 -26 -29 -26 -68 0 -30 -40 -47 -57 -24 -7 8 -16
13 -19 9 -4 -3 8 -25 25 -49 33 -45 40 -96 22 -154 -5 -16 -13 -60 -16 -98 -4
-37 -11 -64 -15 -60 -10 10 -30 123 -30 174 -1 22 -10 46 -25 65 -28 34 -27
37 -29 -87 -1 -76 -4 -90 -23 -110 -12 -12 -25 -19 -28 -16 -3 3 -9 65 -13
137 -8 131 -24 185 -37 125 -4 -16 -9 -35 -11 -42 -7 -23 -21 -4 -28 37 -3 23
-13 41 -22 45 -15 6 -16 -3 -10 -88 4 -55 2 -97 -3 -100 -5 -4 -25 12 -44 34
-36 43 -56 44 -32 1 16 -28 45 -178 45 -229 0 -26 -4 -32 -21 -32 -31 0 -59
19 -59 40 0 11 -9 43 -21 71 -18 46 -19 60 -10 118 7 42 17 71 28 78 13 10 14
16 5 25 -15 15 -16 64 -2 73 13 8 13 45 0 45 -6 0 -15 -11 -20 -24 -5 -13 -12
-25 -17 -27 -4 -2 -17 -22 -28 -43 -24 -47 -36 -50 -49 -14 -8 22 -3 41 22 99
35 77 37 89 22 89 -5 0 -10 -6 -10 -12 0 -19 -67 -88 -84 -88 -11 0 -16 -10
-16 -30 0 -48 -66 -158 -83 -141 -6 6 -13 75 -15 153 -4 142 -15 195 -33 167
-5 -8 -9 -76 -9 -151 0 -76 -3 -138 -6 -138 -24 0 -42 25 -48 64 -7 43 -20 65
-33 52 -3 -3 0 -76 7 -161 12 -151 7 -276 -10 -259 -5 5 -14 49 -20 98 -6 48
-17 113 -25 144 -8 31 -15 68 -15 84 0 15 -5 30 -11 34 -22 13 -29 -22 -23
-103 6 -82 -19 -263 -37 -263 -4 0 -11 17 -15 38 -3 20 -12 46 -19 57 -19 31
-35 118 -42 234 -3 58 -10 115 -16 126 -6 11 -13 58 -16 104 -4 54 -10 86 -18
89 -9 2 -13 -7 -13 -28 0 -32 -23 -116 -42 -154 -11 -21 -26 -101 -35 -189 -6
-60 -17 -77 -36 -58 -17 17 -10 178 8 204 8 12 15 38 15 59 0 20 4 39 9 42 5
3 12 18 16 33 3 16 13 36 22 45 14 16 11 38 -7 38 -5 0 -19 -17 -31 -37 -13
-21 -29 -44 -36 -51 -7 -7 -13 -18 -13 -25 0 -6 -10 -31 -22 -55 l-21 -45 -16
32 c-18 34 -31 32 -31 -5 0 -32 -18 -40 -29 -12 -10 26 -4 75 10 84 5 3 9 29
9 57 1 29 7 70 15 92 8 22 15 47 15 56 0 9 7 22 15 29 8 7 15 23 15 37 0 13 7
31 15 40 8 8 13 19 10 24 -9 14 -25 11 -25 -6 0 -7 -6 -18 -13 -22 -20 -12
-117 -216 -117 -246 0 -9 -4 -19 -10 -22 -5 -3 -10 -20 -10 -37 0 -16 -6 -44
-14 -61 -16 -35 -21 -63 -37 -187 -12 -91 -12 -92 -34 -130 -18 -30 -17 -40
-18 152 -1 97 -6 158 -12 158 -5 0 -11 -17 -13 -37 -1 -21 -5 -45 -8 -53 -8
-23 -24 8 -24 47 0 18 -8 40 -18 50 -11 10 -22 27 -26 37 -5 15 -9 17 -18 8
-8 -8 -9 -18 -1 -34 20 -41 32 -131 34 -238 1 -151 -3 -299 -8 -270 -3 14 -11
32 -19 41 -8 9 -21 49 -28 89 -8 39 -19 77 -25 83 -14 14 -15 94 -1 102 6 3
10 18 10 31 0 23 -3 25 -30 19 -27 -6 -30 -4 -30 17 0 13 -6 32 -14 43 -7 11
-19 37 -25 57 -7 20 -19 42 -27 48 -7 7 -14 23 -14 36 0 13 -4 24 -9 24 -20 0
-22 -21 -6 -53 18 -35 32 -165 21 -194 -7 -16 -9 -15 -22 10 -23 44 -37 34
-30 -22 6 -49 -5 -101 -23 -101 -12 0 -58 78 -67 114 -3 15 -12 30 -20 33 -7
2 -18 27 -23 55 -6 27 -17 59 -24 71 -6 12 -16 47 -22 77 -11 62 -24 70 -38
25 -5 -16 -21 -42 -35 -58 -24 -25 -26 -33 -24 -117 2 -79 0 -92 -18 -110 -12
-12 -25 -18 -30 -15 -15 9 -12 65 5 81 8 9 15 24 15 35 0 35 -25 19 -49 -31
-13 -28 -28 -50 -33 -50 -4 0 -8 -9 -8 -20 0 -27 -42 -120 -51 -114 -4 2 -11
26 -14 52 -4 26 -9 55 -12 66 -10 36 -23 -6 -23 -76 0 -37 -4 -69 -9 -72 -5
-3 -19 3 -32 13 -23 18 -24 26 -27 169 -3 103 0 156 8 172 9 16 9 25 1 33 -8
8 -11 4 -11 -15 0 -14 -6 -28 -14 -31 -8 -3 -17 -21 -21 -39 -9 -46 -26 -78
-41 -78 -7 0 -25 20 -39 43 -30 52 -34 130 -8 175 9 16 13 36 10 46 -10 26
-27 9 -27 -29 0 -20 -6 -35 -15 -39 -8 -3 -15 -17 -15 -31 0 -33 -26 -44 -45
-19 -13 18 -14 18 -15 2 0 -10 4 -18 9 -18 5 0 12 -12 16 -27 7 -29 7 -224 0
-232 -8 -7 -45 43 -51 69 -12 52 -16 60 -24 60 -4 0 -11 -16 -15 -36 -3 -20
-13 -43 -21 -51 -8 -8 -14 -23 -14 -34 0 -23 -13 -25 -30 -4 -7 8 -19 15 -26
15 -8 0 -14 10 -14 25 0 30 -4 31 -30 5 -14 -14 -20 -36 -22 -80 -2 -33 -7
-60 -13 -61 -5 0 -31 41 -58 91 -47 91 -48 97 -30 163 11 43 57 8 67 -52 7
-43 24 -53 45 -27 16 19 3 43 -51 102 l-40 44 18 27 c20 30 44 73 44 79 0 2
-19 4 -42 4 -35 -1 -51 -8 -85 -39 -48 -44 -59 -89 -23 -98 19 -5 29 -33 12
-33 -5 0 -39 29 -76 64 -37 35 -92 81 -122 102 -29 22 -56 47 -60 57 -4 13
-12 17 -26 14 -11 -3 -27 1 -35 9 -8 8 -19 12 -23 9 -14 -8 0 -35 17 -35 13 0
14 -9 8 -47 -4 -27 -10 -55 -15 -63 -4 -8 -11 -36 -14 -62 -4 -26 -11 -50 -17
-53 -5 -4 -9 -14 -9 -23 0 -34 -15 -44 -43 -31 -15 7 -27 15 -27 19 0 4 -19
20 -42 36 -24 16 -45 31 -48 34 -9 10 -63 31 -67 26 -3 -2 3 -32 13 -66 16
-58 16 -65 0 -133 -16 -66 -38 -107 -57 -107 -4 0 -12 12 -18 28 -7 15 -18 38
-26 52 -20 34 -20 116 0 124 19 7 21 70 3 64 -7 -3 -14 -16 -16 -31 -2 -17
-14 -33 -33 -44 -26 -15 -29 -23 -29 -66 0 -27 -6 -61 -14 -75 -7 -15 -21 -52
-31 -82 -23 -72 -28 -76 -54 -43 -104 135 -103 134 -98 170 5 29 3 36 -13 40
-11 3 -22 14 -26 25 -6 20 -7 20 -30 -5 -13 -15 -24 -37 -24 -51 0 -14 -5 -37
-11 -53 -6 -15 -14 -46 -17 -67 -9 -49 -25 -56 -37 -15 -14 44 -30 32 -30 -23
0 -26 -6 -53 -12 -59 -17 -17 -16 -34 0 -48 10 -8 16 -50 20 -143 5 -112 3
-136 -11 -160 -9 -15 -19 -28 -23 -28 -21 0 -26 182 -8 255 7 27 7 50 2 60 -8
13 -13 10 -34 -21 -31 -48 -47 -53 -54 -17 -4 15 -11 40 -16 54 -10 25 1 207
17 287 4 21 2 32 -5 32 -6 0 -11 -6 -11 -14 0 -7 -6 -19 -14 -25 -8 -7 -17
-30 -21 -52 -4 -22 -13 -43 -21 -46 -21 -8 -44 16 -44 44 0 13 -8 40 -19 61
-30 60 -32 95 -11 151 11 28 29 75 40 103 24 62 25 78 7 78 -8 0 -22 -18 -32
-39 -10 -22 -23 -42 -30 -45 -7 -2 -20 -27 -30 -55 -9 -28 -20 -51 -24 -51 -4
0 -13 -19 -20 -42 -7 -23 -17 -53 -23 -67 l-10 -26 -11 22 c-18 32 -31 28 -37
-12 -3 -20 -9 -36 -15 -36 -17 1 -18 79 -1 103 18 25 21 65 7 87 -14 22 -31 3
-31 -34 0 -28 -5 -35 -30 -44 l-30 -10 0 -99 c0 -83 -3 -101 -16 -106 -23 -9
-44 12 -44 43 0 14 -7 39 -15 54 -8 15 -17 43 -21 62 -3 18 -12 36 -19 38 -6
3 -15 19 -18 36 -4 17 -11 31 -17 31 -15 0 -11 -62 5 -84 15 -20 22 -136 8
-136 -3 0 -15 8 -25 17 -17 16 -20 16 -36 -1 -14 -14 -18 -45 -23 -184 -4 -92
-4 -195 -1 -228 6 -73 -4 -137 -21 -131 -6 2 -17 25 -24 53 -6 27 -17 50 -24
53 -22 7 -79 77 -79 97 0 6 -6 17 -14 23 -32 27 -25 313 10 368 8 12 14 29 14
36 0 8 7 20 15 27 19 16 20 50 0 50 -7 0 -18 -8 -24 -17 -9 -17 -10 -17 -16
-1 -4 9 -2 25 4 37 13 24 14 71 2 71 -5 0 -14 -12 -20 -27 -6 -16 -15 -35 -20
-43 -5 -8 -17 -42 -27 -75 -9 -33 -21 -65 -26 -72 -5 -6 -11 -32 -13 -58 -3
-25 -9 -54 -15 -65 -5 -10 -10 -30 -10 -44 0 -64 -56 -29 -66 43 -3 25 -15 60
-25 77 -11 17 -19 43 -19 57 0 27 -38 96 -54 97 -5 0 -5 -26 -1 -57 11 -91 7
-142 -14 -183 -18 -34 -18 -49 -11 -246 5 -114 6 -212 4 -216 -3 -4 -25 -5
-49 -1 l-45 6 0 -2267 0 -2266 22000 0 22000 0 0 2175 c0 1927 -2 2175 -15
2175 -19 0 -19 9 0 345 8 143 15 286 15 318 0 58 -15 77 -26 33 -3 -14 -14
-32 -25 -42 -10 -9 -19 -24 -19 -32 0 -19 -49 -143 -61 -156 -5 -6 -9 -18 -9
-29 0 -10 -5 -27 -10 -37 -9 -16 -14 -18 -34 -9 -43 20 -57 60 -55 158 2 70
-1 95 -14 115 -33 49 -54 21 -35 -48 6 -24 8 -51 5 -60 -6 -15 -9 -16 -27 -3
-23 16 -84 95 -136 175 -18 28 -38 52 -44 52 -5 0 -10 7 -10 16 0 8 -7 23 -16
31 -12 12 -14 27 -9 59 4 26 2 45 -5 49 -18 11 -40 -16 -40 -51 0 -18 -4 -35
-9 -38 -5 -4 -12 -24 -16 -45 -4 -22 -13 -45 -21 -51 -7 -7 -16 -28 -19 -49
-11 -67 -15 -81 -25 -81 -6 0 -10 31 -10 70 0 53 -3 70 -14 70 -15 0 -22 -28
-32 -137 -4 -40 -11 -73 -17 -73 -17 0 -2 231 18 270 12 23 14 35 6 43 -8 8
-13 2 -17 -21 -4 -18 -12 -32 -19 -32 -6 0 -17 -11 -23 -25 -15 -32 -28 -32
-36 0 -4 14 -11 25 -16 25 -13 0 -13 -47 2 -110 10 -44 9 -56 -5 -83 -9 -18
-21 -44 -26 -59 -6 -16 -16 -28 -22 -28 -7 0 -10 -10 -6 -27 5 -29 -12 -129
-26 -151 -14 -22 -27 -2 -27 41 1 63 15 124 34 142 10 10 16 33 16 61 0 49
-14 57 -32 19 -6 -14 -15 -25 -19 -25 -4 0 -12 -12 -18 -28 -6 -15 -15 -34
-21 -42 -5 -8 -15 -28 -20 -43 -18 -51 -30 -18 -30 81 0 119 -14 112 -31 -15
-8 -69 -17 -97 -31 -110 -19 -17 -20 -17 -35 2 -11 15 -13 33 -8 70 3 28 8
103 10 168 4 91 2 118 -8 114 -6 -2 -16 -19 -22 -38 -13 -42 -43 -99 -53 -99
-4 0 -16 13 -27 28 -17 23 -20 40 -18 120 3 76 0 92 -12 92 -8 0 -15 -9 -15
-19 0 -11 -4 -31 -10 -46 -8 -22 -12 -24 -29 -13 -29 18 -37 3 -18 -36 20 -43
9 -132 -24 -197 -19 -39 -23 -42 -30 -24 -4 11 -8 46 -8 78 -1 60 -16 76 -27
30 -4 -16 -12 -35 -19 -43 -7 -8 -16 -25 -19 -37 -6 -17 -15 -23 -36 -23 -24
0 -31 5 -36 28 -4 15 -10 32 -14 37 -4 6 -17 44 -29 85 -13 41 -27 86 -32 99
-5 13 -7 31 -4 41 3 10 -2 26 -12 36 -17 17 -18 17 -27 -9 -6 -15 -18 -29 -27
-32 -10 -3 -26 -24 -36 -46 -23 -50 -55 -61 -83 -28 -10 13 -19 29 -20 36 0
10 -22 33 -102 107 -16 14 -28 30 -28 35 0 12 -68 46 -76 38 -3 -3 4 -8 15
-12 12 -3 21 -15 21 -25 0 -10 13 -29 28 -42 27 -23 59 -69 110 -161 26 -47
28 -63 7 -71 -17 -6 -20 -51 -5 -61 15 -9 12 -51 -4 -64 -8 -6 -17 -32 -21
-56 -3 -25 -12 -45 -18 -45 -25 0 -44 72 -63 240 -4 30 -13 64 -20 75 -8 11
-14 40 -14 65 -1 32 -7 53 -25 75 -13 16 -27 26 -31 22 -4 -4 -3 -46 3 -94 10
-85 6 -175 -10 -201 -5 -6 -17 -12 -27 -12 -23 0 -29 -25 -17 -64 7 -21 6 -37
-7 -63 -26 -54 -41 -37 -38 43 2 55 7 72 23 84 17 14 18 20 9 44 -10 26 -12
27 -32 14 -13 -9 -26 -30 -29 -47 -8 -40 -17 -50 -29 -31 -9 14 -15 90 -12
133 1 10 -3 27 -9 38 -8 16 -7 25 5 38 24 26 19 45 -13 58 -26 9 -30 16 -33
57 -2 25 -7 46 -13 46 -14 0 -19 -90 -6 -103 6 -6 11 -21 11 -34 0 -29 -43
-99 -70 -113 -22 -12 -23 -10 -34 40 -29 133 -53 156 -49 49 8 -205 7 -260 -3
-267 -6 -4 -18 -20 -27 -37 l-15 -30 -11 28 c-6 16 -11 34 -11 42 0 21 -17 27
-38 14 -26 -16 -52 -5 -53 23 0 13 -11 43 -24 68 -13 25 -29 55 -34 67 -6 13
-15 23 -21 23 -14 0 -13 -43 2 -58 8 -8 8 -15 -1 -25 -9 -11 -8 -21 4 -43 16
-31 21 -164 6 -164 -22 0 -33 35 -34 104 0 53 -4 77 -14 80 -7 3 -13 20 -13
40 0 19 -5 47 -12 61 -8 18 -8 31 0 48 16 33 22 81 12 97 -8 13 -12 12 -24 -5
-17 -24 -26 -17 -35 26 -4 18 -12 34 -18 36 -7 3 -13 -32 -18 -105 -4 -60 -10
-125 -14 -143 l-8 -34 -8 48 c-4 27 -5 82 -3 122 3 41 1 80 -4 87 -17 27 -26
-16 -33 -171 -5 -114 -12 -167 -24 -196 -10 -22 -21 -52 -24 -67 -8 -32 -25
-37 -33 -10 -3 9 -13 35 -21 57 -13 34 -21 54 -40 96 -1 3 7 22 17 42 22 41
26 73 9 79 -9 3 -7 30 6 98 10 52 22 104 26 115 9 20 22 77 38 163 6 29 5 42
-3 39 -6 -2 -14 -20 -17 -41 -3 -20 -11 -42 -18 -49 -6 -6 -11 -27 -11 -47 0
-20 -7 -45 -15 -56 -8 -10 -15 -28 -15 -39 -1 -11 -10 -45 -20 -75 l-19 -55 0
43 c-1 30 -5 42 -16 42 -8 0 -15 -6 -15 -13 0 -7 -9 -29 -20 -50 -11 -20 -20
-42 -20 -48 0 -26 -33 -78 -54 -83 -20 -5 -22 -11 -23 -88 -1 -93 -19 -161
-45 -166 -12 -2 -18 5 -22 30 -31 210 -31 206 -8 261 20 50 21 107 1 107 -21
0 -32 63 -36 205 -2 82 -6 152 -9 154 -11 11 -22 -24 -28 -92 -4 -43 -14 -83
-26 -102 -11 -18 -20 -50 -20 -72 0 -25 -13 -64 -35 -109 -19 -38 -35 -75 -35
-82 0 -7 -8 -25 -18 -40 -10 -15 -23 -36 -28 -47 -6 -11 -20 -20 -30 -20 -17
0 -19 9 -22 84 -2 58 -7 88 -17 95 -8 6 -15 32 -17 59 -4 60 -21 66 -28 8 -6
-50 -24 -65 -34 -26 -12 48 -97 174 -118 175 -5 0 -8 -7 -8 -15 0 -8 4 -15 10
-15 5 0 13 -12 16 -27 4 -16 12 -35 19 -43 7 -8 15 -26 18 -40 3 -14 13 -54
23 -90 22 -88 25 -215 4 -215 -11 0 -15 12 -16 42 0 23 -5 48 -11 55 -6 7 -14
34 -17 60 -4 26 -11 50 -17 53 -5 4 -9 18 -9 33 -1 15 -7 38 -15 52 -8 14 -14
44 -15 68 0 23 -4 42 -9 42 -5 0 -15 2 -23 5 -10 4 -12 -11 -10 -74 3 -60 -1
-95 -16 -143 -11 -35 -23 -98 -27 -141 -3 -43 -8 -84 -12 -92 -8 -22 -23 -18
-23 5 0 13 -13 29 -36 42 l-36 21 6 71 c6 76 -7 124 -20 70 -4 -16 -15 -45
-24 -64 -9 -19 -20 -54 -24 -77 -9 -61 -46 -154 -57 -147 -6 3 -7 18 -4 33 3
15 7 72 9 127 4 116 25 197 63 236 l27 28 -21 22 -22 21 -15 -34 c-8 -19 -24
-45 -34 -58 l-20 -25 -18 40 c-10 21 -20 50 -24 64 -3 16 -13 26 -29 28 -21 3
-22 1 -16 -29 11 -50 -4 -217 -22 -234 -21 -22 -30 -19 -58 22 -18 27 -25 51
-25 85 0 48 -7 57 -26 38 -7 -7 -21 2 -45 30 -38 45 -49 49 -49 20 0 -11 5
-20 10 -20 6 0 10 -14 10 -30 0 -18 6 -33 15 -36 23 -9 19 -61 -5 -69 -27 -9
-40 1 -40 30 0 13 -6 28 -13 32 -8 4 -16 16 -20 26 -3 9 -13 17 -22 17 -12 0
-14 -6 -9 -27 4 -16 11 -35 15 -45 8 -16 -30 -100 -52 -113 -5 -4 -9 -15 -9
-26 0 -11 -11 -31 -24 -44 -30 -30 -58 -24 -94 21 -16 21 -36 34 -49 34 -21 0
-23 4 -23 60 0 53 4 66 35 109 19 26 35 53 35 60 0 6 6 11 14 11 14 0 29 24
19 33 -9 10 -33 -5 -33 -19 0 -9 -11 -14 -29 -14 -25 0 -31 -6 -41 -36 -13
-39 -48 -84 -94 -122 -9 -7 -16 -25 -16 -40 0 -38 -19 -102 -30 -102 -15 0
-12 96 6 155 8 30 26 70 40 90 13 20 24 40 24 44 0 5 7 14 15 21 8 7 15 22 15
33 0 16 -14 6 -64 -46 -36 -37 -68 -77 -72 -89 -3 -12 -12 -28 -18 -34 -6 -7
-24 -31 -40 -53 -26 -35 -35 -41 -67 -41 -21 0 -41 -5 -45 -12 -17 -27 -34 27
-34 107 0 81 -9 105 -38 105 -11 0 -13 -9 -9 -40 3 -25 -1 -56 -12 -85 -22
-59 -29 -63 -35 -24 -22 150 -26 164 -55 239 -3 8 -7 -13 -9 -48 -3 -54 -5
-62 -17 -52 -9 7 -15 30 -15 52 0 25 -5 41 -15 44 -8 4 -15 11 -15 18 0 6 -5
18 -10 26 -9 13 -11 13 -20 0 -5 -8 -7 -25 -4 -37 3 -12 2 -28 -3 -35 -4 -7
-8 -31 -8 -53 0 -30 -4 -40 -17 -43 -10 -2 -18 1 -18 7 0 6 -16 27 -36 48 -20
20 -47 54 -60 75 -31 48 -64 52 -64 8 0 -27 -3 -30 -29 -30 -17 0 -33 4 -36
10 -13 21 -24 8 -30 -37 -8 -63 -21 -93 -39 -93 -21 0 -36 32 -36 77 0 21 -7
61 -16 88 -40 125 -44 142 -44 166 0 15 -7 32 -15 39 -8 7 -15 23 -15 35 0 13
-7 25 -15 29 -9 3 -15 18 -15 36 0 20 -5 30 -15 30 -19 0 -20 -46 -1 -57 15
-9 23 -54 35 -208 4 -55 13 -116 19 -135 23 -67 11 -184 -20 -201 -33 -18 -56
0 -88 66 -17 36 -36 67 -41 70 -5 4 -9 17 -9 29 0 25 -43 61 -60 51 -5 -3 0
-23 12 -46 19 -37 20 -45 9 -95 -12 -52 -30 -69 -47 -43 -3 6 -20 8 -38 5 -62
-12 -92 65 -80 200 6 63 10 78 25 81 18 5 27 51 13 66 -13 13 -34 -7 -34 -33
0 -16 -7 -30 -15 -34 -8 -3 -15 -16 -15 -29 0 -14 -6 -30 -14 -36 -8 -7 -18
-38 -22 -69 -5 -48 -31 -121 -63 -182 -5 -8 -16 -16 -25 -18 -12 -3 -16 4 -16
30 0 19 5 39 11 45 16 16 2 33 -25 33 -20 0 -24 -7 -32 -62 -10 -66 -28 -85
-43 -45 -5 13 -17 27 -25 30 -18 7 -21 39 -6 67 5 10 13 43 16 74 6 46 4 56
-9 56 -18 0 -27 -21 -27 -65 0 -19 -4 -36 -8 -39 -16 -9 -52 52 -52 88 0 19
-5 57 -12 85 -10 44 -9 57 5 87 19 38 22 80 8 89 -6 3 -13 -11 -17 -32 -3 -21
-13 -44 -22 -51 -15 -12 -20 -37 -37 -182 -10 -85 -16 -90 -31 -27 -10 42 -11
64 -3 78 13 25 2 44 -17 28 -8 -6 -14 -15 -14 -20 0 -4 -10 -19 -23 -33 -12
-13 -29 -37 -37 -53 -17 -33 -50 -73 -62 -73 -4 0 -8 17 -8 39 0 36 39 123 61
136 18 12 9 44 -13 47 -25 3 -26 10 -12 102 6 39 4 48 -7 44 -8 -2 -15 -15
-17 -29 -2 -13 -11 -30 -19 -36 -19 -15 -40 -67 -57 -138 -13 -58 -60 -125
-87 -125 -17 0 -19 9 -19 93 0 132 -20 155 -35 41 -3 -27 -8 -60 -11 -74 l-6
-25 -24 28 c-13 15 -24 34 -24 41 0 8 -7 19 -15 26 -8 7 -15 25 -15 41 0 22
-5 29 -20 29 -16 0 -20 -7 -20 -30 0 -18 -5 -30 -13 -30 -16 0 -57 42 -57 58
0 7 -5 12 -11 12 -8 0 -9 -20 -4 -65 6 -56 4 -65 -9 -65 -10 0 -16 9 -16 23
-1 21 -2 20 -16 -6 -8 -15 -19 -25 -23 -23 -8 5 -19 61 -26 134 -2 19 -12 44
-24 56 -12 12 -21 33 -21 47 0 35 -16 57 -31 42 -7 -7 -9 -30 -5 -65 3 -29 9
-86 12 -125 7 -85 2 -90 -66 -69 l-45 13 -3 84 c-3 113 -7 122 -38 84 -13 -16
-24 -37 -24 -45 0 -23 -24 -86 -39 -104 -7 -9 -21 -16 -30 -16 -21 0 -69 55
-78 89 -3 14 -12 35 -19 46 -8 11 -14 28 -14 39 0 25 -39 106 -51 106 -5 0 -9
11 -9 24 0 14 -5 28 -10 31 -16 10 -24 -24 -12 -48 18 -39 21 -68 7 -73 -14
-6 -55 29 -55 46 0 6 -7 10 -15 10 -8 0 -15 -7 -15 -15 0 -8 6 -15 13 -15 13
0 21 -15 68 -124 46 -108 37 -196 -22 -196 -41 0 -108 23 -126 42 -14 16 -17
34 -15 94 2 61 0 74 -13 74 -9 0 -15 -9 -15 -24 0 -24 -23 -41 -41 -30 -14 8
-10 63 7 92 12 21 13 33 5 55 -13 33 -27 28 -36 -12 -3 -16 -12 -35 -20 -41
-7 -6 -16 -27 -20 -46 -6 -36 -41 -110 -55 -119 -11 -7 -40 87 -40 127 1 18 7
44 15 58 16 29 19 60 6 60 -5 0 -13 -9 -16 -20 -9 -29 -25 -25 -38 10 -18 48
-32 29 -37 -50 -3 -46 -10 -75 -17 -78 -10 -3 -13 19 -13 87 0 83 -8 108 -25
81 -4 -6 -10 -76 -15 -156 -8 -152 -19 -184 -54 -171 -13 5 -16 22 -16 77 0
39 5 80 11 92 13 25 2 118 -15 118 -11 0 -66 -96 -66 -115 0 -4 -12 -33 -27
-64 l-26 -56 -23 49 c-12 27 -25 57 -27 67 -3 11 -11 19 -18 19 -9 0 -11 -23
-6 -95 l5 -94 -31 6 c-69 13 -76 19 -83 73 -7 51 -23 63 -34 24 -7 -28 -47
-80 -55 -72 -3 3 -1 15 6 26 10 16 9 24 -10 51 -12 17 -30 31 -40 31 -14 0
-16 7 -13 36 l4 35 -38 -3 -39 -3 0 -45 c0 -43 -20 -90 -39 -90 -5 0 -14 -7
-20 -15 -17 -24 -78 2 -70 29 5 15 2 18 -15 13 -15 -4 -26 2 -41 23 -25 35
-36 85 -21 94 6 4 11 16 11 28 0 18 -2 19 -16 7 -14 -11 -18 -10 -30 6 -7 11
-17 25 -22 31 -5 6 -13 21 -17 33 -5 17 -10 20 -18 12 -8 -8 -7 -19 6 -40 9
-16 17 -36 17 -45 0 -9 6 -25 12 -36 10 -16 10 -24 1 -38 -7 -9 -19 -30 -26
-47 -8 -16 -22 -37 -32 -45 -16 -13 -20 -12 -41 15 -20 25 -24 42 -24 95 0 36
3 88 6 117 6 49 8 52 38 55 23 2 31 8 31 23 0 29 -47 27 -60 -2 -5 -13 -14
-23 -20 -23 -6 0 -27 -8 -46 -18 -34 -17 -48 -28 -87 -62 -42 -38 -50 -42 -70
-31 -13 7 -22 25 -25 53 -8 62 -32 141 -45 146 -18 6 -14 29 12 77 l25 43 -40
-17 c-22 -10 -46 -24 -52 -30 -6 -6 -18 -11 -27 -11 -9 0 -64 -45 -123 -101
-94 -88 -109 -99 -127 -89 -15 8 -20 21 -20 48 0 40 -14 62 -40 62 -8 0 -28
16 -44 35 -16 19 -33 32 -37 29 -11 -6 23 -64 39 -64 19 0 14 -39 -10 -79 -27
-43 -72 -91 -87 -91 -17 0 -13 -30 4 -36 8 -4 15 -16 15 -28 -1 -19 -2 -19
-11 -3 -15 25 -36 21 -51 -10 -16 -33 -51 -38 -56 -8 -2 11 -10 27 -17 35 -8
8 -17 28 -20 43 -10 37 -18 27 -30 -35 -6 -28 -15 -53 -20 -55 -13 -4 -45 96
-45 140 0 18 7 45 15 61 18 35 13 58 -11 49 -21 -8 -34 13 -34 60 0 28 -4 37
-16 37 -15 0 -16 -10 -11 -75 4 -54 2 -83 -9 -103 -18 -38 -52 -68 -62 -56 -9
11 -28 67 -37 112 -4 19 -13 32 -22 32 -14 0 -15 -17 -9 -144 7 -140 7 -145
-13 -156 -12 -6 -21 -18 -21 -27 0 -14 -2 -14 -19 1 -15 14 -22 38 -27 97 -3
43 -10 79 -14 79 -9 0 -30 -109 -23 -126 2 -6 -2 -16 -10 -22 -11 -10 -18 -3
-33 35 -28 69 -60 127 -73 131 -7 2 -11 -14 -11 -48 0 -43 -3 -51 -17 -48 -11
2 -20 16 -23 38 -4 19 -12 46 -19 59 -9 16 -10 30 -3 45 15 34 32 91 32 109 0
26 -19 20 -30 -8 -13 -34 -25 -31 -36 7 -20 68 -32 42 -39 -82 -4 -66 -11
-123 -15 -125 -15 -10 -21 30 -15 109 6 85 -5 127 -25 96 -5 -8 -10 -35 -10
-60 -1 -62 -23 -227 -32 -235 -4 -4 -15 0 -24 9 -10 11 -28 16 -48 14 -29 -3
-31 -1 -34 31 -2 23 2 37 12 43 18 10 22 58 6 58 -6 0 -14 -8 -17 -17 -6 -17
-49 -63 -59 -63 -11 0 -3 118 11 136 16 22 20 94 5 94 -6 0 -13 -8 -16 -17 -3
-10 -17 -41 -30 -68 -13 -28 -24 -54 -24 -59 0 -4 -10 -21 -21 -38 -15 -21
-25 -26 -32 -19 -6 6 -17 11 -24 11 -15 0 -18 -36 -3 -45 13 -8 13 -42 -1 -51
-6 -3 -15 0 -20 7 -4 8 -16 14 -26 14 -29 0 -40 60 -19 99 25 46 19 110 -11
114 -18 3 -24 -4 -32 -35 -6 -21 -11 -44 -11 -50 0 -7 -4 -13 -10 -13 -6 0
-10 30 -10 70 0 57 -4 75 -25 106 -14 21 -28 49 -31 63 -10 46 -14 53 -27 49
-8 -3 -14 -43 -19 -129 -8 -150 -13 -177 -37 -209 -19 -24 -20 -24 -41 -5 -18
16 -23 17 -30 5 -6 -10 -3 -21 10 -35 11 -12 20 -29 20 -38 0 -29 -25 -19 -45
18 -16 31 -17 41 -7 69 16 43 16 44 -10 48 -21 3 -48 40 -63 87 -10 31 -76
141 -85 141 -4 0 -12 10 -18 23 -9 18 -11 19 -11 4 -1 -9 3 -25 8 -35 24 -47
40 -94 56 -162 9 -41 21 -89 26 -106 14 -49 11 -104 -7 -111 -25 -9 -33 8 -43
86 -5 40 -14 78 -20 84 -6 6 -11 21 -11 33 0 12 -7 38 -15 57 -8 20 -15 49
-15 65 0 16 -7 35 -15 42 -20 17 -19 70 2 85 15 11 15 13 -6 24 -13 7 -24 11
-26 9 -6 -6 -6 -88 1 -176 6 -69 3 -92 -14 -140 -11 -31 -24 -74 -27 -94 -7
-36 -26 -50 -40 -28 -3 6 -15 10 -25 10 -26 0 -40 30 -33 72 6 42 -12 60 -20
20 -4 -18 -19 -34 -46 -49 -22 -13 -42 -23 -44 -23 -13 0 -13 58 -1 81 7 15
16 45 20 68 5 33 4 41 -9 41 -16 0 -27 -29 -27 -71 0 -15 -6 -29 -14 -32 -7
-3 -18 -22 -23 -43 -4 -21 -14 -39 -20 -41 -9 -3 -13 22 -15 89 -2 53 -7 93
-13 93 -5 0 -16 -40 -23 -90 -15 -110 -17 -115 -40 -115 -24 0 -88 118 -72
134 12 12 14 46 2 46 -4 0 -13 -5 -20 -12 -9 -9 -21 -1 -51 33 -22 24 -40 52
-41 62 0 21 -30 23 -30 2 0 -9 7 -18 15 -21 8 -4 15 -16 15 -28 0 -12 4 -26 9
-31 5 -6 17 -30 25 -55 14 -42 14 -46 -3 -64 -21 -21 -41 -14 -41 13 0 10 -7
24 -15 31 -8 7 -15 16 -15 21 0 12 -44 78 -52 79 -13 0 -8 -24 7 -44 8 -11 15
-32 15 -46 0 -14 -7 -35 -15 -46 -20 -27 -19 -34 8 -31 19 2 22 -3 25 -37 5
-65 -4 -88 -36 -84 -25 3 -27 7 -27 45 0 53 -12 64 -34 34 -34 -44 -43 -19
-35 100 5 79 4 109 -5 109 -6 0 -11 -2 -11 -4 0 -28 -23 -112 -33 -118 -29
-19 -47 -9 -47 26 0 19 -4 37 -9 40 -10 6 -21 -26 -21 -61 0 -18 -6 -23 -25
-23 -24 0 -25 3 -20 34 4 20 2 36 -4 40 -7 5 -11 -7 -11 -33 0 -33 -4 -41 -18
-41 -30 0 -42 -21 -42 -71 0 -88 -40 -73 -65 25 l-15 58 30 38 c35 44 43 85
12 57 -10 -10 -22 -17 -25 -17 -9 0 -40 69 -47 104 -3 16 -11 31 -17 34 -16 5
-18 -57 -4 -106 8 -27 5 -41 -15 -82 -13 -27 -36 -58 -49 -68 -16 -13 -23 -26
-19 -36 10 -26 -22 -64 -63 -75 -20 -6 -39 -8 -42 -5 -3 3 -6 45 -7 92 -1 132
-2 148 -14 136 -6 -6 -15 -53 -20 -103 -6 -51 -12 -97 -15 -102 -8 -12 -36 0
-70 31 -16 14 -42 34 -56 42 -25 16 -26 19 -21 95 2 43 10 92 17 108 7 17 18
65 24 108 6 42 17 87 25 100 18 26 25 108 11 114 -6 2 -22 -25 -37 -59 -38
-92 -38 -91 -53 -118 -8 -14 -15 -36 -15 -50 0 -14 -9 -45 -20 -69 -11 -24
-20 -52 -20 -63 0 -30 -19 -58 -39 -58 -22 0 -31 26 -31 97 0 56 -14 78 -24
38 -4 -14 -12 -25 -20 -25 -19 0 -46 34 -46 58 0 39 -37 25 -94 -33 -29 -30
-58 -55 -63 -55 -6 0 -14 -7 -17 -16 -3 -9 -12 -14 -19 -11 -9 3 -11 27 -8 90
3 75 1 87 -13 87 -9 0 -19 -8 -23 -17 -13 -39 -54 -122 -62 -127 -5 -3 -12
-25 -15 -48 -8 -53 -56 -143 -76 -143 -24 0 -41 129 -25 192 10 43 -16 56 -48
25 -18 -18 -19 -27 -11 -59 7 -30 5 -45 -9 -73 -19 -38 -19 -38 -60 -26 -34
10 -42 40 -27 103 6 26 17 73 24 103 7 30 18 65 24 77 7 12 12 32 11 45 0 22
-1 22 -12 4 -7 -10 -22 -28 -34 -39 -19 -17 -23 -31 -23 -78 0 -37 -5 -61 -14
-68 -8 -7 -17 -30 -21 -52 -9 -51 -19 -56 -44 -20 -26 35 -26 60 -4 100 19 32
9 57 -11 28 -16 -21 -36 -22 -62 -2 -28 21 -31 19 -39 -31 -5 -36 -11 -47 -32
-55 -14 -5 -29 -7 -32 -3 -3 3 -5 76 -3 161 2 95 -1 154 -6 152 -22 -8 -89
-107 -95 -139 -4 -20 -23 -52 -44 -75 -21 -23 -50 -56 -65 -75 -20 -27 -29
-32 -38 -23 -10 9 -10 29 -1 88 6 42 11 91 11 110 0 37 -17 48 -26 18 -14 -43
-55 -123 -68 -130 -9 -5 -15 -33 -18 -76 -3 -51 -9 -72 -25 -88 -28 -28 -43
-17 -43 32 0 22 -5 50 -12 62 -7 14 -11 59 -10 119 2 94 -7 127 -26 91 -5 -10
-12 -63 -16 -117 -4 -54 -9 -103 -12 -108 -11 -18 -54 63 -54 102 0 47 -17 62
-26 23 -11 -52 -15 -63 -24 -63 -4 0 -11 17 -15 38 -3 20 -9 47 -12 60 -4 18
-1 22 17 20 17 -2 25 4 33 25 12 37 -7 62 -27 35 -16 -22 -25 -23 -41 -1 -16
22 -35 8 -35 -25 0 -15 -4 -31 -8 -37 -13 -18 -71 -55 -85 -55 -19 0 -34 -19
-43 -55 -4 -17 -13 -37 -21 -45 -8 -8 -19 -23 -26 -33 -10 -15 -16 -16 -40 -5
-22 11 -26 18 -22 37 4 14 15 36 26 49 10 14 19 30 19 37 0 7 7 15 15 19 8 3
15 12 15 20 0 7 7 16 15 20 15 5 21 26 8 26 -22 -1 -163 -154 -163 -178 0 -5
-24 -41 -54 -78 -29 -38 -56 -79 -60 -91 -4 -13 -10 -23 -14 -22 -4 0 -23 23
-41 52 -33 49 -35 57 -33 131 1 70 -1 79 -18 83 -11 3 -20 14 -20 24 0 11 -4
19 -10 19 -5 0 -10 -6 -10 -14 0 -8 5 -18 10 -21 15 -9 12 -100 -5 -137 -8
-18 -20 -53 -26 -78 l-11 -45 -23 29 c-16 20 -25 46 -28 85 -2 31 -9 70 -15
86 -6 17 -18 57 -28 90 -9 33 -20 67 -25 75 -5 8 -13 25 -19 38 -11 25 -30 30
-30 7 0 -8 5 -26 12 -40 8 -19 8 -31 0 -48 -6 -12 -15 -37 -20 -56 -4 -19 -12
-36 -17 -37 -8 -2 -91 94 -113 132 -7 11 -45 34 -57 34 -16 0 10 -77 33 -96
22 -18 24 -26 19 -60 -4 -21 -13 -44 -22 -50 -8 -6 -18 -25 -21 -43 -4 -17
-11 -34 -15 -37 -5 -3 -16 -22 -25 -42 -13 -32 -16 -35 -25 -19 -6 10 -9 58
-6 107 3 77 7 93 25 110 27 26 28 56 2 63 -13 3 -20 14 -20 31 0 15 8 31 20
38 26 17 25 29 -5 51 -24 17 -25 17 -29 -5 -3 -13 -7 -48 -10 -79 -5 -61 -42
-159 -60 -159 -14 0 -37 68 -47 140 -10 74 -29 153 -40 165 -5 5 -9 19 -9 32
0 13 -9 40 -20 60 -11 21 -20 43 -20 50 0 7 -4 13 -9 13 -16 0 -21 -29 -9 -58
17 -42 30 -163 34 -330 4 -129 3 -153 -10 -158 -8 -3 -25 1 -38 10 -12 9 -38
16 -57 16 l-34 0 7 99 c5 69 3 101 -4 106 -18 11 -22 0 -30 -72 -4 -38 -17
-94 -29 -125 -12 -35 -21 -81 -21 -116 0 -60 -18 -101 -38 -88 -7 4 -12 20
-12 36 0 19 -7 33 -20 40 -14 8 -21 25 -26 70 -4 33 -11 63 -15 66 -5 3 -9 13
-9 23 0 10 -7 24 -16 32 -13 10 -15 30 -12 98 2 70 0 86 -12 86 -8 0 -18 -17
-25 -45 -8 -35 -16 -46 -34 -48 -13 -2 -28 4 -36 15 -7 10 -17 14 -22 10 -4
-5 0 -14 10 -21 9 -7 17 -20 17 -28 0 -9 7 -21 15 -28 19 -16 19 -42 -1 -110
-8 -30 -19 -77 -24 -105 -17 -90 -20 -101 -31 -84 -5 7 -9 60 -9 116 0 78 -4
108 -17 132 -10 17 -21 31 -24 31 -10 0 -19 -58 -13 -74 3 -9 1 -39 -5 -68
-12 -53 -34 -88 -56 -88 -20 0 -25 77 -13 177 9 70 9 96 0 105 -11 11 -19 0
-37 -57 -5 -16 -8 -17 -15 -5 -6 8 -10 29 -10 46 0 17 -7 37 -15 44 -9 8 -15
29 -15 56 0 23 -4 46 -10 49 -5 3 -10 1 -10 -5 0 -7 -14 0 -31 15 -72 60 -105
70 -231 70 -106 0 -118 2 -118 18 0 25 -19 21 -25 -6 -7 -28 -104 -75 -116
-56 -8 14 -29 3 -29 -15 0 -18 -86 -56 -142 -63 -44 -5 -48 -4 -48 15 0 12 10
27 23 33 12 7 101 64 197 127 96 63 192 126 213 139 107 68 176 185 185 314 4
67 1 83 -23 137 -30 67 -51 90 -110 120 l-40 20 88 41 c48 23 92 41 97 41 17
0 194 85 210 101 8 8 27 22 42 32 21 13 32 34 48 89 11 40 34 118 51 172 17
55 41 145 54 200 25 108 97 369 145 527 35 113 37 145 12 153 -18 6 -430 -42
-592 -68 -47 -8 -112 -17 -145 -21 -33 -4 -70 -9 -82 -12 -28 -6 -46 -53 -119
-303 -29 -102 -72 -248 -95 -325 -60 -207 -89 -329 -80 -338 9 -9 30 -10 346
-29 116 -7 228 -11 250 -10 146 9 190 3 151 -21 -25 -15 -183 -87 -311 -142
-95 -40 -143 -62 -484 -219 -129 -59 -191 -78 -191 -60 0 9 49 86 88 139 17
24 36 55 42 69 10 28 27 29 105 8 22 -6 56 -10 75 -10 19 1 48 -2 64 -7 45
-12 24 9 -23 25 -23 7 -41 19 -41 26 0 7 6 12 13 9 22 -7 167 -16 167 -10 0 3
-10 10 -22 15 -18 7 -12 9 29 8 29 -1 56 1 60 5 3 4 -8 8 -25 8 -62 3 -194 19
-201 25 -14 13 22 12 144 -3 106 -13 140 -14 143 -5 2 7 12 12 22 12 10 0 21
4 24 9 3 5 21 12 41 15 43 8 56 26 18 26 -53 0 -318 24 -387 35 -26 5 -36 3
-31 -4 3 -6 21 -11 39 -11 18 0 55 -4 82 -9 27 -5 86 -11 131 -13 46 -2 83 -6
83 -9 0 -3 15 -4 33 -2 30 3 30 3 8 -7 -13 -6 -31 -8 -40 -5 -9 2 -52 7 -96
10 -123 10 -147 12 -190 20 -30 6 -37 4 -29 -4 10 -11 22 -13 173 -26 93 -9
137 -24 71 -24 -25 0 -63 4 -85 9 -22 5 -69 10 -103 12 -47 2 -66 7 -73 19 -5
10 -32 31 -60 49 -43 26 -58 31 -88 25 -45 -8 -96 -8 -141 0 -24 4 -41 2 -55
-9 -19 -15 -18 -16 21 -10 28 4 51 1 72 -10 19 -10 56 -16 92 -16 53 0 64 -3
85 -26 14 -15 25 -32 25 -38 0 -6 -8 -1 -18 11 -14 18 -31 24 -92 29 -41 4
-86 12 -100 19 -40 19 -288 -49 -550 -150 -181 -70 -346 -85 -394 -35 -13 14
-63 90 -110 169 -67 112 -84 147 -75 157 9 12 2 14 -43 14 -117 0 -300 -83
-366 -166 -31 -40 -42 -43 -42 -12 0 34 95 118 180 159 83 41 155 59 232 59
36 0 49 3 45 13 -3 6 -21 50 -40 97 -92 224 -187 424 -229 481 -32 43 -87 77
-168 105 -77 26 -134 30 -189 14 -19 -5 -36 -8 -39 -6 -11 11 55 40 106 46
l57 6 -45 21 c-25 11 -74 31 -109 44 -77 28 -67 35 29 20 46 -7 97 -25 143
-49 83 -42 103 -51 66 -26 l-26 17 5 151 5 151 -32 74 c-18 40 -37 99 -43 131
-11 58 -11 58 37 156 26 55 48 111 48 126 0 38 -27 65 -72 73 -24 4 -51 19
-73 41 -23 22 -42 32 -52 28 -10 -4 -16 -1 -16 9 0 9 -13 18 -31 22 -31 7 -31
8 -27 56 8 74 -3 77 -123 35 l-102 -37 -24 23 c-21 20 -25 20 -39 6 -14 -14
-21 -14 -62 -1 -45 14 -140 13 -187 -2 -20 -7 -20 -7 0 10 11 10 37 25 58 35
34 15 36 18 21 31 -11 9 -42 14 -90 14 -39 0 -70 3 -67 8 7 11 79 46 105 51
34 7 35 7 13 16 -33 14 -120 11 -159 -5 -44 -18 -96 -87 -96 -126 0 -24 -7
-31 -49 -50 -55 -23 -85 -51 -101 -93 l-11 -30 28 28 c27 27 83 62 83 52 0 -3
-19 -25 -43 -48 -51 -51 -77 -123 -77 -210 0 -57 -1 -59 -22 -53 -13 4 -29 14
-35 23 -16 19 -17 8 -3 -19 7 -11 21 -19 38 -19 l27 0 -32 -26 c-39 -30 -61
-92 -45 -120 11 -18 11 -18 12 1 0 23 26 65 40 65 5 0 2 -13 -6 -29 -8 -16
-17 -65 -21 -108 -5 -74 -4 -81 19 -108 l25 -28 -5 55 c-2 31 0 64 6 74 9 16
11 13 17 -21 11 -65 43 -168 61 -193 17 -25 91 -82 106 -82 5 0 -2 15 -16 33
-13 17 -28 46 -31 62 l-7 30 17 -25 c32 -44 119 -131 149 -147 19 -10 26 -11
20 -2 -5 9 -2 10 12 5 10 -5 86 -7 167 -7 l148 1 -42 -61 c-46 -69 -137 -255
-163 -335 -17 -53 -60 -265 -77 -384 -5 -36 -12 -153 -15 -260 -7 -210 3 -366
36 -565 45 -272 49 -323 33 -365 l-15 -38 -29 17 c-16 9 -29 21 -29 26 -1 10
-68 63 -123 98 l-28 18 6 -79 c6 -67 4 -87 -15 -140 -12 -33 -33 -70 -46 -83
l-23 -22 -7 29 c-4 16 -13 37 -22 46 -9 11 -15 38 -15 75 0 47 4 59 22 71 24
17 29 62 6 62 -9 0 -18 -12 -21 -29 -4 -20 -15 -33 -34 -41 -24 -10 -29 -19
-35 -66 -3 -29 -11 -56 -16 -59 -10 -7 -59 -107 -59 -122 0 -6 -6 -16 -13 -22
-17 -14 -36 5 -72 73 -14 26 -32 54 -39 61 -9 10 -12 29 -9 60 5 36 3 45 -10
45 -9 0 -19 9 -22 20 -3 11 -10 20 -14 20 -15 0 -51 -60 -51 -86 0 -15 -7 -35
-15 -44 -8 -9 -18 -33 -23 -55 -10 -50 -28 -55 -38 -10 -12 51 -28 44 -32 -12
-2 -26 -11 -56 -20 -66 -14 -16 -14 -20 0 -45 13 -23 15 -42 7 -122 -12 -131
-15 -142 -42 -138 -20 3 -22 8 -21 63 0 33 9 84 18 113 10 29 15 60 11 69 -5
14 -13 9 -45 -27 -42 -49 -39 -50 -59 36 -10 41 -9 63 3 115 8 35 18 85 21
111 3 26 10 50 16 53 12 8 12 55 -1 55 -5 0 -10 -4 -10 -9 0 -5 -8 -17 -17
-27 -10 -9 -23 -33 -28 -53 -18 -63 -65 -51 -65 16 0 18 -8 49 -17 70 -49 112
-56 124 -65 115 -5 -5 -12 -77 -14 -158 -7 -254 -30 -430 -48 -373 -11 35 -22
218 -25 432 -1 20 -5 37 -11 37 -5 0 -10 -10 -10 -23 0 -13 -6 -32 -14 -43
-14 -18 -15 -18 -22 -1 -9 26 2 86 21 107 18 20 18 96 0 94 -5 -1 -15 -19 -21
-40 -7 -25 -18 -40 -30 -43 -36 -6 -44 -22 -45 -90 -1 -92 -9 -116 -39 -116
-21 0 -26 6 -31 40 -4 22 -13 66 -20 98 l-13 58 52 52 c177 176 230 306 183
442 -53 155 -219 208 -389 124 -35 -17 -135 -84 -222 -150 -216 -161 -343
-246 -390 -260 -22 -7 -42 -19 -45 -28 -7 -24 -101 -73 -125 -66 -14 5 -20 2
-20 -10 0 -9 -16 -22 -37 -31 -21 -8 -57 -24 -80 -34 -23 -11 -61 -22 -85 -26
-39 -6 -41 -5 -23 8 20 15 142 83 182 102 32 15 28 29 -14 51 -30 16 -56 20
-139 20 -99 0 -104 -1 -149 -33 l-46 -32 -30 67 c-17 36 -33 80 -36 97 -4 30
-3 32 54 49 50 16 251 88 337 121 17 6 71 31 120 55 50 24 158 65 239 92 133
43 159 56 243 116 52 37 94 70 94 74 0 3 -30 -4 -67 -16 -381 -126 -511 -165
-598 -179 -120 -19 -480 -39 -620 -34 l-100 3 -3 285 c-1 163 1 280 6 275 11
-12 42 -313 42 -396 0 -31 3 -71 6 -88 l7 -31 80 0 80 0 -7 80 c-5 62 -4 80 6
80 11 0 282 -63 388 -91 161 -41 169 -42 228 -24 32 9 86 28 122 41 94 34 250
83 528 164 123 36 148 60 65 60 -27 0 -67 5 -90 10 -24 6 -71 14 -105 19 -35
6 -101 17 -148 26 -47 9 -112 20 -145 25 -33 6 -76 14 -95 19 -19 6 -62 15
-95 21 l-60 11 -240 -80 c-132 -44 -265 -89 -295 -100 -30 -10 -59 -17 -64
-14 -13 9 2 147 30 255 26 105 29 156 11 204 -14 35 -82 153 -174 302 -36 57
-63 107 -61 111 2 5 84 63 183 130 317 213 569 397 626 454 37 38 75 91 155
217 42 66 52 83 60 100 4 8 27 45 51 83 24 37 43 69 43 72 0 6 140 234 173
280 19 28 44 46 80 61 42 17 63 35 105 90 58 75 87 94 76 50 -7 -30 15 -36 36
-11 7 8 18 15 26 15 23 0 34 35 33 109 -1 61 -3 71 -19 71 -10 0 -24 -8 -31
-17 -25 -30 -92 -73 -113 -73 l-21 1 21 17 c12 9 48 37 79 61 l58 44 -22 18
c-21 17 -24 17 -68 -2 -75 -32 -75 -24 6 154 17 38 31 72 31 77 0 19 -31 17
-45 -3z m-2022 -1235 c23 -20 22 -35 -2 -22 -11 5 -36 10 -55 10 -27 0 -34 4
-30 14 11 28 53 27 87 -2z m-2223 -32 c5 0 14 -10 21 -21 10 -20 9 -21 -15
-15 -15 4 -35 2 -46 -4 -25 -13 -50 -61 -51 -97 0 -25 -1 -26 -9 -8 -29 69 23
168 78 149 8 -2 18 -4 22 -4z m9405 -629 c6 -11 -22 -16 -230 -36 -82 -8 -206
-21 -275 -30 -143 -17 -219 -19 -204 -6 5 5 68 16 139 25 110 13 193 21 485
49 70 7 79 7 85 -2z m-455 -95 c0 -14 -97 -26 -213 -26 -91 0 -59 14 61 26
150 16 152 16 152 0z m150 -41 c0 -11 -12 -15 -50 -15 -48 0 -69 15 -32 22 51
11 82 8 82 -7z m-122 -7 c-5 -14 -283 -36 -295 -24 -12 12 6 17 88 25 138 13
211 13 207 -1z m-9428 -48 c47 -24 95 -76 115 -123 21 -51 31 -159 17 -183
-11 -18 -11 -17 -12 6 0 14 -7 46 -14 71 -41 133 -108 199 -236 229 -48 12
-52 15 -30 21 36 11 119 0 160 -21z m9690 15 c0 -12 -14 -15 -67 -15 -80 0
-75 17 7 23 30 2 56 4 58 5 1 1 2 -5 2 -13z m-142 -7 c-3 -9 -49 -15 -153 -21
-81 -4 -150 -5 -153 -2 -13 13 17 20 106 26 176 11 204 10 200 -3z m-328 -17
c0 -13 -58 -22 -88 -14 l-27 7 25 7 c36 10 90 10 90 0z m265 -30 c-15 -14
-285 -27 -285 -13 0 15 35 19 175 21 74 0 115 -3 110 -8z m-325 -10 c0 -11
-49 -21 -55 -11 -2 4 -2 10 2 14 10 9 53 7 53 -3z m60 -44 c0 -10 -18 -14 -60
-16 -63 -2 -84 15 -27 22 68 8 87 7 87 -6z m-90 -47 c0 -5 -12 -10 -26 -10
-14 0 -23 4 -19 10 3 6 15 10 26 10 10 0 19 -4 19 -10z m60 0 c0 -5 -9 -10
-20 -10 -11 0 -20 5 -20 10 0 6 9 10 20 10 11 0 20 -4 20 -10z m-45 -50 c-3
-5 -19 -10 -35 -10 -16 0 -32 5 -35 10 -4 6 10 10 35 10 25 0 39 -4 35 -10z
m185 -35 c0 -12 -19 -15 -115 -15 -65 0 -115 4 -115 9 0 11 45 17 153 19 62 2
77 -1 77 -13z m-245 -5 c3 -5 -3 -10 -15 -10 -12 0 -18 5 -15 10 3 6 10 10 15
10 5 0 12 -4 15 -10z m195 -40 c0 -6 -46 -9 -122 -8 -92 1 -110 3 -73 8 81 11
195 11 195 0z m-190 -39 c0 -12 -20 -25 -27 -18 -7 7 6 27 18 27 5 0 9 -4 9
-9z m400 -4 c0 -10 -42 -13 -190 -13 -153 -1 -190 2 -190 13 0 10 38 13 190
13 148 0 190 -3 190 -13z m-430 -47 c0 -5 -9 -10 -20 -10 -11 0 -20 5 -20 10
0 6 9 10 20 10 11 0 20 -4 20 -10z m430 0 c0 -6 -72 -10 -195 -10 -123 0 -195
4 -195 10 0 6 72 10 195 10 123 0 195 -4 195 -10z m-450 -40 c0 -5 -7 -10 -15
-10 -8 0 -15 5 -15 10 0 6 7 10 15 10 8 0 15 -4 15 -10z m180 1 c0 -6 -5 -13
-10 -16 -15 -9 -140 5 -140 16 0 5 34 9 75 9 41 0 75 -4 75 -9z m-30 -51 c0
-6 -38 -10 -95 -10 -57 0 -95 4 -95 10 0 6 38 10 95 10 57 0 95 -4 95 -10z
m-155 -40 c4 -6 -7 -10 -25 -10 -18 0 -29 4 -25 10 3 6 15 10 25 10 10 0 22
-4 25 -10z m75 0 c0 -5 -12 -10 -26 -10 -14 0 -23 4 -19 10 3 6 15 10 26 10
10 0 19 -4 19 -10z m-57 -45 c-1 -5 -12 -11 -24 -13 -31 -5 -71 7 -63 19 8 13
90 7 87 -6z m437 0 c0 -13 -29 -15 -204 -15 -186 0 -228 5 -209 24 3 3 98 6
210 6 174 0 203 -2 203 -15z m-490 -45 c0 -5 -11 -10 -25 -10 -14 0 -25 5 -25
10 0 6 11 10 25 10 14 0 25 -4 25 -10z m170 0 c0 -6 -32 -10 -75 -10 -43 0
-75 4 -75 10 0 6 32 10 75 10 43 0 75 -4 75 -10z m-97 -45 c-4 -15 -125 -13
-131 3 -3 10 12 12 65 10 39 -2 67 -7 66 -13z m-5108 -25 c3 -5 23 -10 43 -10
20 0 75 -9 122 -20 226 -52 262 -60 280 -60 11 0 20 -5 20 -10 0 -14 -76 -5
-212 26 -118 27 -132 28 -123 15 3 -6 27 -13 53 -17 26 -3 52 -9 57 -13 6 -3
41 -11 78 -18 38 -6 71 -14 75 -17 17 -18 -19 -15 -135 9 -70 15 -153 31 -183
37 -30 5 -71 13 -90 18 -19 5 -47 12 -62 15 -32 6 -38 25 -8 25 21 0 96 -16
144 -30 16 -5 35 -6 43 -1 10 5 -6 12 -49 20 -83 17 -88 19 -88 31 0 13 27 13
35 0z m-68 -66 c32 -8 90 -21 128 -29 62 -13 167 -35 233 -50 20 -5 22 -8 11
-21 -7 -8 -19 -12 -28 -8 -23 9 -83 25 -106 28 -11 1 -27 5 -35 9 -8 3 -58 13
-110 23 -52 9 -104 20 -115 25 -11 4 -35 11 -52 14 -18 4 -33 11 -33 16 0 13
42 11 107 -7z m-83 -25 c87 -23 153 -38 211 -49 95 -18 145 -32 151 -41 12
-19 -104 -2 -336 51 -121 27 -122 28 -115 40 8 13 37 13 89 -1z m-1 -90 c31
-7 57 -15 57 -20 0 -4 -25 -19 -55 -33 -53 -24 -57 -25 -130 -12 -69 12 -95
21 -84 29 2 2 27 13 54 25 58 25 81 26 158 11z m5217 -140 c11 -6 9 -8 -10 -9
-37 0 -71 11 -64 21 5 9 48 2 74 -12z m-215 -20 c9 -13 -4 -27 -13 -13 -4 5
-17 9 -29 8 -12 -1 -27 3 -35 7 -8 6 2 9 29 9 23 0 45 -5 48 -11z m-175 -15
c0 -3 -25 -17 -56 -31 -41 -18 -76 -26 -137 -28 l-82 -4 74 10 c40 6 99 21
130 34 60 25 71 28 71 19z m-1239 -239 c36 -49 73 -103 83 -119 10 -15 41 -50
69 -77 65 -62 85 -63 247 -8 131 44 244 105 330 178 30 25 63 52 72 59 14 12
37 9 148 -18 71 -18 130 -34 130 -37 0 -2 -53 -29 -117 -59 -65 -30 -135 -64
-155 -75 -20 -11 -61 -28 -90 -38 -29 -10 -96 -38 -148 -61 -52 -24 -102 -43
-110 -43 -19 1 -62 -39 -96 -89 -15 -21 -30 -38 -33 -38 -4 0 -13 19 -21 42
-19 54 -42 59 -79 19 -20 -21 -31 -27 -35 -19 -3 7 -4 4 -1 -7 2 -11 -1 -40
-9 -65 -13 -45 -13 -45 -19 -15 -3 17 -9 58 -12 93 -4 34 -11 62 -16 62 -5 0
-22 -20 -37 -44 -52 -84 -53 -85 -48 -43 3 20 1 37 -4 37 -4 0 -56 -48 -114
-106 -58 -58 -106 -102 -106 -97 0 4 23 40 50 78 150 213 169 245 161 268 -4
12 -18 27 -29 33 -20 10 -20 12 -6 32 8 12 13 22 10 22 -3 0 -38 -15 -78 -34
-97 -45 -200 -87 -205 -82 -4 4 143 118 174 135 21 11 22 15 16 119 -4 71 -2
104 4 97 6 -5 39 -50 74 -100z m-6037 -240 c25 -19 12 -33 -14 -17 -11 7 -32
12 -47 12 -22 0 -25 2 -13 10 21 14 52 12 74 -5z m-39 -90 c62 -28 62 -26 34
-106 l-13 -35 -136 -13 c-129 -11 -170 -9 -170 9 0 4 26 10 58 13 99 9 236 27
241 33 13 12 -23 24 -107 36 -104 14 -113 24 -54 62 48 32 76 32 147 1z m5881
-63 c-11 -19 -154 -121 -198 -141 -59 -28 -84 -23 -37 7 19 12 61 40 94 61
103 68 154 94 141 73z m-6356 -39 c55 -20 80 -40 80 -65 0 -10 -1 -18 -2 -18
-2 -1 -59 -7 -128 -14 -69 -8 -137 -17 -152 -21 -25 -6 -28 -5 -28 19 0 15 -6
26 -14 26 -7 0 -20 7 -27 17 -8 9 -27 24 -43 34 l-29 18 24 5 c13 3 58 7 99 9
41 2 97 4 125 5 27 1 70 -6 95 -15z m3980 -63 c0 -53 -12 -64 -36 -32 -12 16
-14 16 -34 -4 -16 -16 -24 -42 -32 -103 -11 -81 -11 -82 -46 -96 -19 -8 -36
-15 -38 -15 -2 0 -4 33 -4 73 l0 72 55 45 c31 25 72 60 92 78 19 17 37 32 39
32 2 0 4 -22 4 -50z m-3832 18 c18 -18 15 -28 -8 -28 -13 0 -20 7 -20 20 0 23
10 26 28 8z m500 -35 c-2 -10 -12 -18 -23 -18 -11 0 -21 8 -23 18 -3 13 3 17
23 17 20 0 26 -4 23 -17z m-144 -1 c16 -26 -51 -50 -146 -51 -30 -1 -38 3 -38
17 0 15 13 20 73 29 101 14 105 14 111 5z m4826 -33 c0 -12 8 -23 19 -26 15
-4 21 -17 26 -61 10 -97 10 -167 0 -170 -6 -1 -11 23 -13 55 -2 32 -9 65 -16
73 -8 8 -16 31 -19 50 -3 19 -9 50 -13 68 -4 21 -2 32 5 32 6 0 11 -9 11 -21z
m-5042 -6 c-2 -10 -10 -18 -18 -18 -8 0 -16 8 -18 18 -2 12 3 17 18 17 15 0
20 -5 18 -17z m3927 -43 c-4 -16 -11 -32 -15 -35 -16 -10 -23 45 -10 73 10 24
13 25 22 9 5 -10 7 -31 3 -47z m-4025 46 c0 -2 3 -11 6 -20 5 -12 0 -16 -20
-16 -19 0 -26 5 -26 20 0 13 7 20 20 20 11 0 20 -2 20 -4z m5220 -16 c22 -22
28 -74 8 -68 -7 3 -14 15 -16 27 -2 12 -10 25 -18 28 -16 6 -19 33 -4 33 6 0
19 -9 30 -20z m-5393 -14 c-27 -24 -102 -44 -114 -32 -4 3 2 15 11 25 17 18
42 25 106 29 l25 2 -28 -24z m63 -2 c0 -8 -4 -14 -10 -14 -5 0 -10 9 -10 21 0
11 5 17 10 14 6 -3 10 -13 10 -21z m4735 17 c3 -5 1 -12 -5 -16 -5 -3 -10 1
-10 9 0 18 6 21 15 7z m-4955 -26 c0 -22 -48 -39 -66 -24 -27 22 -17 29 54 38
6 0 12 -6 12 -14z m4085 -12 c3 -16 10 -41 15 -56 8 -25 6 -29 -16 -38 -14 -5
-27 -9 -30 -9 -7 0 -5 116 3 123 13 14 23 6 28 -20z m-4217 -10 c-4 -19 -30
-28 -55 -19 -14 6 -14 8 3 21 27 20 56 19 52 -2z m-5318 -42 c0 -10 -7 -26
-15 -37 -8 -10 -15 -33 -15 -50 0 -18 -6 -54 -14 -80 -27 -96 -39 -150 -45
-204 -5 -49 -9 -55 -31 -58 -20 -2 -28 5 -42 36 -20 43 -23 78 -8 87 17 11 11
37 -10 42 -24 6 -24 8 0 58 11 22 19 43 20 46 0 15 84 131 97 136 8 3 19 16
23 29 11 27 40 23 40 -5z m7185 -34 c0 -31 -4 -57 -10 -58 -20 -1 -28 28 -21
75 10 66 31 55 31 -17z m-2150 -46 c7 -41 -8 -86 -26 -76 -5 4 -9 26 -9 50 0
81 23 98 35 26z m5673 -36 c5 -129 -9 -154 -48 -88 -37 62 -17 180 29 171 13
-3 17 -20 19 -83z m-6679 29 c24 -40 26 -62 9 -99 -14 -32 -4 -43 21 -21 18
17 20 16 26 -4 5 -15 1 -28 -9 -38 -14 -14 -20 -15 -37 -4 -18 12 -24 11 -43
-7 -34 -32 -43 -26 -49 38 -5 60 5 105 33 149 20 29 24 28 49 -14z m3351 -5
c0 -6 -4 -7 -10 -4 -5 3 -10 11 -10 16 0 6 5 7 10 4 6 -3 10 -11 10 -16z
m3060 -109 c0 -108 -10 -160 -30 -160 -22 0 -28 47 -18 140 19 177 48 189 48
20z m-3100 74 c0 -14 -4 -22 -10 -19 -5 3 -10 17 -10 31 0 14 4 22 10 19 6 -3
10 -17 10 -31z m3457 -6 c-3 -8 -6 -5 -6 6 -1 11 2 17 5 13 3 -3 4 -12 1 -19z
m-6700 -10 c-3 -8 -6 -5 -6 6 -1 11 2 17 5 13 3 -3 4 -12 1 -19z m12123 -122
c0 -61 -5 -128 -11 -148 -10 -38 -32 -50 -42 -24 -3 8 -15 12 -31 9 -32 -7
-40 22 -34 117 5 63 9 73 47 119 62 73 71 64 71 -73z m-16190 58 c0 -27 -4
-43 -10 -39 -5 3 -10 24 -10 46 0 21 5 39 10 39 6 0 10 -21 10 -46z m12974 8
c-4 -18 -10 -29 -14 -27 -5 3 -3 18 3 35 14 37 19 33 11 -8z m-13316 -8 c24
-38 28 -59 12 -69 -5 -3 -14 -20 -19 -38 -19 -63 -42 -119 -58 -144 l-17 -25
-8 22 c-5 13 -4 47 2 78 5 31 10 77 10 103 0 29 6 51 15 59 8 7 15 21 15 31 0
30 23 21 48 -17z m15682 11 c0 -8 7 -15 15 -15 8 0 15 -5 15 -11 0 -6 9 -22
20 -36 12 -16 20 -41 20 -64 0 -32 -3 -39 -20 -39 -12 0 -20 7 -20 18 0 9 -7
30 -15 46 -8 15 -15 41 -15 57 0 19 -5 29 -15 29 -8 0 -15 7 -15 15 0 8 7 15
15 15 8 0 15 -7 15 -15z m-15110 -29 c0 -19 -5 -36 -11 -38 -6 -2 -15 -35 -19
-73 -9 -84 -22 -127 -38 -133 -18 -6 -15 63 3 78 10 8 15 31 15 71 0 32 5 61
11 64 5 4 9 17 8 28 -2 33 0 37 16 37 10 0 15 -10 15 -34z m2220 24 c0 -5 -4
-10 -10 -10 -5 0 -10 5 -10 10 0 6 5 10 10 10 6 0 10 -4 10 -10z m19353 -4 c3
-8 -5 -29 -19 -47 -13 -18 -24 -44 -24 -58 0 -14 -9 -45 -20 -69 -10 -23 -22
-58 -26 -77 -3 -19 -10 -38 -14 -40 -5 -3 -16 -30 -25 -60 -8 -30 -19 -55 -23
-55 -5 0 -22 15 -40 33 -31 32 -31 32 -15 66 16 31 16 34 0 46 -22 16 -21 37
3 68 11 14 20 29 20 34 0 4 16 25 35 46 19 21 39 47 45 57 6 11 21 22 34 26
13 3 26 14 29 25 6 22 32 25 40 5z m-20493 -37 c0 -16 -4 -29 -10 -29 -5 0
-10 16 -10 36 0 21 4 33 10 29 6 -3 10 -19 10 -36z m-1142 8 c2 -9 -2 -17 -9
-17 -6 0 -18 -8 -25 -17 -19 -27 -28 -8 -13 27 15 33 41 37 47 7z m10435 -6
c8 -37 -2 -71 -19 -71 -9 0 -14 12 -14 34 0 64 23 90 33 37z m2029 -63 c6 -78
-12 -206 -28 -198 -11 6 -12 166 -1 233 5 26 12 45 16 43 5 -3 10 -38 13 -78z
m1583 4 c-6 -16 -8 -15 -20 1 -11 16 -11 23 3 48 l17 29 3 -31 c2 -17 1 -38
-3 -47z m3518 26 c15 -29 27 -69 27 -88 0 -36 -29 -105 -44 -105 -4 0 -13 16
-20 35 -15 46 -29 44 -40 -5 -12 -50 -10 -49 -36 -35 -17 9 -21 19 -18 53 3
37 6 42 27 42 27 0 38 19 23 38 -20 24 -17 62 8 90 13 15 29 27 35 27 6 0 23
-24 38 -52z m-4776 0 c-3 -7 -5 -2 -5 12 0 14 2 19 5 13 2 -7 2 -19 0 -25z
m593 -128 c-16 -74 -29 -96 -30 -50 0 39 16 151 27 190 14 46 16 -80 3 -140z
m1750 76 c0 -35 -3 -78 -6 -96 -8 -35 -31 -51 -45 -29 -12 18 -12 86 0 93 5 4
12 25 16 49 9 50 13 59 26 52 5 -4 9 -35 9 -69z m-13715 -70 c0 -141 -12 -169
-37 -91 -21 61 -5 228 21 223 14 -3 16 -22 16 -132z m888 91 c19 -47 22 -82 7
-72 -5 3 -10 17 -10 31 0 13 -9 33 -20 44 -23 23 -26 40 -7 40 6 0 20 -19 30
-43z m9212 11 c26 -51 34 -83 23 -102 -15 -26 -25 -11 -33 50 -4 32 -9 63 -12
71 -10 26 6 12 22 -19z m-8065 -13 c23 -37 21 -61 -6 -72 -22 -8 -34 14 -34
65 0 51 11 53 40 7z m13951 -48 c-21 -42 -54 -87 -65 -87 -3 0 -6 15 -6 34 0
27 10 45 43 80 49 53 61 41 28 -27z m-1619 46 c21 -19 24 -56 4 -72 -7 -6 -16
-29 -20 -51 -3 -22 -10 -40 -15 -40 -16 0 -22 33 -16 94 10 94 14 99 47 69z
m-16698 -9 c13 -33 6 -81 -14 -99 -34 -31 -43 -7 -23 58 18 59 26 68 37 41z
m3635 -86 c1 -71 -12 -98 -23 -47 -8 43 -8 134 1 143 13 12 22 -27 22 -96z
m11021 55 c0 -30 -17 -144 -23 -149 -1 -2 -13 -1 -25 3 -27 7 -28 32 -2 81 10
20 22 49 25 65 3 15 10 27 15 27 6 0 10 -12 10 -27z m240 0 c0 -16 -6 -54 -14
-85 -11 -48 -11 -58 0 -58 8 0 11 6 8 15 -4 10 0 15 11 15 14 0 16 -6 11 -32
-7 -38 -5 -35 -38 -43 -23 -6 -29 -3 -39 19 -10 21 -8 39 11 103 12 43 25 81
27 86 10 17 23 5 23 -20z m-13650 -99 c0 -7 -4 -15 -9 -19 -5 -3 -12 -18 -16
-35 -7 -33 -42 -51 -56 -29 -12 19 -11 72 2 127 19 77 30 81 56 22 13 -29 23
-58 23 -66z m3246 92 c8 -33 2 -69 -13 -74 -17 -5 -36 46 -28 75 7 30 33 29
41 -1z m12930 -19 c-3 -14 -13 -28 -22 -31 -20 -8 -33 2 -17 12 6 4 15 20 18
35 5 19 11 25 18 18 5 -5 7 -21 3 -34z m4785 -19 c20 -25 25 -53 10 -62 -5 -3
-24 -37 -42 -76 -24 -49 -40 -70 -53 -70 -15 0 -17 5 -13 28 4 15 13 57 20 93
12 55 39 109 55 109 2 0 12 -10 23 -22z m355 -44 c-11 -43 -30 -14 -21 33 7
35 8 36 17 16 6 -12 7 -34 4 -49z m-23599 -83 c5 -100 3 -121 -8 -121 -31 0
-37 33 -28 146 4 60 8 111 8 114 1 2 6 -1 12 -7 6 -6 13 -65 16 -132z m6433
118 c0 -11 -4 -17 -10 -14 -5 3 -10 13 -10 21 0 8 5 14 10 14 6 0 10 -9 10
-21z m10320 2 c0 -24 -18 -37 -31 -24 -13 13 -1 43 17 43 8 0 14 -9 14 -19z
m-18915 -43 c26 -39 35 -63 35 -93 0 -55 -18 -115 -34 -115 -8 0 -18 17 -23
38 -5 22 -15 37 -23 37 -12 0 -15 -18 -13 -102 1 -57 -3 -103 -8 -103 -5 0 -9
10 -9 21 0 27 -21 101 -32 114 -4 5 -8 28 -8 52 0 39 2 43 25 43 29 0 33 24
10 54 -8 11 -15 26 -15 33 0 16 40 73 52 73 4 0 23 -24 43 -52z m3370 11 c7
-42 -4 -67 -24 -55 -12 8 -15 78 -4 89 14 15 22 5 28 -34z m5330 1 c7 -42 0
-80 -16 -80 -5 0 -9 27 -9 60 0 68 15 80 25 20z m113 17 c4 -19 -6 -21 -27 -8
-16 10 -5 34 12 28 7 -2 13 -11 15 -20z m391 14 c11 -7 9 -13 -10 -32 -21 -21
-24 -22 -27 -6 -4 21 4 47 15 47 4 0 14 -4 22 -9z m1226 0 c3 -5 1 -13 -5 -16
-15 -9 -43 3 -35 15 8 13 32 13 40 1z m-7585 -20 c13 -25 13 -151 1 -151 -15
0 -21 14 -32 75 -14 79 4 125 31 76z m18080 5 c0 -8 -4 -18 -10 -21 -5 -3 -10
3 -10 14 0 12 5 21 10 21 6 0 10 -6 10 -14z m1615 -51 c0 -36 -3 -40 -27 -43
-16 -2 -28 -8 -28 -13 0 -5 -7 -9 -16 -9 -13 0 -15 7 -9 43 9 53 22 69 54 65
23 -3 26 -7 26 -43z m-17868 -2 c4 -21 7 -67 8 -102 0 -50 -4 -66 -18 -75 -14
-9 -20 -8 -27 4 -11 17 -14 193 -3 203 16 17 33 4 40 -30z m12114 -16 c-13
-13 -15 11 -4 40 7 16 8 15 11 -6 2 -13 -1 -28 -7 -34z m7100 0 c-8 -8 -11 -4
-11 14 0 33 14 47 18 19 2 -12 -1 -27 -7 -33z m2112 39 c3 -7 -1 -24 -8 -37
-25 -44 -35 -70 -35 -95 0 -27 -15 -32 -24 -8 -9 23 3 81 20 95 8 6 14 22 14
35 0 26 24 33 33 10z m-18366 -42 c17 -58 16 -114 -2 -114 -18 0 -45 61 -45
100 0 69 28 77 47 14z m18296 34 c2 -7 -7 -23 -20 -35 -41 -39 -59 -24 -25 22
19 27 38 32 45 13z m-32298 -20 c6 -13 20 -28 33 -34 24 -12 132 -150 132
-170 0 -6 7 -17 15 -24 19 -16 20 -46 1 -53 -9 -4 -12 -19 -9 -54 5 -42 2 -54
-20 -79 -25 -29 -26 -29 -41 -9 -18 23 -36 80 -36 113 0 13 -7 36 -15 50 -24
43 -47 114 -52 160 -3 28 -11 46 -24 53 -12 6 -19 20 -19 39 0 36 21 40 35 8z
m17693 -15 c-4 -48 -28 -57 -28 -10 0 18 3 37 7 40 16 16 24 4 21 -30z m13656
-6 c-1 -39 -18 -67 -40 -67 -16 0 -19 36 -5 45 5 3 12 19 16 36 9 41 30 31 29
-14z m-26472 -52 c14 -172 13 -236 -5 -247 -11 -6 -17 -22 -17 -46 0 -20 -3
-47 -6 -60 -6 -21 -9 -19 -34 25 -23 39 -30 70 -39 156 -11 113 -7 159 15 178
8 6 14 16 14 21 0 20 34 59 49 56 12 -3 18 -21 23 -83z m1358 65 c0 -11 -4
-28 -9 -38 -15 -31 -39 -87 -45 -104 -9 -30 -26 -20 -26 15 0 37 22 88 45 107
8 7 15 19 15 26 0 8 5 14 10 14 6 0 10 -9 10 -20z m-650 -4 c0 -21 -20 -30
-33 -17 -9 9 -8 14 3 21 21 14 30 12 30 -4z m23700 -3 c0 -10 -5 -25 -10 -33
-7 -11 -10 -7 -10 18 0 17 5 32 10 32 6 0 10 -8 10 -17z m-18070 -18 c0 -7 7
-18 15 -22 9 -6 16 -35 21 -91 6 -72 5 -82 -9 -82 -9 0 -20 8 -25 18 -14 25
-35 160 -28 177 7 19 26 19 26 0z m3150 -40 c0 -29 -10 -55 -21 -55 -11 0 -23
66 -15 86 9 23 36 -1 36 -31z m16610 5 c0 -25 -18 -36 -26 -16 -8 21 3 49 16
41 5 -3 10 -15 10 -25z m-23390 -12 c0 -11 7 -26 16 -33 21 -15 55 -107 71
-187 6 -32 -10 -37 -43 -13 -14 9 -23 30 -28 62 -3 26 -15 62 -26 78 -19 29
-28 104 -14 118 11 11 24 -3 24 -25z m1288 -78 c2 -38 0 -75 -6 -86 -10 -18
-11 -17 -21 9 -12 31 -15 160 -4 171 13 13 26 -27 31 -94z m24602 49 c0 -16
-4 -29 -10 -29 -5 0 -10 16 -10 36 0 21 4 33 10 29 6 -3 10 -19 10 -36z
m-22633 16 c5 -16 -14 -38 -26 -31 -18 12 -13 48 6 44 9 -2 18 -7 20 -13z
m-1061 -20 c4 -15 1 -32 -7 -42 -13 -14 -15 -13 -20 13 -10 52 15 78 27 29z
m-5726 5 c0 -6 16 -27 36 -47 28 -28 38 -47 42 -80 4 -35 2 -43 -12 -43 -9 0
-19 8 -23 18 -3 9 -14 36 -24 59 -11 23 -19 46 -19 52 0 5 -7 14 -16 19 -9 5
-14 14 -10 21 9 14 26 14 26 1z m1308 -60 c-3 -24 -32 -49 -43 -38 -4 3 -2 14
4 25 5 10 12 27 16 37 8 26 28 6 23 -24z m-688 -47 c0 -13 -4 -31 -9 -41 -6
-9 -13 -39 -16 -67 -6 -41 -9 -46 -17 -30 -14 24 -23 145 -14 180 l7 28 25
-23 c13 -13 24 -34 24 -47z m984 35 c10 -40 7 -80 -6 -76 -15 5 -24 98 -10 98
5 0 12 -10 16 -22z m-5693 -15 c4 -103 3 -138 -6 -141 -6 -1 -11 33 -13 83 -2
54 1 85 8 85 5 0 11 -12 11 -27z m6660 -5 c32 -32 59 -84 59 -114 0 -14 -7
-16 -41 -11 -22 3 -42 7 -45 9 -9 10 -24 113 -18 130 7 24 10 23 45 -14z
m27119 22 c0 -5 -4 -10 -10 -10 -5 0 -10 5 -10 10 0 6 5 10 10 10 6 0 10 -4
10 -10z m-29716 -71 c10 -68 -2 -129 -25 -129 -22 0 -34 38 -24 78 3 15 9 43
11 62 3 19 8 42 10 50 5 13 6 13 13 0 5 -8 11 -36 15 -61z m30626 67 c0 -3 -4
-8 -10 -11 -5 -3 -10 -1 -10 4 0 6 5 11 10 11 6 0 10 -2 10 -4z m1604 -48 c18
-39 18 -43 3 -71 -9 -16 -17 -35 -17 -43 0 -16 16 -19 25 -4 26 42 35 -52 10
-100 -22 -43 -35 -37 -35 14 0 56 -17 68 -46 31 -21 -27 -22 -27 -29 -6 -23
75 -11 152 33 201 25 27 35 24 56 -22z m-36498 -28 c6 0 15 -20 18 -45 4 -25
14 -57 22 -73 15 -30 19 -108 5 -116 -13 -8 -21 19 -21 69 0 25 -6 47 -14 54
-8 7 -18 27 -22 44 -3 18 -13 44 -22 58 -9 17 -12 34 -7 45 7 17 9 16 18 -8 6
-16 16 -28 23 -28z m1483 -12 c1 -10 -3 -18 -9 -18 -5 0 -10 17 -9 38 0 30 2
33 9 17 5 -11 9 -28 9 -37z m-1439 33 c0 -5 9 -13 20 -16 13 -4 20 -15 20 -30
0 -37 -20 -40 -33 -6 -6 17 -15 31 -19 31 -4 0 -8 7 -8 15 0 8 5 15 10 15 6 0
10 -4 10 -9z m35398 -74 c-2 -38 -7 -52 -18 -52 -20 0 -24 39 -9 92 16 58 31
35 27 -40z m1156 10 c11 -23 26 -49 34 -58 13 -17 8 -89 -7 -89 -8 0 -41 81
-41 101 0 8 -7 24 -15 35 -8 10 -15 27 -15 37 0 32 25 17 44 -26z m-35620 18
c22 -16 35 -98 17 -109 -12 -8 -37 42 -48 95 -6 32 2 36 31 14z m35796 -46 c0
-18 -4 -28 -10 -24 -5 3 -10 20 -10 36 0 18 4 28 10 24 6 -3 10 -20 10 -36z
m1930 26 c0 -8 -4 -15 -10 -15 -5 0 -10 7 -10 15 0 8 5 15 10 15 6 0 10 -7 10
-15z m-35734 -20 c12 -50 1 -132 -28 -192 -22 -47 -29 -51 -52 -27 -20 19 -20
43 -1 68 8 11 15 34 15 50 0 17 7 40 15 50 8 11 15 32 15 48 0 36 27 38 36 3z
m38548 -27 c12 -81 18 -208 10 -208 -16 1 -54 38 -54 52 0 8 -7 23 -15 34 -17
23 -19 74 -4 127 8 29 15 37 33 37 20 0 25 -6 30 -42z m-1144 0 c24 -56 47
-268 32 -294 -10 -17 -12 -16 -18 13 -3 18 -13 38 -20 44 -8 6 -14 20 -14 29
0 10 -8 33 -17 52 -47 93 -45 82 -18 137 15 28 29 51 33 51 4 0 14 -15 22 -32z
m-41360 -54 c8 -73 0 -288 -11 -277 -4 4 -18 53 -30 108 -19 88 -20 108 -10
164 7 36 15 69 18 74 11 18 27 -15 33 -69z m2324 70 c18 -7 22 -59 6 -69 -5
-3 -10 -27 -11 -53 0 -26 -4 -56 -8 -66 -7 -18 -8 -18 -14 5 -10 37 -8 189 2
189 5 0 16 -3 25 -6z m2620 -10 c12 -31 7 -66 -20 -162 -3 -10 -10 -8 -31 5
-40 25 -42 30 -27 78 23 79 63 119 78 79z m-5054 -30 c0 -13 -4 -24 -9 -24
-13 0 -24 37 -16 50 10 16 25 1 25 -26z m36407 14 c-3 -8 -6 -5 -6 6 -1 11 2
17 5 13 3 -3 4 -12 1 -19z m-34596 -10 c26 -33 25 -60 -3 -56 -19 2 -24 10
-26 41 -4 43 2 46 29 15z m119 -36 c0 -39 -26 -55 -46 -28 -14 20 -9 41 14 69
19 22 32 6 32 -41z m38131 27 c-5 -13 -10 -19 -10 -12 -1 15 10 45 15 40 3 -2
0 -15 -5 -28z m-34011 -50 c0 -37 -4 -58 -10 -54 -5 3 -10 31 -10 61 0 30 5
54 10 54 6 0 10 -27 10 -61z m31113 29 c4 -12 4 -24 1 -27 -6 -7 -24 20 -24
37 0 21 17 13 23 -10z m-37417 -25 c3 -16 12 -44 20 -63 23 -56 23 -140 -1
-172 -11 -15 -23 -28 -27 -28 -8 0 -16 56 -23 188 -6 88 -5 102 9 102 9 0 18
-12 22 -27z m1139 5 c10 -43 10 -181 0 -184 -5 -2 -21 14 -35 34 -20 30 -24
48 -23 96 2 57 11 75 40 76 7 0 15 -10 18 -22z m1899 -10 c12 -58 16 -137 8
-142 -12 -7 -18 18 -28 102 -4 43 -3 62 5 62 6 0 13 -10 15 -22z m35126 -3 c0
-28 -15 -34 -24 -9 -10 25 -7 34 9 34 9 0 15 -9 15 -25z m2934 -44 c-2 -55
-14 -78 -34 -66 -12 7 -7 96 7 117 14 24 28 -3 27 -51z m-2050 14 c9 -13 16
-38 16 -55 0 -25 -4 -30 -24 -30 -13 0 -27 7 -30 16 -12 33 -3 94 14 94 4 0
15 -11 24 -25z m966 -54 c0 -38 -5 -82 -10 -96 -9 -23 -13 -25 -26 -14 -32 26
-35 47 -16 86 11 21 22 50 26 66 12 50 26 28 26 -42z m-1667 45 c6 -16 -2 -28
-14 -20 -12 7 -11 34 0 34 5 0 11 -6 14 -14z m-37454 -122 c6 -61 7 -121 4
-132 -6 -26 -28 -29 -37 -6 -8 22 -8 249 1 258 15 15 23 -15 32 -120z m338
104 c-3 -8 -6 -5 -6 6 -1 11 2 17 5 13 3 -3 4 -12 1 -19z m40893 -43 c15 -63
10 -75 -19 -46 -28 28 -29 123 -1 106 3 -2 13 -29 20 -60z m694 -77 c-9 -46
-34 -35 -34 15 0 55 21 81 32 40 5 -15 5 -40 2 -55z m187 37 c13 -25 27 -45
31 -45 4 0 15 -14 23 -31 13 -24 14 -40 6 -82 -5 -29 -13 -82 -16 -119 -5 -49
-11 -68 -21 -68 -15 0 -20 17 -29 110 -15 144 -21 186 -33 207 -16 29 -15 73
2 73 7 0 24 -20 37 -45z m-40865 13 c18 -17 24 -34 24 -66 0 -55 -20 -52 -35
6 -5 22 -13 44 -17 48 -9 9 -11 34 -2 34 3 0 17 -10 30 -22z m39798 -23 c8
-32 -3 -77 -18 -72 -14 4 -20 41 -12 73 8 31 22 31 30 -1z m-40851 -35 c7 -35
-1 -62 -17 -57 -6 2 -12 16 -14 31 -7 56 21 79 31 26z m38367 2 c0 -10 -3 -22
-7 -25 -10 -11 -32 13 -26 29 8 20 33 17 33 -4z m908 -34 c-2 -31 -8 -44 -20
-46 -15 -3 -18 4 -18 36 0 42 5 52 27 52 10 0 13 -11 11 -42z m927 -73 c0 -10
-6 -20 -12 -22 -8 -3 -13 5 -13 22 0 17 5 25 13 23 6 -3 12 -13 12 -23z m1549
-150 c-4 -77 -11 -151 -16 -165 -9 -24 -10 -24 -20 -6 -15 27 -5 300 12 321
25 30 31 -7 24 -150z m-931 99 c11 -36 14 -61 8 -71 -7 -14 -11 -11 -25 15
-16 31 -22 112 -8 112 4 0 15 -25 25 -56z m-653 -33 c0 -22 -16 -36 -24 -22
-8 12 3 41 15 41 5 0 9 -9 9 -19z m1918 -38 c-2 -21 -7 -38 -13 -38 -5 0 -11
17 -13 38 -3 29 0 37 13 37 13 0 16 -8 13 -37z"/>
<path d="M20298 8763 c7 -3 16 -2 19 1 4 3 -2 6 -13 5 -11 0 -14 -3 -6 -6z"/>
<path d="M21492 8067 c-12 -14 -41 -97 -67 -192 -34 -123 -108 -385 -121 -430
-8 -27 -21 -72 -29 -100 -7 -27 -17 -58 -20 -67 -7 -19 32 -33 135 -49 30 -4
93 -15 140 -24 47 -9 123 -23 170 -31 47 -8 121 -21 165 -29 44 -8 96 -18 116
-21 l36 -6 26 83 c91 299 217 734 217 751 0 22 -17 27 -153 44 -61 7 -165 20
-230 28 -65 9 -126 17 -135 20 -10 3 -60 10 -114 15 -53 6 -102 13 -110 16 -8
3 -20 0 -26 -8z m156 -115 c3 -10 -9 -12 -49 -10 -32 2 -54 8 -57 16 -3 10 9
12 49 10 32 -2 54 -8 57 -16z m72 -52 c19 -5 63 -12 98 -16 56 -6 75 -18 57
-36 -3 -3 -52 3 -108 13 -56 10 -119 19 -139 19 -38 0 -54 12 -43 30 7 11 67
6 135 -10z m-180 0 c0 -5 -4 -10 -10 -10 -5 0 -10 5 -10 10 0 6 5 10 10 10 6
0 10 -4 10 -10z m-10 -50 c0 -5 -4 -10 -10 -10 -5 0 -10 5 -10 10 0 6 5 10 10
10 6 0 10 -4 10 -10z m189 -4 c6 -4 9 -12 5 -18 -9 -14 -126 1 -144 19 -13 14
-7 15 56 11 39 -3 76 -8 83 -12z m-199 -30 c0 -8 -4 -18 -10 -21 -5 -3 -10 3
-10 14 0 12 5 21 10 21 6 0 10 -6 10 -14z m247 -29 c24 -18 3 -25 -60 -20 -70
7 -107 18 -107 33 0 12 150 1 167 -13z m56 -60 c37 -7 68 -16 67 -22 0 -13
-62 -11 -165 3 -44 6 -97 14 -119 16 -45 6 -53 11 -38 29 12 14 63 8 255 -26z
m-319 12 c-3 -5 -10 -7 -15 -3 -5 3 -7 10 -3 15 3 5 10 7 15 3 5 -3 7 -10 3
-15z m186 -45 c19 -3 76 -12 125 -20 50 -8 112 -18 139 -22 28 -4 51 -13 54
-21 4 -12 -9 -13 -74 -7 -88 8 -289 41 -316 51 -32 13 -17 40 17 30 11 -3 36
-8 55 -11z m-200 -4 c0 -5 -5 -10 -11 -10 -5 0 -7 5 -4 10 3 6 8 10 11 10 2 0
4 -4 4 -10z m169 -44 c16 -19 1 -26 -42 -19 -48 7 -50 33 -3 33 18 0 39 -6 45
-14z m-36 -37 c40 -5 87 -12 105 -15 21 -3 32 -11 32 -21 0 -13 -9 -15 -57 -9
-108 12 -173 28 -173 42 0 17 2 17 93 3z m-188 -18 c3 -5 1 -12 -5 -16 -5 -3
-10 1 -10 9 0 18 6 21 15 7z m151 -35 c13 -10 16 -18 9 -25 -14 -13 -95 9 -95
26 0 18 61 17 86 -1z m-156 -24 c0 -13 -12 -22 -22 -16 -10 6 -1 24 13 24 5 0
9 -4 9 -8z m149 -23 c36 -6 75 -17 86 -24 11 -7 52 -16 91 -20 77 -7 105 -18
89 -34 -12 -11 -153 10 -163 25 -4 5 -25 9 -47 10 -70 2 -165 25 -165 40 0 17
23 17 109 3z m-169 -33 c0 -8 -4 -18 -10 -21 -5 -3 -10 3 -10 14 0 12 5 21 10
21 6 0 10 -6 10 -14z m105 -8 c24 -11 35 -38 15 -38 -24 0 -81 30 -75 40 8 13
28 13 60 -2z m18 -48 c40 -8 67 -19 67 -26 0 -22 -16 -24 -66 -9 -62 19 -74
19 -74 0 0 -8 -9 -15 -20 -15 -23 0 -27 18 -6 26 8 3 12 13 8 26 -4 16 -1 20
9 16 8 -3 44 -11 82 -18z m-147 -17 c-10 -10 -19 5 -10 18 6 11 8 11 12 0 2
-7 1 -15 -2 -18z m-6 -48 c0 -8 -4 -15 -10 -15 -5 0 -10 7 -10 15 0 8 5 15 10
15 6 0 10 -7 10 -15z m195 -35 c0 -17 3 -17 -88 -6 -37 5 -70 12 -73 17 -12
21 9 24 83 14 57 -8 78 -15 78 -25z"/>
<path d="M25743 7103 c-24 -2 -43 -8 -43 -13 0 -14 33 -21 124 -26 83 -4 88
-3 75 13 -27 35 -37 36 -156 26z"/>
<path d="M25525 7030 c-49 -33 -102 -66 -117 -74 -15 -9 -109 -26 -227 -41
-110 -13 -212 -27 -225 -31 l-24 -6 25 -44 c30 -54 36 -54 201 -19 131 29 193
47 269 81 28 13 89 36 135 50 46 15 130 44 188 65 l105 38 -65 -2 c-50 -2 -75
3 -111 21 -25 12 -50 22 -55 21 -5 0 -49 -27 -99 -59z"/>
<path d="M25950 7045 c-19 -7 -48 -14 -65 -15 l-30 -2 30 -9 c17 -5 57 -6 90
-2 72 8 83 7 115 -16 29 -21 162 -39 143 -20 -7 7 -34 13 -60 14 -37 1 -59 9
-92 33 -47 34 -76 38 -131 17z"/>
<path d="M26272 6971 c9 -6 27 -10 40 -10 12 1 75 -2 138 -6 63 -4 112 -4 107
1 -4 4 -29 9 -55 10 -26 1 -92 5 -147 8 -71 5 -95 4 -83 -3z"/>
<path d="M26593 6947 c19 -6 36 -6 50 1 18 9 13 10 -28 10 -45 -1 -47 -2 -22
-11z"/>
<path d="M26270 6790 c0 -5 5 -10 10 -10 6 0 10 5 10 10 0 6 -4 10 -10 10 -5
0 -10 -4 -10 -10z"/>
<path d="M18600 6456 c0 -8 5 -18 10 -21 6 -3 10 3 10 14 0 12 -4 21 -10 21
-5 0 -10 -6 -10 -14z"/>
<path d="M21350 6410 c0 -11 5 -20 10 -20 6 0 10 9 10 20 0 11 -4 20 -10 20
-5 0 -10 -9 -10 -20z"/>
<path d="M19850 6307 c0 -8 7 -18 16 -21 11 -4 14 -1 12 11 -4 21 -28 30 -28
10z"/>
<path d="M22370 6256 c0 -27 15 -42 25 -26 8 13 -3 50 -16 50 -5 0 -9 -11 -9
-24z"/>
<path d="M23284 6206 l-32 -11 19 -24 c18 -22 22 -23 44 -11 16 8 25 22 25 37
0 25 -9 27 -56 9z"/>
<path d="M27437 6194 c-8 -8 3 -34 14 -34 5 0 9 9 9 20 0 19 -11 26 -23 14z"/>
<path d="M22670 6115 c0 -8 5 -15 10 -15 6 0 10 7 10 15 0 8 -4 15 -10 15 -5
0 -10 -7 -10 -15z"/>
<path d="M22970 6029 c0 -5 5 -7 10 -4 6 3 10 8 10 11 0 2 -4 4 -10 4 -5 0
-10 -5 -10 -11z"/>
<path d="M30573 6025 c-8 -22 6 -33 17 -15 13 20 12 30 0 30 -6 0 -13 -7 -17
-15z"/>
<path d="M22725 6000 c-7 -23 2 -60 15 -60 5 0 12 9 15 20 7 23 -2 60 -15 60
-5 0 -12 -9 -15 -20z"/>
<path d="M15060 5984 c0 -8 5 -12 10 -9 6 4 8 11 5 16 -9 14 -15 11 -15 -7z"/>
<path d="M16430 5967 c0 -40 5 -46 31 -40 24 7 24 21 0 51 -26 30 -31 28 -31
-11z"/>
<path d="M28710 5945 c0 -14 5 -25 10 -25 6 0 10 11 10 25 0 14 -4 25 -10 25
-5 0 -10 -11 -10 -25z"/>
<path d="M26720 5941 c0 -12 5 -21 10 -21 6 0 10 6 10 14 0 8 -4 18 -10 21 -5
3 -10 -3 -10 -14z"/>
<path d="M27157 5953 c-4 -3 -7 -17 -7 -30 0 -33 24 -24 28 10 3 26 -7 35 -21
20z"/>
<path d="M14080 5939 c0 -5 5 -7 10 -4 6 3 10 8 10 11 0 2 -4 4 -10 4 -5 0
-10 -5 -10 -11z"/>
<path d="M26892 5908 c3 -7 15 -15 27 -16 16 -3 22 1 19 10 -3 7 -15 15 -27
16 -16 3 -22 -1 -19 -10z"/>
<path d="M10615 5901 c-3 -5 -1 -12 5 -16 5 -3 10 1 10 9 0 18 -6 21 -15 7z"/>
<path d="M13720 5890 c0 -11 5 -20 10 -20 6 0 10 9 10 20 0 11 -4 20 -10 20
-5 0 -10 -9 -10 -20z"/>
<path d="M15377 5890 c-31 -36 -15 -57 16 -22 18 19 23 42 9 42 -4 0 -15 -9
-25 -20z"/>
<path d="M8847 5886 c-6 -16 2 -28 14 -20 12 7 11 34 0 34 -5 0 -11 -6 -14
-14z"/>
<path d="M15486 5884 c-7 -18 0 -34 15 -34 5 0 9 11 9 25 0 28 -15 34 -24 9z"/>
<path d="M16110 5860 c0 -11 5 -20 10 -20 6 0 10 9 10 20 0 11 -4 20 -10 20
-5 0 -10 -9 -10 -20z"/>
<path d="M32390 5871 c0 -6 5 -13 10 -16 6 -3 10 1 10 9 0 9 -4 16 -10 16 -5
0 -10 -4 -10 -9z"/>
<path d="M11240 5839 c0 -11 4 -18 10 -14 5 3 7 12 3 20 -7 21 -13 19 -13 -6z"/>
<path d="M30054 5845 c-9 -23 -4 -25 55 -18 59 7 56 18 -6 28 -35 5 -44 4 -49
-10z"/>
<path d="M26885 5840 c-3 -5 1 -23 10 -40 13 -26 19 -29 31 -19 18 15 18 34
-2 53 -18 18 -30 20 -39 6z"/>
<path d="M15656 5833 c-12 -12 -6 -53 8 -53 9 0 16 -16 20 -45 8 -48 20 -65
30 -39 11 29 6 61 -14 87 -11 14 -20 30 -20 35 0 14 -15 23 -24 15z"/>
<path d="M13465 5810 c3 -5 8 -10 11 -10 2 0 4 5 4 10 0 6 -5 10 -11 10 -5 0
-7 -4 -4 -10z"/>
<path d="M30287 5814 c-14 -14 -7 -35 11 -32 9 2 17 10 17 17 0 16 -18 25 -28
15z"/>
<path d="M30832 5799 c1 -13 8 -23 13 -21 15 3 12 35 -3 40 -9 3 -13 -3 -10
-19z"/>
<path d="M13040 5794 c0 -8 5 -12 10 -9 6 3 10 10 10 16 0 5 -4 9 -10 9 -5 0
-10 -7 -10 -16z"/>
<path d="M13500 5763 c0 -13 5 -23 10 -23 13 0 13 11 0 30 -8 12 -10 11 -10
-7z"/>
<path d="M33030 5751 c0 -12 5 -21 10 -21 6 0 10 6 10 14 0 8 -4 18 -10 21 -5
3 -10 -3 -10 -14z"/>
<path d="M4270 5750 c0 -5 5 -10 10 -10 6 0 10 5 10 10 0 6 -4 10 -10 10 -5 0
-10 -4 -10 -10z"/>
<path d="M5812 5746 c1 -10 8 -17 13 -17 15 1 12 24 -3 29 -9 3 -13 -2 -10
-12z"/>
<path d="M31645 5737 c-4 -10 -5 -21 -1 -24 10 -10 18 4 13 24 -4 17 -4 17
-12 0z"/>
<path d="M10850 5729 c0 -5 5 -7 10 -4 6 3 10 8 10 11 0 2 -4 4 -10 4 -5 0
-10 -5 -10 -11z"/>
<path d="M31093 5732 c-16 -10 -5 -102 13 -102 9 0 15 14 16 40 0 22 1 45 2
52 1 14 -15 20 -31 10z"/>
<path d="M31266 5724 c-7 -18 0 -34 15 -34 5 0 9 11 9 25 0 28 -15 34 -24 9z"/>
<path d="M9904 5699 c-3 -6 -1 -16 5 -22 8 -8 11 -5 11 11 0 24 -5 28 -16 11z"/>
<path d="M9110 5686 c0 -7 7 -19 15 -26 13 -11 15 -8 15 14 0 16 -5 26 -15 26
-8 0 -15 -6 -15 -14z"/>
<path d="M31810 5684 c0 -8 5 -12 10 -9 6 3 10 10 10 16 0 5 -4 9 -10 9 -5 0
-10 -7 -10 -16z"/>
<path d="M32620 5680 c0 -5 5 -10 10 -10 6 0 10 5 10 10 0 6 -4 10 -10 10 -5
0 -10 -4 -10 -10z"/>
<path d="M10071 5664 c0 -11 3 -14 6 -6 3 7 2 16 -1 19 -3 4 -6 -2 -5 -13z"/>
<path d="M9547 5663 c-13 -12 -7 -43 8 -43 8 0 15 6 15 13 0 18 -15 38 -23 30z"/>
<path d="M7058 5648 c-7 -17 8 -46 18 -35 4 4 3 17 -3 29 -7 17 -11 19 -15 6z"/>
<path d="M11380 5650 c0 -5 5 -10 11 -10 5 0 7 5 4 10 -3 6 -8 10 -11 10 -2 0
-4 -4 -4 -10z"/>
<path d="M8590 5629 c0 -24 23 -21 28 4 2 10 -3 17 -12 17 -10 0 -16 -9 -16
-21z"/>
<path d="M9372 5638 c-7 -7 -12 -18 -12 -25 0 -7 -8 -13 -18 -13 -20 0 -52
-29 -52 -47 0 -6 14 -16 30 -23 28 -11 35 -21 31 -44 -1 -4 1 -17 4 -27 11
-33 23 -11 18 32 -5 34 -3 41 15 45 23 7 34 56 21 92 -10 25 -19 28 -37 10z"/>
<path d="M31974 5636 c-7 -20 2 -46 16 -46 13 0 13 47 0 55 -6 3 -13 -1 -16
-9z"/>
<path d="M40660 5635 c0 -8 5 -15 10 -15 6 0 10 7 10 15 0 8 -4 15 -10 15 -5
0 -10 -7 -10 -15z"/>
<path d="M10232 5616 c2 -15 8 -26 13 -26 15 0 12 43 -3 48 -10 3 -13 -4 -10
-22z"/>
<path d="M41108 5594 c-5 -4 -8 -23 -8 -43 0 -25 3 -32 11 -24 6 6 9 25 7 43
-2 17 -6 28 -10 24z"/>
<path d="M35585 5560 c-8 -13 4 -32 16 -25 12 8 12 35 0 35 -6 0 -13 -4 -16
-10z"/>
<path d="M33150 5551 c0 -6 5 -13 10 -16 6 -3 10 1 10 9 0 9 -4 16 -10 16 -5
0 -10 -4 -10 -9z"/>
<path d="M4390 5540 c0 -5 7 -10 15 -10 8 0 15 5 15 10 0 6 -7 10 -15 10 -8 0
-15 -4 -15 -10z"/>
<path d="M34875 5531 c-6 -11 9 -23 19 -14 9 9 7 23 -3 23 -6 0 -12 -4 -16 -9z"/>
<path d="M36974 5529 c-3 -6 -1 -16 5 -22 8 -8 11 -5 11 11 0 24 -5 28 -16 11z"/>
<path d="M35320 5500 c0 -5 5 -10 11 -10 5 0 7 5 4 10 -3 6 -8 10 -11 10 -2 0
-4 -4 -4 -10z"/>
<path d="M5560 5470 c0 -16 4 -30 9 -30 12 0 19 21 13 43 -7 28 -22 20 -22
-13z"/>
<path d="M35352 5450 c0 -14 2 -19 5 -12 2 6 2 18 0 25 -3 6 -5 1 -5 -13z"/>
<path d="M4220 5425 c0 -19 4 -35 9 -35 13 0 23 34 15 54 -11 28 -24 18 -24
-19z"/>
<path d="M5140 5436 c0 -8 5 -18 10 -21 6 -3 10 3 10 14 0 12 -4 21 -10 21 -5
0 -10 -6 -10 -14z"/>
<path d="M5312 5418 c7 -20 48 -23 48 -4 0 11 -9 16 -26 16 -16 0 -24 -5 -22
-12z"/>
<path d="M40180 5421 c0 -6 5 -13 10 -16 6 -3 10 1 10 9 0 9 -4 16 -10 16 -5
0 -10 -4 -10 -9z"/>
<path d="M2812 5408 c6 -18 28 -21 28 -4 0 9 -7 16 -16 16 -9 0 -14 -5 -12
-12z"/>
<path d="M3994 5407 c-4 -10 -2 -23 3 -28 14 -14 24 13 13 32 -7 11 -10 10
-16 -4z"/>
<path d="M37287 5388 c-22 -23 -14 -37 11 -22 18 12 30 45 15 43 -4 0 -16 -10
-26 -21z"/>
<path d="M1815 5381 c-16 -9 -32 -17 -34 -18 -2 -1 5 -13 16 -26 18 -24 20
-24 41 -7 21 18 30 55 15 63 -5 2 -21 -3 -38 -12z"/>
<path d="M5170 5373 c0 -37 9 -63 21 -63 14 0 10 54 -6 76 -14 18 -14 17 -15
-13z"/>
<path d="M38380 5359 c0 -33 3 -40 16 -35 9 3 20 6 25 6 15 0 10 23 -10 48
-27 31 -31 28 -31 -19z"/>
<path d="M4647 5376 c-8 -19 8 -66 23 -66 14 0 12 43 -3 64 -13 17 -14 17 -20
2z"/>
<path d="M430 5364 c0 -8 5 -12 10 -9 6 3 10 10 10 16 0 5 -4 9 -10 9 -5 0
-10 -7 -10 -16z"/>
<path d="M38620 5365 c0 -8 5 -15 10 -15 6 0 10 7 10 15 0 8 -4 15 -10 15 -5
0 -10 -7 -10 -15z"/>
<path d="M41932 5368 c6 -18 28 -21 28 -4 0 9 -7 16 -16 16 -9 0 -14 -5 -12
-12z"/>
<path d="M914 5344 c3 -9 6 -20 6 -25 0 -5 7 -9 15 -9 8 0 15 4 15 9 0 21 -13
41 -27 41 -10 0 -13 -6 -9 -16z"/>
<path d="M5310 5345 c0 -26 19 -55 36 -55 11 0 14 9 12 33 -2 24 -8 33 -25 35
-16 2 -23 -2 -23 -13z"/>
<path d="M43487 5343 c-11 -10 -8 -43 3 -43 15 0 24 30 13 41 -5 5 -12 6 -16
2z"/>
<path d="M39510 5320 c19 -13 30 -13 30 0 0 6 -10 10 -22 10 -19 0 -20 -2 -8
-10z"/>
<path d="M37567 5303 c-12 -12 -7 -41 8 -47 10 -3 15 -19 15 -45 0 -37 14 -61
27 -47 10 10 8 87 -3 94 -6 4 -14 17 -18 30 -7 22 -17 28 -29 15z"/>
<path d="M37930 5295 c7 -9 15 -13 17 -11 7 7 -7 26 -19 26 -6 0 -6 -6 2 -15z"/>
<path d="M38040 5296 c0 -8 5 -18 10 -21 6 -3 10 3 10 14 0 12 -4 21 -10 21
-5 0 -10 -6 -10 -14z"/>
<path d="M39260 5295 c0 -8 5 -15 10 -15 6 0 10 7 10 15 0 8 -4 15 -10 15 -5
0 -10 -7 -10 -15z"/>
<path d="M39430 5290 c0 -5 6 -10 14 -10 8 0 18 5 21 10 3 6 -3 10 -14 10 -12
0 -21 -4 -21 -10z"/>
<path d="M39566 5282 c-2 -4 -1 -14 5 -22 7 -12 9 -10 9 8 0 23 -5 28 -14 14z"/>
<path d="M39395 5260 c-3 -5 -1 -10 4 -10 6 0 11 5 11 10 0 6 -2 10 -4 10 -3
0 -8 -4 -11 -10z"/>
<path d="M3610 5240 c0 -11 6 -20 14 -20 9 0 12 7 9 20 -3 11 -9 20 -14 20 -5
0 -9 -9 -9 -20z"/>
<path d="M1220 5231 c0 -6 5 -13 10 -16 6 -3 10 1 10 9 0 9 -4 16 -10 16 -5 0
-10 -4 -10 -9z"/>
<path d="M40775 5231 c-6 -11 9 -23 19 -14 9 9 7 23 -3 23 -6 0 -12 -4 -16 -9z"/>
<path d="M40142 5200 c0 -14 2 -19 5 -12 2 6 2 18 0 25 -3 6 -5 1 -5 -13z"/>
<path d="M39495 5190 c3 -5 8 -10 11 -10 2 0 4 5 4 10 0 6 -5 10 -11 10 -5 0
-7 -4 -4 -10z"/>
<path d="M1520 5174 c0 -8 5 -12 10 -9 6 4 8 11 5 16 -9 14 -15 11 -15 -7z"/>
<path d="M1292 5103 c3 -42 28 -59 28 -20 0 32 -9 57 -22 57 -5 0 -8 -17 -6
-37z"/>
</g>
</svg>
