<svg width="925" height="631" viewBox="0 0 925 631" fill="none" xmlns="http://www.w3.org/2000/svg">
<path d="M282.56 441.08C240.46 440.38 212.04 437.09 186.67 421.77C158.3 404.65 154.47 383.25 176.97 358.87C202.06 331.68 230.96 308.9 267.67 299.39C279.95 296.21 284.74 289.65 287.08 278.03C299.05 218.62 330.96 173.48 386.01 147.14C458.43 112.49 525.39 124.52 585.35 176.05C597.42 186.42 607.44 185.51 621.11 182.67C661.35 174.31 701.54 176.25 739.7 192.33C761.66 201.58 765.75 232.1 750.53 255.23C732.49 282.64 704.74 297.59 677.32 312.8C624.76 341.94 569.27 363.98 512.44 383.59C467.81 399 422.87 413.23 377.31 424.97C342.2 434.02 306.35 442.22 282.56 441.09V441.08ZM421.51 154.15C451.4 157.83 479.24 166.9 505.55 181.38C547.5 204.47 568.16 242.79 583.81 285.87C595.33 317.57 589.46 319.45 623.11 304.23C635.06 298.83 637.24 293.24 634.01 281.02C623.55 241.44 601.92 209.8 570.7 183.8C526.28 146.82 476.34 138.86 421.51 154.15ZM646.6 290.76C665.54 285.01 679.14 275.73 690.79 264.13C729.2 225.92 648.65 203.71 622.17 220.77C634.13 241.86 641.1 265.08 646.6 290.76ZM306.95 411.77C292.56 383.03 281.54 355.21 284.04 322.24C210.46 340.35 241.53 431.19 306.95 411.77Z" fill="black"/>
<path d="M343.19 452.25C446.2 431.52 547.3 406.68 639.6 355.14C640.09 402.11 590.8 471.79 525.07 495.03C448.82 521.99 367.92 489.27 343.19 452.24V452.25Z" fill="black"/>
</svg>
