<svg id="svg" version="1.1" xmlns="http://www.w3.org/2000/svg" xmlns:xlink="http://www.w3.org/1999/xlink" width="400" height="400" viewBox="0, 0, 400,400"><g id="svgg"><path id="path0" d="M177.100 0.270 C 176.275 0.368,175.600 0.617,175.600 0.824 C 175.600 1.031,174.801 1.200,173.824 1.200 C 172.847 1.200,171.936 1.380,171.800 1.600 C 171.664 1.820,171.023 2.000,170.376 2.000 C 169.729 2.000,169.200 2.180,169.200 2.400 C 169.200 2.620,168.581 2.800,167.824 2.800 C 167.067 2.800,166.336 2.980,166.200 3.200 C 166.064 3.420,165.423 3.600,164.776 3.600 C 164.129 3.600,163.600 3.780,163.600 4.000 C 163.600 4.220,163.060 4.400,162.400 4.400 C 161.740 4.400,161.200 4.580,161.200 4.800 C 161.200 5.020,160.761 5.200,160.224 5.200 C 159.687 5.200,159.136 5.380,159.000 5.600 C 158.864 5.820,158.313 6.000,157.776 6.000 C 157.239 6.000,156.800 6.180,156.800 6.400 C 156.800 6.620,156.260 6.800,155.600 6.800 C 154.940 6.800,154.400 6.980,154.400 7.200 C 154.400 7.420,153.860 7.600,153.200 7.600 C 152.540 7.600,152.000 7.760,152.000 7.955 C 152.000 8.151,151.338 8.435,150.529 8.587 C 149.719 8.739,148.234 9.227,147.229 9.671 C 146.223 10.116,145.040 10.627,144.600 10.806 C 144.160 10.986,143.215 11.372,142.500 11.664 C 141.785 11.956,141.200 12.299,141.200 12.425 C 141.200 12.552,140.300 12.900,139.200 13.200 C 138.100 13.500,137.200 13.892,137.200 14.072 C 137.200 14.253,136.840 14.400,136.400 14.400 C 135.960 14.400,135.600 14.580,135.600 14.800 C 135.600 15.020,135.240 15.200,134.800 15.200 C 134.360 15.200,134.000 15.380,134.000 15.600 C 134.000 15.820,133.640 16.000,133.200 16.000 C 132.760 16.000,132.400 16.180,132.400 16.400 C 132.400 16.620,132.040 16.800,131.600 16.800 C 131.160 16.800,130.800 16.980,130.800 17.200 C 130.800 17.420,130.440 17.600,130.000 17.600 C 129.560 17.600,129.200 17.746,129.200 17.925 C 129.200 18.104,128.570 18.498,127.800 18.800 C 127.030 19.102,126.400 19.496,126.400 19.675 C 126.400 19.854,126.130 20.000,125.800 20.000 C 125.470 20.000,125.200 20.180,125.200 20.400 C 125.200 20.620,124.930 20.800,124.600 20.800 C 124.270 20.800,124.000 20.980,124.000 21.200 C 124.000 21.420,123.640 21.600,123.200 21.600 C 122.760 21.600,122.400 21.780,122.400 22.000 C 122.400 22.220,122.122 22.400,121.783 22.400 C 121.444 22.400,120.780 22.760,120.308 23.200 C 119.836 23.640,119.213 24.000,118.925 24.000 C 118.636 24.000,118.400 24.180,118.400 24.400 C 118.400 24.620,118.051 24.800,117.624 24.800 C 117.197 24.800,116.739 24.975,116.607 25.189 C 116.474 25.403,115.744 25.874,114.983 26.235 C 114.222 26.596,113.600 27.051,113.600 27.246 C 113.600 27.441,113.410 27.600,113.178 27.600 C 112.703 27.600,108.215 30.576,107.025 31.681 C 106.598 32.076,106.053 32.400,105.813 32.400 C 105.573 32.400,105.117 32.760,104.800 33.200 C 104.483 33.640,104.020 34.000,103.771 34.000 C 103.522 34.000,102.754 34.540,102.063 35.200 C 101.372 35.860,100.626 36.400,100.404 36.400 C 100.182 36.400,99.259 37.120,98.352 38.000 C 97.445 38.880,96.527 39.600,96.312 39.600 C 96.097 39.600,95.444 40.096,94.860 40.701 C 94.277 41.307,93.080 42.336,92.200 42.989 C 91.320 43.641,89.790 44.991,88.800 45.988 C 87.810 46.984,86.297 48.325,85.438 48.967 C 83.198 50.642,74.800 59.219,74.800 59.833 C 74.800 59.946,73.540 61.281,72.000 62.800 C 70.460 64.319,69.200 65.718,69.200 65.910 C 69.200 66.102,68.300 67.222,67.200 68.400 C 66.100 69.578,65.200 70.707,65.200 70.910 C 65.200 71.113,64.660 71.783,64.000 72.400 C 63.340 73.017,62.800 73.692,62.800 73.901 C 62.800 74.110,62.305 74.804,61.700 75.443 C 58.538 78.782,59.174 84.222,62.813 84.968 C 68.626 86.158,69.056 85.950,74.287 79.434 C 81.150 70.883,89.873 61.542,96.200 55.968 C 99.990 52.629,106.336 47.451,108.400 46.014 C 109.170 45.477,109.890 44.931,110.000 44.800 C 110.110 44.669,110.830 44.125,111.600 43.592 C 112.370 43.058,113.349 42.302,113.775 41.911 C 114.202 41.520,114.772 41.200,115.042 41.200 C 115.312 41.200,115.593 41.042,115.667 40.849 C 115.740 40.655,117.330 39.516,119.200 38.316 C 133.125 29.381,148.421 21.969,162.800 17.186 C 167.965 15.468,174.693 13.524,178.000 12.795 C 179.210 12.528,180.613 12.150,181.119 11.955 C 182.375 11.470,187.894 11.505,188.200 12.000 C 188.336 12.220,188.797 12.400,189.224 12.400 C 189.651 12.400,190.000 12.551,190.000 12.736 C 190.000 12.920,190.451 13.277,191.003 13.529 C 192.206 14.077,194.329 16.984,195.060 19.085 C 195.971 21.700,195.728 23.880,194.113 27.600 C 193.122 29.882,192.339 31.747,192.013 32.600 C 191.491 33.965,190.723 35.768,190.353 36.495 C 190.159 36.877,190.000 37.464,190.000 37.800 C 190.000 38.136,189.825 38.723,189.611 39.105 C 189.291 39.679,187.804 44.104,185.615 51.000 C 183.788 56.756,180.891 70.048,179.643 78.400 C 178.039 89.135,177.595 95.586,177.595 108.200 C 177.595 121.064,177.941 126.062,179.655 138.000 C 181.072 147.865,185.570 166.906,187.237 170.095 C 187.437 170.477,187.600 171.141,187.600 171.571 C 187.600 172.001,187.780 172.464,188.000 172.600 C 188.220 172.736,188.400 173.199,188.400 173.629 C 188.400 174.059,188.566 174.723,188.768 175.105 C 188.970 175.487,189.528 176.880,190.007 178.200 C 190.486 179.520,191.040 181.005,191.239 181.500 C 191.438 181.995,191.762 182.805,191.960 183.300 C 192.158 183.795,192.672 185.010,193.101 186.000 C 193.530 186.990,194.223 188.610,194.640 189.600 C 195.846 192.461,202.669 206.000,204.013 208.200 C 204.685 209.300,205.338 210.515,205.464 210.900 C 205.590 211.285,205.852 211.600,206.047 211.600 C 206.241 211.600,206.400 211.790,206.400 212.022 C 206.400 212.254,207.120 213.504,208.000 214.800 C 208.880 216.096,209.600 217.264,209.600 217.396 C 209.600 218.144,221.052 233.680,224.788 238.000 C 225.454 238.770,226.764 240.333,227.699 241.474 C 229.418 243.570,243.584 257.752,245.806 259.600 C 247.029 260.618,250.731 263.665,252.194 264.857 C 264.411 274.822,267.431 276.261,270.751 273.700 C 271.535 273.095,272.542 272.502,272.988 272.383 C 273.692 272.195,273.815 271.789,273.917 269.326 L 274.033 266.485 271.791 264.243 C 270.557 263.009,269.305 262.000,269.007 262.000 C 268.710 262.000,268.407 261.862,268.333 261.693 C 268.168 261.312,262.958 257.600,262.589 257.600 C 262.441 257.600,261.844 257.105,261.260 256.500 C 260.677 255.895,259.708 255.146,259.107 254.836 C 258.505 254.526,257.908 253.941,257.780 253.536 C 257.651 253.131,257.423 252.799,257.273 252.798 C 257.123 252.797,256.425 252.257,255.722 251.598 C 255.019 250.939,254.341 250.400,254.216 250.400 C 254.091 250.400,252.472 248.915,250.619 247.100 C 248.766 245.285,245.933 242.514,244.325 240.943 C 240.483 237.190,237.553 234.023,236.377 232.352 C 235.854 231.608,234.745 230.339,233.913 229.531 C 233.081 228.724,232.400 227.931,232.400 227.769 C 232.400 227.607,231.680 226.769,230.800 225.907 C 229.920 225.044,229.200 224.154,229.200 223.930 C 229.200 223.705,228.660 223.017,228.000 222.400 C 227.340 221.783,226.800 221.057,226.800 220.786 C 226.800 220.516,226.483 220.003,226.094 219.647 C 225.706 219.291,225.036 218.325,224.604 217.500 C 224.172 216.675,223.679 216.000,223.509 216.000 C 223.339 216.000,223.200 215.764,223.200 215.475 C 223.200 215.187,222.885 214.602,222.500 214.175 C 222.115 213.749,221.545 212.905,221.232 212.300 C 220.920 211.695,220.515 211.200,220.332 211.200 C 220.150 211.200,220.000 210.964,220.000 210.675 C 220.000 210.387,219.640 209.764,219.200 209.292 C 218.760 208.820,218.400 208.246,218.400 208.017 C 218.400 207.788,218.220 207.600,218.000 207.600 C 217.780 207.600,217.600 207.280,217.600 206.888 C 217.600 206.497,217.240 205.917,216.800 205.600 C 216.360 205.283,216.000 204.703,216.000 204.312 C 216.000 203.920,215.820 203.600,215.600 203.600 C 215.380 203.600,215.200 203.240,215.200 202.800 C 215.200 202.360,215.020 202.000,214.800 202.000 C 214.580 202.000,214.400 201.764,214.400 201.475 C 214.400 201.187,214.040 200.564,213.600 200.092 C 213.160 199.620,212.800 198.956,212.800 198.617 C 212.800 198.278,212.620 198.000,212.400 198.000 C 212.180 198.000,212.000 197.640,212.000 197.200 C 212.000 196.760,211.820 196.400,211.600 196.400 C 211.380 196.400,211.200 196.040,211.200 195.600 C 211.200 195.160,211.054 194.800,210.875 194.800 C 210.696 194.800,210.302 194.170,210.000 193.400 C 209.698 192.630,209.304 192.000,209.125 192.000 C 208.946 192.000,208.800 191.758,208.800 191.461 C 208.800 190.960,208.043 189.117,207.174 187.505 C 206.968 187.123,206.800 186.538,206.800 186.205 C 206.800 185.872,206.620 185.600,206.400 185.600 C 206.180 185.600,206.000 185.321,206.000 184.981 C 206.000 184.640,205.640 183.616,205.200 182.706 C 204.760 181.795,204.400 180.814,204.400 180.525 C 204.400 180.236,204.220 180.000,204.000 180.000 C 203.780 180.000,203.600 179.561,203.600 179.024 C 203.600 178.487,203.420 177.936,203.200 177.800 C 202.980 177.664,202.800 177.203,202.800 176.776 C 202.800 176.349,202.620 176.000,202.400 176.000 C 202.180 176.000,202.000 175.550,202.000 175.000 C 202.000 174.450,201.820 174.000,201.600 174.000 C 201.380 174.000,201.200 173.460,201.200 172.800 C 201.200 172.140,201.020 171.600,200.800 171.600 C 200.580 171.600,200.400 171.060,200.400 170.400 C 200.400 169.740,200.220 169.200,200.000 169.200 C 199.780 169.200,199.600 168.761,199.600 168.224 C 199.600 167.687,199.420 167.136,199.200 167.000 C 198.980 166.864,198.800 166.223,198.800 165.576 C 198.800 164.929,198.620 164.400,198.400 164.400 C 198.180 164.400,198.000 163.860,198.000 163.200 C 198.000 162.540,197.820 162.000,197.600 162.000 C 197.380 162.000,197.200 161.471,197.200 160.824 C 197.200 160.177,197.020 159.536,196.800 159.400 C 196.580 159.264,196.400 158.623,196.400 157.976 C 196.400 157.329,196.220 156.800,196.000 156.800 C 195.780 156.800,195.600 156.080,195.600 155.200 C 195.600 154.320,195.420 153.600,195.200 153.600 C 194.980 153.600,194.800 152.880,194.800 152.000 C 194.800 151.120,194.620 150.400,194.400 150.400 C 194.180 150.400,194.000 149.601,194.000 148.624 C 194.000 147.647,193.820 146.736,193.600 146.600 C 193.380 146.464,193.200 145.553,193.200 144.576 C 193.200 143.599,193.020 142.800,192.800 142.800 C 192.580 142.800,192.400 141.930,192.400 140.867 C 192.400 139.803,192.265 138.800,192.100 138.637 C 191.797 138.337,191.174 132.239,190.359 121.600 C 189.808 114.398,189.798 102.005,190.339 94.600 C 191.165 83.277,191.742 77.600,192.067 77.600 C 192.250 77.600,192.400 76.610,192.400 75.400 C 192.400 74.190,192.580 73.200,192.800 73.200 C 193.020 73.200,193.200 72.300,193.200 71.200 C 193.200 70.100,193.380 69.200,193.600 69.200 C 193.820 69.200,194.000 68.491,194.000 67.624 C 194.000 66.757,194.180 65.936,194.400 65.800 C 194.620 65.664,194.800 64.854,194.800 64.000 C 194.800 63.146,194.980 62.336,195.200 62.200 C 195.420 62.064,195.600 61.434,195.600 60.800 C 195.600 60.166,195.780 59.536,196.000 59.400 C 196.220 59.264,196.400 58.634,196.400 58.000 C 196.400 57.366,196.580 56.736,196.800 56.600 C 197.020 56.464,197.200 55.834,197.200 55.200 C 197.200 54.566,197.380 53.936,197.600 53.800 C 197.820 53.664,198.000 53.023,198.000 52.376 C 198.000 51.729,198.180 51.200,198.400 51.200 C 198.620 51.200,198.800 50.660,198.800 50.000 C 198.800 49.340,198.980 48.800,199.200 48.800 C 199.420 48.800,199.600 48.260,199.600 47.600 C 199.600 46.940,199.780 46.400,200.000 46.400 C 200.220 46.400,200.400 45.860,200.400 45.200 C 200.400 44.540,200.580 44.000,200.800 44.000 C 201.020 44.000,201.200 43.645,201.200 43.212 C 201.200 42.779,201.560 41.783,202.000 41.000 C 202.440 40.217,202.800 39.221,202.800 38.788 C 202.800 38.355,202.980 38.000,203.200 38.000 C 203.420 38.000,203.600 37.728,203.600 37.395 C 203.600 37.062,203.780 36.432,204.000 35.995 C 204.220 35.558,204.580 34.842,204.800 34.405 C 205.020 33.968,205.200 33.338,205.200 33.005 C 205.200 32.672,205.336 32.400,205.503 32.400 C 205.865 32.400,206.800 29.538,206.800 28.430 C 206.800 27.999,206.980 27.536,207.200 27.400 C 208.191 26.787,207.393 14.859,206.286 13.753 C 206.129 13.595,206.000 13.137,206.000 12.733 C 206.000 12.330,205.864 12.000,205.698 12.000 C 205.531 12.000,205.140 11.424,204.828 10.719 C 203.915 8.657,198.256 2.800,197.176 2.800 C 196.951 2.800,196.380 2.440,195.908 2.000 C 195.436 1.560,194.648 1.200,194.158 1.200 C 193.668 1.200,193.193 0.978,193.102 0.706 C 192.935 0.206,180.495 -0.133,177.100 0.270 M49.600 96.800 C 49.600 97.020,49.324 97.200,48.987 97.200 C 48.208 97.200,45.600 99.783,45.600 100.553 C 45.600 100.872,45.461 101.193,45.291 101.267 C 44.818 101.470,42.000 107.029,42.000 107.758 C 42.000 108.111,41.820 108.400,41.600 108.400 C 41.380 108.400,41.200 108.760,41.200 109.200 C 41.200 109.640,41.020 110.000,40.800 110.000 C 40.580 110.000,40.400 110.360,40.400 110.800 C 40.400 111.240,40.220 111.600,40.000 111.600 C 39.780 111.600,39.600 112.050,39.600 112.600 C 39.600 113.150,39.420 113.600,39.200 113.600 C 38.980 113.600,38.800 113.960,38.800 114.400 C 38.800 114.840,38.620 115.200,38.400 115.200 C 38.180 115.200,38.000 115.560,38.000 116.000 C 38.000 116.440,37.820 116.800,37.600 116.800 C 37.380 116.800,37.200 117.340,37.200 118.000 C 37.200 118.660,37.020 119.200,36.800 119.200 C 36.580 119.200,36.400 119.560,36.400 120.000 C 36.400 120.440,36.220 120.800,36.000 120.800 C 35.780 120.800,35.600 121.149,35.600 121.576 C 35.600 122.003,35.420 122.464,35.200 122.600 C 34.980 122.736,34.800 123.287,34.800 123.824 C 34.800 124.361,34.620 124.800,34.400 124.800 C 34.180 124.800,34.000 125.250,34.000 125.800 C 34.000 126.350,33.820 126.800,33.600 126.800 C 33.380 126.800,33.200 127.250,33.200 127.800 C 33.200 128.350,33.020 128.800,32.800 128.800 C 32.580 128.800,32.400 129.239,32.400 129.776 C 32.400 130.313,32.220 130.864,32.000 131.000 C 31.780 131.136,31.600 131.676,31.600 132.200 C 31.600 132.724,31.420 133.264,31.200 133.400 C 30.980 133.536,30.800 134.076,30.800 134.600 C 30.800 135.124,30.620 135.664,30.400 135.800 C 30.180 135.936,30.000 136.566,30.000 137.200 C 30.000 137.834,29.820 138.464,29.600 138.600 C 29.380 138.736,29.200 139.377,29.200 140.024 C 29.200 140.671,29.040 141.200,28.844 141.200 C 28.648 141.200,28.395 141.785,28.281 142.500 C 28.167 143.215,27.866 144.520,27.611 145.400 C 26.501 149.228,25.730 152.805,25.153 156.800 C 24.915 158.450,24.558 160.113,24.360 160.495 C 24.162 160.877,24.000 162.092,24.000 163.195 C 24.000 164.298,23.820 165.200,23.600 165.200 C 23.371 165.200,23.200 166.400,23.200 168.000 C 23.200 169.600,23.029 170.800,22.800 170.800 C 22.567 170.800,22.400 172.133,22.400 174.000 C 22.400 175.867,22.233 177.200,22.000 177.200 C 21.755 177.200,21.600 179.133,21.600 182.200 C 21.600 185.267,21.445 187.200,21.200 187.200 C 20.653 187.200,20.653 209.062,21.200 209.400 C 21.432 209.543,21.600 211.737,21.600 214.624 C 21.600 217.675,21.755 219.600,22.000 219.600 C 22.233 219.600,22.400 220.933,22.400 222.800 C 22.400 224.667,22.567 226.000,22.800 226.000 C 23.025 226.000,23.200 227.125,23.200 228.576 C 23.200 229.993,23.380 231.264,23.600 231.400 C 23.820 231.536,24.000 232.537,24.000 233.624 C 24.000 234.711,24.154 235.600,24.342 235.600 C 24.531 235.600,24.807 237.063,24.956 238.852 C 25.105 240.640,25.401 242.429,25.614 242.826 C 25.826 243.223,26.000 244.189,26.000 244.974 C 26.000 245.758,26.180 246.400,26.400 246.400 C 26.620 246.400,26.800 247.120,26.800 248.000 C 26.800 248.880,26.980 249.600,27.200 249.600 C 27.420 249.600,27.600 250.219,27.600 250.976 C 27.600 251.733,27.780 252.464,28.000 252.600 C 28.220 252.736,28.400 253.366,28.400 254.000 C 28.400 254.634,28.580 255.264,28.800 255.400 C 29.020 255.536,29.200 256.177,29.200 256.824 C 29.200 257.471,29.380 258.000,29.600 258.000 C 29.820 258.000,30.000 258.540,30.000 259.200 C 30.000 259.860,30.180 260.400,30.400 260.400 C 30.620 260.400,30.800 260.940,30.800 261.600 C 30.800 262.260,30.980 262.800,31.200 262.800 C 31.420 262.800,31.600 263.340,31.600 264.000 C 31.600 264.660,31.780 265.200,32.000 265.200 C 32.220 265.200,32.400 265.740,32.400 266.400 C 32.400 267.060,32.580 267.600,32.800 267.600 C 33.020 267.600,33.200 267.949,33.200 268.376 C 33.200 268.803,33.380 269.264,33.600 269.400 C 33.820 269.536,34.000 270.087,34.000 270.624 C 34.000 271.161,34.180 271.600,34.400 271.600 C 34.620 271.600,34.800 272.050,34.800 272.600 C 34.800 273.150,34.980 273.600,35.200 273.600 C 35.420 273.600,35.600 273.960,35.600 274.400 C 35.600 274.840,35.780 275.200,36.000 275.200 C 36.220 275.200,36.400 275.740,36.400 276.400 C 36.400 277.060,36.580 277.600,36.800 277.600 C 37.020 277.600,37.200 277.960,37.200 278.400 C 37.200 278.840,37.380 279.200,37.600 279.200 C 37.820 279.200,38.000 279.560,38.000 280.000 C 38.000 280.440,38.180 280.800,38.400 280.800 C 38.620 280.800,38.800 281.160,38.800 281.600 C 38.800 282.040,38.980 282.400,39.200 282.400 C 39.420 282.400,39.600 282.839,39.600 283.376 C 39.600 283.913,39.780 284.464,40.000 284.600 C 40.220 284.736,40.400 285.197,40.400 285.624 C 40.400 286.051,40.580 286.400,40.800 286.400 C 41.020 286.400,41.200 286.745,41.200 287.167 C 41.200 287.588,41.335 287.993,41.500 288.067 C 41.665 288.140,42.511 289.685,43.380 291.500 C 44.249 293.315,45.104 294.800,45.280 294.800 C 45.456 294.800,45.600 295.160,45.600 295.600 C 45.600 296.040,45.780 296.400,46.000 296.400 C 46.220 296.400,46.400 296.760,46.400 297.200 C 46.400 297.640,46.580 298.000,46.800 298.000 C 47.020 298.000,47.200 298.278,47.200 298.617 C 47.200 298.956,47.560 299.620,48.000 300.092 C 48.440 300.564,48.800 301.187,48.800 301.475 C 48.800 301.764,48.980 302.000,49.200 302.000 C 49.420 302.000,49.600 302.278,49.600 302.617 C 49.600 302.956,49.960 303.620,50.400 304.092 C 50.840 304.564,51.200 305.187,51.200 305.475 C 51.200 305.764,51.380 306.000,51.600 306.000 C 51.820 306.000,52.000 306.230,52.000 306.512 C 52.000 306.793,52.360 307.283,52.800 307.600 C 53.240 307.917,53.600 308.457,53.600 308.800 C 53.600 309.143,53.960 309.683,54.400 310.000 C 54.840 310.317,55.200 310.857,55.200 311.200 C 55.200 311.543,55.560 312.083,56.000 312.400 C 56.440 312.717,56.800 313.231,56.800 313.541 C 56.800 313.852,57.115 314.397,57.500 314.753 C 57.885 315.109,58.546 316.030,58.970 316.800 C 59.393 317.570,59.845 318.290,59.973 318.400 C 60.102 318.510,60.656 319.274,61.204 320.097 C 61.752 320.921,62.335 321.596,62.500 321.597 C 62.665 321.599,62.800 321.808,62.800 322.062 C 62.800 322.317,63.520 323.231,64.400 324.093 C 65.280 324.956,66.000 325.839,66.000 326.057 C 66.000 326.274,66.900 327.329,68.000 328.400 C 69.100 329.471,70.000 330.534,70.000 330.761 C 70.000 331.217,74.004 335.510,79.119 340.538 C 87.664 348.938,90.885 352.000,91.178 352.000 C 91.352 352.000,92.283 352.765,93.247 353.700 C 95.226 355.619,97.597 357.510,99.143 358.400 C 99.716 358.730,100.666 359.495,101.253 360.100 C 101.840 360.705,102.569 361.200,102.872 361.200 C 103.175 361.200,103.683 361.560,104.000 362.000 C 104.317 362.440,104.780 362.800,105.029 362.800 C 105.278 362.800,106.006 363.295,106.648 363.900 C 107.289 364.505,108.306 365.255,108.907 365.568 C 109.508 365.880,110.000 366.285,110.000 366.468 C 110.000 366.650,110.270 366.800,110.600 366.800 C 110.930 366.800,111.200 366.980,111.200 367.200 C 111.200 367.420,111.470 367.600,111.800 367.600 C 112.130 367.600,112.400 367.780,112.400 368.000 C 112.400 368.220,112.670 368.400,113.000 368.400 C 113.330 368.400,113.600 368.580,113.600 368.800 C 113.600 369.020,113.836 369.200,114.125 369.200 C 114.413 369.200,115.036 369.560,115.508 370.000 C 115.980 370.440,116.644 370.800,116.983 370.800 C 117.322 370.800,117.600 370.958,117.600 371.151 C 117.600 371.345,118.140 371.727,118.800 372.000 C 119.460 372.273,120.000 372.655,120.000 372.849 C 120.000 373.042,120.345 373.200,120.767 373.200 C 121.188 373.200,121.593 373.335,121.667 373.500 C 121.877 373.973,124.256 375.200,124.962 375.200 C 125.313 375.200,125.600 375.380,125.600 375.600 C 125.600 375.820,125.870 376.000,126.200 376.000 C 126.530 376.000,126.800 376.180,126.800 376.400 C 126.800 376.620,127.160 376.800,127.600 376.800 C 128.040 376.800,128.400 376.980,128.400 377.200 C 128.400 377.420,128.760 377.600,129.200 377.600 C 129.640 377.600,130.000 377.780,130.000 378.000 C 130.000 378.220,130.360 378.400,130.800 378.400 C 131.240 378.400,131.600 378.580,131.600 378.800 C 131.600 379.020,131.960 379.200,132.400 379.200 C 132.840 379.200,133.200 379.380,133.200 379.600 C 133.200 379.820,133.560 380.000,134.000 380.000 C 134.440 380.000,134.800 380.180,134.800 380.400 C 134.800 380.620,135.160 380.800,135.600 380.800 C 136.040 380.800,136.400 380.980,136.400 381.200 C 136.400 381.420,136.760 381.600,137.200 381.600 C 137.640 381.600,138.000 381.780,138.000 382.000 C 138.000 382.220,138.360 382.400,138.800 382.400 C 139.240 382.400,139.600 382.580,139.600 382.800 C 139.600 383.020,139.872 383.200,140.205 383.200 C 140.538 383.200,141.123 383.357,141.505 383.550 C 144.611 385.114,145.779 385.600,146.438 385.600 C 146.857 385.600,147.200 385.780,147.200 386.000 C 147.200 386.220,147.560 386.400,148.000 386.400 C 148.440 386.400,148.800 386.580,148.800 386.800 C 148.800 387.020,149.325 387.200,149.967 387.200 C 150.608 387.200,151.193 387.335,151.267 387.501 C 151.340 387.666,152.660 388.215,154.200 388.721 C 155.740 389.227,157.360 389.787,157.800 389.966 C 160.066 390.886,162.743 391.604,163.900 391.602 C 164.615 391.601,165.200 391.780,165.200 392.000 C 165.200 392.220,165.740 392.400,166.400 392.400 C 167.060 392.400,167.600 392.580,167.600 392.800 C 167.600 393.020,168.219 393.200,168.976 393.200 C 169.733 393.200,170.464 393.380,170.600 393.600 C 170.736 393.820,171.377 394.000,172.024 394.000 C 172.671 394.000,173.200 394.180,173.200 394.400 C 173.200 394.620,174.010 394.800,175.000 394.800 C 175.990 394.800,176.800 394.980,176.800 395.200 C 176.800 395.420,177.520 395.600,178.400 395.600 C 179.280 395.600,180.000 395.780,180.000 396.000 C 180.000 396.220,180.900 396.400,182.000 396.400 C 183.100 396.400,184.000 396.580,184.000 396.800 C 184.000 397.020,184.900 397.200,186.000 397.200 C 187.100 397.200,188.000 397.380,188.000 397.600 C 188.000 397.822,189.067 398.000,190.400 398.000 C 191.733 398.000,192.800 398.178,192.800 398.400 C 192.800 398.624,193.907 398.800,195.320 398.800 C 196.803 398.800,198.046 399.006,198.340 399.300 C 198.729 399.689,204.343 399.800,223.687 399.800 C 243.208 399.800,248.569 399.693,248.700 399.300 C 248.812 398.964,249.776 398.800,251.633 398.800 C 253.211 398.800,254.400 398.628,254.400 398.400 C 254.400 398.180,255.379 398.000,256.576 398.000 C 257.773 398.000,258.864 397.820,259.000 397.600 C 259.136 397.380,260.227 397.200,261.424 397.200 C 262.621 397.200,263.600 397.020,263.600 396.800 C 263.600 396.580,264.399 396.400,265.376 396.400 C 266.353 396.400,267.264 396.220,267.400 396.000 C 267.536 395.780,268.357 395.600,269.224 395.600 C 270.091 395.600,270.800 395.420,270.800 395.200 C 270.800 394.980,271.419 394.800,272.176 394.800 C 272.933 394.800,273.664 394.620,273.800 394.400 C 273.936 394.180,274.667 394.000,275.424 394.000 C 276.181 394.000,276.800 393.820,276.800 393.600 C 276.800 393.380,277.329 393.200,277.976 393.200 C 278.623 393.200,279.264 393.020,279.400 392.800 C 279.536 392.580,280.267 392.400,281.024 392.400 C 281.781 392.400,282.400 392.220,282.400 392.000 C 282.400 391.780,282.829 391.600,283.354 391.600 C 284.378 391.600,288.153 390.560,289.295 389.963 C 289.677 389.763,290.352 389.600,290.795 389.600 C 291.238 389.600,291.600 389.420,291.600 389.200 C 291.600 388.980,292.039 388.800,292.576 388.800 C 293.113 388.800,293.664 388.620,293.800 388.400 C 293.936 388.180,294.397 388.000,294.824 388.000 C 295.251 388.000,295.600 387.820,295.600 387.600 C 295.600 387.380,296.140 387.200,296.800 387.200 C 297.460 387.200,298.000 387.020,298.000 386.800 C 298.000 386.580,298.349 386.400,298.776 386.400 C 299.203 386.400,299.664 386.220,299.800 386.000 C 299.936 385.780,300.487 385.600,301.024 385.600 C 301.561 385.600,302.000 385.420,302.000 385.200 C 302.000 384.980,302.360 384.800,302.800 384.800 C 303.240 384.800,303.600 384.620,303.600 384.400 C 303.600 384.180,303.949 384.000,304.376 384.000 C 304.803 384.000,305.264 383.820,305.400 383.600 C 305.536 383.380,305.997 383.200,306.424 383.200 C 306.851 383.200,307.200 383.020,307.200 382.800 C 307.200 382.580,307.560 382.400,308.000 382.400 C 308.440 382.400,308.800 382.220,308.800 382.000 C 308.800 381.780,309.160 381.600,309.600 381.600 C 310.040 381.600,310.400 381.420,310.400 381.200 C 310.400 380.980,310.760 380.800,311.200 380.800 C 311.640 380.800,312.000 380.620,312.000 380.400 C 312.000 380.180,312.360 380.000,312.800 380.000 C 313.240 380.000,313.600 379.820,313.600 379.600 C 313.600 379.380,313.960 379.200,314.400 379.200 C 314.840 379.200,315.200 379.020,315.200 378.800 C 315.200 378.580,315.560 378.400,316.000 378.400 C 316.440 378.400,316.800 378.220,316.800 378.000 C 316.800 377.780,317.160 377.600,317.600 377.600 C 318.040 377.600,318.400 377.420,318.400 377.200 C 318.400 376.980,318.760 376.800,319.200 376.800 C 319.640 376.800,320.000 376.620,320.000 376.400 C 320.000 376.180,320.360 376.000,320.800 376.000 C 321.240 376.000,321.600 375.860,321.600 375.690 C 321.600 375.519,322.408 375.024,323.396 374.590 C 324.384 374.155,325.194 373.665,325.196 373.500 C 325.198 373.335,325.436 373.200,325.725 373.200 C 326.013 373.200,326.636 372.840,327.108 372.400 C 327.580 371.960,328.244 371.600,328.583 371.600 C 328.922 371.600,329.200 371.420,329.200 371.200 C 329.200 370.980,329.436 370.800,329.725 370.800 C 330.013 370.800,330.636 370.440,331.108 370.000 C 331.580 369.560,332.244 369.200,332.583 369.200 C 332.922 369.200,333.200 369.050,333.200 368.868 C 333.200 368.685,333.695 368.281,334.300 367.970 C 334.905 367.660,335.691 367.089,336.047 366.703 C 336.403 366.316,336.922 366.000,337.200 366.000 C 337.478 366.000,337.997 365.684,338.353 365.297 C 338.709 364.911,339.495 364.340,340.100 364.030 C 340.705 363.719,341.200 363.315,341.200 363.132 C 341.200 362.950,341.430 362.800,341.712 362.800 C 341.993 362.800,342.483 362.440,342.800 362.000 C 343.117 361.560,343.569 361.200,343.804 361.200 C 344.040 361.200,345.028 360.480,346.000 359.600 C 346.972 358.720,347.957 358.000,348.188 358.000 C 348.419 358.000,349.056 357.590,349.604 357.089 C 350.152 356.587,351.230 355.738,352.000 355.202 C 352.770 354.665,354.061 353.545,354.869 352.713 C 355.676 351.881,356.443 351.200,356.573 351.200 C 356.702 351.200,358.874 349.175,361.398 346.700 C 363.923 344.225,367.656 340.567,369.694 338.571 C 374.130 334.227,375.200 332.988,375.200 332.197 C 375.200 331.869,375.380 331.600,375.600 331.600 C 375.820 331.600,376.000 331.240,376.000 330.800 C 376.000 330.360,376.180 330.000,376.400 330.000 C 376.620 330.000,376.800 329.640,376.800 329.200 C 376.800 328.760,376.980 328.400,377.200 328.400 C 377.420 328.400,377.600 328.040,377.600 327.600 C 377.600 327.160,377.780 326.800,378.000 326.800 C 378.220 326.800,378.400 326.001,378.400 325.024 C 378.400 324.047,378.580 323.136,378.800 323.000 C 379.020 322.864,379.200 321.154,379.200 319.200 C 379.200 317.246,379.020 315.536,378.800 315.400 C 378.580 315.264,378.400 314.443,378.400 313.576 C 378.400 312.709,378.220 312.000,378.000 312.000 C 377.780 312.000,377.600 311.676,377.600 311.280 C 377.600 310.386,376.706 308.407,376.300 308.403 C 376.135 308.401,376.000 308.040,376.000 307.600 C 376.000 307.160,375.842 306.800,375.649 306.800 C 375.455 306.800,375.090 306.305,374.837 305.700 C 374.246 304.286,372.576 302.426,370.800 301.203 C 370.030 300.672,369.310 300.140,369.200 300.019 C 368.769 299.547,367.180 298.800,366.605 298.800 C 366.272 298.800,366.000 298.620,366.000 298.400 C 366.000 298.180,365.640 298.000,365.200 298.000 C 364.760 298.000,364.400 297.820,364.400 297.600 C 364.400 297.380,363.680 297.200,362.800 297.200 C 361.920 297.200,361.200 297.020,361.200 296.800 C 361.200 296.578,360.141 296.400,358.824 296.400 C 357.517 296.400,356.336 296.220,356.200 296.000 C 356.064 295.780,354.714 295.600,353.200 295.600 C 351.686 295.600,350.336 295.420,350.200 295.200 C 350.064 294.980,349.074 294.800,348.000 294.800 C 346.926 294.800,345.936 294.620,345.800 294.400 C 345.664 294.180,344.663 294.000,343.576 294.000 C 342.489 294.000,341.600 293.838,341.600 293.640 C 341.600 293.442,340.835 293.190,339.900 293.079 C 338.965 292.969,336.760 292.573,335.000 292.201 C 333.240 291.828,331.215 291.431,330.500 291.318 C 329.785 291.205,329.200 290.952,329.200 290.756 C 329.200 290.560,328.480 290.400,327.600 290.400 C 326.720 290.400,326.000 290.220,326.000 290.000 C 326.000 289.780,325.460 289.600,324.800 289.600 C 324.140 289.600,323.600 289.420,323.600 289.200 C 323.600 288.980,323.060 288.800,322.400 288.800 C 321.740 288.800,321.200 288.620,321.200 288.400 C 321.200 288.180,320.748 288.000,320.195 288.000 C 319.642 288.000,318.832 287.820,318.395 287.600 C 317.958 287.380,317.242 287.020,316.805 286.800 C 316.368 286.580,315.648 286.400,315.205 286.400 C 314.762 286.400,314.400 286.220,314.400 286.000 C 314.400 285.780,313.860 285.600,313.200 285.600 C 312.540 285.600,312.000 285.420,312.000 285.200 C 312.000 284.980,311.561 284.800,311.024 284.800 C 310.487 284.800,309.936 284.620,309.800 284.400 C 309.664 284.180,309.203 284.000,308.776 284.000 C 308.349 284.000,308.000 283.820,308.000 283.600 C 308.000 283.380,307.640 283.200,307.200 283.200 C 306.760 283.200,306.400 283.020,306.400 282.800 C 306.400 282.580,305.950 282.400,305.400 282.400 C 304.850 282.400,304.400 282.220,304.400 282.000 C 304.400 281.780,304.040 281.600,303.600 281.600 C 303.160 281.600,302.800 281.420,302.800 281.200 C 302.800 280.980,302.547 280.800,302.238 280.800 C 301.753 280.800,300.480 280.248,297.505 278.750 C 297.123 278.557,296.538 278.400,296.205 278.400 C 295.872 278.400,295.600 278.220,295.600 278.000 C 295.600 277.780,295.240 277.600,294.800 277.600 C 294.360 277.600,294.000 277.420,294.000 277.200 C 294.000 276.969,292.733 276.800,291.000 276.800 C 289.350 276.800,287.999 276.935,287.997 277.100 C 287.996 277.265,287.501 277.681,286.897 278.024 C 285.461 278.841,285.238 284.552,286.565 286.523 C 287.322 287.645,294.748 291.499,300.900 293.960 C 301.395 294.158,302.653 294.698,303.696 295.160 C 304.738 295.622,305.833 296.000,306.129 296.000 C 306.425 296.000,306.786 296.119,306.932 296.265 C 307.780 297.113,323.697 302.130,331.300 303.946 C 333.069 304.369,334.051 304.591,338.500 305.577 C 339.435 305.784,340.920 306.071,341.800 306.215 C 342.680 306.358,344.300 306.640,345.400 306.840 C 347.625 307.245,352.542 307.960,355.000 308.235 C 361.980 309.016,365.643 311.888,366.817 317.500 C 367.771 322.058,366.465 324.377,358.420 332.415 C 340.309 350.508,318.408 365.137,296.100 374.041 C 293.201 375.198,292.181 375.613,290.200 376.442 C 280.919 380.325,258.471 385.677,246.000 386.981 C 223.894 389.291,204.640 388.285,182.600 383.669 C 176.359 382.361,161.361 377.984,157.800 376.430 C 157.360 376.238,156.370 375.864,155.600 375.600 C 153.958 375.036,153.167 374.726,151.000 373.793 C 150.120 373.415,148.860 372.876,148.200 372.596 C 140.071 369.145,128.493 363.153,123.728 359.931 C 122.808 359.309,121.945 358.800,121.810 358.800 C 120.909 358.800,103.518 346.216,100.555 343.420 C 100.310 343.189,98.960 342.014,97.555 340.810 C 91.267 335.420,79.651 323.262,73.999 316.156 C 69.292 310.239,61.532 298.813,58.951 294.000 C 58.538 293.230,58.110 292.510,58.000 292.400 C 57.653 292.053,56.747 290.364,53.816 284.600 C 51.123 279.305,50.106 277.130,48.579 273.400 C 48.219 272.520,47.653 271.170,47.321 270.400 C 45.853 266.990,45.342 265.680,44.745 263.800 C 44.465 262.920,44.093 262.029,43.918 261.820 C 43.743 261.611,43.600 261.037,43.600 260.544 C 43.600 260.051,43.420 259.536,43.200 259.400 C 42.980 259.264,42.800 258.801,42.800 258.371 C 42.800 257.941,42.638 257.277,42.441 256.895 C 42.244 256.513,41.682 254.850,41.193 253.200 C 40.704 251.550,40.159 249.750,39.983 249.200 C 39.703 248.325,38.789 244.586,37.585 239.400 C 30.940 210.763,32.017 175.104,40.411 145.800 C 40.600 145.140,40.923 143.970,41.129 143.200 C 41.590 141.475,44.303 133.296,44.777 132.200 C 44.968 131.760,45.712 129.870,46.431 128.000 C 48.753 121.957,51.963 114.936,55.207 108.800 C 57.787 103.920,57.880 101.487,55.572 99.308 C 54.954 98.726,54.344 97.833,54.217 97.324 C 53.972 96.349,49.600 95.852,49.600 96.800 M132.357 282.199 C 130.014 283.473,129.800 284.316,129.800 292.293 L 129.800 299.587 131.307 301.093 C 132.712 302.499,132.974 302.600,135.200 302.600 C 137.426 302.600,137.688 302.499,139.093 301.093 L 140.600 299.587 140.600 292.293 C 140.600 284.264,140.383 283.432,137.960 282.180 C 136.547 281.449,133.720 281.458,132.357 282.199 M239.768 282.354 C 237.472 283.755,237.117 285.226,237.267 292.730 C 237.411 299.966,237.526 300.386,239.775 301.927 C 244.840 305.397,248.396 301.504,248.399 292.487 C 248.401 282.898,245.145 279.075,239.768 282.354 M172.200 292.080 C 168.730 294.058,168.349 298.204,171.351 301.315 C 174.198 304.266,179.431 307.600,181.217 307.600 C 181.622 307.600,182.064 307.780,182.200 308.000 C 182.336 308.220,182.987 308.400,183.646 308.400 C 184.306 308.400,185.655 308.604,186.644 308.853 C 194.362 310.796,208.400 303.156,208.400 297.012 C 208.400 291.270,203.109 289.666,198.266 293.941 C 196.287 295.689,194.951 296.501,192.999 297.141 C 187.725 298.873,184.701 298.044,178.600 293.194 C 176.464 291.496,173.983 291.064,172.200 292.080 " stroke="none" fill="#050505" fill-rule="evenodd"></path><path id="path1" d="M182.000 12.469 C 181.230 12.683,179.970 13.012,179.200 13.202 C 170.315 15.390,158.210 19.204,153.704 21.236 C 152.772 21.656,151.832 22.000,151.617 22.000 C 151.401 22.000,150.544 22.390,149.712 22.868 C 147.149 24.338,145.267 25.200,144.619 25.200 C 144.279 25.200,144.000 25.380,144.000 25.600 C 144.000 25.820,143.640 26.000,143.200 26.000 C 142.760 26.000,142.400 26.180,142.400 26.400 C 142.400 26.620,142.040 26.800,141.600 26.800 C 141.160 26.800,140.800 26.980,140.800 27.200 C 140.800 27.420,140.440 27.600,140.000 27.600 C 139.560 27.600,139.199 27.735,139.199 27.900 C 139.198 28.065,138.208 28.650,137.000 29.200 C 135.792 29.750,134.802 30.335,134.801 30.500 C 134.801 30.665,134.440 30.800,134.000 30.800 C 133.560 30.800,133.199 30.935,133.197 31.100 C 133.195 31.265,132.790 31.587,132.297 31.817 C 131.035 32.403,127.840 34.160,127.600 34.400 C 127.490 34.510,126.995 34.825,126.500 35.100 C 126.005 35.375,125.195 35.825,124.700 36.100 C 124.205 36.375,123.710 36.694,123.600 36.809 C 123.490 36.925,121.915 37.914,120.100 39.008 C 118.285 40.103,116.800 41.134,116.800 41.299 C 116.800 41.465,116.575 41.600,116.300 41.601 C 116.025 41.601,115.170 42.141,114.400 42.800 C 113.630 43.459,112.815 43.999,112.588 43.999 C 112.362 44.000,111.917 44.360,111.600 44.800 C 111.283 45.240,110.820 45.600,110.571 45.600 C 110.322 45.600,109.587 46.095,108.937 46.700 C 108.288 47.305,106.956 48.428,105.978 49.194 C 103.397 51.219,101.786 52.559,99.800 54.332 C 99.140 54.922,97.790 56.030,96.800 56.795 C 94.820 58.326,89.107 64.045,84.658 68.952 C 83.086 70.685,81.078 72.845,80.195 73.752 C 79.312 74.658,78.150 76.030,77.614 76.800 C 77.077 77.570,76.353 78.470,76.005 78.800 C 75.657 79.130,74.522 80.603,73.484 82.074 C 70.534 86.254,65.665 88.225,63.540 86.100 C 62.647 85.207,60.400 85.859,60.400 87.010 C 60.400 87.156,60.045 87.775,59.612 88.383 C 59.178 88.992,58.938 89.605,59.078 89.745 C 59.219 89.885,59.123 90.000,58.867 90.000 C 58.610 90.000,58.400 90.270,58.400 90.600 C 58.400 90.930,58.220 91.200,58.000 91.200 C 57.780 91.200,57.600 91.442,57.600 91.738 C 57.600 92.034,57.240 92.602,56.800 93.000 C 56.360 93.398,56.000 93.966,56.000 94.262 C 56.000 94.558,55.820 94.800,55.600 94.800 C 55.380 94.800,55.200 95.145,55.200 95.567 C 55.200 95.988,54.975 96.409,54.700 96.502 C 54.100 96.704,55.002 97.997,55.749 98.005 C 56.787 98.016,58.000 100.752,58.006 103.094 C 58.011 105.164,57.699 106.035,54.962 111.600 C 53.284 115.010,51.572 118.492,51.156 119.338 C 50.740 120.184,50.400 121.129,50.400 121.438 C 50.400 121.747,50.220 122.000,50.000 122.000 C 49.780 122.000,49.600 122.272,49.600 122.605 C 49.600 122.938,49.392 123.613,49.138 124.105 C 48.167 125.982,48.000 126.407,48.000 126.995 C 48.000 127.328,47.820 127.600,47.600 127.600 C 47.380 127.600,47.200 127.962,47.200 128.405 C 47.200 128.848,47.020 129.568,46.800 130.005 C 46.580 130.442,46.220 131.158,46.000 131.595 C 45.780 132.032,45.600 132.752,45.600 133.195 C 45.600 133.638,45.420 134.000,45.200 134.000 C 44.980 134.000,44.800 134.439,44.800 134.976 C 44.800 135.513,44.620 136.064,44.400 136.200 C 44.180 136.336,44.000 136.887,44.000 137.424 C 44.000 137.961,43.820 138.400,43.600 138.400 C 43.380 138.400,43.200 138.940,43.200 139.600 C 43.200 140.260,43.020 140.800,42.800 140.800 C 42.580 140.800,42.400 141.329,42.400 141.976 C 42.400 142.623,42.220 143.264,42.000 143.400 C 41.780 143.536,41.600 144.089,41.600 144.629 C 41.600 145.169,41.437 145.923,41.237 146.305 C 40.810 147.122,39.548 152.634,37.966 160.600 C 37.123 164.843,36.750 167.073,36.559 169.000 C 36.450 170.100,36.197 171.360,35.995 171.800 C 35.794 172.240,35.531 173.950,35.411 175.600 C 35.291 177.250,34.996 180.940,34.757 183.800 C 33.910 193.923,34.276 210.632,35.572 221.000 C 36.731 230.278,39.520 244.540,41.208 249.828 C 41.424 250.504,41.600 251.449,41.600 251.928 C 41.600 252.408,41.780 252.800,42.000 252.800 C 42.220 252.800,42.400 253.340,42.400 254.000 C 42.400 254.660,42.580 255.200,42.800 255.200 C 43.020 255.200,43.200 255.740,43.200 256.400 C 43.200 257.060,43.380 257.600,43.600 257.600 C 43.820 257.600,44.000 258.140,44.000 258.800 C 44.000 259.460,44.180 260.000,44.400 260.000 C 44.620 260.000,44.800 260.540,44.800 261.200 C 44.800 261.860,44.980 262.400,45.200 262.400 C 45.420 262.400,45.600 262.850,45.600 263.400 C 45.600 263.950,45.780 264.400,46.000 264.400 C 46.220 264.400,46.400 264.839,46.400 265.376 C 46.400 265.913,46.580 266.464,46.800 266.600 C 47.020 266.736,47.200 267.197,47.200 267.624 C 47.200 268.051,47.380 268.400,47.600 268.400 C 47.820 268.400,48.000 268.749,48.000 269.176 C 48.000 269.603,48.180 270.064,48.400 270.200 C 48.620 270.336,48.800 270.887,48.800 271.424 C 48.800 271.961,48.980 272.400,49.200 272.400 C 49.420 272.400,49.600 272.653,49.600 272.962 C 49.600 273.271,49.941 274.216,50.358 275.062 C 50.775 275.908,52.704 279.840,54.644 283.800 C 56.585 287.760,58.314 291.060,58.486 291.133 C 58.659 291.207,58.800 291.612,58.800 292.033 C 58.800 292.455,58.980 292.800,59.200 292.800 C 59.420 292.800,59.600 293.070,59.600 293.400 C 59.600 293.730,59.780 294.000,60.000 294.000 C 60.220 294.000,60.400 294.270,60.400 294.600 C 60.400 294.930,60.580 295.200,60.800 295.200 C 61.020 295.200,61.200 295.393,61.200 295.628 C 61.200 295.863,61.740 296.841,62.400 297.800 C 63.060 298.759,63.600 299.737,63.600 299.972 C 63.600 300.207,63.750 300.400,63.932 300.400 C 64.115 300.400,64.520 300.895,64.832 301.500 C 65.145 302.105,65.715 302.949,66.100 303.375 C 66.485 303.802,66.800 304.387,66.800 304.675 C 66.800 304.964,66.950 305.200,67.132 305.200 C 67.315 305.200,67.720 305.695,68.032 306.300 C 68.344 306.905,68.702 307.490,68.829 307.600 C 68.955 307.710,70.124 309.240,71.427 311.000 C 72.730 312.760,73.895 314.290,74.017 314.400 C 74.139 314.510,74.673 315.230,75.204 316.000 C 75.735 316.770,76.633 317.850,77.200 318.400 C 77.767 318.950,78.651 319.999,79.165 320.731 C 80.213 322.225,86.177 328.497,90.960 333.136 C 92.698 334.821,95.260 337.325,96.653 338.700 C 98.046 340.075,99.276 341.200,99.388 341.200 C 99.575 341.200,100.636 342.014,101.745 343.008 C 101.995 343.233,103.100 344.133,104.200 345.008 C 105.300 345.884,106.290 346.699,106.400 346.819 C 106.510 346.940,107.230 347.474,108.000 348.006 C 108.770 348.538,109.632 349.198,109.915 349.473 C 110.198 349.747,110.963 350.287,111.615 350.672 C 112.267 351.057,112.800 351.514,112.800 351.686 C 112.800 351.859,113.025 352.000,113.300 352.001 C 113.575 352.001,114.430 352.541,115.200 353.200 C 115.970 353.859,116.810 354.399,117.067 354.399 C 117.323 354.400,117.593 354.547,117.667 354.728 C 117.848 355.175,122.660 358.400,123.145 358.400 C 123.358 358.400,123.593 358.548,123.667 358.729 C 123.740 358.910,125.060 359.739,126.600 360.570 C 128.140 361.401,130.390 362.629,131.600 363.299 C 136.095 365.789,142.957 369.200,143.470 369.200 C 143.762 369.200,144.000 369.380,144.000 369.600 C 144.000 369.820,144.360 370.000,144.800 370.000 C 145.240 370.000,145.600 370.180,145.600 370.400 C 145.600 370.620,145.960 370.800,146.400 370.800 C 146.840 370.800,147.200 370.980,147.200 371.200 C 147.200 371.420,147.639 371.600,148.176 371.600 C 148.713 371.600,149.264 371.780,149.400 372.000 C 149.536 372.220,149.997 372.400,150.424 372.400 C 150.851 372.400,151.200 372.580,151.200 372.800 C 151.200 373.020,151.472 373.200,151.805 373.200 C 152.393 373.200,152.818 373.367,154.695 374.338 C 155.187 374.592,155.952 374.800,156.395 374.800 C 156.838 374.800,157.200 374.980,157.200 375.200 C 157.200 375.420,157.435 375.600,157.721 375.600 C 158.008 375.600,160.213 376.231,162.621 377.002 C 165.030 377.773,167.720 378.600,168.600 378.841 C 169.480 379.081,170.513 379.440,170.895 379.639 C 171.277 379.838,171.894 380.000,172.266 380.000 C 173.023 380.000,175.429 380.711,176.495 381.249 C 176.877 381.442,177.811 381.600,178.571 381.600 C 179.331 381.600,180.064 381.780,180.200 382.000 C 180.336 382.220,181.056 382.400,181.800 382.400 C 182.544 382.400,183.264 382.580,183.400 382.800 C 183.536 383.020,184.436 383.200,185.400 383.200 C 186.364 383.200,187.264 383.380,187.400 383.600 C 187.536 383.820,188.537 384.000,189.624 384.000 C 190.711 384.000,191.600 384.180,191.600 384.400 C 191.600 384.622,192.659 384.800,193.976 384.800 C 195.283 384.800,196.464 384.980,196.600 385.200 C 196.736 385.420,198.086 385.600,199.600 385.600 C 201.114 385.600,202.464 385.780,202.600 386.000 C 202.738 386.223,204.596 386.400,206.800 386.400 C 209.004 386.400,210.862 386.577,211.000 386.800 C 211.337 387.346,237.063 387.346,237.400 386.800 C 237.538 386.577,239.396 386.400,241.600 386.400 C 243.804 386.400,245.662 386.223,245.800 386.000 C 245.936 385.780,247.286 385.600,248.800 385.600 C 250.314 385.600,251.664 385.420,251.800 385.200 C 251.936 384.980,253.016 384.800,254.200 384.800 C 255.384 384.800,256.464 384.620,256.600 384.400 C 256.736 384.180,257.726 384.000,258.800 384.000 C 259.874 384.000,260.864 383.820,261.000 383.600 C 261.136 383.380,261.946 383.200,262.800 383.200 C 263.654 383.200,264.464 383.020,264.600 382.800 C 264.736 382.580,265.546 382.400,266.400 382.400 C 267.254 382.400,268.064 382.220,268.200 382.000 C 268.336 381.780,268.829 381.600,269.295 381.600 C 269.762 381.600,270.696 381.432,271.372 381.227 C 272.047 381.022,273.410 380.644,274.400 380.388 C 275.390 380.132,276.513 379.760,276.895 379.561 C 277.277 379.362,277.954 379.200,278.400 379.200 C 278.846 379.200,279.523 379.036,279.905 378.835 C 280.287 378.633,282.670 377.817,285.200 377.020 C 287.730 376.223,290.113 375.397,290.495 375.185 C 290.877 374.973,291.552 374.800,291.995 374.800 C 292.438 374.800,292.800 374.620,292.800 374.400 C 292.800 374.180,293.250 374.000,293.800 374.000 C 294.350 374.000,294.800 373.820,294.800 373.600 C 294.800 373.380,295.149 373.200,295.576 373.200 C 296.003 373.200,296.464 373.020,296.600 372.800 C 296.736 372.580,297.197 372.400,297.624 372.400 C 298.051 372.400,298.400 372.220,298.400 372.000 C 298.400 371.780,298.850 371.600,299.400 371.600 C 299.950 371.600,300.400 371.420,300.400 371.200 C 300.400 370.980,300.760 370.800,301.200 370.800 C 301.640 370.800,302.000 370.620,302.000 370.400 C 302.000 370.180,302.360 370.000,302.800 370.000 C 303.240 370.000,303.600 369.820,303.600 369.600 C 303.600 369.380,303.825 369.201,304.100 369.203 C 304.584 369.207,311.195 366.036,311.600 365.607 C 311.710 365.491,312.880 364.831,314.200 364.142 C 319.569 361.337,322.207 359.841,322.333 359.529 C 322.407 359.348,322.812 359.200,323.233 359.200 C 323.655 359.200,324.000 359.050,324.000 358.868 C 324.000 358.685,324.495 358.280,325.100 357.968 C 325.705 357.656,326.290 357.296,326.400 357.168 C 326.510 357.040,328.040 355.970,329.800 354.789 C 331.560 353.608,333.349 352.318,333.775 351.921 C 334.202 351.525,334.699 351.200,334.879 351.200 C 335.060 351.200,335.772 350.660,336.463 350.000 C 337.154 349.340,337.896 348.800,338.112 348.800 C 338.329 348.800,338.797 348.476,339.153 348.081 C 339.509 347.686,340.430 346.926,341.200 346.392 C 341.970 345.859,343.050 344.999,343.600 344.480 C 344.150 343.962,345.624 342.832,346.876 341.970 C 351.485 338.797,363.801 326.515,365.216 323.683 C 367.042 320.027,366.172 314.906,363.240 312.039 C 361.216 310.060,359.925 309.625,353.600 308.789 C 347.596 307.995,341.233 306.881,335.500 305.618 C 334.455 305.388,332.835 305.034,331.900 304.830 C 330.965 304.627,329.570 304.279,328.800 304.058 C 328.030 303.836,326.050 303.301,324.400 302.868 C 318.194 301.239,307.648 297.626,302.406 295.333 C 301.633 294.995,300.640 294.575,300.200 294.400 C 295.983 292.722,288.774 289.204,287.258 288.085 C 285.047 286.454,284.277 283.702,285.267 280.966 C 285.771 279.572,285.129 278.400,283.862 278.400 C 283.535 278.400,283.207 278.261,283.133 278.091 C 283.060 277.920,281.650 277.081,280.000 276.225 C 278.350 275.369,276.940 274.518,276.867 274.334 C 276.793 274.150,276.388 274.000,275.967 274.000 C 275.545 274.000,275.200 273.849,275.200 273.664 C 275.200 272.630,273.229 272.458,272.323 273.412 C 271.816 273.948,271.190 274.389,270.933 274.393 C 270.677 274.397,270.400 274.600,270.318 274.845 C 269.956 275.931,264.316 275.241,263.200 273.974 C 263.090 273.849,262.100 273.136,261.000 272.389 C 258.948 270.995,250.359 264.469,250.000 264.031 C 249.890 263.897,249.170 263.277,248.400 262.654 C 242.305 257.719,230.766 246.249,225.600 239.989 C 224.610 238.789,223.379 237.326,222.863 236.737 C 219.260 232.617,206.800 215.127,206.800 214.189 C 206.800 214.054,206.260 213.159,205.600 212.200 C 204.940 211.241,204.400 210.372,204.400 210.269 C 204.400 210.166,203.708 208.938,202.862 207.541 C 200.795 204.127,195.200 192.910,195.200 192.182 C 195.200 191.862,195.020 191.600,194.800 191.600 C 194.580 191.600,194.400 191.347,194.400 191.038 C 194.400 190.729,194.014 189.694,193.543 188.738 C 193.072 187.782,192.556 186.640,192.397 186.200 C 192.237 185.760,191.903 184.905,191.654 184.300 C 191.404 183.695,191.020 182.750,190.800 182.200 C 189.821 179.753,189.484 178.955,189.153 178.305 C 188.959 177.923,188.800 177.336,188.800 177.000 C 188.800 176.664,188.626 176.077,188.414 175.695 C 187.276 173.647,183.052 159.231,181.589 152.400 C 177.305 132.402,175.901 114.511,177.148 95.800 C 177.644 88.348,178.056 84.204,178.777 79.400 C 179.689 73.321,179.495 74.421,180.991 66.800 C 181.770 62.833,183.812 54.500,184.863 51.000 C 185.995 47.232,187.964 41.187,188.381 40.200 C 188.567 39.760,188.936 38.770,189.200 38.000 C 189.680 36.602,189.999 35.774,190.854 33.700 C 191.103 33.095,191.440 32.240,191.603 31.800 C 191.879 31.052,193.132 28.219,194.145 26.049 C 194.777 24.697,194.655 19.222,193.965 17.987 C 191.363 13.326,186.690 11.171,182.000 12.469 M137.171 280.712 C 138.374 280.970,140.295 282.643,141.040 284.080 C 141.458 284.886,141.600 286.946,141.600 292.186 C 141.600 298.741,141.407 300.193,140.400 301.200 C 139.176 302.424,139.185 302.705,140.491 304.070 C 147.271 311.151,147.775 320.401,141.784 327.757 C 139.326 330.773,132.794 335.200,130.799 335.200 C 130.574 335.200,130.077 335.359,129.695 335.553 C 127.395 336.721,117.018 337.318,114.160 336.447 C 113.522 336.252,112.190 335.860,111.200 335.574 C 104.107 333.528,97.866 327.894,95.691 321.572 C 94.545 318.240,95.483 309.947,97.182 308.400 C 97.302 308.290,97.668 307.683,97.995 307.050 C 101.697 299.880,117.805 294.308,127.300 296.913 L 128.400 297.215 128.400 291.656 C 128.400 284.608,129.992 280.815,132.959 280.794 C 133.422 280.791,134.070 280.612,134.400 280.398 C 134.730 280.184,135.270 280.120,135.600 280.256 C 135.930 280.392,136.637 280.597,137.171 280.712 M245.606 281.541 C 248.455 283.054,248.800 284.110,248.800 291.305 L 248.800 297.691 250.100 297.420 C 262.806 294.775,276.255 299.972,280.679 309.236 C 288.613 325.851,268.308 341.825,247.800 335.102 C 232.945 330.233,227.604 314.939,237.232 304.844 L 239.266 302.712 238.308 301.656 C 236.613 299.786,236.400 298.703,236.400 291.961 C 236.400 285.164,236.596 284.266,238.462 282.524 C 240.411 280.705,243.288 280.309,245.606 281.541 M178.035 291.740 C 178.465 292.041,179.488 292.898,180.309 293.645 C 185.753 298.600,192.747 298.249,198.723 292.720 C 203.141 288.632,211.647 293.160,209.212 298.304 C 208.926 298.907,208.501 299.815,208.267 300.322 C 207.696 301.559,204.299 304.610,202.015 305.938 C 199.156 307.600,198.302 308.000,197.611 308.000 C 197.191 308.000,196.748 308.160,196.627 308.356 C 196.042 309.304,187.209 309.889,184.000 309.193 C 181.451 308.641,180.824 308.421,178.462 307.257 C 177.506 306.786,176.471 306.400,176.162 306.400 C 175.853 306.400,175.600 306.232,175.600 306.027 C 175.600 305.822,175.211 305.530,174.736 305.380 C 172.423 304.645,168.400 299.325,168.400 297.000 C 168.400 292.524,174.444 289.224,178.035 291.740 " stroke="none" fill="#fbf0c4" fill-rule="evenodd"></path><path id="path2" d="M116.000 296.638 C 106.628 297.753,99.218 303.391,95.657 312.119 C 92.439 320.004,99.149 330.971,109.600 334.909 C 114.497 336.754,123.088 337.529,126.640 336.447 C 127.278 336.252,128.610 335.862,129.600 335.580 C 143.465 331.626,150.054 317.544,142.903 307.150 C 140.241 303.281,139.525 302.854,136.065 303.083 C 132.548 303.315,130.370 302.034,129.449 299.192 C 129.179 298.362,128.578 297.607,127.943 297.304 C 126.873 296.791,118.594 296.330,116.000 296.638 M250.746 297.314 C 249.068 297.679,248.848 297.861,248.436 299.237 C 247.505 302.344,242.585 304.444,240.028 302.825 C 239.604 302.558,238.900 303.054,237.323 304.732 C 227.617 315.061,232.856 330.199,247.839 335.116 C 268.299 341.831,288.603 325.830,280.679 309.236 C 276.346 300.161,262.678 294.718,250.746 297.314 " stroke="none" fill="#f6a2a8" fill-rule="evenodd"></path><path id="path3" d="M181.338 11.906 C 181.083 12.068,182.551 12.200,184.599 12.200 C 186.647 12.200,188.239 12.065,188.138 11.900 C 187.900 11.513,181.947 11.519,181.338 11.906 M177.800 12.800 L 177.000 13.144 177.800 13.132 C 178.240 13.126,179.050 12.976,179.600 12.800 L 180.600 12.480 179.600 12.468 C 179.050 12.462,178.240 12.611,177.800 12.800 M174.600 13.600 L 173.800 13.944 174.600 13.944 C 175.040 13.944,175.760 13.789,176.200 13.600 L 177.000 13.256 176.200 13.256 C 175.760 13.256,175.040 13.411,174.600 13.600 M191.910 14.877 C 195.965 19.082,196.053 22.590,192.313 30.800 C 190.959 33.770,190.596 34.973,191.157 34.626 C 191.401 34.476,191.600 34.091,191.600 33.771 C 191.600 33.451,191.765 32.877,191.966 32.495 C 192.168 32.113,192.618 31.125,192.966 30.300 C 193.315 29.475,193.852 28.215,194.160 27.500 C 195.727 23.866,195.962 21.673,195.060 19.085 C 194.362 17.079,192.290 14.178,191.129 13.582 C 190.510 13.263,190.770 13.695,191.910 14.877 M171.800 14.400 L 171.000 14.744 171.800 14.766 C 172.240 14.778,172.870 14.613,173.200 14.400 C 173.995 13.886,172.996 13.886,171.800 14.400 M169.000 15.200 L 168.200 15.544 169.000 15.566 C 169.440 15.578,170.070 15.413,170.400 15.200 C 171.195 14.686,170.196 14.686,169.000 15.200 M166.400 16.000 C 165.867 16.345,165.867 16.388,166.400 16.388 C 166.730 16.388,167.270 16.213,167.600 16.000 C 168.133 15.655,168.133 15.612,167.600 15.612 C 167.270 15.612,166.730 15.787,166.400 16.000 M160.400 17.972 C 147.835 22.534,138.081 27.109,126.400 33.919 C 121.240 36.927,115.829 40.421,115.667 40.849 C 115.593 41.042,115.312 41.200,115.042 41.200 C 114.772 41.200,114.202 41.520,113.775 41.911 C 113.349 42.302,112.370 43.058,111.600 43.592 C 110.830 44.125,110.110 44.669,110.000 44.800 C 109.890 44.931,109.170 45.477,108.400 46.014 C 106.556 47.298,106.451 47.381,101.800 51.240 C 91.461 59.818,83.408 68.069,74.287 79.434 C 69.091 85.907,68.703 86.100,63.000 85.050 C 62.340 84.928,62.160 84.930,62.600 85.053 C 63.040 85.177,63.571 85.440,63.780 85.639 C 65.189 86.978,69.993 85.707,71.614 83.566 C 85.908 64.679,106.939 45.629,125.098 35.119 C 138.857 27.156,151.821 21.155,163.100 17.529 C 165.483 16.763,166.190 16.372,165.100 16.424 C 164.825 16.437,162.710 17.134,160.400 17.972 M187.844 42.718 C 186.776 45.862,185.989 48.522,186.095 48.629 C 186.202 48.735,186.975 46.702,187.814 44.111 C 188.653 41.520,189.503 39.184,189.703 38.919 C 189.903 38.655,190.003 38.115,189.926 37.719 C 189.849 37.324,188.912 39.573,187.844 42.718 M185.429 50.229 C 185.281 50.815,185.251 51.384,185.361 51.494 C 185.471 51.604,185.681 51.215,185.829 50.629 C 185.976 50.042,186.006 49.473,185.896 49.363 C 185.786 49.253,185.576 49.642,185.429 50.229 M184.673 52.553 C 184.523 52.945,184.411 53.566,184.425 53.933 C 184.442 54.375,184.581 54.274,184.837 53.634 C 185.049 53.103,185.161 52.482,185.085 52.254 C 185.009 52.027,184.824 52.161,184.673 52.553 M183.800 56.000 C 183.648 56.691,183.614 57.347,183.724 57.457 C 183.834 57.567,184.048 57.091,184.200 56.400 C 184.352 55.709,184.386 55.053,184.276 54.943 C 184.166 54.833,183.952 55.309,183.800 56.000 M183.049 58.615 C 182.912 58.973,182.816 59.656,182.836 60.133 C 182.862 60.747,182.985 60.608,183.259 59.656 C 183.657 58.272,183.494 57.458,183.049 58.615 M182.191 62.253 C 182.054 62.884,181.758 64.300,181.532 65.400 C 181.307 66.500,180.972 68.120,180.788 69.000 C 180.445 70.640,179.935 73.559,179.252 77.800 C 178.891 80.034,178.656 81.976,177.604 91.427 C 177.080 96.127,177.080 120.273,177.604 124.973 C 178.654 134.403,178.891 136.365,179.249 138.600 C 179.675 141.261,180.251 144.463,180.798 147.200 C 180.995 148.190,181.274 149.598,181.417 150.329 C 181.559 151.059,181.762 151.571,181.868 151.465 C 181.973 151.360,181.616 148.962,181.073 146.137 C 179.721 139.099,178.872 133.073,178.012 124.400 C 177.472 118.953,177.474 97.415,178.015 92.000 C 179.110 81.054,179.980 75.245,181.869 66.266 C 182.417 63.662,182.769 61.436,182.652 61.319 C 182.535 61.201,182.327 61.622,182.191 62.253 M54.400 97.876 C 54.400 98.056,54.916 98.690,55.547 99.285 C 57.881 101.488,57.795 103.905,55.207 108.800 C 51.963 114.936,48.753 121.957,46.431 128.000 C 45.712 129.870,44.968 131.760,44.777 132.200 C 44.326 133.241,41.606 141.418,41.151 143.100 C 40.958 143.815,40.635 144.985,40.434 145.700 C 37.435 156.343,33.956 174.691,34.491 177.040 C 34.587 177.458,34.788 176.720,34.940 175.400 C 35.453 170.912,35.978 167.653,37.256 161.000 C 37.940 157.441,39.850 149.264,40.385 147.600 C 40.562 147.050,40.908 145.880,41.153 145.000 C 44.213 134.022,47.994 124.420,54.297 111.626 L 58.126 103.852 57.648 102.026 C 57.234 100.447,54.400 96.826,54.400 97.876 M182.035 152.400 C 181.977 153.331,183.359 158.677,183.482 158.000 C 183.542 157.670,183.250 156.140,182.832 154.600 C 182.414 153.060,182.055 152.070,182.035 152.400 M183.634 159.400 C 183.622 159.840,183.787 160.470,184.000 160.800 C 184.514 161.595,184.514 160.596,184.000 159.400 L 183.656 158.600 183.634 159.400 M184.456 162.200 C 184.456 162.640,184.611 163.360,184.800 163.800 L 185.144 164.600 185.144 163.800 C 185.144 163.360,184.989 162.640,184.800 162.200 L 184.456 161.400 184.456 162.200 M185.212 165.200 C 185.212 165.530,185.387 166.070,185.600 166.400 C 185.945 166.933,185.988 166.933,185.988 166.400 C 185.988 166.070,185.813 165.530,185.600 165.200 C 185.255 164.667,185.212 164.667,185.212 165.200 M186.034 167.600 C 186.046 167.930,186.211 168.560,186.400 169.000 L 186.744 169.800 186.766 169.000 C 186.778 168.560,186.613 167.930,186.400 167.600 C 186.055 167.067,186.015 167.067,186.034 167.600 M186.828 170.276 C 186.918 171.315,187.544 172.196,187.572 171.324 C 187.587 170.842,187.420 170.336,187.200 170.200 C 186.980 170.064,186.813 170.098,186.828 170.276 M187.628 172.676 C 187.718 173.715,188.344 174.596,188.372 173.724 C 188.387 173.242,188.220 172.736,188.000 172.600 C 187.780 172.464,187.613 172.498,187.628 172.676 M188.400 174.946 C 188.400 175.285,192.247 185.327,193.095 187.200 C 193.542 188.190,194.305 189.900,194.790 191.000 C 196.315 194.465,201.639 204.982,202.079 205.400 C 202.645 205.937,202.696 206.050,198.787 198.193 C 196.924 194.449,195.058 190.579,194.641 189.593 C 194.223 188.607,193.530 186.990,193.101 186.000 C 192.191 183.902,191.810 182.962,190.043 178.447 C 189.579 177.262,189.200 176.058,189.200 175.770 C 189.200 175.483,189.020 175.136,188.800 175.000 C 188.580 174.864,188.400 174.840,188.400 174.946 M33.900 180.759 C 33.735 182.166,33.624 184.416,33.653 185.759 C 33.706 188.171,33.711 188.159,34.066 184.800 C 34.264 182.930,34.375 180.680,34.313 179.800 C 34.216 178.428,34.157 178.564,33.900 180.759 M33.370 198.000 C 33.370 202.730,33.428 204.665,33.498 202.300 C 33.569 199.935,33.569 196.065,33.498 193.700 C 33.428 191.335,33.370 193.270,33.370 198.000 M202.828 206.800 C 203.832 208.885,205.305 211.229,205.492 211.041 C 205.600 210.934,205.308 210.313,204.844 209.661 C 204.380 209.010,203.996 208.324,203.991 208.138 C 203.986 207.952,203.614 207.350,203.164 206.800 L 202.346 205.800 202.828 206.800 M33.694 211.200 C 33.681 212.850,33.810 215.100,33.982 216.200 L 34.293 218.200 34.303 215.600 C 34.309 214.170,34.179 211.920,34.015 210.600 L 33.718 208.200 33.694 211.200 M206.430 213.100 C 207.509 214.909,213.314 223.647,215.691 227.040 C 225.069 240.429,241.769 257.627,255.189 267.720 C 257.285 269.296,259.090 270.694,259.200 270.827 C 259.310 270.959,260.772 271.998,262.448 273.134 C 266.798 276.082,269.085 276.029,272.329 272.909 C 273.384 271.893,272.164 272.464,270.815 273.616 C 267.609 276.357,264.501 274.895,252.194 264.857 C 250.731 263.665,247.029 260.618,245.806 259.600 C 243.584 257.752,229.418 243.570,227.699 241.474 C 226.764 240.333,225.454 238.770,224.788 238.000 C 221.052 233.680,209.600 218.144,209.600 217.396 C 209.600 217.264,208.880 216.096,208.000 214.800 C 207.120 213.504,206.400 212.254,206.400 212.022 C 206.400 211.790,206.205 211.600,205.967 211.600 C 205.729 211.600,205.938 212.275,206.430 213.100 M34.448 219.478 C 34.366 221.660,36.263 233.701,37.585 239.400 C 38.789 244.586,39.703 248.325,39.983 249.200 C 40.159 249.750,40.704 251.550,41.193 253.200 C 41.682 254.850,42.244 256.513,42.441 256.895 C 42.638 257.277,42.800 257.941,42.800 258.371 C 42.800 258.801,42.980 259.264,43.200 259.400 C 43.420 259.536,43.600 260.051,43.600 260.544 C 43.600 261.037,43.743 261.611,43.918 261.820 C 44.093 262.029,44.465 262.920,44.745 263.800 C 45.395 265.847,46.008 267.392,47.560 270.896 C 48.022 271.938,48.400 272.861,48.400 272.947 C 48.400 273.396,49.672 276.061,49.818 275.916 C 49.911 275.822,48.936 273.147,47.651 269.973 C 45.237 264.010,43.122 258.013,41.595 252.800 C 41.112 251.150,40.570 249.350,40.390 248.800 C 39.811 247.027,38.049 239.411,37.244 235.200 C 37.013 233.990,36.650 232.100,36.437 231.000 C 36.223 229.900,35.856 227.560,35.620 225.800 C 34.824 219.868,34.498 218.111,34.448 219.478 M50.000 276.668 C 50.000 277.280,57.367 291.767,58.000 292.400 C 58.110 292.510,58.538 293.230,58.951 294.000 C 61.532 298.813,69.292 310.239,73.999 316.156 C 79.651 323.262,91.267 335.420,97.555 340.810 C 98.960 342.014,100.310 343.189,100.555 343.420 C 103.518 346.216,120.909 358.800,121.810 358.800 C 121.945 358.800,122.808 359.309,123.728 359.931 C 127.419 362.426,138.628 368.396,144.407 370.943 C 151.034 373.864,153.341 374.824,155.600 375.600 C 156.370 375.864,157.360 376.235,157.800 376.424 C 161.140 377.857,177.700 382.800,179.163 382.800 C 180.155 382.800,179.291 382.311,177.716 381.981 C 175.464 381.509,170.477 380.178,168.200 379.441 C 167.100 379.085,165.570 378.603,164.800 378.370 C 164.030 378.138,163.040 377.788,162.600 377.594 C 162.160 377.399,160.990 376.971,160.000 376.642 C 150.648 373.533,138.180 367.877,129.200 362.669 C 127.330 361.585,125.260 360.386,124.600 360.006 C 108.734 350.860,88.844 333.718,76.789 318.800 C 75.811 317.590,74.910 316.510,74.786 316.400 C 71.394 313.389,59.750 295.169,54.080 284.000 C 50.193 276.344,50.000 275.997,50.000 276.668 M285.384 281.793 C 284.916 285.538,286.045 287.574,289.498 289.212 C 297.457 292.987,299.362 293.786,298.997 293.195 C 298.863 292.978,298.570 292.800,298.347 292.800 C 298.124 292.800,295.552 291.640,292.632 290.223 C 286.179 287.091,285.770 286.624,285.871 282.500 C 285.955 279.049,285.762 278.768,285.384 281.793 M131.419 282.437 C 129.387 284.221,129.108 285.634,129.264 293.355 L 129.400 300.093 131.151 301.646 C 133.750 303.951,136.858 303.942,139.178 301.622 C 141.166 299.634,141.305 298.866,141.136 290.816 L 141.000 284.341 139.315 282.771 C 136.998 280.610,133.661 280.469,131.419 282.437 M239.292 282.240 C 237.002 284.044,236.800 284.852,236.800 292.200 C 236.800 301.053,237.971 303.200,242.800 303.200 C 247.548 303.200,248.833 300.880,248.720 292.513 L 248.640 286.600 248.420 292.820 C 248.177 299.679,247.902 300.540,245.478 302.018 C 243.044 303.502,239.583 302.679,237.951 300.227 C 237.024 298.836,236.933 286.484,237.835 284.583 C 239.822 280.395,245.946 280.638,247.837 284.980 C 248.130 285.651,248.376 285.966,248.384 285.680 C 248.493 282.087,242.407 279.785,239.292 282.240 M137.960 282.180 C 140.383 283.432,140.600 284.264,140.600 292.293 L 140.600 299.587 139.093 301.093 C 137.688 302.499,137.426 302.600,135.200 302.600 C 132.974 302.600,132.712 302.499,131.307 301.093 L 129.800 299.587 129.800 292.293 C 129.800 284.316,130.014 283.473,132.357 282.199 C 133.720 281.458,136.547 281.449,137.960 282.180 M171.559 292.108 C 169.301 293.616,168.073 297.159,169.238 298.800 C 169.565 299.260,169.607 299.138,169.419 298.276 C 168.220 292.801,174.048 289.575,178.600 293.194 C 184.701 298.044,187.725 298.873,192.999 297.141 C 194.951 296.501,196.287 295.689,198.266 293.941 C 202.098 290.559,206.018 290.697,207.937 294.282 C 210.795 299.623,203.288 306.535,192.200 308.769 L 190.200 309.172 192.500 308.983 C 200.855 308.294,210.255 300.672,208.838 295.734 C 207.204 290.036,201.014 289.576,196.800 294.839 C 193.845 298.529,184.733 298.062,180.256 293.991 C 176.811 290.859,174.257 290.306,171.559 292.108 M303.400 295.377 C 306.177 296.644,307.367 296.993,307.026 296.443 C 306.876 296.199,306.485 296.000,306.157 296.000 C 305.829 296.000,304.816 295.640,303.906 295.200 C 302.995 294.760,302.059 294.415,301.825 294.433 C 301.591 294.451,302.300 294.876,303.400 295.377 M309.000 297.600 C 309.880 298.007,310.870 298.341,311.200 298.341 C 311.530 298.341,311.080 298.007,310.200 297.600 C 309.320 297.193,308.330 296.859,308.000 296.859 C 307.670 296.859,308.120 297.193,309.000 297.600 M312.400 298.800 C 312.730 299.013,313.270 299.188,313.600 299.188 C 314.133 299.188,314.133 299.145,313.600 298.800 C 313.270 298.587,312.730 298.412,312.400 298.412 C 311.867 298.412,311.867 298.455,312.400 298.800 M314.800 299.600 C 315.130 299.813,315.670 299.988,316.000 299.988 C 316.533 299.988,316.533 299.945,316.000 299.600 C 315.670 299.387,315.130 299.212,314.800 299.212 C 314.267 299.212,314.267 299.255,314.800 299.600 M169.935 300.263 C 170.705 301.728,174.601 304.927,177.469 306.451 C 180.353 307.983,182.660 308.744,182.210 308.016 C 182.068 307.787,181.622 307.600,181.217 307.600 C 179.406 307.600,174.215 304.276,171.240 301.212 C 170.273 300.216,169.685 299.788,169.935 300.263 M316.800 300.118 C 316.800 300.300,321.374 301.784,324.400 302.583 C 324.950 302.729,326.750 303.212,328.400 303.657 C 330.050 304.102,331.850 304.553,332.400 304.659 C 332.950 304.765,334.840 305.186,336.600 305.595 C 338.360 306.004,340.970 306.540,342.400 306.787 C 343.830 307.033,345.900 307.395,347.000 307.591 C 350.289 308.176,353.907 308.436,353.000 308.021 C 352.560 307.821,351.438 307.644,350.506 307.628 C 349.574 307.613,348.044 307.427,347.106 307.216 C 346.168 307.005,344.320 306.637,343.000 306.397 C 334.442 304.844,330.195 303.797,317.500 300.110 C 317.115 299.998,316.800 300.002,316.800 300.118 M183.800 308.800 C 185.561 309.248,187.799 309.248,186.400 308.800 C 185.850 308.624,184.770 308.483,184.000 308.487 L 182.600 308.495 183.800 308.800 M356.360 308.833 C 362.749 309.661,366.355 313.484,366.436 319.519 C 366.468 321.925,366.512 322.063,366.857 320.864 C 368.516 315.101,362.244 308.249,355.494 308.451 C 354.050 308.494,354.178 308.550,356.360 308.833 M365.423 323.949 C 364.583 325.811,352.480 337.915,346.600 342.772 C 344.400 344.590,342.240 346.374,341.800 346.738 C 339.054 349.009,328.388 356.593,325.600 358.256 C 324.830 358.715,322.961 359.852,321.447 360.782 C 312.131 366.504,296.401 373.967,288.000 376.650 C 287.010 376.966,285.887 377.400,285.505 377.613 C 285.123 377.826,284.536 378.000,284.200 378.000 C 283.864 378.000,283.277 378.162,282.895 378.359 C 282.513 378.556,280.850 379.118,279.200 379.607 C 277.550 380.096,275.750 380.644,275.200 380.825 C 273.999 381.219,264.856 383.397,262.600 383.827 C 261.720 383.994,261.301 384.202,261.669 384.289 C 263.227 384.656,285.168 378.602,290.300 376.388 C 290.795 376.175,291.605 375.844,292.100 375.654 C 292.595 375.463,293.495 375.103,294.100 374.854 C 294.705 374.604,295.605 374.238,296.100 374.041 C 312.664 367.430,331.006 356.377,345.585 344.222 C 356.320 335.272,367.409 323.676,366.297 322.563 C 366.202 322.469,365.809 323.093,365.423 323.949 M180.600 383.200 C 181.040 383.389,181.850 383.544,182.400 383.544 C 183.312 383.544,183.329 383.513,182.600 383.200 C 182.160 383.011,181.350 382.856,180.800 382.856 C 179.888 382.856,179.871 382.887,180.600 383.200 M184.200 384.000 C 184.640 384.189,185.540 384.338,186.200 384.332 C 187.370 384.321,187.375 384.312,186.400 384.000 C 184.933 383.530,183.106 383.530,184.200 384.000 M188.200 384.800 C 188.640 384.989,189.630 385.138,190.400 385.132 C 191.673 385.121,191.709 385.091,190.800 384.800 C 189.348 384.335,187.118 384.335,188.200 384.800 M257.600 384.800 C 256.628 385.111,256.633 385.120,257.800 385.120 C 258.460 385.120,259.450 384.976,260.000 384.800 C 260.972 384.489,260.967 384.480,259.800 384.480 C 259.140 384.480,258.150 384.624,257.600 384.800 M192.600 385.600 C 193.040 385.789,194.210 385.936,195.200 385.926 L 197.000 385.908 195.400 385.577 C 193.151 385.112,191.495 385.125,192.600 385.600 M252.800 385.600 L 251.400 385.895 253.000 385.907 C 253.880 385.915,255.050 385.776,255.600 385.600 C 256.969 385.162,254.883 385.162,252.800 385.600 M198.000 386.400 C 198.550 386.576,199.990 386.714,201.200 386.707 L 203.400 386.693 201.400 386.382 C 198.573 385.941,196.601 385.952,198.000 386.400 M246.800 386.400 L 245.000 386.680 247.200 386.700 C 248.410 386.711,249.850 386.576,250.400 386.400 C 251.712 385.980,249.503 385.980,246.800 386.400 M204.600 387.180 C 205.782 387.501,213.091 387.742,212.767 387.450 C 212.675 387.367,210.530 387.199,208.000 387.077 C 205.358 386.949,203.911 386.993,204.600 387.180 M238.200 387.200 L 235.400 387.459 239.000 387.482 C 240.980 387.495,243.140 387.368,243.800 387.200 C 245.328 386.811,242.408 386.811,238.200 387.200 M215.600 388.014 C 217.030 388.175,220.900 388.306,224.200 388.306 C 227.500 388.306,231.370 388.175,232.800 388.014 C 234.383 387.836,231.020 387.722,224.200 387.722 C 217.380 387.722,214.017 387.836,215.600 388.014 " stroke="none" fill="#7e694e" fill-rule="evenodd"></path><path id="path4" d="M181.200 12.400 C 180.396 12.657,180.357 12.723,181.000 12.732 C 181.440 12.738,182.160 12.589,182.600 12.400 C 183.619 11.962,182.568 11.962,181.200 12.400 M187.000 12.400 C 187.440 12.589,188.070 12.744,188.400 12.744 C 188.778 12.744,188.704 12.617,188.200 12.400 C 187.760 12.211,187.130 12.056,186.800 12.056 C 186.422 12.056,186.496 12.183,187.000 12.400 M177.800 13.200 C 176.693 13.482,176.677 13.509,177.600 13.547 C 178.150 13.569,178.870 13.413,179.200 13.200 C 179.881 12.760,179.529 12.760,177.800 13.200 M189.200 12.911 C 189.200 12.987,189.785 13.478,190.500 14.001 C 191.304 14.590,191.584 14.687,191.233 14.255 C 190.700 13.599,189.200 12.607,189.200 12.911 M173.200 14.418 C 172.762 14.715,172.924 14.752,173.800 14.556 C 175.271 14.227,175.590 13.998,174.567 14.006 C 174.145 14.009,173.530 14.195,173.200 14.418 M170.400 15.218 C 169.962 15.515,170.124 15.552,171.000 15.356 C 172.471 15.027,172.790 14.798,171.767 14.806 C 171.345 14.809,170.730 14.995,170.400 15.218 M167.600 16.018 C 167.162 16.315,167.324 16.352,168.200 16.156 C 169.671 15.827,169.990 15.598,168.967 15.606 C 168.545 15.609,167.930 15.795,167.600 16.018 M194.600 21.977 C 194.600 23.488,194.732 24.516,194.894 24.262 C 195.256 23.693,195.242 20.847,194.872 19.915 C 194.722 19.538,194.600 20.466,194.600 21.977 M146.600 24.000 C 145.280 24.634,144.427 25.164,144.704 25.176 C 145.349 25.207,148.740 23.620,149.029 23.154 C 149.316 22.688,149.368 22.671,146.600 24.000 M136.000 29.054 C 126.677 34.087,124.578 35.331,118.090 39.672 C 100.409 51.500,84.537 66.490,71.614 83.566 C 69.999 85.700,64.712 87.076,63.800 85.600 C 63.664 85.380,63.158 85.201,62.676 85.202 C 61.903 85.205,61.941 85.283,63.000 85.871 C 66.629 87.885,70.328 86.545,73.484 82.074 C 74.522 80.603,75.657 79.130,76.005 78.800 C 76.353 78.470,77.077 77.570,77.614 76.800 C 78.150 76.030,79.312 74.658,80.195 73.752 C 81.078 72.845,83.086 70.685,84.658 68.952 C 89.107 64.045,94.820 58.326,96.800 56.795 C 97.790 56.030,99.140 54.922,99.800 54.332 C 101.786 52.559,103.397 51.219,105.978 49.194 C 106.956 48.428,108.288 47.305,108.937 46.700 C 109.587 46.095,110.322 45.600,110.571 45.600 C 110.820 45.600,111.283 45.240,111.600 44.800 C 111.917 44.360,112.362 44.000,112.588 43.999 C 112.815 43.999,113.630 43.459,114.400 42.800 C 115.170 42.141,116.025 41.601,116.300 41.601 C 116.575 41.600,116.800 41.465,116.800 41.299 C 116.800 41.134,118.285 40.103,120.100 39.008 C 121.915 37.914,123.490 36.925,123.600 36.809 C 123.710 36.694,124.205 36.375,124.700 36.100 C 125.195 35.825,126.005 35.375,126.500 35.100 C 126.995 34.825,127.490 34.510,127.600 34.400 C 127.840 34.160,131.035 32.403,132.297 31.817 C 132.790 31.587,133.195 31.265,133.197 31.100 C 133.199 30.935,133.560 30.800,134.000 30.800 C 134.440 30.800,134.801 30.665,134.801 30.500 C 134.802 30.335,135.792 29.750,137.000 29.200 C 138.208 28.650,139.198 28.065,139.199 27.900 C 139.201 27.410,138.731 27.579,136.000 29.054 M185.849 47.415 C 185.712 47.773,185.615 48.366,185.634 48.733 C 185.653 49.100,185.827 48.869,186.021 48.220 C 186.398 46.958,186.265 46.333,185.849 47.415 M184.840 51.040 C 184.610 51.873,184.494 52.627,184.582 52.715 C 184.670 52.803,184.930 52.193,185.160 51.360 C 185.390 50.527,185.506 49.773,185.418 49.685 C 185.330 49.597,185.070 50.207,184.840 51.040 M183.850 54.450 C 183.517 56.117,183.840 56.440,184.200 54.800 C 184.352 54.109,184.393 53.459,184.291 53.358 C 184.189 53.256,183.991 53.747,183.850 54.450 M183.246 56.867 C 183.221 57.234,183.096 57.864,182.970 58.267 C 182.752 58.962,182.763 58.963,183.197 58.287 C 183.448 57.896,183.573 57.266,183.473 56.887 C 183.311 56.268,183.288 56.266,183.246 56.867 M182.446 60.067 C 182.421 60.434,182.296 61.064,182.170 61.467 C 181.952 62.162,181.963 62.163,182.397 61.487 C 182.648 61.096,182.773 60.466,182.673 60.087 C 182.511 59.468,182.488 59.466,182.446 60.067 M181.429 64.229 C 181.281 64.815,181.238 65.372,181.332 65.466 C 181.427 65.560,181.624 65.158,181.771 64.571 C 181.919 63.985,181.962 63.428,181.868 63.334 C 181.773 63.240,181.576 63.642,181.429 64.229 M180.650 68.050 C 180.317 69.717,180.640 70.040,181.000 68.400 C 181.152 67.709,181.193 67.059,181.091 66.958 C 180.989 66.856,180.791 67.347,180.650 68.050 M179.800 72.400 C 179.648 73.091,179.607 73.741,179.709 73.842 C 179.811 73.944,180.009 73.453,180.150 72.750 C 180.483 71.083,180.160 70.760,179.800 72.400 M179.056 76.884 C 178.921 77.388,178.827 78.160,178.846 78.600 C 178.865 79.040,179.045 78.698,179.246 77.840 C 179.636 76.178,179.470 75.340,179.056 76.884 M178.269 82.356 C 178.121 83.095,178.020 84.083,178.044 84.550 C 178.068 85.017,178.247 84.590,178.442 83.600 C 178.637 82.610,178.738 81.623,178.667 81.406 C 178.596 81.190,178.417 81.617,178.269 82.356 M177.486 89.400 C 177.333 90.280,177.229 91.630,177.253 92.400 C 177.285 93.401,177.399 93.117,177.653 91.400 C 178.056 88.679,177.911 86.946,177.486 89.400 M54.400 97.417 C 54.400 97.496,54.982 98.104,55.694 98.769 C 56.406 99.435,57.203 100.569,57.464 101.289 C 57.852 102.360,57.945 102.434,57.970 101.694 C 58.009 100.514,56.532 98.282,55.339 97.718 C 54.822 97.475,54.400 97.339,54.400 97.417 M176.612 104.500 C 176.464 107.415,176.511 111.510,176.717 113.600 C 177.058 117.060,177.096 116.585,177.146 108.300 C 177.207 98.044,177.012 96.652,176.612 104.500 M54.310 111.539 C 48.259 123.783,42.430 138.400,43.600 138.400 C 43.820 138.400,44.000 137.961,44.000 137.424 C 44.000 136.887,44.180 136.336,44.400 136.200 C 44.620 136.064,44.800 135.513,44.800 134.976 C 44.800 134.439,44.980 134.000,45.200 134.000 C 45.420 134.000,45.600 133.638,45.600 133.195 C 45.600 132.752,45.780 132.032,46.000 131.595 C 46.220 131.158,46.580 130.442,46.800 130.005 C 47.020 129.568,47.200 128.848,47.200 128.405 C 47.200 127.962,47.380 127.600,47.600 127.600 C 47.820 127.600,48.000 127.328,48.000 126.995 C 48.000 126.407,48.167 125.982,49.138 124.105 C 49.392 123.613,49.600 122.938,49.600 122.605 C 49.600 122.272,49.780 122.000,50.000 122.000 C 50.220 122.000,50.400 121.747,50.400 121.438 C 50.400 121.129,50.740 120.184,51.156 119.338 C 51.572 118.492,53.302 114.981,55.001 111.536 C 56.700 108.091,58.025 105.093,57.945 104.875 C 57.865 104.656,56.230 107.655,54.310 111.539 M177.247 124.433 C 177.273 125.405,177.442 126.740,177.621 127.400 C 177.827 128.157,177.865 127.566,177.725 125.800 C 177.471 122.621,177.176 121.776,177.247 124.433 M178.040 132.233 C 178.062 132.875,178.233 133.850,178.420 134.400 C 178.649 135.074,178.684 134.749,178.528 133.400 C 178.269 131.150,177.979 130.459,178.040 132.233 M178.828 138.033 C 178.844 138.565,179.019 139.360,179.219 139.800 C 179.471 140.358,179.507 140.115,179.338 139.000 C 179.055 137.143,178.787 136.636,178.828 138.033 M42.679 139.757 C 42.515 140.174,42.475 140.609,42.591 140.724 C 42.955 141.089,43.276 140.491,43.124 139.731 C 42.983 139.035,42.962 139.036,42.679 139.757 M41.888 142.133 C 41.442 143.266,41.515 143.845,42.038 143.322 C 42.278 143.082,42.408 142.551,42.326 142.142 C 42.182 141.426,42.166 141.426,41.888 142.133 M179.634 143.000 C 179.622 143.440,179.787 144.070,180.000 144.400 C 180.514 145.195,180.514 144.196,180.000 143.000 L 179.656 142.200 179.634 143.000 M41.088 144.933 C 40.642 146.066,40.715 146.645,41.238 146.122 C 41.478 145.882,41.608 145.351,41.526 144.942 C 41.382 144.226,41.366 144.226,41.088 144.933 M180.456 147.200 C 180.456 147.530,180.611 148.160,180.800 148.600 C 181.017 149.104,181.144 149.178,181.144 148.800 C 181.144 148.470,180.989 147.840,180.800 147.400 C 180.583 146.896,180.456 146.822,180.456 147.200 M40.273 147.870 C 40.023 148.782,38.479 155.252,37.999 157.400 C 32.460 182.165,32.158 211.353,37.194 235.000 C 37.382 235.880,37.758 237.680,38.031 239.000 C 38.800 242.725,40.360 248.894,40.592 249.125 C 41.003 249.536,40.786 248.074,39.975 244.964 C 39.521 243.224,38.972 240.900,38.755 239.800 C 38.537 238.700,38.181 236.900,37.964 235.800 C 34.622 218.885,33.434 199.614,34.757 183.800 C 34.996 180.940,35.291 177.250,35.411 175.600 C 35.531 173.950,35.794 172.240,35.995 171.800 C 36.197 171.360,36.450 170.100,36.559 169.000 C 36.789 166.673,37.136 164.717,38.724 156.800 C 38.923 155.810,39.489 153.323,39.982 151.273 C 40.476 149.223,40.788 147.455,40.676 147.343 C 40.564 147.231,40.383 147.468,40.273 147.870 M181.268 150.800 C 181.288 151.839,181.918 153.546,181.932 152.600 C 181.938 152.160,181.789 151.440,181.600 151.000 C 181.389 150.510,181.261 150.432,181.268 150.800 M182.068 154.400 C 182.088 155.439,182.718 157.146,182.732 156.200 C 182.738 155.760,182.589 155.040,182.400 154.600 C 182.189 154.110,182.061 154.032,182.068 154.400 M182.868 157.600 C 182.888 158.639,183.518 160.346,183.532 159.400 C 183.538 158.960,183.389 158.240,183.200 157.800 C 182.989 157.310,182.861 157.232,182.868 157.600 M183.844 161.400 C 184.173 162.871,184.402 163.190,184.394 162.167 C 184.391 161.745,184.205 161.130,183.982 160.800 C 183.685 160.362,183.648 160.524,183.844 161.400 M185.448 167.000 C 185.591 167.660,185.866 168.470,186.059 168.800 C 186.284 169.184,186.318 168.968,186.152 168.200 C 186.009 167.540,185.734 166.730,185.541 166.400 C 185.316 166.016,185.282 166.232,185.448 167.000 M200.000 202.400 C 200.449 203.280,200.906 204.000,201.016 204.000 C 201.126 204.000,200.849 203.280,200.400 202.400 C 199.951 201.520,199.494 200.800,199.384 200.800 C 199.274 200.800,199.551 201.520,200.000 202.400 M201.206 204.450 C 201.197 204.805,203.233 208.400,203.442 208.400 C 203.538 208.400,203.260 207.725,202.824 206.900 C 201.878 205.111,201.215 204.106,201.206 204.450 M204.415 210.200 C 204.417 210.420,204.786 211.050,205.236 211.600 C 205.779 212.264,205.915 212.331,205.640 211.800 C 204.966 210.495,204.412 209.772,204.415 210.200 M206.815 214.200 C 206.817 214.420,207.186 215.050,207.636 215.600 C 208.179 216.264,208.315 216.331,208.040 215.800 C 207.366 214.495,206.812 213.772,206.815 214.200 M214.855 226.387 C 215.780 227.735,216.710 228.944,216.922 229.075 C 217.133 229.206,216.564 228.219,215.655 226.881 C 214.747 225.544,213.817 224.334,213.589 224.193 C 213.360 224.052,213.930 225.039,214.855 226.387 M218.400 231.200 C 219.097 232.080,219.757 232.800,219.867 232.800 C 219.977 232.800,219.497 232.080,218.800 231.200 C 218.103 230.320,217.443 229.600,217.333 229.600 C 217.223 229.600,217.703 230.320,218.400 231.200 M221.355 234.919 C 222.203 235.953,222.980 236.800,223.082 236.800 C 223.355 236.800,220.821 233.660,220.277 233.324 C 220.022 233.166,220.507 233.884,221.355 234.919 M226.401 241.000 C 226.951 241.660,227.445 242.275,227.500 242.367 C 227.555 242.458,227.688 242.445,227.796 242.338 C 227.904 242.230,227.409 241.615,226.697 240.971 L 225.403 239.800 226.401 241.000 M232.702 247.800 C 235.914 251.384,238.807 254.318,238.793 253.978 C 238.789 253.880,236.691 251.640,234.130 249.000 C 230.491 245.247,230.179 244.985,232.702 247.800 M40.812 250.200 C 40.812 250.640,40.987 251.270,41.200 251.600 C 41.521 252.097,41.588 252.062,41.588 251.400 C 41.588 250.960,41.413 250.330,41.200 250.000 C 40.879 249.503,40.812 249.538,40.812 250.200 M41.628 253.100 C 41.738 254.273,42.346 254.926,42.372 253.900 C 42.387 253.295,42.220 252.800,42.000 252.800 C 41.780 252.800,41.613 252.935,41.628 253.100 M240.600 255.600 C 241.459 256.480,242.252 257.200,242.362 257.200 C 242.472 257.200,241.859 256.480,241.000 255.600 C 240.141 254.720,239.348 254.000,239.238 254.000 C 239.128 254.000,239.741 254.720,240.600 255.600 M42.406 255.700 C 42.420 256.842,43.188 257.426,43.194 256.300 C 43.197 255.695,43.020 255.200,42.800 255.200 C 42.580 255.200,42.403 255.425,42.406 255.700 M43.206 258.100 C 43.220 259.242,43.988 259.826,43.994 258.700 C 43.997 258.095,43.820 257.600,43.600 257.600 C 43.380 257.600,43.203 257.825,43.206 258.100 M244.400 258.978 C 244.400 259.216,245.579 260.306,248.300 262.583 C 250.658 264.556,249.652 263.344,247.000 261.015 C 245.570 259.760,244.400 258.843,244.400 258.978 M44.006 260.500 C 44.020 261.642,44.788 262.226,44.794 261.100 C 44.797 260.495,44.620 260.000,44.400 260.000 C 44.180 260.000,44.003 260.225,44.006 260.500 M44.800 262.641 C 44.800 263.672,50.881 277.686,54.056 283.971 C 58.022 291.822,58.800 293.124,58.800 291.913 C 58.800 291.558,58.659 291.207,58.486 291.133 C 58.314 291.060,56.585 287.760,54.644 283.800 C 52.704 279.840,50.775 275.908,50.358 275.062 C 49.941 274.216,49.600 273.271,49.600 272.962 C 49.600 272.653,49.420 272.400,49.200 272.400 C 48.980 272.400,48.800 271.961,48.800 271.424 C 48.800 270.887,48.620 270.336,48.400 270.200 C 48.180 270.064,48.000 269.603,48.000 269.176 C 48.000 268.749,47.820 268.400,47.600 268.400 C 47.380 268.400,47.200 268.051,47.200 267.624 C 47.200 267.197,47.020 266.736,46.800 266.600 C 46.580 266.464,46.400 265.913,46.400 265.376 C 46.400 264.839,46.220 264.400,46.000 264.400 C 45.780 264.400,45.600 263.950,45.600 263.400 C 45.600 262.850,45.420 262.400,45.200 262.400 C 44.980 262.400,44.800 262.509,44.800 262.641 M251.269 265.076 C 253.513 266.889,253.917 267.075,252.218 265.512 C 251.328 264.694,250.451 264.019,250.269 264.012 C 250.087 264.005,250.537 264.484,251.269 265.076 M254.400 267.325 C 254.400 267.424,255.061 268.009,255.868 268.625 C 256.676 269.241,257.211 269.541,257.056 269.291 C 256.740 268.779,254.400 267.047,254.400 267.325 M134.400 280.398 C 134.070 280.612,133.422 280.791,132.959 280.794 C 131.847 280.802,129.765 282.832,129.007 284.646 C 128.294 286.351,128.121 297.380,128.800 297.800 C 129.060 297.961,129.200 295.933,129.200 292.011 C 129.200 287.817,129.367 285.576,129.746 284.668 C 131.348 280.833,136.204 279.870,139.315 282.771 L 141.000 284.341 141.136 290.816 C 141.300 298.625,141.147 299.575,139.437 301.388 C 138.705 302.165,138.319 302.800,138.581 302.800 C 139.082 302.800,140.263 301.523,141.100 300.076 C 141.844 298.789,141.794 285.535,141.040 284.080 C 140.295 282.643,138.374 280.970,137.171 280.712 C 136.637 280.597,135.930 280.392,135.600 280.256 C 135.270 280.120,134.730 280.184,134.400 280.398 M241.900 281.082 C 242.395 281.178,243.205 281.178,243.700 281.082 C 244.195 280.987,243.790 280.909,242.800 280.909 C 241.810 280.909,241.405 280.987,241.900 281.082 M285.049 281.415 C 284.912 281.773,284.824 282.726,284.853 283.533 C 284.901 284.844,284.938 284.787,285.195 283.000 C 285.503 280.871,285.455 280.358,285.049 281.415 M238.816 282.248 C 236.562 284.144,236.392 284.878,236.482 292.280 L 236.564 299.000 236.782 292.000 C 237.017 284.460,237.155 283.924,239.298 282.235 C 240.014 281.671,240.479 281.207,240.331 281.204 C 240.183 281.202,239.501 281.671,238.816 282.248 M247.352 283.367 C 247.928 284.216,248.425 285.382,248.454 285.956 C 248.502 286.858,248.532 286.882,248.679 286.127 C 248.870 285.146,247.999 283.229,246.978 282.382 C 246.607 282.074,246.775 282.517,247.352 283.367 M285.212 285.494 C 285.205 285.765,285.695 286.494,286.300 287.113 C 286.905 287.732,287.110 287.870,286.755 287.419 C 286.400 286.969,285.910 286.240,285.667 285.800 C 285.423 285.360,285.219 285.222,285.212 285.494 M174.100 291.076 C 174.485 291.176,175.115 291.176,175.500 291.076 C 175.885 290.975,175.570 290.893,174.800 290.893 C 174.030 290.893,173.715 290.975,174.100 291.076 M202.500 291.076 C 202.885 291.176,203.515 291.176,203.900 291.076 C 204.285 290.975,203.970 290.893,203.200 290.893 C 202.430 290.893,202.115 290.975,202.500 291.076 M170.001 292.998 C 169.486 293.548,169.139 294.064,169.232 294.146 C 169.324 294.228,169.819 293.778,170.330 293.147 C 171.476 291.735,171.274 291.644,170.001 292.998 M179.774 293.493 C 180.640 294.424,181.435 295.099,181.541 294.993 C 181.647 294.887,181.656 294.755,181.562 294.700 C 181.468 294.645,180.673 293.970,179.796 293.201 L 178.200 291.801 179.774 293.493 M198.175 293.300 L 197.000 294.600 198.300 293.425 C 199.512 292.330,199.784 292.000,199.475 292.000 C 199.406 292.000,198.821 292.585,198.175 293.300 M59.165 293.534 C 59.765 294.655,63.244 300.231,65.498 303.683 C 67.272 306.400,74.187 315.869,74.786 316.400 C 74.910 316.510,75.811 317.590,76.789 318.800 C 88.844 333.718,108.734 350.860,124.600 360.006 C 125.260 360.386,127.420 361.642,129.400 362.797 C 136.380 366.868,147.200 371.976,147.200 371.200 C 147.200 370.980,146.840 370.800,146.400 370.800 C 145.960 370.800,145.600 370.620,145.600 370.400 C 145.600 370.180,145.240 370.000,144.800 370.000 C 144.360 370.000,144.000 369.820,144.000 369.600 C 144.000 369.380,143.762 369.200,143.470 369.200 C 142.957 369.200,136.095 365.789,131.600 363.299 C 130.390 362.629,128.140 361.401,126.600 360.570 C 125.060 359.739,123.740 358.910,123.667 358.729 C 123.593 358.548,123.358 358.400,123.145 358.400 C 122.660 358.400,117.848 355.175,117.667 354.728 C 117.593 354.547,117.323 354.400,117.067 354.399 C 116.810 354.399,115.970 353.859,115.200 353.200 C 114.430 352.541,113.575 352.001,113.300 352.001 C 113.025 352.000,112.800 351.859,112.800 351.686 C 112.800 351.514,112.267 351.057,111.615 350.672 C 110.963 350.287,110.198 349.747,109.915 349.473 C 109.632 349.198,108.770 348.538,108.000 348.006 C 107.230 347.474,106.510 346.940,106.400 346.819 C 106.290 346.699,105.300 345.880,104.200 345.001 C 101.015 342.454,100.740 342.228,100.184 341.700 C 99.894 341.425,99.551 341.200,99.421 341.200 C 99.291 341.200,98.046 340.075,96.653 338.700 C 95.260 337.325,92.698 334.821,90.960 333.136 C 86.177 328.497,80.213 322.225,79.165 320.731 C 78.651 319.999,77.767 318.950,77.200 318.400 C 76.633 317.850,75.735 316.770,75.204 316.000 C 74.673 315.230,74.139 314.510,74.017 314.400 C 73.895 314.290,72.730 312.760,71.427 311.000 C 70.124 309.240,68.955 307.710,68.829 307.600 C 68.702 307.490,68.344 306.905,68.032 306.300 C 67.720 305.695,67.315 305.200,67.132 305.200 C 66.950 305.200,66.800 304.964,66.800 304.675 C 66.800 304.387,66.485 303.802,66.100 303.375 C 65.715 302.949,65.145 302.105,64.832 301.500 C 64.520 300.895,64.115 300.400,63.932 300.400 C 63.750 300.400,63.600 300.207,63.600 299.972 C 63.600 299.737,63.060 298.759,62.400 297.800 C 61.740 296.841,61.200 295.863,61.200 295.628 C 61.200 295.393,61.020 295.200,60.800 295.200 C 60.580 295.200,60.400 294.930,60.400 294.600 C 60.400 294.270,60.220 294.000,60.000 294.000 C 59.780 294.000,59.600 293.730,59.600 293.400 C 59.600 293.070,59.414 292.800,59.186 292.800 C 58.908 292.800,58.901 293.042,59.165 293.534 M195.600 295.220 L 194.600 296.022 195.700 295.547 C 196.305 295.285,196.800 294.920,196.800 294.736 C 196.800 294.279,196.745 294.302,195.600 295.220 M168.643 295.433 C 167.721 297.836,172.026 305.200,174.354 305.200 C 174.568 305.200,175.027 305.484,175.375 305.832 C 175.723 306.180,176.231 306.389,176.504 306.297 C 176.777 306.204,176.449 305.843,175.775 305.493 C 171.870 303.466,168.556 299.037,168.919 296.331 C 169.136 294.706,169.041 294.395,168.643 295.433 M208.943 296.724 C 208.966 297.609,209.123 298.248,209.292 298.143 C 209.703 297.889,209.673 296.335,209.244 295.658 C 209.022 295.308,208.915 295.686,208.943 296.724 M307.000 297.171 C 307.880 297.594,308.870 297.947,309.200 297.955 C 309.886 297.971,307.839 297.027,306.374 296.651 C 305.838 296.514,306.120 296.748,307.000 297.171 M186.717 297.272 C 187.617 297.630,190.407 297.620,191.333 297.255 C 191.736 297.096,190.708 296.974,189.049 296.983 C 187.390 296.992,186.341 297.122,186.717 297.272 M311.800 298.951 C 313.199 299.556,315.200 300.087,315.200 299.854 C 315.200 299.667,311.411 298.392,310.925 298.416 C 310.746 298.424,311.140 298.665,311.800 298.951 M237.200 300.264 C 237.200 300.482,237.695 301.097,238.300 301.630 L 239.400 302.600 238.400 301.400 C 237.850 300.740,237.355 300.125,237.300 300.033 C 237.245 299.942,237.200 300.045,237.200 300.264 M206.268 302.246 C 205.425 303.029,204.807 303.740,204.894 303.827 C 204.981 303.914,205.752 303.269,206.607 302.393 C 208.534 300.419,208.329 300.330,206.268 302.246 M330.000 304.400 C 330.330 304.613,330.870 304.788,331.200 304.788 C 331.733 304.788,331.733 304.745,331.200 304.400 C 330.870 304.187,330.330 304.012,330.000 304.012 C 329.467 304.012,329.467 304.055,330.000 304.400 M333.600 305.200 C 333.930 305.413,334.560 305.578,335.000 305.566 L 335.800 305.544 335.000 305.200 C 333.804 304.686,332.805 304.686,333.600 305.200 M341.200 306.782 C 341.530 307.005,342.145 307.191,342.567 307.194 C 343.590 307.202,343.271 306.973,341.800 306.644 C 340.924 306.448,340.762 306.485,341.200 306.782 M345.600 307.600 C 345.930 307.813,346.650 307.973,347.200 307.954 L 348.200 307.920 347.200 307.600 C 345.658 307.106,344.836 307.106,345.600 307.600 M181.000 308.400 C 181.136 308.620,181.642 308.787,182.124 308.772 C 182.969 308.745,182.971 308.731,182.200 308.400 C 181.099 307.927,180.708 307.927,181.000 308.400 M350.600 308.380 C 351.361 308.726,354.317 308.964,353.967 308.651 C 353.875 308.569,352.900 308.393,351.800 308.259 C 350.454 308.095,350.061 308.135,350.600 308.380 M184.200 309.210 C 184.970 309.531,188.707 309.751,188.367 309.455 C 188.275 309.376,187.120 309.213,185.800 309.093 C 184.351 308.962,183.717 309.008,184.200 309.210 M191.400 309.200 L 189.400 309.474 191.200 309.531 C 192.190 309.562,193.270 309.413,193.600 309.200 C 193.930 308.987,194.020 308.838,193.800 308.869 C 193.580 308.900,192.500 309.049,191.400 309.200 M356.600 309.200 C 357.040 309.389,357.850 309.538,358.400 309.532 L 359.400 309.520 358.400 309.200 C 357.850 309.024,357.040 308.874,356.600 308.868 L 355.800 308.856 356.600 309.200 M365.844 316.600 C 366.173 318.071,366.402 318.390,366.394 317.367 C 366.391 316.945,366.205 316.330,365.982 316.000 C 365.685 315.562,365.648 315.724,365.844 316.600 M366.054 321.067 C 366.025 321.544,365.896 322.264,365.770 322.667 C 365.552 323.361,365.564 323.362,365.996 322.688 C 366.247 322.297,366.375 321.577,366.281 321.088 C 366.109 320.201,366.109 320.201,366.054 321.067 M364.767 324.500 C 364.513 324.995,363.652 326.120,362.853 326.999 L 361.400 328.599 362.934 327.199 C 364.306 325.948,365.930 323.600,365.424 323.600 C 365.316 323.600,365.021 324.005,364.767 324.500 M353.588 336.300 L 351.000 339.000 353.700 336.412 C 355.185 334.988,356.400 333.773,356.400 333.712 C 356.400 333.417,355.993 333.792,353.588 336.300 M349.399 340.002 C 349.262 340.223,348.127 341.109,346.875 341.971 C 345.624 342.832,344.150 343.962,343.600 344.480 C 343.050 344.999,341.970 345.859,341.200 346.392 C 340.430 346.926,339.509 347.686,339.153 348.081 C 338.797 348.476,338.329 348.800,338.112 348.800 C 337.896 348.800,337.154 349.340,336.463 350.000 C 335.772 350.660,335.060 351.200,334.879 351.200 C 334.699 351.200,334.202 351.525,333.775 351.921 C 333.349 352.318,331.560 353.608,329.800 354.789 C 328.040 355.970,326.510 357.040,326.400 357.168 C 326.290 357.296,325.705 357.656,325.100 357.968 C 324.495 358.280,324.000 358.679,324.000 358.854 C 324.000 359.592,336.926 350.790,341.800 346.734 C 342.240 346.368,344.265 344.688,346.300 343.000 C 348.335 341.312,350.000 339.857,350.000 339.766 C 350.000 339.459,349.649 339.597,349.399 340.002 M322.333 359.529 C 322.207 359.841,319.569 361.337,314.200 364.142 C 312.880 364.831,311.710 365.491,311.600 365.607 C 311.195 366.036,304.584 369.207,304.100 369.203 C 303.825 369.201,303.600 369.380,303.600 369.600 C 303.600 369.820,303.240 370.000,302.800 370.000 C 302.360 370.000,302.000 370.180,302.000 370.400 C 302.000 370.620,301.640 370.800,301.200 370.800 C 300.760 370.800,300.400 370.980,300.400 371.200 C 300.400 371.843,309.048 367.854,315.800 364.096 C 319.605 361.978,323.600 359.564,323.600 359.382 C 323.600 359.058,322.471 359.189,322.333 359.529 M147.633 371.750 C 148.197 372.258,154.588 374.800,154.954 374.662 C 155.199 374.569,155.040 374.369,154.600 374.217 C 154.160 374.066,153.487 373.775,153.105 373.571 C 152.723 373.367,152.138 373.200,151.805 373.200 C 151.472 373.200,151.200 373.020,151.200 372.800 C 151.200 372.580,150.851 372.400,150.424 372.400 C 149.997 372.400,149.536 372.220,149.400 372.000 C 149.264 371.780,148.773 371.600,148.310 371.600 C 147.846 371.600,147.542 371.668,147.633 371.750 M298.400 372.000 C 298.400 372.220,298.051 372.400,297.624 372.400 C 297.197 372.400,296.736 372.580,296.600 372.800 C 296.464 373.020,296.003 373.200,295.576 373.200 C 295.149 373.200,294.800 373.380,294.800 373.600 C 294.800 374.177,295.126 374.091,297.800 372.815 C 299.460 372.022,299.922 371.658,299.300 371.634 C 298.805 371.615,298.400 371.780,298.400 372.000 M292.800 374.400 C 292.800 374.901,293.224 374.901,294.000 374.400 C 294.485 374.086,294.428 374.011,293.700 374.006 C 293.205 374.003,292.800 374.180,292.800 374.400 M156.000 375.200 C 156.776 375.701,157.200 375.701,157.200 375.200 C 157.200 374.980,156.795 374.803,156.300 374.806 C 155.572 374.811,155.515 374.886,156.000 375.200 M290.580 375.123 C 290.371 375.300,288.040 376.124,285.400 376.954 C 282.760 377.784,280.287 378.629,279.905 378.831 C 279.523 379.034,278.846 379.200,278.400 379.200 C 277.954 379.200,277.277 379.362,276.895 379.561 C 276.513 379.760,275.390 380.132,274.400 380.388 C 273.410 380.644,272.047 381.022,271.372 381.227 C 270.696 381.432,269.762 381.600,269.295 381.600 C 268.829 381.600,268.336 381.780,268.200 382.000 C 268.064 382.220,267.254 382.400,266.400 382.400 C 265.546 382.400,264.736 382.580,264.600 382.800 C 264.464 383.020,263.654 383.200,262.800 383.200 C 261.946 383.200,261.136 383.380,261.000 383.600 C 260.864 383.820,259.874 384.000,258.800 384.000 C 257.726 384.000,256.736 384.180,256.600 384.400 C 256.464 384.620,255.384 384.800,254.200 384.800 C 253.016 384.800,251.936 384.980,251.800 385.200 C 251.664 385.420,250.314 385.600,248.800 385.600 C 247.286 385.600,245.936 385.780,245.800 386.000 C 245.398 386.650,251.728 386.006,257.800 384.780 C 258.900 384.558,260.790 384.178,262.000 383.937 C 265.075 383.323,273.995 381.220,275.200 380.825 C 275.750 380.644,277.550 380.096,279.200 379.607 C 280.850 379.118,282.513 378.556,282.895 378.359 C 283.277 378.162,283.864 378.000,284.200 378.000 C 284.536 378.000,285.123 377.829,285.505 377.619 C 285.887 377.409,287.370 376.847,288.800 376.369 C 292.065 375.278,292.925 374.829,291.780 374.812 C 291.329 374.805,290.789 374.945,290.580 375.123 M157.600 375.763 C 157.600 375.852,158.635 376.242,159.900 376.628 C 161.165 377.015,162.380 377.449,162.600 377.594 C 162.820 377.738,163.810 378.094,164.800 378.386 C 165.790 378.677,167.410 379.179,168.400 379.502 C 170.025 380.031,173.853 381.077,177.600 382.013 C 188.502 384.739,203.277 387.095,202.600 386.000 C 202.464 385.780,201.114 385.600,199.600 385.600 C 198.086 385.600,196.736 385.420,196.600 385.200 C 196.464 384.980,195.283 384.800,193.976 384.800 C 192.659 384.800,191.600 384.622,191.600 384.400 C 191.600 384.180,190.711 384.000,189.624 384.000 C 188.537 384.000,187.536 383.820,187.400 383.600 C 187.264 383.380,186.364 383.200,185.400 383.200 C 184.436 383.200,183.536 383.020,183.400 382.800 C 183.264 382.580,182.544 382.400,181.800 382.400 C 181.056 382.400,180.336 382.220,180.200 382.000 C 180.064 381.780,179.331 381.600,178.571 381.600 C 177.811 381.600,176.877 381.442,176.495 381.249 C 175.429 380.711,173.023 380.000,172.266 380.000 C 171.894 380.000,171.277 379.838,170.895 379.639 C 170.513 379.440,169.480 379.081,168.600 378.841 C 167.720 378.600,165.030 377.773,162.621 377.002 C 158.293 375.616,157.600 375.445,157.600 375.763 M203.233 386.552 C 203.693 386.972,211.280 387.253,211.025 386.841 C 210.857 386.569,209.278 386.400,206.910 386.400 C 204.796 386.400,203.142 386.468,203.233 386.552 M237.375 386.841 C 237.120 387.253,244.707 386.972,245.167 386.552 C 245.258 386.468,243.604 386.400,241.490 386.400 C 239.122 386.400,237.543 386.569,237.375 386.841 M218.524 387.499 C 221.783 387.567,227.003 387.566,230.124 387.499 C 233.246 387.431,230.580 387.376,224.200 387.377 C 217.820 387.377,215.266 387.432,218.524 387.499 " stroke="none" fill="#dac48a" fill-rule="evenodd"></path></g></svg>