<svg id="svg" version="1.1" xmlns="http://www.w3.org/2000/svg" xmlns:xlink="http://www.w3.org/1999/xlink" width="400" height="400" viewBox="0, 0, 400,400"><g id="svgg"><path id="path0" d="M359.096 17.781 C 357.049 18.499,356.401 19.104,355.496 21.146 C 352.906 26.987,360.873 31.808,365.100 26.958 C 368.894 22.605,364.499 15.888,359.096 17.781 M363.805 19.040 C 366.867 21.046,366.541 26.072,363.238 27.781 C 357.802 30.591,352.878 23.322,357.515 19.334 C 358.846 18.190,362.263 18.030,363.805 19.040 M77.129 88.300 C 83.799 88.361,94.599 88.361,101.129 88.300 C 107.658 88.238,102.200 88.188,89.000 88.188 C 75.800 88.188,70.458 88.238,77.129 88.300 M145.100 88.299 C 148.675 88.366,154.525 88.366,158.100 88.299 C 161.675 88.233,158.750 88.179,151.600 88.179 C 144.450 88.179,141.525 88.233,145.100 88.299 M52.988 123.400 C 52.988 136.380,53.038 141.632,53.100 135.071 C 53.162 128.511,53.161 117.891,53.100 111.471 C 53.038 105.052,52.987 110.420,52.988 123.400 M176.587 123.400 C 176.587 135.500,176.637 140.508,176.700 134.528 C 176.762 128.549,176.762 118.649,176.700 112.528 C 176.638 106.408,176.587 111.300,176.587 123.400 M38.400 108.232 C 27.131 114.629,26.512 130.799,37.261 137.977 C 41.527 140.826,41.200 142.036,41.200 123.400 C 41.200 105.443,41.400 106.528,38.400 108.232 M40.400 123.400 C 40.400 133.537,40.261 138.800,39.995 138.800 C 38.006 138.800,31.600 132.258,31.600 130.228 C 31.600 129.883,31.420 129.600,31.200 129.600 C 30.980 129.600,30.800 129.071,30.800 128.424 C 30.800 127.777,30.620 127.136,30.400 127.000 C 30.180 126.864,30.000 125.334,30.000 123.600 C 30.000 121.866,30.180 120.336,30.400 120.200 C 30.620 120.064,30.800 119.530,30.800 119.014 C 30.800 118.055,32.212 115.011,33.086 114.085 C 33.353 113.802,33.887 113.037,34.272 112.385 C 34.657 111.733,35.069 111.200,35.186 111.199 C 35.304 111.199,36.030 110.659,36.800 110.000 C 37.570 109.341,38.425 108.801,38.700 108.801 C 38.975 108.800,39.200 108.620,39.200 108.400 C 39.200 108.180,39.470 108.000,39.800 108.000 C 40.323 108.000,40.400 109.978,40.400 123.400 M70.520 123.600 C 70.520 124.810,70.595 125.305,70.687 124.700 C 70.778 124.095,70.778 123.105,70.687 122.500 C 70.595 121.895,70.520 122.390,70.520 123.600 M291.381 137.307 C 291.274 137.585,291.234 142.490,291.293 148.207 L 291.400 158.600 300.000 158.600 L 308.600 158.600 308.714 151.000 C 308.862 141.080,309.223 141.952,304.513 140.848 C 298.933 139.540,294.944 138.292,292.705 137.153 C 291.786 136.686,291.611 136.706,291.381 137.307 M94.670 170.663 C 94.522 170.812,94.400 174.773,94.400 179.467 L 94.400 188.000 114.808 188.000 L 135.216 188.000 135.108 179.300 L 135.000 170.600 114.970 170.496 C 103.954 170.439,94.819 170.514,94.670 170.663 M272.200 170.940 C 266.509 172.584,264.700 175.664,264.885 183.400 L 265.000 188.200 300.000 188.200 L 335.000 188.200 335.115 183.400 C 335.304 175.494,333.418 172.420,327.400 170.828 C 325.084 170.215,274.355 170.318,272.200 170.940 M329.400 172.060 C 331.577 173.257,334.000 175.954,334.000 177.181 C 334.000 177.605,334.180 178.064,334.400 178.200 C 334.629 178.342,334.800 180.404,334.800 183.024 L 334.800 187.600 300.000 187.600 L 265.200 187.600 265.200 183.024 C 265.200 180.404,265.371 178.342,265.600 178.200 C 265.820 178.064,266.000 177.513,266.000 176.976 C 266.000 176.439,266.150 176.000,266.332 176.000 C 266.515 176.000,266.903 175.555,267.194 175.012 C 267.951 173.596,270.591 171.892,272.533 171.563 C 276.425 170.906,328.123 171.357,329.400 172.060 M39.800 200.378 C 39.140 200.547,37.610 200.913,36.400 201.194 C 35.190 201.474,34.020 201.835,33.800 201.996 C 33.580 202.158,32.950 202.399,32.400 202.533 C 27.007 203.845,18.067 212.375,14.911 219.218 C 12.935 223.504,11.023 232.719,11.728 234.557 C 11.954 235.146,24.157 235.200,156.903 235.200 L 301.830 235.200 303.586 236.100 C 307.560 238.138,307.901 243.004,304.263 245.779 L 302.926 246.799 157.363 246.899 L 11.800 247.000 11.676 275.200 C 11.546 304.660,11.614 306.190,13.302 311.800 C 17.394 325.407,31.451 335.820,44.800 335.134 C 47.238 335.008,47.407 334.938,47.504 334.000 C 49.727 312.680,66.024 292.576,86.680 285.673 C 90.082 284.537,91.287 284.210,96.000 283.143 C 98.888 282.489,112.212 282.484,115.400 283.136 C 122.341 284.555,127.483 286.298,132.700 289.003 C 134.955 290.172,136.799 291.010,136.797 290.864 C 136.795 290.719,136.390 290.398,135.897 290.152 C 135.404 289.905,133.560 288.978,131.800 288.091 C 124.174 284.249,115.004 282.008,106.887 282.002 C 104.171 282.000,103.529 281.881,103.320 281.336 C 102.669 279.638,105.907 248.876,106.857 247.731 C 107.221 247.292,124.303 247.200,205.069 247.200 C 309.952 247.200,304.016 247.312,305.600 245.301 C 306.649 243.970,307.200 242.835,307.200 242.005 C 307.200 241.226,307.450 241.200,314.800 241.200 L 322.400 241.200 322.400 242.411 C 322.400 243.311,322.859 244.080,324.189 245.411 L 325.979 247.200 356.989 247.200 L 388.000 247.200 387.993 275.500 C 387.985 305.058,387.883 307.121,386.187 312.217 C 383.886 319.127,379.096 325.410,373.094 329.392 C 371.826 330.233,370.868 331.001,370.966 331.099 C 371.180 331.313,374.332 329.195,376.734 327.223 C 380.638 324.018,386.043 315.669,386.978 311.400 C 387.122 310.740,387.456 309.210,387.720 308.000 C 388.069 306.401,388.200 297.768,388.200 276.400 L 388.200 247.000 357.200 246.800 C 332.622 246.641,326.009 246.491,325.279 246.074 C 321.701 244.034,322.119 237.586,325.939 235.875 C 326.715 235.528,335.216 235.346,357.600 235.200 L 388.200 235.000 388.336 233.600 C 389.700 219.530,376.876 203.915,361.200 200.557 C 358.312 199.938,42.215 199.762,39.800 200.378 M150.305 261.483 C 150.802 261.579,151.522 261.575,151.905 261.475 C 152.287 261.375,151.880 261.296,151.000 261.301 C 150.120 261.305,149.807 261.387,150.305 261.483 M248.305 261.483 C 248.802 261.579,249.522 261.575,249.905 261.475 C 250.287 261.375,249.880 261.296,249.000 261.301 C 248.120 261.305,247.807 261.387,248.305 261.483 M146.640 263.040 C 145.848 263.832,145.200 264.867,145.201 265.340 C 145.201 266.018,145.350 265.905,145.901 264.808 C 146.285 264.042,147.212 263.007,147.959 262.508 C 148.709 262.007,149.041 261.600,148.699 261.600 C 148.359 261.600,147.432 262.248,146.640 263.040 M154.041 262.508 C 157.779 265.005,158.178 277.916,154.619 281.200 C 152.241 283.394,147.848 282.483,145.944 279.400 C 145.537 278.740,145.202 278.442,145.201 278.738 C 145.191 282.566,153.008 284.192,155.600 280.901 C 157.098 279.000,157.200 278.430,157.200 271.967 C 157.200 264.741,156.020 261.653,153.241 261.609 C 152.933 261.604,153.293 262.009,154.041 262.508 M245.364 262.309 C 242.994 264.270,242.798 265.023,242.829 272.062 C 242.862 279.347,243.106 280.219,245.589 281.900 C 248.767 284.051,254.854 281.826,254.784 278.538 C 254.774 278.036,254.598 278.184,254.235 279.000 C 253.186 281.362,251.815 282.200,249.000 282.200 C 244.300 282.200,243.200 280.249,243.201 271.913 C 243.201 265.441,243.599 264.085,245.959 262.508 C 246.707 262.009,247.067 261.604,246.759 261.609 C 246.452 261.614,245.824 261.929,245.364 262.309 M252.041 262.508 C 252.788 263.007,253.715 264.042,254.099 264.808 C 254.650 265.905,254.799 266.018,254.799 265.340 C 254.800 264.352,252.226 261.600,251.301 261.600 C 250.959 261.600,251.291 262.007,252.041 262.508 M144.959 272.000 C 144.959 275.190,145.021 276.495,145.097 274.900 C 145.173 273.305,145.173 270.695,145.097 269.100 C 145.021 267.505,144.959 268.810,144.959 272.000 M254.959 272.000 C 254.959 275.190,255.021 276.495,255.097 274.900 C 255.173 273.305,255.173 270.695,255.097 269.100 C 255.021 267.505,254.959 268.810,254.959 272.000 M184.712 270.775 C 182.581 271.840,181.169 273.497,181.219 274.874 C 181.230 275.163,181.545 274.776,181.919 274.014 C 183.810 270.165,188.252 269.701,191.803 272.982 C 193.782 274.809,197.007 276.406,198.600 276.349 C 199.648 276.310,199.573 276.245,198.000 275.829 C 195.164 275.079,194.130 274.536,192.264 272.816 C 189.282 270.068,187.235 269.515,184.712 270.775 M210.837 270.623 C 210.087 270.948,208.691 271.936,207.734 272.818 C 205.870 274.536,204.835 275.080,202.000 275.829 C 200.427 276.245,200.352 276.310,201.400 276.349 C 202.993 276.406,206.218 274.809,208.197 272.982 C 211.748 269.701,216.190 270.165,218.081 274.014 C 218.455 274.776,218.770 275.163,218.781 274.874 C 218.890 271.874,213.993 269.253,210.837 270.623 M181.216 278.228 C 181.179 280.188,189.023 286.839,191.312 286.789 C 191.580 286.783,190.728 286.198,189.417 285.489 C 186.572 283.950,182.484 280.274,181.754 278.600 C 181.338 277.645,181.228 277.569,181.216 278.228 M218.253 278.531 C 217.912 279.888,213.438 283.950,210.587 285.489 C 209.274 286.198,208.420 286.783,208.688 286.789 C 209.260 286.802,211.527 285.564,213.821 283.986 C 216.617 282.062,219.412 278.479,218.685 277.751 C 218.581 277.648,218.387 277.998,218.253 278.531 M285.440 282.631 C 275.378 284.195,264.937 288.677,257.609 294.576 C 256.309 295.622,248.400 303.540,247.557 304.638 C 246.389 306.160,243.678 310.237,242.832 311.743 C 241.229 314.598,242.023 313.742,244.427 310.024 C 253.920 295.344,266.656 286.819,284.600 283.133 C 286.013 282.843,290.209 282.638,294.800 282.635 C 299.335 282.631,301.847 282.509,300.800 282.344 C 297.848 281.877,289.256 282.038,285.440 282.631 M304.200 283.248 C 305.080 283.449,306.700 283.807,307.800 284.044 C 328.133 288.413,344.612 304.682,351.107 326.800 C 351.391 327.767,351.531 327.934,351.559 327.339 C 351.582 326.865,350.955 324.615,350.166 322.339 C 348.943 318.809,347.921 316.521,345.057 310.903 C 344.806 310.410,344.465 310.005,344.300 310.003 C 344.135 310.001,344.000 309.764,344.000 309.475 C 344.000 309.187,343.680 308.602,343.289 308.175 C 342.898 307.749,342.136 306.770,341.595 306.000 C 339.866 303.538,339.467 303.085,335.791 299.409 C 332.115 295.733,331.662 295.334,329.200 293.605 C 328.430 293.064,327.451 292.302,327.025 291.911 C 326.598 291.520,326.091 291.200,325.897 291.200 C 325.703 291.200,324.792 290.692,323.872 290.072 C 319.310 286.993,307.276 282.702,303.600 282.844 C 302.893 282.871,303.069 282.990,304.200 283.248 M192.200 287.200 C 192.336 287.420,192.842 287.597,193.324 287.594 C 194.036 287.589,194.088 287.515,193.600 287.200 C 192.812 286.691,191.885 286.691,192.200 287.200 M206.400 287.200 C 205.912 287.515,205.964 287.589,206.676 287.594 C 207.158 287.597,207.664 287.420,207.800 287.200 C 208.115 286.691,207.188 286.691,206.400 287.200 M195.115 288.072 C 195.492 288.221,197.690 288.344,200.000 288.344 C 202.310 288.344,204.508 288.221,204.885 288.072 C 205.262 287.922,203.064 287.800,200.000 287.800 C 196.936 287.800,194.738 287.922,195.115 288.072 M137.233 291.362 C 137.325 291.451,138.570 292.377,140.000 293.419 C 146.404 298.086,151.098 303.087,155.554 309.988 C 157.973 313.735,158.779 314.611,157.168 311.743 C 154.587 307.147,152.429 304.418,147.406 299.394 C 143.079 295.068,142.354 294.432,139.519 292.482 C 137.974 291.419,136.600 290.746,137.233 291.362 M99.200 294.644 C 62.451 301.225,46.530 342.479,69.732 371.000 C 73.491 375.622,78.083 379.360,84.200 382.780 C 98.368 390.700,118.004 389.519,132.400 379.880 C 139.705 374.988,150.000 361.624,150.000 357.032 C 150.000 356.710,150.159 356.349,150.354 356.229 C 150.549 356.108,150.802 355.513,150.917 354.905 C 151.032 354.297,151.445 352.630,151.835 351.200 C 152.970 347.033,152.861 334.974,151.646 330.289 C 147.637 314.837,136.387 302.199,122.154 297.161 C 115.871 294.936,104.519 293.692,99.200 294.644 M287.400 294.656 C 262.549 299.733,247.342 317.520,247.437 341.400 C 247.569 374.169,279.223 396.090,310.600 385.141 C 329.602 378.510,343.152 357.177,340.923 337.400 C 340.523 333.857,340.516 333.915,340.458 341.076 C 340.423 345.430,340.239 348.452,340.000 348.600 C 339.780 348.736,339.600 349.636,339.600 350.600 C 339.600 351.564,339.420 352.464,339.200 352.600 C 338.980 352.736,338.800 353.377,338.800 354.024 C 338.800 354.671,338.620 355.200,338.400 355.200 C 338.180 355.200,338.000 355.562,338.000 356.005 C 338.000 356.448,337.839 357.123,337.642 357.505 C 337.445 357.887,336.687 359.460,335.957 361.000 C 332.389 368.529,325.759 376.189,319.686 379.800 C 319.316 380.020,318.290 380.662,317.407 381.228 C 315.310 382.569,312.183 384.000,311.349 384.000 C 309.836 384.000,302.377 376.989,299.275 372.652 L 297.950 370.800 299.047 370.800 C 300.159 370.800,302.430 370.190,303.695 369.551 C 304.077 369.358,304.587 369.200,304.829 369.200 C 305.524 369.200,310.400 366.682,310.400 366.323 C 310.400 366.145,310.666 366.000,310.990 366.000 C 314.583 366.000,323.689 351.405,323.562 345.849 C 323.528 344.344,323.479 344.427,323.004 346.800 C 319.157 365.986,298.476 376.051,280.800 367.341 C 274.056 364.017,267.987 356.897,266.020 350.000 C 265.738 349.010,265.348 347.678,265.153 347.040 C 264.959 346.402,264.800 343.774,264.800 341.200 C 264.800 338.626,264.959 335.998,265.153 335.360 C 265.348 334.722,265.738 333.390,266.020 332.400 C 274.223 303.632,316.502 305.817,322.981 335.343 C 323.440 337.437,323.526 337.586,323.560 336.351 C 323.627 333.920,320.308 325.248,318.832 324.000 C 318.702 323.890,318.089 323.121,317.470 322.291 C 316.048 320.382,314.818 319.152,312.909 317.730 C 312.079 317.111,311.310 316.498,311.200 316.368 C 310.247 315.242,303.292 312.314,300.296 311.778 C 299.468 311.630,298.691 311.347,298.568 311.148 C 298.044 310.300,305.974 301.832,309.679 299.283 L 311.512 298.022 314.656 299.627 C 319.860 302.283,325.841 306.797,328.707 310.233 C 330.600 312.503,334.800 318.661,334.800 319.168 C 334.800 319.406,334.980 319.600,335.200 319.600 C 335.420 319.600,335.600 319.960,335.600 320.400 C 335.600 320.840,335.780 321.200,336.000 321.200 C 336.220 321.200,336.400 321.560,336.400 322.000 C 336.400 322.440,336.580 322.800,336.800 322.800 C 337.020 322.800,337.200 323.162,337.200 323.605 C 337.200 324.048,337.380 324.768,337.600 325.205 C 337.820 325.642,338.180 326.358,338.400 326.795 C 338.620 327.232,338.800 328.031,338.800 328.571 C 338.800 329.111,338.980 329.664,339.200 329.800 C 339.420 329.936,339.600 330.847,339.600 331.824 C 339.600 332.875,339.784 333.600,340.051 333.600 C 341.160 333.600,338.760 325.534,335.965 319.869 C 329.571 306.911,316.202 297.198,301.467 294.806 C 299.104 294.423,289.067 294.316,287.400 294.656 M124.000 298.400 C 124.000 298.620,124.360 298.800,124.800 298.800 C 125.240 298.800,125.600 298.980,125.600 299.200 C 125.600 299.420,125.960 299.600,126.400 299.600 C 126.840 299.600,127.200 299.759,127.200 299.953 C 127.200 300.148,127.515 300.410,127.900 300.536 C 131.108 301.586,139.540 308.444,141.995 312.000 C 142.527 312.770,143.075 313.490,143.214 313.600 C 144.113 314.313,148.263 322.077,149.199 324.800 C 149.464 325.570,149.818 326.560,149.985 327.000 C 150.793 329.124,151.200 330.768,151.200 331.905 C 151.200 332.591,151.380 333.264,151.600 333.400 C 151.844 333.551,152.000 336.596,152.000 341.200 C 152.000 345.804,151.844 348.849,151.600 349.000 C 151.380 349.136,151.200 349.946,151.200 350.800 C 151.200 351.654,151.020 352.464,150.800 352.600 C 150.580 352.736,150.400 353.366,150.400 354.000 C 150.400 354.634,150.220 355.264,150.000 355.400 C 149.780 355.536,149.600 356.087,149.600 356.624 C 149.600 357.161,149.420 357.600,149.200 357.600 C 148.980 357.600,148.800 357.899,148.800 358.265 C 148.800 358.927,144.572 367.218,144.040 367.600 C 143.887 367.710,143.323 368.430,142.787 369.200 C 139.108 374.488,126.585 384.000,123.302 384.000 C 121.952 384.000,114.158 377.106,111.996 374.000 C 111.460 373.230,110.690 372.240,110.285 371.800 C 109.561 371.013,109.573 370.996,111.074 370.726 C 114.928 370.032,115.257 369.929,118.600 368.366 C 122.681 366.458,130.800 359.429,130.800 357.804 C 130.800 357.509,130.950 357.207,131.133 357.133 C 131.670 356.918,134.000 352.421,134.000 351.599 C 134.000 351.186,134.180 350.736,134.400 350.600 C 134.620 350.464,134.800 349.859,134.800 349.256 C 134.800 348.653,134.998 347.962,135.239 347.721 C 135.872 347.088,135.833 336.148,135.192 334.161 C 134.915 333.302,134.515 332.060,134.303 331.400 C 133.881 330.086,132.333 326.719,132.005 326.400 C 131.891 326.290,131.544 325.705,131.232 325.100 C 130.920 324.495,130.515 324.000,130.332 324.000 C 130.150 324.000,130.000 323.736,130.000 323.414 C 130.000 322.829,124.583 317.200,124.021 317.200 C 123.858 317.200,123.201 316.750,122.562 316.200 C 121.923 315.651,121.175 315.201,120.900 315.200 C 120.625 315.200,120.400 315.064,120.400 314.898 C 120.400 314.731,119.815 314.356,119.100 314.064 C 118.385 313.772,117.440 313.386,117.000 313.207 C 115.275 312.504,113.732 312.049,112.203 311.794 C 109.996 311.426,109.859 311.274,110.649 310.069 C 113.874 305.148,124.000 296.297,124.000 298.400 M111.059 312.197 C 146.063 319.500,141.274 370.545,105.594 370.448 C 101.815 370.438,100.347 370.208,96.000 368.946 C 85.150 365.798,76.400 353.376,76.400 341.120 C 76.400 322.971,93.661 308.567,111.059 312.197 M159.447 317.100 C 160.096 318.579,162.078 324.262,162.761 326.600 C 163.200 328.105,163.963 332.212,164.098 333.800 L 164.200 335.000 200.000 335.000 L 235.800 335.000 235.919 333.600 C 236.255 329.643,238.439 321.856,240.546 317.100 C 240.919 316.257,241.033 315.600,240.805 315.600 C 240.582 315.600,240.400 315.865,240.400 316.188 C 240.400 316.511,240.078 317.366,239.684 318.088 C 239.290 318.810,238.548 320.750,238.035 322.400 C 237.523 324.050,236.959 325.850,236.782 326.400 C 236.605 326.950,236.250 328.660,235.992 330.200 C 235.735 331.740,235.447 333.405,235.354 333.900 L 235.185 334.800 200.000 334.800 L 164.815 334.800 164.646 333.900 C 164.553 333.405,164.265 331.740,164.008 330.200 C 163.750 328.660,163.395 326.950,163.218 326.400 C 163.041 325.850,162.477 324.050,161.965 322.400 C 161.452 320.750,160.710 318.810,160.316 318.088 C 159.922 317.366,159.600 316.511,159.600 316.188 C 159.600 315.865,159.418 315.600,159.195 315.600 C 158.966 315.600,159.076 316.253,159.447 317.100 M281.578 328.700 L 280.200 330.200 281.700 328.822 C 282.525 328.063,283.200 327.388,283.200 327.322 C 283.200 327.016,282.862 327.304,281.578 328.700 M351.668 329.200 C 351.687 330.850,352.317 332.556,352.332 331.000 C 352.338 330.340,352.189 329.440,352.000 329.000 C 351.687 328.273,351.657 328.291,351.668 329.200 M368.346 332.003 C 365.802 333.348,361.127 334.445,356.932 334.682 L 352.864 334.912 352.674 333.756 L 352.484 332.600 352.542 333.800 L 352.600 335.000 355.800 335.121 C 360.116 335.283,370.400 332.654,370.400 331.388 C 370.400 331.050,369.825 331.222,368.346 332.003 M323.628 341.100 C 323.613 342.035,323.669 342.800,323.753 342.800 C 324.093 342.800,324.242 340.895,323.959 340.173 C 323.745 339.626,323.648 339.897,323.628 341.100 M311.693 341.200 C 311.693 341.970,311.775 342.285,311.876 341.900 C 311.976 341.515,311.976 340.885,311.876 340.500 C 311.775 340.115,311.693 340.430,311.693 341.200 M118.175 353.700 L 117.000 355.000 118.300 353.825 C 119.512 352.730,119.784 352.400,119.475 352.400 C 119.406 352.400,118.821 352.985,118.175 353.700 M280.400 352.525 C 280.400 352.594,280.985 353.179,281.700 353.825 L 283.000 355.000 281.825 353.700 C 280.730 352.488,280.400 352.216,280.400 352.525 " stroke="none" fill="#38b1ef" fill-rule="evenodd"></path><path id="path1" d="M118.148 83.237 C 118.004 84.138,117.440 85.404,116.895 86.051 C 114.844 88.489,115.890 88.400,89.348 88.400 C 65.239 88.400,64.191 88.450,61.200 89.743 C 57.629 91.287,54.959 94.374,53.790 98.310 C 53.116 100.578,53.110 146.611,53.783 149.000 C 54.785 152.558,59.850 157.600,62.422 157.600 C 62.824 157.600,63.264 157.780,63.400 158.000 C 63.769 158.597,165.197 158.547,166.681 157.949 C 172.077 155.776,174.510 153.101,175.955 147.754 C 176.585 145.422,176.572 101.925,175.941 99.306 C 174.650 93.953,171.439 90.556,166.040 88.834 C 165.175 88.558,159.819 88.400,151.320 88.400 C 135.348 88.400,134.776 88.237,133.541 83.331 L 133.105 81.600 125.757 81.600 L 118.409 81.600 118.148 83.237 M94.018 106.489 C 94.798 106.770,95.916 107.315,96.504 107.700 C 97.091 108.085,97.733 108.400,97.930 108.400 C 99.292 108.400,103.920 114.382,105.201 117.800 C 108.173 125.723,103.928 135.719,96.000 139.469 C 90.096 142.261,87.572 142.244,79.500 139.357 C 79.115 139.219,78.800 138.960,78.800 138.780 C 78.800 138.601,78.477 138.351,78.083 138.226 C 76.896 137.849,73.200 134.042,73.200 133.195 C 73.200 132.978,73.064 132.800,72.898 132.800 C 72.731 132.800,72.356 132.215,72.064 131.500 C 71.772 130.785,71.383 129.840,71.200 129.400 C 65.734 116.272,80.377 101.570,94.018 106.489 M146.698 106.352 C 147.084 106.550,148.299 107.137,149.397 107.656 C 151.552 108.675,156.400 113.200,156.400 114.193 C 156.400 114.527,156.551 114.800,156.736 114.800 C 156.921 114.800,157.312 115.565,157.606 116.500 C 157.899 117.435,158.288 118.371,158.470 118.580 C 158.965 119.150,158.867 127.395,158.349 128.681 C 152.978 142.021,138.176 145.721,128.577 136.124 C 121.281 128.830,121.458 118.162,129.000 110.593 C 133.173 106.405,142.469 104.178,146.698 106.352 M139.000 118.467 C 133.699 121.399,135.238 128.821,141.140 128.787 C 146.780 128.753,148.742 122.076,144.041 118.914 C 142.574 117.928,140.334 117.729,139.000 118.467 M102.600 324.069 C 101.720 324.294,100.687 324.641,100.305 324.839 C 99.923 325.038,99.338 325.200,99.005 325.200 C 98.672 325.200,98.400 325.336,98.400 325.502 C 98.400 325.669,97.905 326.024,97.300 326.293 C 94.870 327.372,90.000 332.769,90.000 334.383 C 90.000 334.619,89.841 335.123,89.647 335.505 C 88.147 338.460,88.147 343.940,89.647 346.895 C 89.841 347.277,90.000 347.784,90.000 348.023 C 90.000 348.640,92.346 352.016,93.598 353.200 C 101.111 360.305,110.885 360.308,118.020 353.207 C 126.490 344.778,124.237 330.977,113.531 325.704 C 110.000 323.966,105.583 323.305,102.600 324.069 M291.000 324.096 C 290.120 324.314,289.040 324.636,288.600 324.812 C 285.750 325.955,285.200 326.228,285.200 326.498 C 285.200 326.664,285.005 326.800,284.766 326.800 C 283.055 326.800,278.245 333.432,277.369 337.000 C 275.319 345.358,282.360 357.600,289.217 357.600 C 289.622 357.600,290.064 357.780,290.200 358.000 C 291.114 359.479,299.494 358.110,303.345 355.853 C 319.314 346.495,308.889 319.678,291.000 324.096 " stroke="none" fill="#e7e4fa" fill-rule="evenodd"></path><path id="path2" d="M357.515 19.334 C 354.759 21.704,355.058 25.658,358.138 27.561 C 362.561 30.295,367.716 25.562,365.391 20.901 C 364.079 18.271,359.752 17.410,357.515 19.334 M117.094 85.303 L 116.388 86.600 117.194 85.656 C 117.880 84.852,118.246 83.994,117.900 84.003 C 117.845 84.004,117.482 84.589,117.094 85.303 M62.600 88.800 L 61.800 89.144 62.600 89.166 C 63.040 89.178,63.670 89.013,64.000 88.800 C 64.795 88.286,63.796 88.286,62.600 88.800 M165.800 88.800 C 166.240 88.989,166.870 89.144,167.200 89.144 C 167.578 89.144,167.504 89.017,167.000 88.800 C 166.560 88.611,165.930 88.456,165.600 88.456 C 165.222 88.456,165.296 88.583,165.800 88.800 M169.600 90.073 C 173.497 93.609,174.180 94.152,172.600 92.455 C 171.720 91.510,170.640 90.547,170.200 90.314 C 169.760 90.082,169.490 89.973,169.600 90.073 M56.221 92.848 C 55.149 94.122,53.837 96.395,54.071 96.574 C 54.142 96.628,54.948 95.532,55.863 94.137 C 57.703 91.329,57.803 90.968,56.221 92.848 M53.473 97.753 C 53.323 98.145,53.211 98.766,53.225 99.133 C 53.242 99.575,53.381 99.474,53.637 98.834 C 53.849 98.303,53.961 97.682,53.885 97.454 C 53.809 97.227,53.624 97.361,53.473 97.753 M175.656 98.200 C 175.656 98.640,175.811 99.360,176.000 99.800 L 176.344 100.600 176.344 99.800 C 176.344 99.360,176.189 98.640,176.000 98.200 L 175.656 97.400 175.656 98.200 M86.691 105.889 C 87.401 105.977,88.661 105.979,89.491 105.892 C 90.321 105.805,89.740 105.733,88.200 105.731 C 86.660 105.729,85.981 105.800,86.691 105.889 M139.900 105.889 C 140.615 105.978,141.785 105.978,142.500 105.889 C 143.215 105.801,142.630 105.728,141.200 105.728 C 139.770 105.728,139.185 105.801,139.900 105.889 M82.800 106.418 C 82.362 106.715,82.524 106.752,83.400 106.556 C 84.871 106.227,85.190 105.998,84.167 106.006 C 83.745 106.009,83.130 106.195,82.800 106.418 M91.633 106.144 C 91.725 106.223,92.340 106.408,93.000 106.556 C 93.876 106.752,94.038 106.715,93.600 106.418 C 93.060 106.053,91.232 105.798,91.633 106.144 M135.600 106.406 C 135.178 106.682,135.415 106.723,136.400 106.542 C 138.125 106.225,138.451 105.998,137.167 106.006 C 136.635 106.009,135.930 106.189,135.600 106.406 M144.400 106.155 C 144.400 106.240,144.930 106.387,145.579 106.482 C 146.227 106.577,146.667 106.508,146.555 106.328 C 146.357 106.007,144.400 105.850,144.400 106.155 M77.410 109.112 C 75.525 110.539,72.406 114.181,72.402 114.960 C 72.401 115.158,72.962 114.528,73.649 113.560 C 75.150 111.445,76.057 110.544,78.368 108.869 C 79.332 108.171,79.958 107.601,79.760 107.602 C 79.562 107.603,78.504 108.282,77.410 109.112 M150.486 108.600 C 151.295 109.150,152.099 109.600,152.272 109.600 C 152.444 109.600,151.923 109.150,151.114 108.600 C 150.305 108.050,149.501 107.600,149.328 107.600 C 149.156 107.600,149.677 108.050,150.486 108.600 M39.200 108.400 C 39.200 108.620,38.975 108.800,38.700 108.801 C 38.425 108.801,37.570 109.341,36.800 110.000 C 36.030 110.659,35.304 111.199,35.186 111.199 C 35.069 111.200,34.657 111.733,34.272 112.385 C 33.887 113.037,33.353 113.802,33.086 114.085 C 32.212 115.011,30.800 118.055,30.800 119.014 C 30.800 119.530,30.620 120.064,30.400 120.200 C 30.180 120.336,30.000 121.866,30.000 123.600 C 30.000 125.334,30.180 126.864,30.400 127.000 C 30.620 127.136,30.800 127.777,30.800 128.424 C 30.800 129.071,30.980 129.600,31.200 129.600 C 31.420 129.600,31.600 129.883,31.600 130.228 C 31.600 132.258,38.006 138.800,39.995 138.800 C 40.261 138.800,40.400 133.537,40.400 123.400 C 40.400 109.978,40.323 108.000,39.800 108.000 C 39.470 108.000,39.200 108.180,39.200 108.400 M128.581 110.900 L 127.000 112.600 128.700 111.019 C 130.281 109.548,130.584 109.200,130.281 109.200 C 130.216 109.200,129.451 109.965,128.581 110.900 M102.693 113.597 C 103.268 114.476,103.823 115.111,103.925 115.008 C 104.107 114.826,102.113 112.000,101.803 112.000 C 101.717 112.000,102.118 112.719,102.693 113.597 M71.049 117.815 C 70.912 118.173,70.815 118.766,70.834 119.133 C 70.853 119.500,71.027 119.269,71.221 118.620 C 71.598 117.358,71.465 116.733,71.049 117.815 M158.352 119.687 C 158.537 120.798,158.593 120.855,158.719 120.054 C 158.801 119.533,158.703 118.943,158.501 118.741 C 158.279 118.519,158.221 118.893,158.352 119.687 M123.443 120.233 C 123.120 121.073,123.184 126.017,123.528 126.887 C 123.678 127.265,123.800 125.780,123.800 123.587 C 123.800 119.278,123.802 119.297,123.443 120.233 M70.252 120.900 C 69.729 122.852,70.375 128.357,71.245 129.358 C 71.416 129.555,71.281 128.565,70.945 127.158 C 70.561 125.549,70.418 123.747,70.561 122.300 C 70.796 119.916,70.670 119.342,70.252 120.900 M105.739 123.600 C 105.745 126.318,105.778 126.443,106.091 124.926 C 106.287 123.976,106.284 122.680,106.085 121.926 C 105.797 120.840,105.734 121.143,105.739 123.600 M158.454 126.667 C 158.425 127.144,158.296 127.864,158.170 128.267 C 157.952 128.961,157.964 128.962,158.396 128.288 C 158.647 127.897,158.775 127.177,158.681 126.688 C 158.509 125.801,158.509 125.801,158.454 126.667 M71.600 130.254 C 71.600 130.896,72.578 132.794,72.910 132.797 C 73.081 132.799,72.923 132.215,72.559 131.500 C 71.779 129.965,71.600 129.733,71.600 130.254 M124.800 130.553 C 124.800 130.982,125.990 133.200,126.221 133.200 C 126.331 133.200,126.123 132.615,125.759 131.900 C 125.017 130.440,124.800 130.136,124.800 130.553 M74.404 135.000 C 75.213 136.088,76.829 137.552,77.800 138.076 C 78.240 138.314,78.510 138.427,78.400 138.327 C 75.112 135.343,73.924 134.354,74.404 135.000 M100.581 136.100 L 99.000 137.800 100.700 136.219 C 102.281 134.748,102.584 134.400,102.281 134.400 C 102.216 134.400,101.451 135.165,100.581 136.100 M152.166 137.112 C 151.487 137.710,150.587 138.428,150.166 138.706 C 149.733 138.991,149.922 138.964,150.600 138.644 C 151.260 138.331,152.236 137.609,152.770 137.038 C 154.025 135.694,153.733 135.730,152.166 137.112 M129.605 137.104 C 129.610 137.435,132.409 139.331,132.594 139.129 C 132.659 139.058,132.012 138.507,131.156 137.904 C 130.300 137.301,129.602 136.941,129.605 137.104 M93.000 140.400 C 92.229 140.731,92.231 140.745,93.076 140.772 C 93.558 140.787,94.064 140.620,94.200 140.400 C 94.492 139.927,94.101 139.927,93.000 140.400 M85.498 141.266 C 86.399 141.622,89.993 141.626,90.883 141.272 C 91.258 141.122,90.043 140.997,88.181 140.994 C 86.319 140.991,85.112 141.113,85.498 141.266 M138.715 141.272 C 139.092 141.421,140.210 141.544,141.200 141.544 C 142.190 141.544,143.308 141.421,143.685 141.272 C 144.062 141.122,142.944 141.000,141.200 141.000 C 139.456 141.000,138.338 141.122,138.715 141.272 M175.829 147.829 C 175.681 148.415,175.638 148.972,175.732 149.066 C 175.827 149.160,176.024 148.758,176.171 148.171 C 176.319 147.585,176.362 147.028,176.268 146.934 C 176.173 146.840,175.976 147.242,175.829 147.829 M53.212 148.000 C 53.212 148.330,53.387 148.870,53.600 149.200 C 53.945 149.733,53.988 149.733,53.988 149.200 C 53.988 148.870,53.813 148.330,53.600 148.000 C 53.255 147.467,53.212 147.467,53.212 148.000 M54.575 151.552 C 55.432 153.209,57.067 155.060,58.532 156.033 C 59.552 156.710,59.475 156.574,58.137 155.337 C 57.222 154.492,55.983 153.035,55.384 152.100 C 54.134 150.151,53.698 149.855,54.575 151.552 M173.052 153.700 C 172.175 154.890,171.915 155.420,172.452 154.924 C 173.297 154.143,175.035 151.599,174.723 151.600 C 174.655 151.601,173.903 152.546,173.052 153.700 M62.200 158.000 C 63.301 158.473,63.692 158.473,63.400 158.000 C 63.264 157.780,62.758 157.613,62.276 157.628 C 61.431 157.655,61.429 157.669,62.200 158.000 M89.931 158.700 C 103.863 158.758,126.543 158.758,140.331 158.700 C 154.119 158.642,142.720 158.594,115.000 158.594 C 87.280 158.594,75.999 158.642,89.931 158.700 M272.533 171.563 C 270.591 171.892,267.951 173.596,267.194 175.012 C 266.903 175.555,266.515 176.000,266.332 176.000 C 266.150 176.000,266.000 176.439,266.000 176.976 C 266.000 177.513,265.820 178.064,265.600 178.200 C 265.371 178.342,265.200 180.404,265.200 183.024 L 265.200 187.600 300.000 187.600 L 334.800 187.600 334.800 183.024 C 334.800 180.404,334.629 178.342,334.400 178.200 C 334.180 178.064,334.000 177.605,334.000 177.181 C 334.000 175.954,331.577 173.257,329.400 172.060 C 328.123 171.357,276.425 170.906,272.533 171.563 M307.200 242.005 C 307.200 242.835,306.649 243.970,305.600 245.301 C 304.016 247.312,309.952 247.200,205.069 247.200 C 124.303 247.200,107.221 247.292,106.857 247.731 C 105.907 248.876,102.669 279.638,103.320 281.336 C 103.529 281.881,104.171 282.000,106.887 282.002 C 112.631 282.006,120.826 283.541,126.400 285.657 C 130.253 287.119,136.451 290.264,136.733 290.900 C 136.807 291.065,137.044 291.200,137.261 291.200 C 137.665 291.200,140.585 293.122,142.391 294.577 C 143.715 295.643,151.171 303.102,152.260 304.451 C 153.754 306.300,157.046 311.356,157.630 312.700 C 157.941 313.415,158.331 314.000,158.498 314.000 C 158.664 314.000,158.800 314.360,158.800 314.800 C 158.800 315.240,158.980 315.600,159.200 315.600 C 159.420 315.600,159.600 315.865,159.600 316.188 C 159.600 316.511,159.922 317.366,160.316 318.088 C 160.710 318.810,161.452 320.750,161.965 322.400 C 162.477 324.050,163.041 325.850,163.218 326.400 C 163.395 326.950,163.750 328.660,164.008 330.200 C 164.265 331.740,164.553 333.405,164.646 333.900 L 164.815 334.800 200.000 334.800 L 235.185 334.800 235.354 333.900 C 235.447 333.405,235.735 331.740,235.992 330.200 C 236.250 328.660,236.605 326.950,236.782 326.400 C 236.959 325.850,237.523 324.050,238.035 322.400 C 238.548 320.750,239.290 318.810,239.684 318.088 C 240.078 317.366,240.400 316.511,240.400 316.188 C 240.400 315.865,240.580 315.600,240.800 315.600 C 241.020 315.600,241.200 315.240,241.200 314.800 C 241.200 314.360,241.336 314.000,241.502 314.000 C 241.669 314.000,242.059 313.415,242.370 312.700 C 242.681 311.985,243.824 310.074,244.911 308.454 C 261.307 284.003,293.146 275.129,319.507 287.663 C 320.988 288.367,322.952 289.451,323.872 290.072 C 324.792 290.692,325.703 291.200,325.897 291.200 C 326.091 291.200,326.598 291.520,327.025 291.911 C 327.451 292.302,328.430 293.064,329.200 293.605 C 331.662 295.334,332.115 295.733,335.791 299.409 C 339.467 303.085,339.866 303.538,341.595 306.000 C 342.136 306.770,342.898 307.749,343.289 308.175 C 343.680 308.602,344.000 309.187,344.000 309.475 C 344.000 309.764,344.135 310.001,344.300 310.003 C 344.465 310.005,344.806 310.410,345.057 310.903 C 347.978 316.633,348.938 318.813,350.123 322.400 C 351.616 326.921,352.206 329.364,352.624 332.755 L 352.890 334.910 356.945 334.681 C 372.494 333.803,384.625 322.789,387.416 307.017 C 387.872 304.439,387.987 298.176,387.993 275.500 L 388.000 247.200 356.989 247.200 L 325.979 247.200 324.189 245.411 C 322.859 244.080,322.400 243.311,322.400 242.411 L 322.400 241.200 314.800 241.200 C 307.450 241.200,307.200 241.226,307.200 242.005 M154.446 262.147 C 157.058 263.977,158.632 275.935,156.700 279.275 C 154.190 283.616,148.651 284.123,145.904 280.265 C 143.891 277.438,144.412 265.268,146.641 263.039 C 148.558 261.122,152.362 260.687,154.446 262.147 M250.763 261.453 C 254.410 262.182,255.412 265.039,255.135 273.922 C 254.891 281.765,250.638 285.319,245.589 281.900 C 241.398 279.062,241.492 264.143,245.713 262.090 C 247.602 261.171,248.678 261.036,250.763 261.453 M189.073 270.605 C 189.870 270.938,191.277 271.906,192.200 272.757 C 197.051 277.229,202.847 277.177,207.982 272.616 C 211.303 269.666,214.169 269.388,216.893 271.750 C 222.408 276.530,216.393 284.979,205.354 287.956 C 202.024 288.854,195.379 288.453,192.100 287.156 C 181.252 282.866,177.438 274.410,184.712 270.775 C 186.543 269.860,187.228 269.834,189.073 270.605 M121.170 299.363 C 118.216 301.531,112.296 307.555,110.649 310.069 C 109.859 311.274,109.996 311.426,112.203 311.794 C 113.732 312.049,115.275 312.504,117.000 313.207 C 117.440 313.386,118.385 313.772,119.100 314.064 C 119.815 314.356,120.400 314.731,120.400 314.898 C 120.400 315.064,120.625 315.200,120.900 315.200 C 121.175 315.201,121.923 315.651,122.562 316.200 C 123.201 316.750,123.858 317.200,124.021 317.200 C 124.583 317.200,130.000 322.829,130.000 323.414 C 130.000 323.736,130.150 324.000,130.332 324.000 C 130.515 324.000,130.920 324.495,131.232 325.100 C 131.544 325.705,131.891 326.290,132.005 326.400 C 132.333 326.719,133.881 330.086,134.303 331.400 C 134.515 332.060,134.915 333.302,135.192 334.161 C 135.833 336.148,135.872 347.088,135.239 347.721 C 134.998 347.962,134.800 348.653,134.800 349.256 C 134.800 349.859,134.620 350.464,134.400 350.600 C 134.180 350.736,134.000 351.186,134.000 351.599 C 134.000 352.421,131.670 356.918,131.133 357.133 C 130.950 357.207,130.800 357.509,130.800 357.804 C 130.800 359.429,122.681 366.458,118.600 368.366 C 115.257 369.929,114.928 370.032,111.074 370.726 C 109.573 370.996,109.561 371.013,110.285 371.800 C 110.690 372.240,111.460 373.230,111.996 374.000 C 114.158 377.106,121.952 384.000,123.302 384.000 C 126.585 384.000,139.108 374.488,142.787 369.200 C 143.323 368.430,143.887 367.710,144.040 367.600 C 144.572 367.218,148.800 358.927,148.800 358.265 C 148.800 357.899,148.980 357.600,149.200 357.600 C 149.420 357.600,149.600 357.161,149.600 356.624 C 149.600 356.087,149.780 355.536,150.000 355.400 C 150.220 355.264,150.400 354.634,150.400 354.000 C 150.400 353.366,150.580 352.736,150.800 352.600 C 151.020 352.464,151.200 351.654,151.200 350.800 C 151.200 349.946,151.380 349.136,151.600 349.000 C 151.844 348.849,152.000 345.804,152.000 341.200 C 152.000 336.596,151.844 333.551,151.600 333.400 C 151.380 333.264,151.200 332.591,151.200 331.905 C 151.200 330.768,150.793 329.124,149.985 327.000 C 149.818 326.560,149.464 325.570,149.199 324.800 C 148.263 322.077,144.113 314.313,143.214 313.600 C 143.075 313.490,142.527 312.770,141.995 312.000 C 139.540 308.444,131.108 301.586,127.900 300.536 C 127.515 300.410,127.200 300.148,127.200 299.953 C 127.200 299.759,126.840 299.600,126.400 299.600 C 125.960 299.600,125.600 299.420,125.600 299.200 C 125.600 298.980,125.240 298.800,124.800 298.800 C 124.360 298.800,124.000 298.620,124.000 298.400 C 124.000 297.671,123.022 298.003,121.170 299.363 M309.400 299.483 C 305.414 302.395,298.056 310.319,298.568 311.148 C 298.691 311.347,299.468 311.630,300.296 311.778 C 303.292 312.314,310.247 315.242,311.200 316.368 C 311.310 316.498,312.079 317.111,312.909 317.730 C 314.818 319.152,316.048 320.382,317.470 322.291 C 318.089 323.121,318.702 323.890,318.832 324.000 C 321.077 325.899,323.835 334.932,324.022 341.000 C 324.170 345.779,322.428 352.324,319.873 356.595 C 318.119 359.526,312.005 366.000,310.990 366.000 C 310.666 366.000,310.400 366.145,310.400 366.323 C 310.400 366.682,305.524 369.200,304.829 369.200 C 304.587 369.200,304.077 369.358,303.695 369.551 C 302.430 370.190,300.159 370.800,299.047 370.800 L 297.950 370.800 299.275 372.652 C 302.377 376.989,309.836 384.000,311.349 384.000 C 312.183 384.000,315.310 382.569,317.407 381.228 C 318.290 380.662,319.316 380.020,319.686 379.800 C 322.583 378.078,326.831 374.279,329.855 370.708 C 331.516 368.746,334.647 363.765,335.957 361.000 C 336.687 359.460,337.445 357.887,337.642 357.505 C 337.839 357.123,338.000 356.448,338.000 356.005 C 338.000 355.562,338.180 355.200,338.400 355.200 C 338.620 355.200,338.800 354.671,338.800 354.024 C 338.800 353.377,338.980 352.736,339.200 352.600 C 339.420 352.464,339.600 351.564,339.600 350.600 C 339.600 349.636,339.780 348.736,340.000 348.600 C 340.243 348.450,340.400 345.463,340.400 340.976 C 340.400 336.325,340.252 333.600,340.000 333.600 C 339.780 333.600,339.600 332.801,339.600 331.824 C 339.600 330.847,339.420 329.936,339.200 329.800 C 338.980 329.664,338.800 329.111,338.800 328.571 C 338.800 328.031,338.620 327.232,338.400 326.795 C 338.180 326.358,337.820 325.642,337.600 325.205 C 337.380 324.768,337.200 324.048,337.200 323.605 C 337.200 323.162,337.020 322.800,336.800 322.800 C 336.580 322.800,336.400 322.440,336.400 322.000 C 336.400 321.560,336.220 321.200,336.000 321.200 C 335.780 321.200,335.600 320.840,335.600 320.400 C 335.600 319.960,335.420 319.600,335.200 319.600 C 334.980 319.600,334.800 319.406,334.800 319.168 C 334.800 318.661,330.600 312.503,328.707 310.233 C 325.312 306.163,317.384 300.541,311.612 298.111 C 311.496 298.061,310.500 298.679,309.400 299.483 M102.200 324.000 C 101.696 324.217,101.622 324.344,102.000 324.344 C 102.330 324.344,102.960 324.189,103.400 324.000 C 103.904 323.783,103.978 323.656,103.600 323.656 C 103.270 323.656,102.640 323.811,102.200 324.000 M108.200 324.000 C 108.640 324.189,109.360 324.344,109.800 324.344 L 110.600 324.344 109.800 324.000 C 109.360 323.811,108.640 323.656,108.200 323.656 L 107.400 323.656 108.200 324.000 M290.400 324.000 C 289.596 324.257,289.557 324.323,290.200 324.332 C 290.640 324.338,291.360 324.189,291.800 324.000 C 292.819 323.562,291.768 323.562,290.400 324.000 M296.600 324.000 C 297.040 324.189,297.760 324.338,298.200 324.332 C 298.843 324.323,298.804 324.257,298.000 324.000 C 296.632 323.562,295.581 323.562,296.600 324.000 M96.189 326.547 C 93.849 328.123,91.511 330.605,90.603 332.476 C 89.904 333.919,90.311 333.478,92.278 330.667 C 93.552 328.845,96.952 326.029,97.900 326.010 C 98.175 326.004,98.400 325.820,98.400 325.600 C 98.400 325.050,98.433 325.036,96.189 326.547 M281.531 329.097 C 279.330 331.404,278.738 332.258,278.010 334.173 C 277.339 335.938,277.894 335.297,279.008 333.020 C 279.594 331.821,280.969 330.003,282.063 328.979 C 283.157 327.956,283.979 327.046,283.890 326.957 C 283.801 326.867,282.739 327.830,281.531 329.097 M306.200 328.800 C 307.283 329.900,308.260 330.800,308.370 330.800 C 308.480 330.800,307.683 329.900,306.600 328.800 C 305.517 327.700,304.540 326.800,304.430 326.800 C 304.320 326.800,305.117 327.700,306.200 328.800 M119.804 331.000 C 121.407 333.226,121.850 333.639,120.957 332.073 C 120.541 331.343,119.852 330.443,119.426 330.073 C 118.976 329.682,119.134 330.069,119.804 331.000 M277.249 336.000 C 277.216 336.330,277.089 337.050,276.967 337.600 C 276.775 338.464,276.807 338.503,277.199 337.888 C 277.448 337.497,277.575 336.777,277.481 336.288 C 277.386 335.800,277.282 335.670,277.249 336.000 M310.868 336.600 C 310.862 337.040,311.011 337.760,311.200 338.200 C 311.638 339.219,311.638 338.168,311.200 336.800 C 310.943 335.996,310.877 335.957,310.868 336.600 M88.600 337.600 C 88.448 338.291,88.414 338.947,88.524 339.057 C 88.634 339.167,88.848 338.691,89.000 338.000 C 89.152 337.309,89.186 336.653,89.076 336.543 C 88.966 336.433,88.752 336.909,88.600 337.600 M123.320 341.200 C 123.320 342.410,123.395 342.905,123.487 342.300 C 123.578 341.695,123.578 340.705,123.487 340.100 C 123.395 339.495,123.320 339.990,123.320 341.200 M276.493 341.200 C 276.493 341.970,276.575 342.285,276.676 341.900 C 276.776 341.515,276.776 340.885,276.676 340.500 C 276.575 340.115,276.493 340.430,276.493 341.200 M88.456 343.800 C 88.456 344.240,88.611 344.960,88.800 345.400 L 89.144 346.200 89.144 345.400 C 89.144 344.960,88.989 344.240,88.800 343.800 L 88.456 343.000 88.456 343.800 M311.029 344.629 C 310.881 345.215,310.838 345.772,310.932 345.866 C 311.027 345.960,311.224 345.558,311.371 344.971 C 311.519 344.385,311.562 343.828,311.468 343.734 C 311.373 343.640,311.176 344.042,311.029 344.629 M277.022 345.200 C 277.580 348.092,282.644 355.890,283.444 355.089 C 283.520 355.013,282.726 354.039,281.680 352.925 C 279.769 350.889,277.605 347.077,277.594 345.725 C 277.591 345.326,277.400 344.730,277.170 344.400 C 276.862 343.958,276.823 344.169,277.022 345.200 M122.649 345.015 C 122.512 345.373,122.415 345.966,122.434 346.333 C 122.453 346.700,122.627 346.469,122.821 345.820 C 123.198 344.558,123.065 343.933,122.649 345.015 M90.563 349.929 C 90.884 350.550,91.460 351.315,91.842 351.629 C 92.234 351.952,92.049 351.461,91.415 350.500 C 90.132 348.555,89.704 348.268,90.563 349.929 M120.435 350.543 C 119.609 351.880,116.702 354.757,114.800 356.119 C 113.842 356.805,113.856 356.805,115.131 356.117 C 116.583 355.335,120.376 351.540,121.147 350.100 C 121.890 348.710,121.366 349.036,120.435 350.543 M306.425 353.369 L 305.050 355.000 306.605 353.513 C 307.460 352.696,308.079 351.962,307.980 351.883 C 307.881 351.803,307.181 352.472,306.425 353.369 M94.177 354.207 C 95.265 355.182,96.244 355.890,96.353 355.780 C 96.462 355.671,96.113 355.276,95.576 354.903 C 95.039 354.529,94.187 353.813,93.682 353.312 C 93.177 352.810,92.637 352.408,92.482 352.418 C 92.327 352.428,93.090 353.233,94.177 354.207 M285.200 356.190 C 285.200 356.495,287.656 357.677,287.862 357.471 C 287.965 357.368,287.471 356.995,286.763 356.642 C 285.376 355.950,285.200 355.899,285.200 356.190 M289.000 358.000 C 290.101 358.473,290.492 358.473,290.200 358.000 C 290.064 357.780,289.558 357.613,289.076 357.628 C 288.231 357.655,288.229 357.669,289.000 358.000 M104.700 358.689 C 105.415 358.778,106.585 358.778,107.300 358.689 C 108.015 358.601,107.430 358.528,106.000 358.528 C 104.570 358.528,103.985 358.601,104.700 358.689 M292.691 358.689 C 293.401 358.777,294.661 358.779,295.491 358.692 C 296.321 358.605,295.740 358.533,294.200 358.531 C 292.660 358.529,291.981 358.600,292.691 358.689 " stroke="none" fill="#74cbf4" fill-rule="evenodd"></path><path id="path3" d="M268.700 0.265 C 268.095 0.369,267.600 0.621,267.600 0.827 C 267.600 1.032,267.327 1.200,266.994 1.200 C 266.308 1.200,261.210 6.168,259.400 8.600 C 258.745 9.480,257.892 10.491,257.504 10.847 C 257.117 11.203,256.800 11.671,256.800 11.888 C 256.800 12.104,256.260 12.846,255.600 13.537 C 254.940 14.228,254.400 15.025,254.400 15.308 C 254.400 15.591,254.040 16.083,253.600 16.400 C 253.160 16.717,252.800 17.297,252.800 17.688 C 252.800 18.080,252.620 18.400,252.400 18.400 C 252.180 18.400,252.000 18.720,252.000 19.112 C 252.000 19.503,251.640 20.083,251.200 20.400 C 250.760 20.717,250.400 21.297,250.400 21.688 C 250.400 22.080,250.220 22.400,250.000 22.400 C 249.780 22.400,249.600 22.760,249.600 23.200 C 249.600 23.640,249.420 24.000,249.200 24.000 C 248.980 24.000,248.800 24.360,248.800 24.800 C 248.800 25.240,248.620 25.600,248.400 25.600 C 248.180 25.600,248.000 25.960,248.000 26.400 C 248.000 26.840,247.820 27.200,247.600 27.200 C 247.380 27.200,247.200 27.650,247.200 28.200 C 247.200 28.750,247.020 29.200,246.800 29.200 C 246.580 29.200,246.400 29.560,246.400 30.000 C 246.400 30.440,246.220 30.800,246.000 30.800 C 245.780 30.800,245.600 31.340,245.600 32.000 C 245.600 32.660,245.420 33.200,245.200 33.200 C 244.980 33.200,244.800 33.639,244.800 34.176 C 244.800 34.713,244.620 35.264,244.400 35.400 C 244.180 35.536,244.000 36.177,244.000 36.824 C 244.000 37.471,243.840 38.000,243.644 38.000 C 243.448 38.000,243.189 38.585,243.069 39.300 C 242.948 40.015,242.560 42.040,242.205 43.800 C 241.850 45.560,241.458 48.845,241.335 51.100 C 241.211 53.355,240.950 55.200,240.755 55.200 C 240.560 55.200,240.400 57.990,240.400 61.400 C 240.400 64.825,240.562 67.600,240.761 67.600 C 240.960 67.600,241.211 69.265,241.319 71.300 C 241.427 73.335,241.816 76.620,242.184 78.600 C 242.552 80.580,242.951 82.785,243.070 83.500 C 243.190 84.215,243.448 84.800,243.644 84.800 C 243.840 84.800,244.000 85.329,244.000 85.976 C 244.000 86.623,244.180 87.264,244.400 87.400 C 244.620 87.536,244.800 88.087,244.800 88.624 C 244.800 89.161,244.980 89.600,245.200 89.600 C 245.420 89.600,245.600 90.050,245.600 90.600 C 245.600 91.150,245.780 91.600,246.000 91.600 C 246.220 91.600,246.400 92.039,246.400 92.576 C 246.400 93.113,246.580 93.664,246.800 93.800 C 247.020 93.936,247.200 94.397,247.200 94.824 C 247.200 95.251,247.380 95.600,247.600 95.600 C 247.820 95.600,248.000 95.960,248.000 96.400 C 248.000 96.840,248.180 97.200,248.400 97.200 C 248.620 97.200,248.800 97.560,248.800 98.000 C 248.800 98.440,248.980 98.800,249.200 98.800 C 249.420 98.800,249.600 99.160,249.600 99.600 C 249.600 100.040,249.780 100.400,250.000 100.400 C 250.220 100.400,250.400 100.760,250.400 101.200 C 250.400 101.640,250.580 102.000,250.800 102.000 C 251.020 102.000,251.200 102.236,251.200 102.525 C 251.200 102.813,251.560 103.436,252.000 103.908 C 252.440 104.380,252.800 105.004,252.800 105.295 C 252.800 105.586,253.160 106.083,253.600 106.400 C 254.040 106.717,254.400 107.167,254.400 107.400 C 254.400 107.633,254.760 108.083,255.200 108.400 C 255.640 108.717,256.000 109.209,256.000 109.492 C 256.000 109.775,256.540 110.572,257.200 111.263 C 257.860 111.954,258.400 112.680,258.400 112.876 C 258.400 113.409,258.953 114.016,264.284 119.331 C 270.237 125.265,271.046 126.000,271.625 126.000 C 271.875 126.000,272.556 126.495,273.140 127.100 C 273.723 127.705,274.695 128.455,275.300 128.768 C 275.905 129.080,276.400 129.485,276.400 129.668 C 276.400 129.850,276.593 130.000,276.829 130.000 C 278.318 130.000,278.400 130.772,278.400 144.725 L 278.400 158.307 273.100 158.487 C 270.060 158.590,267.288 158.887,266.600 159.184 C 262.825 160.811,261.523 161.670,258.900 164.261 C 257.305 165.837,256.000 167.413,256.000 167.763 C 256.000 168.113,255.865 168.401,255.700 168.403 C 255.341 168.407,254.400 170.344,254.400 171.080 C 254.400 171.366,254.220 171.600,254.000 171.600 C 253.780 171.600,253.600 171.960,253.600 172.400 C 253.600 172.840,253.420 173.200,253.200 173.200 C 252.980 173.200,252.800 174.100,252.800 175.200 C 252.800 176.300,252.620 177.200,252.400 177.200 C 252.155 177.200,252.000 179.133,252.000 182.200 L 252.000 187.200 200.000 187.200 L 148.000 187.200 148.000 179.400 L 148.000 171.600 157.176 171.600 C 162.863 171.600,166.447 171.448,166.600 171.200 C 166.736 170.980,167.636 170.800,168.600 170.800 C 169.564 170.800,170.464 170.620,170.600 170.400 C 170.736 170.180,171.287 170.000,171.824 170.000 C 172.361 170.000,172.800 169.820,172.800 169.600 C 172.800 169.380,173.160 169.200,173.600 169.200 C 174.040 169.200,174.400 169.020,174.400 168.800 C 174.400 168.580,174.760 168.400,175.200 168.400 C 175.640 168.400,176.000 168.220,176.000 168.000 C 176.000 167.780,176.243 167.600,176.541 167.600 C 176.838 167.600,177.606 167.105,178.248 166.500 C 178.889 165.895,179.875 165.161,180.439 164.869 C 181.003 164.576,181.778 163.807,182.161 163.158 C 182.544 162.509,183.295 161.541,183.829 161.007 C 184.363 160.473,184.800 159.798,184.800 159.506 C 184.800 159.215,185.160 158.717,185.600 158.400 C 186.040 158.083,186.400 157.591,186.400 157.306 C 186.400 157.022,186.559 156.477,186.753 156.095 C 187.231 155.155,187.797 153.690,188.345 151.972 C 188.943 150.095,188.996 95.768,188.400 95.400 C 188.180 95.264,188.000 94.623,188.000 93.976 C 188.000 93.329,187.859 92.800,187.687 92.800 C 187.515 92.800,187.141 92.008,186.855 91.041 C 186.570 90.074,185.990 88.911,185.568 88.458 C 185.146 88.004,184.800 87.433,184.800 87.188 C 184.800 86.550,178.164 80.000,177.517 80.000 C 177.220 80.000,176.717 79.640,176.400 79.200 C 176.083 78.760,175.591 78.400,175.306 78.400 C 175.022 78.400,174.432 78.220,173.995 78.000 C 173.558 77.780,172.842 77.420,172.405 77.200 C 171.968 76.980,171.284 76.800,170.885 76.800 C 170.486 76.800,169.935 76.575,169.660 76.300 C 168.979 75.619,139.768 75.309,137.361 75.957 C 133.539 76.986,132.445 79.551,134.025 83.776 C 135.561 87.880,135.087 87.768,151.800 88.000 L 166.200 88.200 168.479 89.268 C 176.279 92.924,176.784 95.001,176.784 123.400 C 176.784 149.948,176.598 151.190,172.003 155.322 C 167.790 159.109,172.668 158.823,114.273 158.704 L 63.000 158.600 60.645 157.444 C 57.740 156.017,55.569 153.831,54.112 150.864 L 53.000 148.600 53.000 123.400 L 53.000 98.200 54.126 96.000 C 55.665 92.994,58.035 90.679,60.953 89.331 L 63.400 88.200 88.800 88.000 C 106.976 87.857,114.429 87.668,115.004 87.337 C 116.256 86.617,117.055 85.542,117.632 83.800 C 117.924 82.920,118.270 82.065,118.401 81.900 C 118.955 81.204,118.252 78.764,117.173 77.635 C 115.196 75.566,114.818 75.542,86.670 75.695 C 60.325 75.839,59.898 75.861,57.105 77.254 C 56.723 77.444,56.138 77.600,55.805 77.600 C 55.472 77.600,55.200 77.780,55.200 78.000 C 55.200 78.220,54.840 78.400,54.400 78.400 C 53.960 78.400,53.600 78.580,53.600 78.800 C 53.600 79.020,53.280 79.200,52.888 79.200 C 52.497 79.200,51.917 79.560,51.600 80.000 C 51.283 80.440,50.805 80.800,50.538 80.800 C 49.905 80.800,45.600 85.105,45.600 85.738 C 45.600 86.005,45.240 86.483,44.800 86.800 C 44.360 87.117,44.000 87.697,44.000 88.088 C 44.000 88.480,43.820 88.800,43.600 88.800 C 43.380 88.800,43.200 89.160,43.200 89.600 C 43.200 90.040,43.046 90.400,42.857 90.400 C 42.668 90.400,42.353 91.165,42.156 92.100 C 41.862 93.502,41.624 93.819,40.800 93.910 C 39.229 94.084,34.004 95.767,34.002 96.100 C 34.001 96.265,33.640 96.400,33.200 96.400 C 32.760 96.400,32.400 96.580,32.400 96.800 C 32.400 97.020,32.164 97.200,31.875 97.200 C 31.587 97.200,30.964 97.560,30.492 98.000 C 30.020 98.440,29.468 98.800,29.265 98.800 C 28.548 98.800,22.400 105.362,22.400 106.127 C 22.400 106.400,22.040 106.883,21.600 107.200 C 21.160 107.517,20.800 108.097,20.800 108.488 C 20.800 108.880,20.664 109.200,20.498 109.200 C 20.331 109.200,19.960 109.785,19.671 110.500 C 19.383 111.215,18.979 112.113,18.774 112.495 C 18.568 112.877,18.400 113.541,18.400 113.971 C 18.400 114.401,18.220 114.864,18.000 115.000 C 17.780 115.136,17.600 116.011,17.600 116.944 C 17.600 117.877,17.408 118.832,17.173 119.067 C 16.435 119.805,17.191 130.881,18.041 131.780 C 18.238 131.989,18.400 132.653,18.400 133.256 C 18.400 133.859,18.580 134.464,18.800 134.600 C 19.020 134.736,19.200 135.197,19.200 135.624 C 19.200 136.051,19.380 136.400,19.600 136.400 C 19.820 136.400,20.000 136.760,20.000 137.200 C 20.000 137.640,20.180 138.000,20.400 138.000 C 20.620 138.000,20.800 138.236,20.800 138.525 C 20.800 138.813,21.160 139.436,21.600 139.908 C 22.040 140.380,22.400 140.869,22.400 140.995 C 22.400 141.120,22.942 141.803,23.605 142.511 C 27.642 146.829,28.713 147.858,29.700 148.368 C 30.305 148.680,30.800 149.085,30.800 149.268 C 30.800 149.450,31.160 149.600,31.600 149.600 C 32.040 149.600,32.400 149.780,32.400 150.000 C 32.400 150.220,32.760 150.400,33.200 150.400 C 33.640 150.400,34.000 150.580,34.000 150.800 C 34.000 151.020,34.360 151.200,34.800 151.200 C 35.240 151.200,35.600 151.380,35.600 151.600 C 35.600 151.820,36.140 152.000,36.800 152.000 C 37.460 152.000,38.000 152.180,38.000 152.400 C 38.000 152.620,38.643 152.800,39.429 152.800 C 40.857 152.800,42.000 153.520,42.000 154.421 C 42.000 155.176,44.074 159.600,44.428 159.600 C 44.603 159.600,44.866 159.979,45.014 160.443 C 45.358 161.527,50.681 166.800,51.431 166.800 C 51.744 166.800,52.000 166.980,52.000 167.200 C 52.000 167.420,52.225 167.604,52.500 167.609 C 52.775 167.614,53.450 167.970,54.000 168.400 C 54.550 168.830,55.405 169.186,55.900 169.191 C 56.395 169.196,56.800 169.380,56.800 169.600 C 56.800 169.820,57.239 170.000,57.776 170.000 C 58.313 170.000,58.864 170.180,59.000 170.400 C 59.136 170.620,60.036 170.800,61.000 170.800 C 61.964 170.800,62.864 170.980,63.000 171.200 C 63.153 171.448,66.737 171.600,72.424 171.600 L 81.600 171.600 81.600 179.400 L 81.600 187.200 63.024 187.200 C 51.071 187.200,44.359 187.343,44.200 187.600 C 44.063 187.821,42.263 188.000,40.176 188.000 C 37.925 188.000,36.400 188.162,36.400 188.400 C 36.400 188.620,35.601 188.800,34.624 188.800 C 33.647 188.800,32.736 188.980,32.600 189.200 C 32.464 189.420,31.823 189.600,31.176 189.600 C 30.529 189.600,30.000 189.780,30.000 190.000 C 30.000 190.220,29.561 190.400,29.024 190.400 C 28.487 190.400,27.936 190.580,27.800 190.800 C 27.664 191.020,27.203 191.200,26.776 191.200 C 26.349 191.200,26.000 191.372,26.000 191.582 C 26.000 191.792,25.370 192.082,24.600 192.226 C 23.830 192.371,23.200 192.649,23.200 192.845 C 23.200 193.040,22.840 193.200,22.400 193.200 C 21.960 193.200,21.600 193.358,21.600 193.551 C 21.600 193.745,21.060 194.127,20.400 194.400 C 19.740 194.673,19.200 195.025,19.200 195.181 C 19.200 195.337,18.707 195.720,18.105 196.032 C 17.503 196.345,16.259 197.320,15.341 198.200 C 14.424 199.080,13.251 200.173,12.736 200.629 C 11.391 201.821,8.817 204.947,8.197 206.140 C 7.906 206.701,7.293 207.563,6.834 208.055 C 6.376 208.548,5.776 209.456,5.503 210.075 C 5.229 210.694,4.869 211.200,4.702 211.200 C 4.536 211.200,4.400 211.560,4.400 212.000 C 4.400 212.440,4.220 212.800,4.000 212.800 C 3.780 212.800,3.600 213.160,3.600 213.600 C 3.600 214.040,3.420 214.400,3.200 214.400 C 2.980 214.400,2.800 214.749,2.800 215.176 C 2.800 215.603,2.620 216.064,2.400 216.200 C 2.180 216.336,2.000 216.887,2.000 217.424 C 2.000 217.961,1.820 218.400,1.600 218.400 C 1.380 218.400,1.200 218.994,1.200 219.720 C 1.200 220.446,0.975 221.265,0.700 221.540 C 0.306 221.934,0.200 231.725,0.200 267.800 C 0.200 303.875,0.306 313.666,0.700 314.060 C 0.975 314.335,1.200 315.064,1.200 315.680 C 1.200 316.296,1.380 316.800,1.600 316.800 C 1.820 316.800,2.000 317.239,2.000 317.776 C 2.000 318.313,2.180 318.864,2.400 319.000 C 2.620 319.136,2.800 319.597,2.800 320.024 C 2.800 320.451,2.980 320.800,3.200 320.800 C 3.420 320.800,3.600 321.160,3.600 321.600 C 3.600 322.040,3.780 322.400,4.000 322.400 C 4.220 322.400,4.400 322.760,4.400 323.200 C 4.400 323.640,4.580 324.000,4.800 324.000 C 5.020 324.000,5.200 324.270,5.200 324.600 C 5.200 324.930,5.380 325.200,5.600 325.200 C 5.820 325.200,6.000 325.520,6.000 325.912 C 6.000 326.303,6.360 326.883,6.800 327.200 C 7.240 327.517,7.600 328.020,7.600 328.317 C 7.600 328.614,7.825 329.103,8.100 329.404 C 8.375 329.705,9.230 330.722,10.000 331.663 C 12.219 334.376,16.536 338.422,18.082 339.236 C 18.587 339.502,19.090 339.852,19.200 340.013 C 19.310 340.174,20.840 340.992,22.600 341.832 C 24.360 342.672,25.860 343.503,25.933 343.679 C 26.007 343.856,26.412 344.000,26.833 344.000 C 27.255 344.000,27.600 344.180,27.600 344.400 C 27.600 344.620,28.140 344.800,28.800 344.800 C 29.460 344.800,30.000 344.980,30.000 345.200 C 30.000 345.420,30.540 345.600,31.200 345.600 C 31.860 345.600,32.400 345.780,32.400 346.000 C 32.400 346.220,33.120 346.400,34.000 346.400 C 34.880 346.400,35.600 346.580,35.600 346.800 C 35.600 347.029,36.800 347.200,38.400 347.200 C 40.000 347.200,41.200 347.371,41.200 347.600 C 41.200 347.826,42.333 348.000,43.800 348.000 C 46.107 348.000,46.400 348.087,46.400 348.776 C 46.400 349.203,46.580 349.664,46.800 349.800 C 47.020 349.936,47.200 350.926,47.200 352.000 C 47.200 353.074,47.380 354.064,47.600 354.200 C 47.820 354.336,48.000 355.067,48.000 355.824 C 48.000 356.581,48.180 357.200,48.400 357.200 C 48.620 357.200,48.800 357.729,48.800 358.376 C 48.800 359.023,48.980 359.664,49.200 359.800 C 49.420 359.936,49.600 360.487,49.600 361.024 C 49.600 361.561,49.780 362.000,50.000 362.000 C 50.220 362.000,50.400 362.540,50.400 363.200 C 50.400 363.860,50.580 364.400,50.800 364.400 C 51.020 364.400,51.200 364.760,51.200 365.200 C 51.200 365.640,51.380 366.000,51.600 366.000 C 51.820 366.000,52.000 366.360,52.000 366.800 C 52.000 367.240,52.180 367.600,52.400 367.600 C 52.620 367.600,52.800 367.960,52.800 368.400 C 52.800 368.840,52.980 369.200,53.200 369.200 C 53.420 369.200,53.600 369.560,53.600 370.000 C 53.600 370.440,53.780 370.800,54.000 370.800 C 54.220 370.800,54.400 371.036,54.400 371.325 C 54.400 371.613,54.760 372.236,55.200 372.708 C 55.640 373.180,56.000 373.714,56.000 373.895 C 56.000 374.076,56.360 374.483,56.800 374.800 C 57.240 375.117,57.600 375.614,57.600 375.905 C 57.600 376.196,57.783 376.651,58.007 376.917 C 59.550 378.746,60.000 379.361,60.000 379.639 C 60.000 380.079,67.202 387.200,67.646 387.200 C 67.845 387.200,68.572 387.740,69.263 388.400 C 69.954 389.060,70.762 389.600,71.059 389.600 C 71.357 389.600,71.600 389.767,71.600 389.971 C 71.600 390.175,72.320 390.660,73.200 391.048 C 74.080 391.436,74.800 391.899,74.800 392.077 C 74.800 392.255,75.070 392.400,75.400 392.400 C 75.730 392.400,76.000 392.580,76.000 392.800 C 76.000 393.020,76.360 393.200,76.800 393.200 C 77.240 393.200,77.601 393.335,77.603 393.500 C 77.607 393.859,79.544 394.800,80.280 394.800 C 80.566 394.800,80.800 394.980,80.800 395.200 C 80.800 395.420,81.160 395.600,81.600 395.600 C 82.040 395.600,82.400 395.780,82.400 396.000 C 82.400 396.220,82.749 396.400,83.176 396.400 C 83.603 396.400,84.064 396.580,84.200 396.800 C 84.336 397.020,84.887 397.200,85.424 397.200 C 85.961 397.200,86.400 397.380,86.400 397.600 C 86.400 397.820,86.940 398.000,87.600 398.000 C 88.260 398.000,88.800 398.180,88.800 398.400 C 88.800 398.620,89.505 398.800,90.367 398.800 C 91.264 398.800,92.004 399.013,92.100 399.300 C 92.229 399.687,95.311 399.800,105.713 399.800 C 115.937 399.800,119.280 399.680,119.660 399.300 C 119.935 399.025,120.754 398.800,121.480 398.800 C 122.206 398.800,122.800 398.620,122.800 398.400 C 122.800 398.180,123.340 398.000,124.000 398.000 C 124.660 398.000,125.200 397.820,125.200 397.600 C 125.200 397.380,125.740 397.200,126.400 397.200 C 127.060 397.200,127.600 397.020,127.600 396.800 C 127.600 396.580,127.960 396.400,128.400 396.400 C 128.840 396.400,129.200 396.220,129.200 396.000 C 129.200 395.780,129.560 395.600,130.000 395.600 C 130.440 395.600,130.800 395.420,130.800 395.200 C 130.800 394.980,131.216 394.800,131.725 394.800 C 132.233 394.800,133.036 394.440,133.508 394.000 C 133.980 393.560,134.644 393.200,134.983 393.200 C 135.322 393.200,135.600 393.020,135.600 392.800 C 135.600 392.580,135.960 392.400,136.400 392.400 C 136.840 392.400,137.200 392.220,137.200 392.000 C 137.200 391.780,137.408 391.600,137.662 391.600 C 137.916 391.600,138.714 391.150,139.436 390.600 C 140.157 390.050,140.866 389.600,141.013 389.600 C 141.159 389.600,141.783 389.060,142.400 388.400 C 143.017 387.740,143.712 387.200,143.945 387.200 C 144.499 387.200,152.000 379.699,152.000 379.145 C 152.000 378.912,152.540 378.217,153.200 377.600 C 153.860 376.983,154.400 376.231,154.400 375.928 C 154.400 375.625,154.760 375.117,155.200 374.800 C 155.640 374.483,156.000 374.091,156.000 373.929 C 156.000 373.768,156.450 372.972,157.000 372.162 C 157.550 371.351,158.000 370.353,158.000 369.944 C 158.000 369.535,158.180 369.200,158.400 369.200 C 158.620 369.200,158.800 368.840,158.800 368.400 C 158.800 367.960,158.980 367.600,159.200 367.600 C 159.420 367.600,159.600 367.240,159.600 366.800 C 159.600 366.360,159.780 366.000,160.000 366.000 C 160.220 366.000,160.400 365.640,160.400 365.200 C 160.400 364.760,160.580 364.400,160.800 364.400 C 161.020 364.400,161.200 363.860,161.200 363.200 C 161.200 362.540,161.380 362.000,161.600 362.000 C 161.820 362.000,162.000 361.561,162.000 361.024 C 162.000 360.487,162.180 359.936,162.400 359.800 C 162.620 359.664,162.800 359.124,162.800 358.600 C 162.800 358.076,162.980 357.536,163.200 357.400 C 163.420 357.264,163.600 356.533,163.600 355.776 C 163.600 355.019,163.780 354.400,164.000 354.400 C 164.220 354.400,164.400 353.511,164.400 352.424 C 164.400 351.337,164.580 350.336,164.800 350.200 C 165.020 350.064,165.200 349.513,165.200 348.976 L 165.200 348.000 200.000 348.000 L 234.800 348.000 234.800 348.976 C 234.800 349.513,234.980 350.064,235.200 350.200 C 235.420 350.336,235.600 351.337,235.600 352.424 C 235.600 353.511,235.780 354.400,236.000 354.400 C 236.220 354.400,236.400 355.019,236.400 355.776 C 236.400 356.533,236.580 357.264,236.800 357.400 C 237.020 357.536,237.200 358.166,237.200 358.800 C 237.200 359.434,237.380 360.064,237.600 360.200 C 237.820 360.336,238.000 360.797,238.000 361.224 C 238.000 361.651,238.180 362.000,238.400 362.000 C 238.620 362.000,238.800 362.540,238.800 363.200 C 238.800 363.860,238.980 364.400,239.200 364.400 C 239.420 364.400,239.600 364.760,239.600 365.200 C 239.600 365.640,239.780 366.000,240.000 366.000 C 240.220 366.000,240.400 366.360,240.400 366.800 C 240.400 367.240,240.580 367.600,240.800 367.600 C 241.020 367.600,241.200 367.836,241.200 368.125 C 241.200 369.155,243.733 373.754,244.900 374.841 C 245.285 375.200,245.600 375.716,245.600 375.986 C 245.600 376.257,246.140 376.983,246.800 377.600 C 247.460 378.217,248.000 378.912,248.000 379.145 C 248.000 379.699,255.501 387.200,256.055 387.200 C 256.288 387.200,256.983 387.740,257.600 388.400 C 258.217 389.060,258.841 389.600,258.987 389.600 C 259.134 389.600,259.843 390.050,260.564 390.600 C 261.286 391.150,262.084 391.600,262.338 391.600 C 262.592 391.600,262.800 391.780,262.800 392.000 C 262.800 392.220,263.160 392.400,263.600 392.400 C 264.040 392.400,264.400 392.580,264.400 392.800 C 264.400 393.020,264.760 393.200,265.200 393.200 C 265.640 393.200,266.000 393.380,266.000 393.600 C 266.000 393.820,266.270 394.000,266.600 394.000 C 266.930 394.000,267.200 394.180,267.200 394.400 C 267.200 394.620,267.650 394.800,268.200 394.800 C 268.750 394.800,269.200 394.980,269.200 395.200 C 269.200 395.420,269.560 395.600,270.000 395.600 C 270.440 395.600,270.800 395.780,270.800 396.000 C 270.800 396.220,271.160 396.400,271.600 396.400 C 272.040 396.400,272.400 396.580,272.400 396.800 C 272.400 397.020,272.940 397.200,273.600 397.200 C 274.260 397.200,274.800 397.380,274.800 397.600 C 274.800 397.820,275.340 398.000,276.000 398.000 C 276.660 398.000,277.200 398.180,277.200 398.400 C 277.200 398.620,277.794 398.800,278.520 398.800 C 279.246 398.800,280.065 399.025,280.340 399.300 C 281.066 400.025,307.658 400.025,307.900 399.300 C 307.992 399.025,308.671 398.800,309.410 398.800 C 310.148 398.800,310.864 398.620,311.000 398.400 C 311.136 398.180,311.777 398.000,312.424 398.000 C 313.071 398.000,313.600 397.820,313.600 397.600 C 313.600 397.380,314.039 397.200,314.576 397.200 C 315.113 397.200,315.664 397.020,315.800 396.800 C 315.936 396.580,316.397 396.400,316.824 396.400 C 317.251 396.400,317.600 396.220,317.600 396.000 C 317.600 395.780,317.960 395.600,318.400 395.600 C 318.840 395.600,319.200 395.420,319.200 395.200 C 319.200 394.980,319.434 394.800,319.720 394.800 C 320.456 394.800,322.393 393.859,322.397 393.500 C 322.399 393.335,322.760 393.200,323.200 393.200 C 323.640 393.200,324.000 393.020,324.000 392.800 C 324.000 392.580,324.270 392.400,324.600 392.400 C 324.930 392.400,325.200 392.255,325.200 392.077 C 325.200 391.899,325.920 391.436,326.800 391.048 C 327.680 390.660,328.400 390.175,328.400 389.971 C 328.400 389.767,328.635 389.600,328.922 389.600 C 329.209 389.600,330.131 388.970,330.972 388.200 C 331.813 387.430,332.662 386.800,332.860 386.800 C 333.286 386.800,340.000 380.045,340.000 379.617 C 340.000 379.358,340.464 378.730,341.993 376.917 C 342.217 376.651,342.400 376.196,342.400 375.905 C 342.400 375.614,342.760 375.117,343.200 374.800 C 343.640 374.483,344.000 374.076,344.000 373.895 C 344.000 373.714,344.360 373.180,344.800 372.708 C 345.240 372.236,345.600 371.613,345.600 371.325 C 345.600 371.036,345.780 370.800,346.000 370.800 C 346.220 370.800,346.400 370.440,346.400 370.000 C 346.400 369.560,346.580 369.200,346.800 369.200 C 347.020 369.200,347.200 368.840,347.200 368.400 C 347.200 367.960,347.380 367.600,347.600 367.600 C 347.820 367.600,348.000 367.240,348.000 366.800 C 348.000 366.360,348.180 366.000,348.400 366.000 C 348.620 366.000,348.800 365.640,348.800 365.200 C 348.800 364.760,348.980 364.400,349.200 364.400 C 349.420 364.400,349.600 363.860,349.600 363.200 C 349.600 362.540,349.780 362.000,350.000 362.000 C 350.220 362.000,350.400 361.460,350.400 360.800 C 350.400 360.140,350.580 359.600,350.800 359.600 C 351.020 359.600,351.200 359.060,351.200 358.400 C 351.200 357.740,351.380 357.200,351.600 357.200 C 351.820 357.200,352.000 356.581,352.000 355.824 C 352.000 355.067,352.180 354.336,352.400 354.200 C 352.620 354.064,352.800 352.973,352.800 351.776 C 352.800 350.579,352.980 349.600,353.200 349.600 C 353.420 349.600,353.600 349.240,353.600 348.800 C 353.600 348.082,353.867 348.000,356.200 348.000 C 357.667 348.000,358.800 347.826,358.800 347.600 C 358.800 347.371,360.000 347.200,361.600 347.200 C 363.200 347.200,364.400 347.029,364.400 346.800 C 364.400 346.580,365.120 346.400,366.000 346.400 C 366.880 346.400,367.600 346.220,367.600 346.000 C 367.600 345.780,368.140 345.600,368.800 345.600 C 369.460 345.600,370.000 345.420,370.000 345.200 C 370.000 344.980,370.540 344.800,371.200 344.800 C 371.860 344.800,372.400 344.620,372.400 344.400 C 372.400 344.180,372.745 344.000,373.167 344.000 C 373.588 344.000,373.993 343.856,374.067 343.679 C 374.140 343.503,375.640 342.672,377.400 341.832 C 379.160 340.992,380.690 340.174,380.800 340.013 C 380.910 339.852,381.413 339.502,381.918 339.236 C 383.540 338.382,388.349 333.847,390.200 331.427 C 390.860 330.564,391.625 329.633,391.900 329.358 C 392.175 329.082,392.400 328.614,392.400 328.317 C 392.400 328.020,392.760 327.517,393.200 327.200 C 393.640 326.883,394.000 326.303,394.000 325.912 C 394.000 325.520,394.180 325.200,394.400 325.200 C 394.620 325.200,394.800 324.930,394.800 324.600 C 394.800 324.270,394.980 324.000,395.200 324.000 C 395.420 324.000,395.600 323.640,395.600 323.200 C 395.600 322.760,395.780 322.400,396.000 322.400 C 396.220 322.400,396.400 322.040,396.400 321.600 C 396.400 321.160,396.580 320.800,396.800 320.800 C 397.020 320.800,397.200 320.440,397.200 320.000 C 397.200 319.560,397.380 319.200,397.600 319.200 C 397.820 319.200,398.000 318.660,398.000 318.000 C 398.000 317.340,398.160 316.800,398.356 316.800 C 398.715 316.800,398.804 316.418,399.595 311.523 C 400.254 307.443,399.974 222.214,399.300 221.540 C 399.025 221.265,398.800 220.446,398.800 219.720 C 398.800 218.994,398.620 218.400,398.400 218.400 C 398.180 218.400,398.000 217.961,398.000 217.424 C 398.000 216.887,397.820 216.336,397.600 216.200 C 397.380 216.064,397.200 215.603,397.200 215.176 C 397.200 214.749,397.020 214.400,396.800 214.400 C 396.580 214.400,396.400 214.040,396.400 213.600 C 396.400 213.160,396.220 212.800,396.000 212.800 C 395.780 212.800,395.600 212.440,395.600 212.000 C 395.600 211.560,395.464 211.200,395.298 211.200 C 395.131 211.200,394.771 210.694,394.497 210.075 C 394.224 209.456,393.624 208.548,393.166 208.055 C 392.707 207.563,392.094 206.701,391.803 206.140 C 391.183 204.947,388.609 201.821,387.264 200.629 C 386.749 200.173,385.576 199.080,384.659 198.200 C 383.741 197.320,382.497 196.345,381.895 196.032 C 381.293 195.720,380.800 195.337,380.800 195.181 C 380.800 195.025,380.260 194.673,379.600 194.400 C 378.940 194.127,378.400 193.745,378.400 193.551 C 378.400 193.358,378.040 193.200,377.600 193.200 C 377.160 193.200,376.800 193.040,376.800 192.845 C 376.800 192.649,376.170 192.371,375.400 192.226 C 374.630 192.082,374.000 191.792,374.000 191.582 C 374.000 191.372,373.651 191.200,373.224 191.200 C 372.797 191.200,372.336 191.020,372.200 190.800 C 372.064 190.580,371.513 190.400,370.976 190.400 C 370.439 190.400,370.000 190.220,370.000 190.000 C 370.000 189.780,369.471 189.600,368.824 189.600 C 368.177 189.600,367.536 189.420,367.400 189.200 C 367.264 188.980,366.353 188.800,365.376 188.800 C 364.399 188.800,363.600 188.620,363.600 188.400 C 363.600 188.162,362.075 188.000,359.824 188.000 C 357.737 188.000,355.937 187.821,355.800 187.600 C 355.663 187.379,353.863 187.200,351.776 187.200 L 348.000 187.200 348.000 182.200 C 348.000 179.133,347.845 177.200,347.600 177.200 C 347.380 177.200,347.200 176.300,347.200 175.200 C 347.200 174.100,347.020 173.200,346.800 173.200 C 346.580 173.200,346.400 172.851,346.400 172.424 C 346.400 171.997,346.220 171.536,346.000 171.400 C 345.780 171.264,345.600 170.837,345.600 170.452 C 345.600 170.066,345.240 169.364,344.800 168.892 C 344.360 168.420,344.000 167.829,344.000 167.580 C 344.000 167.330,342.695 165.837,341.100 164.261 C 338.477 161.670,337.175 160.811,333.400 159.184 C 332.712 158.887,329.940 158.590,326.900 158.487 L 321.600 158.307 321.600 150.754 L 321.600 143.200 327.400 143.200 C 331.000 143.200,333.200 143.048,333.200 142.800 C 333.200 142.578,334.259 142.400,335.576 142.400 C 336.883 142.400,338.051 142.241,338.171 142.048 C 338.290 141.854,339.740 141.568,341.392 141.414 C 343.043 141.259,344.496 140.967,344.621 140.766 C 344.745 140.565,345.218 140.400,345.671 140.400 C 346.703 140.400,351.753 138.707,351.933 138.301 C 352.007 138.135,352.491 138.000,353.010 138.000 C 353.528 138.000,354.064 137.820,354.200 137.600 C 354.336 137.380,354.797 137.200,355.224 137.200 C 355.651 137.200,356.000 137.020,356.000 136.800 C 356.000 136.580,356.252 136.400,356.559 136.400 C 356.867 136.400,358.172 135.834,359.459 135.141 C 360.747 134.449,362.204 133.684,362.697 133.441 C 363.190 133.199,363.595 132.865,363.597 132.700 C 363.599 132.535,363.960 132.400,364.400 132.400 C 364.840 132.400,365.200 132.220,365.200 132.000 C 365.200 131.780,365.436 131.600,365.725 131.600 C 366.013 131.600,366.636 131.240,367.108 130.800 C 367.580 130.360,368.204 130.000,368.495 130.000 C 368.786 130.000,369.283 129.640,369.600 129.200 C 369.917 128.760,370.407 128.400,370.688 128.400 C 370.970 128.400,371.200 128.220,371.200 128.000 C 371.200 127.780,371.388 127.600,371.618 127.600 C 371.848 127.600,372.446 127.195,372.946 126.700 C 373.446 126.205,374.362 125.440,374.980 125.000 C 377.016 123.551,383.200 117.243,383.200 116.615 C 383.200 116.277,383.380 116.000,383.600 116.000 C 383.820 116.000,384.000 115.471,384.000 114.824 C 384.000 114.177,384.180 113.536,384.400 113.400 C 384.631 113.258,384.800 111.129,384.800 108.376 C 384.800 105.459,384.644 103.600,384.400 103.600 C 384.180 103.600,384.000 102.880,384.000 102.000 C 384.000 101.120,383.820 100.400,383.600 100.400 C 383.380 100.400,383.200 99.781,383.200 99.024 C 383.200 98.267,383.020 97.536,382.800 97.400 C 382.580 97.264,382.400 96.803,382.400 96.376 C 382.400 95.949,382.220 95.600,382.000 95.600 C 381.780 95.600,381.600 95.276,381.600 94.880 C 381.600 93.986,380.706 92.007,380.300 92.003 C 380.135 92.001,380.000 91.640,380.000 91.200 C 380.000 90.760,379.820 90.400,379.600 90.400 C 379.380 90.400,379.200 90.166,379.200 89.880 C 379.200 89.144,378.259 87.207,377.900 87.203 C 377.735 87.201,377.600 86.840,377.600 86.400 C 377.600 85.960,377.420 85.600,377.200 85.600 C 376.980 85.600,376.800 85.240,376.800 84.800 C 376.800 84.360,376.620 84.000,376.400 84.000 C 376.180 84.000,376.000 83.655,376.000 83.233 C 376.000 82.812,375.843 82.407,375.651 82.333 C 375.459 82.260,374.827 81.300,374.247 80.200 C 372.955 77.749,372.404 76.876,371.500 75.846 C 371.115 75.408,370.800 74.853,370.800 74.613 C 370.800 74.373,370.440 73.917,370.000 73.600 C 369.560 73.283,369.200 72.791,369.200 72.508 C 369.200 72.225,368.660 71.428,368.000 70.737 C 367.340 70.046,366.800 69.278,366.800 69.029 C 366.800 68.780,366.440 68.317,366.000 68.000 C 365.560 67.683,365.200 67.215,365.200 66.960 C 365.200 66.705,364.480 65.755,363.600 64.848 C 362.720 63.941,362.000 63.041,362.000 62.848 C 362.000 62.655,361.325 61.794,360.500 60.936 C 359.675 60.078,358.468 58.661,357.817 57.788 C 357.166 56.915,356.169 55.750,355.601 55.200 C 355.034 54.650,354.130 53.570,353.594 52.800 C 353.058 52.030,351.580 50.375,350.310 49.122 C 349.039 47.869,348.000 46.646,348.000 46.403 C 348.000 45.493,353.662 40.337,354.345 40.625 C 358.854 42.525,371.600 40.851,371.600 38.358 C 371.600 38.161,371.841 38.000,372.136 38.000 C 372.773 38.000,374.768 35.849,375.568 34.300 C 375.880 33.695,376.285 33.200,376.468 33.200 C 376.650 33.200,376.800 32.840,376.800 32.400 C 376.800 31.960,376.980 31.600,377.200 31.600 C 377.420 31.600,377.600 31.240,377.600 30.800 C 377.600 30.360,377.780 30.000,378.000 30.000 C 378.220 30.000,378.400 29.280,378.400 28.400 C 378.400 27.520,378.580 26.800,378.800 26.800 C 379.039 26.800,379.200 25.267,379.200 23.000 C 379.200 20.733,379.039 19.200,378.800 19.200 C 378.580 19.200,378.400 18.660,378.400 18.000 C 378.400 17.340,378.220 16.800,378.000 16.800 C 377.780 16.800,377.600 16.260,377.600 15.600 C 377.600 14.940,377.450 14.400,377.268 14.400 C 377.085 14.400,376.684 13.905,376.378 13.300 C 375.554 11.673,371.509 7.618,370.700 7.608 C 370.315 7.604,370.000 7.420,370.000 7.200 C 370.000 6.980,369.640 6.800,369.200 6.800 C 368.760 6.800,368.400 6.620,368.400 6.400 C 368.400 6.180,367.860 6.000,367.200 6.000 C 366.540 6.000,366.000 5.820,366.000 5.600 C 366.000 5.355,364.067 5.200,361.000 5.200 C 357.933 5.200,356.000 5.355,356.000 5.600 C 356.000 5.820,355.460 6.000,354.800 6.000 C 354.140 6.000,353.600 6.180,353.600 6.400 C 353.600 6.620,353.240 6.800,352.800 6.800 C 352.360 6.800,352.000 6.980,352.000 7.200 C 352.000 7.420,351.640 7.600,351.200 7.600 C 350.760 7.600,350.400 7.758,350.400 7.951 C 350.400 8.145,349.898 8.511,349.285 8.765 C 348.672 9.019,347.828 9.681,347.411 10.237 C 346.994 10.793,346.236 11.732,345.727 12.324 C 345.218 12.916,344.801 13.625,344.800 13.900 C 344.800 14.175,344.620 14.400,344.400 14.400 C 344.180 14.400,344.000 14.672,344.000 15.005 C 344.000 15.338,343.842 15.923,343.649 16.305 C 342.451 18.676,341.865 26.207,342.745 27.926 C 343.952 30.285,343.742 30.849,340.326 34.433 C 337.955 36.921,338.142 36.955,334.587 33.400 C 332.937 31.750,331.415 30.400,331.204 30.400 C 330.993 30.400,330.051 29.632,329.111 28.693 C 328.170 27.755,326.680 26.452,325.800 25.798 C 324.920 25.144,323.930 24.328,323.600 23.985 C 323.270 23.643,322.370 22.928,321.600 22.396 C 320.830 21.865,319.723 20.929,319.140 20.315 C 318.556 19.702,317.880 19.200,317.636 19.200 C 317.392 19.200,316.628 18.660,315.937 18.000 C 315.246 17.340,314.478 16.800,314.229 16.800 C 313.980 16.800,313.517 16.440,313.200 16.000 C 312.883 15.560,312.438 15.200,312.212 15.200 C 311.985 15.199,311.277 14.749,310.638 14.200 C 309.999 13.650,309.352 13.200,309.200 13.200 C 309.048 13.200,308.419 12.766,307.802 12.235 C 307.184 11.704,306.211 11.029,305.639 10.735 C 305.068 10.441,303.990 9.795,303.244 9.300 C 302.498 8.805,301.636 8.400,301.327 8.400 C 301.019 8.400,300.380 8.040,299.908 7.600 C 299.436 7.160,298.813 6.800,298.525 6.800 C 298.236 6.800,298.000 6.620,298.000 6.400 C 298.000 6.180,297.640 6.000,297.200 6.000 C 296.760 6.000,296.400 5.820,296.400 5.600 C 296.400 5.380,296.040 5.200,295.600 5.200 C 295.160 5.200,294.800 5.020,294.800 4.800 C 294.800 4.580,294.440 4.400,294.000 4.400 C 293.560 4.400,293.200 4.220,293.200 4.000 C 293.200 3.780,292.851 3.600,292.424 3.600 C 291.997 3.600,291.536 3.420,291.400 3.200 C 291.264 2.980,290.803 2.800,290.376 2.800 C 289.949 2.800,289.600 2.620,289.600 2.400 C 289.600 2.180,289.161 2.000,288.624 2.000 C 288.087 2.000,287.536 1.820,287.400 1.600 C 287.264 1.380,286.638 1.200,286.010 1.200 C 285.381 1.200,284.792 0.977,284.701 0.704 C 284.534 0.203,271.210 -0.163,268.700 0.265 M281.400 12.989 C 289.419 15.644,310.874 28.613,314.800 33.178 C 314.910 33.306,315.990 34.218,317.200 35.205 C 321.287 38.538,328.941 45.505,329.149 46.083 C 329.330 46.584,308.005 68.000,307.325 68.000 C 307.061 68.000,306.610 67.666,306.323 67.257 C 306.035 66.848,304.467 65.093,302.838 63.357 C 299.862 60.184,290.987 49.412,289.198 46.800 C 288.670 46.030,288.125 45.310,287.986 45.200 C 287.846 45.090,286.650 43.380,285.327 41.400 C 278.585 31.309,274.715 23.453,273.395 17.177 C 272.162 11.315,273.782 10.467,281.400 12.989 M363.461 18.034 C 366.513 19.156,367.450 24.262,365.100 26.958 C 360.873 31.808,352.906 26.987,355.496 21.146 C 356.980 17.799,359.813 16.692,363.461 18.034 M264.292 27.615 C 267.454 37.000,281.453 57.613,293.349 70.400 C 306.762 84.818,317.780 94.931,330.000 104.039 C 339.725 111.288,348.485 116.526,355.700 119.407 C 359.242 120.821,359.232 120.896,355.200 123.073 C 313.638 145.514,262.123 119.768,253.811 72.400 C 252.169 63.038,253.345 49.046,256.589 39.350 C 258.788 32.777,262.400 25.400,263.276 25.692 C 263.504 25.768,263.962 26.634,264.292 27.615 M339.600 56.357 C 356.070 74.711,364.037 85.932,369.734 98.800 C 371.642 103.111,372.846 109.189,372.030 110.400 C 370.589 112.540,356.450 108.014,349.623 103.227 C 349.060 102.833,347.340 101.751,345.800 100.823 C 344.260 99.894,342.010 98.395,340.800 97.491 C 333.818 92.273,331.766 90.674,327.622 87.220 C 322.992 83.362,316.292 77.316,316.090 76.812 C 315.972 76.521,337.549 54.801,337.959 54.799 C 338.091 54.798,338.830 55.499,339.600 56.357 M84.418 106.437 C 71.248 109.019,66.273 126.227,75.927 135.805 C 82.672 142.496,93.682 142.610,100.304 136.057 C 112.834 123.659,101.773 103.035,84.418 106.437 M138.000 106.247 C 124.508 108.815,119.092 125.156,128.372 135.296 C 139.847 147.834,160.507 137.989,158.398 120.988 C 157.234 111.601,147.360 104.465,138.000 106.247 M41.200 123.400 C 41.200 142.036,41.527 140.826,37.261 137.977 C 26.512 130.799,27.131 114.629,38.400 108.232 C 41.400 106.528,41.200 105.443,41.200 123.400 M90.792 118.301 C 95.678 120.755,94.841 127.697,89.474 129.236 C 86.817 129.998,83.077 127.685,82.567 124.964 C 81.607 119.846,86.300 116.044,90.792 118.301 M142.693 117.839 C 146.650 118.630,148.330 124.321,145.495 127.326 C 140.670 132.443,132.627 126.661,136.167 120.620 C 137.601 118.173,139.761 117.252,142.693 117.839 M292.705 137.153 C 294.944 138.292,298.933 139.540,304.513 140.848 C 309.223 141.952,308.862 141.080,308.714 151.000 L 308.600 158.600 300.000 158.600 L 291.400 158.600 291.293 148.207 C 291.171 136.296,291.161 136.368,292.705 137.153 M135.108 179.300 L 135.216 188.000 114.808 188.000 L 94.400 188.000 94.400 179.467 C 94.400 174.773,94.522 170.812,94.670 170.663 C 94.819 170.514,103.954 170.439,114.970 170.496 L 135.000 170.600 135.108 179.300 M327.400 170.828 C 333.418 172.420,335.304 175.494,335.115 183.400 L 335.000 188.200 300.000 188.200 L 265.000 188.200 264.885 183.400 C 264.700 175.664,266.509 172.584,272.200 170.940 C 274.355 170.318,325.084 170.215,327.400 170.828 M361.200 200.557 C 376.876 203.915,389.700 219.530,388.336 233.600 L 388.200 235.000 357.600 235.200 C 335.216 235.346,326.715 235.528,325.939 235.875 C 322.119 237.586,321.701 244.034,325.279 246.074 C 326.009 246.491,332.622 246.641,357.200 246.800 L 388.200 247.000 388.200 276.400 C 388.200 297.768,388.069 306.401,387.720 308.000 C 387.456 309.210,387.122 310.740,386.978 311.400 C 385.291 319.102,377.310 328.271,368.800 332.282 C 363.724 334.675,353.075 336.268,352.634 334.700 C 352.557 334.425,352.271 332.940,351.999 331.400 C 348.174 309.728,332.877 291.998,312.200 285.272 C 305.907 283.224,301.761 282.625,294.000 282.639 C 264.579 282.694,238.283 305.767,235.919 333.600 L 235.800 335.000 200.000 335.000 L 164.200 335.000 164.098 333.800 C 163.961 332.190,163.196 328.086,162.756 326.600 C 155.694 302.773,139.713 288.105,115.400 283.136 C 112.212 282.484,98.888 282.489,96.000 283.143 C 91.287 284.210,90.082 284.537,86.680 285.673 C 66.024 292.576,49.727 312.680,47.504 334.000 C 47.407 334.938,47.238 335.008,44.800 335.134 C 31.451 335.820,17.394 325.407,13.302 311.800 C 11.614 306.190,11.546 304.660,11.676 275.200 L 11.800 247.000 157.363 246.899 L 302.926 246.799 304.263 245.779 C 307.901 243.004,307.560 238.138,303.586 236.100 L 301.830 235.200 156.903 235.200 C 24.157 235.200,11.954 235.146,11.728 234.557 C 11.023 232.719,12.935 223.504,14.911 219.218 C 18.067 212.375,27.007 203.845,32.400 202.533 C 32.950 202.399,33.580 202.158,33.800 201.996 C 34.020 201.835,35.190 201.474,36.400 201.194 C 37.610 200.913,39.140 200.547,39.800 200.378 C 42.215 199.762,358.312 199.938,361.200 200.557 M147.959 262.508 C 145.582 264.096,145.201 265.422,145.201 272.120 C 145.200 280.341,146.269 282.200,151.000 282.200 C 155.700 282.200,156.800 280.249,156.799 271.913 C 156.799 264.134,155.374 261.600,151.000 261.600 C 149.917 261.600,148.834 261.924,147.959 262.508 M245.959 262.508 C 243.599 264.085,243.201 265.441,243.201 271.913 C 243.200 280.249,244.300 282.200,249.000 282.200 C 253.700 282.200,254.800 280.249,254.799 271.913 C 254.799 264.134,253.374 261.600,249.000 261.600 C 247.917 261.600,246.834 261.924,245.959 262.508 M184.200 271.537 C 178.148 275.237,182.251 282.845,192.484 286.895 C 204.623 291.699,224.122 280.492,217.252 272.659 C 214.932 270.014,211.268 270.145,208.197 272.982 C 205.692 275.295,203.055 276.392,200.000 276.392 C 196.945 276.392,194.308 275.295,191.803 272.982 C 189.253 270.626,186.535 270.109,184.200 271.537 M116.800 295.520 C 134.675 300.333,147.088 312.719,151.646 330.289 C 152.861 334.974,152.970 347.033,151.835 351.200 C 151.445 352.630,151.032 354.297,150.917 354.905 C 150.802 355.513,150.549 356.108,150.354 356.229 C 150.159 356.349,150.000 356.710,150.000 357.032 C 150.000 361.624,139.705 374.988,132.400 379.880 C 118.004 389.519,98.368 390.700,84.200 382.780 C 78.083 379.360,73.491 375.622,69.732 371.000 C 46.530 342.479,62.451 301.225,99.200 294.644 C 101.996 294.144,113.887 294.735,116.800 295.520 M305.817 295.729 C 334.086 303.634,348.661 333.154,337.326 359.547 C 324.226 390.048,284.770 397.745,261.187 374.400 C 234.951 348.428,247.826 303.472,283.800 295.444 C 285.340 295.101,286.960 294.735,287.400 294.632 C 290.025 294.017,302.313 294.749,305.817 295.729 M100.212 312.223 C 82.503 316.074,72.546 333.245,77.929 350.651 C 80.322 358.388,88.642 366.811,96.000 368.946 C 100.347 370.208,101.815 370.438,105.594 370.448 C 122.203 370.493,135.144 357.699,135.180 341.200 C 135.219 322.847,117.787 308.402,100.212 312.223 M288.400 312.204 C 277.677 314.641,268.800 322.652,266.020 332.400 C 265.738 333.390,265.348 334.722,265.153 335.360 C 264.959 335.998,264.800 338.626,264.800 341.200 C 264.800 343.774,264.959 346.402,265.153 347.040 C 265.348 347.678,265.738 349.010,266.020 350.000 C 273.116 374.884,309.014 377.656,320.413 354.200 C 330.994 332.426,311.565 306.939,288.400 312.204 M111.000 324.261 C 122.482 327.720,127.180 341.217,120.385 351.223 C 112.927 362.205,95.931 360.988,90.055 349.051 C 83.222 335.172,96.207 319.803,111.000 324.261 M297.600 323.819 C 310.596 325.712,316.428 343.644,307.136 353.137 C 291.971 368.630,267.520 349.324,279.482 331.303 C 282.727 326.414,289.830 322.760,294.800 323.424 C 295.350 323.497,296.610 323.675,297.600 323.819 " stroke="none" fill="#040505" fill-rule="evenodd"></path><path id="path4" d="M273.737 12.053 C 271.649 14.654,274.784 24.322,281.110 34.800 C 283.112 38.114,287.588 44.886,287.986 45.200 C 288.125 45.310,288.670 46.030,289.198 46.800 C 290.987 49.412,299.862 60.184,302.838 63.357 C 304.467 65.093,306.035 66.848,306.323 67.257 C 306.610 67.666,307.061 68.000,307.325 68.000 C 308.005 68.000,329.330 46.584,329.149 46.083 C 328.941 45.505,321.287 38.538,317.200 35.205 C 315.990 34.218,314.910 33.306,314.800 33.178 C 314.120 32.388,305.341 26.017,300.610 22.881 C 289.445 15.480,275.497 9.860,273.737 12.053 M261.849 27.280 C 256.165 36.979,253.215 48.707,253.215 61.600 C 253.215 113.861,309.467 147.767,355.200 123.073 C 359.232 120.896,359.242 120.821,355.700 119.407 C 338.638 112.594,316.182 94.944,293.349 70.400 C 281.453 57.613,267.454 37.000,264.292 27.615 C 263.501 25.266,263.065 25.206,261.849 27.280 M326.848 65.669 C 320.870 71.647,316.029 76.662,316.090 76.812 C 316.292 77.316,322.992 83.362,327.622 87.220 C 331.766 90.674,333.818 92.273,340.800 97.491 C 342.010 98.395,344.260 99.894,345.800 100.823 C 347.340 101.751,349.060 102.833,349.623 103.227 C 354.313 106.516,365.222 110.814,369.171 110.929 C 372.191 111.016,372.521 110.643,372.198 107.508 C 371.189 97.707,360.274 79.604,345.036 62.459 C 338.584 55.198,338.213 54.797,337.959 54.799 C 337.826 54.799,332.826 59.691,326.848 65.669 M85.766 118.169 C 82.235 119.706,81.282 124.821,84.027 127.505 C 87.959 131.349,94.000 128.802,94.000 123.299 C 94.000 119.278,89.565 116.515,85.766 118.169 M140.500 117.876 C 140.885 117.976,141.515 117.976,141.900 117.876 C 142.285 117.775,141.970 117.693,141.200 117.693 C 140.430 117.693,140.115 117.775,140.500 117.876 M137.737 118.709 C 135.766 120.288,134.606 123.646,135.529 125.099 C 135.710 125.384,135.846 124.760,135.846 123.646 C 135.846 121.388,136.652 119.922,138.522 118.782 C 139.225 118.354,139.530 118.006,139.200 118.010 C 138.870 118.014,138.212 118.329,137.737 118.709 M144.041 118.914 C 144.788 119.417,145.706 120.452,146.081 121.214 C 146.455 121.976,146.770 122.363,146.781 122.074 C 146.829 120.761,144.431 118.002,143.241 118.000 C 142.933 118.000,143.293 118.411,144.041 118.914 M146.245 125.469 C 146.091 125.948,145.388 126.915,144.683 127.620 C 143.758 128.543,143.644 128.775,144.272 128.451 C 145.375 127.883,146.917 125.746,146.694 125.094 C 146.599 124.816,146.403 124.980,146.245 125.469 M136.013 126.230 C 135.999 126.685,137.387 128.062,138.400 128.599 C 138.730 128.774,138.550 128.491,138.000 127.969 C 137.450 127.448,136.781 126.746,136.513 126.410 C 136.245 126.075,136.020 125.994,136.013 126.230 M140.100 129.200 C 140.705 129.382,141.695 129.382,142.300 129.200 C 143.190 128.932,142.981 128.869,141.200 128.869 C 139.419 128.869,139.210 128.932,140.100 129.200 " stroke="none" fill="#f2ce3c" fill-rule="evenodd"></path></g></svg>