<svg id="svg" version="1.1" xmlns="http://www.w3.org/2000/svg" xmlns:xlink="http://www.w3.org/1999/xlink" width="400" height="400" viewBox="0, 0, 400,400"><g id="svgg"><path id="path0" d="M301.944 44.303 C 301.584 44.906,300.162 47.200,298.785 49.400 C 287.839 66.886,283.106 84.844,287.129 93.636 C 288.730 97.137,291.337 98.851,297.400 100.389 C 303.732 101.997,309.807 98.399,312.517 91.438 C 313.417 89.127,313.617 81.520,312.832 79.474 C 312.272 78.014,312.273 69.304,312.833 66.877 C 313.903 62.244,316.443 58.430,319.389 57.032 C 321.269 56.140,321.334 56.249,316.764 52.636 C 305.636 43.838,303.080 42.401,301.944 44.303 M79.366 55.677 C 74.719 59.516,60.652 73.502,56.511 78.400 C 51.610 84.197,41.519 97.889,40.887 99.600 C 40.765 99.930,40.177 100.921,39.581 101.802 C 38.984 102.683,38.115 104.078,37.648 104.902 C 37.182 105.726,36.413 107.075,35.940 107.900 C 34.489 110.430,29.424 120.470,28.423 122.800 C 27.903 124.010,27.127 125.810,26.699 126.800 C 24.418 132.073,20.958 141.855,19.271 147.800 C 18.278 151.295,17.291 155.109,16.838 157.200 C 16.576 158.410,16.190 160.120,15.981 161.000 C 9.618 187.765,11.224 226.677,19.818 254.000 C 21.376 258.955,22.864 263.447,23.195 264.200 C 23.389 264.640,23.773 265.668,24.048 266.484 C 24.637 268.229,25.507 268.487,39.200 270.992 C 53.373 273.584,57.035 274.845,61.051 278.516 C 69.783 286.497,69.162 296.590,59.356 306.080 C 57.178 308.188,55.911 309.218,51.900 312.146 C 51.075 312.748,50.400 313.393,50.400 313.580 C 50.400 314.405,57.088 322.546,62.139 327.870 C 66.301 332.257,66.911 334.326,65.064 337.795 C 64.497 338.859,64.150 339.926,64.292 340.165 C 64.590 340.666,66.146 341.836,66.310 341.683 C 66.370 341.627,67.666 342.845,69.190 344.390 C 70.714 345.936,72.161 347.200,72.404 347.200 C 72.648 347.200,72.736 347.380,72.600 347.600 C 72.464 347.820,72.623 348.000,72.954 348.000 C 73.285 348.000,74.442 348.900,75.524 350.000 C 77.848 352.361,77.862 352.363,80.174 350.733 C 81.547 349.765,82.395 349.467,83.771 349.467 C 85.784 349.467,85.783 349.466,95.093 355.852 C 98.342 358.081,101.675 360.286,102.500 360.752 C 105.015 362.174,106.488 363.025,109.144 364.590 C 112.006 366.277,124.692 372.405,127.900 373.651 C 128.395 373.843,129.250 374.180,129.800 374.400 C 130.350 374.620,131.250 374.980,131.800 375.200 C 134.247 376.179,135.045 376.516,135.695 376.847 C 136.077 377.041,136.741 377.200,137.171 377.200 C 137.601 377.200,138.064 377.380,138.200 377.600 C 138.336 377.820,138.876 378.000,139.400 378.000 C 139.924 378.000,140.464 378.180,140.600 378.400 C 140.736 378.620,141.199 378.800,141.629 378.800 C 142.059 378.800,142.723 378.958,143.105 379.151 C 143.770 379.487,144.343 379.664,148.400 380.792 C 149.390 381.068,150.695 381.474,151.300 381.695 C 152.748 382.224,153.268 381.759,153.946 379.331 C 154.242 378.269,154.801 376.410,155.189 375.200 C 155.576 373.990,156.116 372.190,156.388 371.200 C 156.660 370.210,157.045 368.987,157.242 368.481 C 157.439 367.976,157.600 367.131,157.600 366.605 C 157.600 366.078,157.760 365.548,157.956 365.427 C 158.151 365.306,158.408 364.621,158.527 363.904 C 158.645 363.187,158.945 361.790,159.193 360.800 C 161.553 351.378,163.667 339.235,164.591 329.800 C 164.720 328.480,165.017 325.448,165.251 323.062 C 167.243 302.749,152.143 293.759,112.400 291.597 C 100.014 290.923,95.351 289.864,91.303 286.805 C 83.663 281.030,83.106 271.500,89.584 257.400 C 91.932 252.290,91.870 252.441,92.721 249.800 C 93.696 246.772,94.512 242.377,94.244 241.596 C 94.132 241.268,93.844 240.237,93.605 239.304 C 92.601 235.381,86.789 232.800,78.961 232.800 C 73.843 232.800,72.604 233.613,69.311 239.133 C 63.630 248.652,57.542 251.799,47.852 250.225 C 32.936 247.801,24.791 237.494,21.123 216.400 C 20.411 212.307,20.416 193.053,21.130 188.200 C 24.665 164.172,29.702 157.149,43.000 157.705 C 56.309 158.262,65.490 167.631,66.806 182.000 C 67.231 186.640,67.846 189.200,68.536 189.200 C 68.757 189.200,68.803 188.156,68.649 186.652 C 68.057 180.871,69.852 175.211,73.891 170.117 C 74.941 168.793,76.340 167.028,77.000 166.196 C 80.171 162.195,83.772 157.063,86.006 153.360 C 89.710 147.217,92.000 145.786,95.617 147.354 C 96.288 147.645,100.061 140.218,102.807 133.200 C 103.108 132.430,103.545 131.668,103.777 131.506 C 104.059 131.310,104.038 131.210,103.714 131.206 C 102.724 131.194,100.405 128.703,100.006 127.224 C 99.575 125.621,99.732 124.515,101.177 119.000 C 104.620 105.854,103.437 90.276,98.018 77.400 C 96.788 74.476,96.133 73.034,94.748 70.200 C 93.888 68.440,92.710 66.190,92.129 65.200 C 91.549 64.210,90.877 63.032,90.637 62.582 C 89.245 59.976,84.133 52.400,83.766 52.400 C 83.527 52.400,81.547 53.875,79.366 55.677 M344.000 86.378 C 344.000 94.637,343.520 98.659,341.706 105.600 C 341.389 106.810,340.989 108.340,340.817 109.000 C 337.773 120.635,329.521 131.344,321.394 134.207 C 319.163 134.993,315.548 135.386,305.000 135.989 C 272.843 137.829,264.258 142.385,261.764 158.934 C 259.383 174.731,271.426 186.386,286.600 182.970 C 291.044 181.969,291.200 181.923,291.430 181.552 C 291.549 181.359,291.924 181.200,292.263 181.200 C 294.741 181.200,305.499 174.484,313.355 168.033 C 316.190 165.705,319.790 162.753,321.355 161.473 C 330.707 153.826,337.353 150.795,344.745 150.805 C 357.372 150.822,365.982 158.731,377.287 180.697 C 380.363 186.674,381.644 189.380,385.411 197.866 C 385.786 198.710,386.519 200.300,387.041 201.400 L 387.990 203.400 387.995 198.508 C 388.003 190.602,386.923 178.502,385.364 169.056 C 383.882 160.069,382.860 155.537,380.367 146.900 C 380.129 146.075,379.838 144.903,379.721 144.295 C 379.604 143.687,379.349 143.092,379.154 142.971 C 378.959 142.851,378.800 142.324,378.800 141.800 C 378.800 141.276,378.620 140.736,378.400 140.600 C 378.180 140.464,378.000 139.949,378.000 139.456 C 378.000 138.963,377.857 138.389,377.682 138.180 C 377.507 137.971,377.135 137.080,376.855 136.200 C 376.576 135.320,376.179 134.195,375.974 133.700 C 374.987 131.324,374.671 130.539,374.400 129.800 C 373.871 128.356,373.314 127.028,372.471 125.200 C 368.701 117.030,368.400 116.240,368.400 114.534 C 368.400 113.551,368.608 112.354,368.863 111.874 C 369.300 111.048,369.576 110.765,371.541 109.126 C 372.345 108.455,371.938 106.144,371.107 106.658 C 370.938 106.762,370.800 106.477,370.800 106.024 C 370.800 105.571,370.620 105.200,370.400 105.200 C 370.180 105.200,370.000 104.840,370.000 104.400 C 370.000 103.960,369.820 103.600,369.600 103.600 C 369.380 103.600,369.200 103.240,369.200 102.800 C 369.200 102.360,369.032 102.000,368.827 102.000 C 368.622 102.000,368.346 101.661,368.215 101.248 C 368.084 100.834,367.625 100.090,367.196 99.596 C 366.768 99.101,366.513 98.540,366.632 98.348 C 366.750 98.157,366.657 98.000,366.424 98.000 C 366.191 98.000,366.000 97.730,366.000 97.400 C 366.000 97.070,365.820 96.800,365.600 96.800 C 365.380 96.800,365.200 96.530,365.200 96.200 C 365.200 95.870,365.020 95.600,364.800 95.600 C 364.580 95.600,364.400 95.375,364.400 95.100 C 364.398 93.439,362.597 92.425,360.772 93.059 C 356.662 94.485,355.243 93.672,350.191 87.000 C 348.358 84.580,346.524 82.240,346.115 81.800 C 345.707 81.360,345.063 80.555,344.686 80.011 C 344.027 79.061,344.000 79.312,344.000 86.378 M308.800 214.622 C 308.250 214.711,306.090 214.993,304.000 215.249 C 296.183 216.205,283.339 219.357,278.200 221.580 C 277.760 221.770,276.590 222.227,275.600 222.596 C 256.337 229.766,242.600 243.783,238.839 260.106 C 238.272 262.568,238.273 270.637,238.841 273.094 C 240.049 278.321,241.341 282.321,242.459 284.293 C 242.867 285.012,243.581 286.275,244.046 287.100 C 244.822 288.475,248.731 294.181,249.870 295.600 C 267.173 317.169,271.054 322.198,274.200 327.129 C 274.420 327.474,274.740 327.946,274.912 328.178 C 277.950 332.291,284.042 343.547,285.965 348.600 C 286.467 349.920,287.029 351.360,287.213 351.800 C 287.682 352.922,289.001 357.055,289.574 359.200 C 289.838 360.190,290.222 361.553,290.427 362.228 C 290.632 362.904,290.800 363.763,290.800 364.138 C 290.800 364.778,290.861 364.778,291.836 364.140 C 293.606 362.980,295.370 361.988,296.100 361.742 C 296.485 361.613,296.800 361.348,296.800 361.153 C 296.800 360.959,296.984 360.800,297.209 360.800 C 298.407 360.800,314.275 349.515,320.831 344.000 C 325.479 340.090,326.426 339.207,332.817 332.817 C 339.207 326.426,340.090 325.479,344.000 320.831 C 349.154 314.704,360.470 298.846,361.718 296.000 C 361.863 295.670,362.528 294.500,363.196 293.400 C 364.632 291.033,371.482 277.385,372.532 274.800 C 372.933 273.810,373.452 272.550,373.685 272.000 C 373.917 271.450,374.263 270.595,374.454 270.100 C 374.644 269.605,375.004 268.705,375.254 268.100 C 375.503 267.495,375.884 266.550,376.100 266.000 C 376.316 265.450,376.652 264.687,376.847 264.305 C 377.041 263.923,377.200 263.259,377.200 262.829 C 377.200 262.399,377.380 261.936,377.600 261.800 C 377.820 261.664,378.000 261.124,378.000 260.600 C 378.000 260.076,378.180 259.536,378.400 259.400 C 378.620 259.264,378.800 258.801,378.800 258.371 C 378.800 257.941,378.962 257.277,379.161 256.895 C 379.360 256.513,379.744 255.390,380.015 254.400 C 380.740 251.755,381.269 249.929,381.640 248.800 C 382.707 245.546,382.590 244.986,380.731 244.446 C 377.156 243.409,373.773 242.348,373.000 242.020 C 369.652 240.603,368.676 240.156,366.200 238.905 C 361.489 236.524,356.848 233.077,351.290 227.830 C 342.746 219.763,338.324 217.306,328.800 215.339 C 325.955 214.751,311.260 214.224,308.800 214.622 " stroke="none" fill="#91cf89" fill-rule="evenodd"></path><path id="path1" d="M178.402 0.275 C 176.533 0.363,174.832 0.608,174.622 0.818 C 174.412 1.028,173.027 1.200,171.544 1.200 C 170.061 1.200,168.736 1.380,168.600 1.600 C 168.464 1.820,167.384 2.000,166.200 2.000 C 165.016 2.000,163.936 2.180,163.800 2.400 C 163.664 2.620,162.764 2.800,161.800 2.800 C 160.836 2.800,159.936 2.980,159.800 3.200 C 159.664 3.420,158.753 3.600,157.776 3.600 C 156.799 3.600,156.000 3.780,156.000 4.000 C 156.000 4.220,155.280 4.400,154.400 4.400 C 153.520 4.400,152.800 4.580,152.800 4.800 C 152.800 5.020,152.080 5.200,151.200 5.200 C 150.320 5.200,149.600 5.380,149.600 5.600 C 149.600 5.820,148.880 6.000,148.000 6.000 C 147.120 6.000,146.400 6.180,146.400 6.400 C 146.400 6.620,145.770 6.800,145.000 6.800 C 144.230 6.800,143.600 6.980,143.600 7.200 C 143.600 7.420,143.060 7.600,142.400 7.600 C 141.740 7.600,141.200 7.759,141.200 7.954 C 141.200 8.149,140.213 8.431,139.006 8.582 C 137.800 8.733,136.709 9.023,136.583 9.228 C 136.456 9.433,135.924 9.600,135.400 9.600 C 134.876 9.600,134.336 9.780,134.200 10.000 C 134.064 10.220,133.524 10.400,133.000 10.400 C 132.476 10.400,131.936 10.580,131.800 10.800 C 131.664 11.020,131.124 11.200,130.600 11.200 C 130.076 11.200,129.536 11.380,129.400 11.600 C 129.264 11.820,128.803 12.000,128.376 12.000 C 127.949 12.000,127.600 12.180,127.600 12.400 C 127.600 12.620,127.150 12.800,126.600 12.800 C 126.050 12.800,125.600 12.980,125.600 13.200 C 125.600 13.420,125.240 13.600,124.800 13.600 C 124.360 13.600,124.000 13.780,124.000 14.000 C 124.000 14.220,123.460 14.400,122.800 14.400 C 122.140 14.400,121.600 14.580,121.600 14.800 C 121.600 15.020,121.240 15.200,120.800 15.200 C 120.360 15.200,120.000 15.380,120.000 15.600 C 120.000 15.820,119.728 16.000,119.395 16.000 C 119.062 16.000,118.432 16.180,117.995 16.400 C 117.558 16.620,116.842 16.980,116.405 17.200 C 115.968 17.420,115.338 17.600,115.005 17.600 C 114.672 17.600,114.400 17.780,114.400 18.000 C 114.400 18.220,114.040 18.400,113.600 18.400 C 113.160 18.400,112.800 18.580,112.800 18.800 C 112.800 19.020,112.440 19.200,112.000 19.200 C 111.560 19.200,111.200 19.346,111.200 19.525 C 111.200 19.704,110.570 20.098,109.800 20.400 C 109.030 20.702,108.400 21.096,108.400 21.275 C 108.400 21.454,108.040 21.600,107.600 21.600 C 107.160 21.600,106.800 21.780,106.800 22.000 C 106.800 22.220,106.440 22.400,106.000 22.400 C 105.560 22.400,105.200 22.580,105.200 22.800 C 105.200 23.020,104.855 23.200,104.433 23.200 C 104.012 23.200,103.607 23.339,103.533 23.509 C 103.460 23.680,102.050 24.519,100.400 25.374 C 98.750 26.230,97.310 27.038,97.200 27.170 C 97.090 27.303,96.145 27.842,95.100 28.368 C 94.055 28.895,93.200 29.477,93.200 29.663 C 93.200 29.848,92.970 30.000,92.688 30.000 C 92.407 30.000,91.917 30.360,91.600 30.800 C 91.283 31.240,90.703 31.600,90.312 31.600 C 89.920 31.600,89.600 31.768,89.600 31.973 C 89.600 32.178,89.234 32.462,88.787 32.604 C 88.340 32.746,87.538 33.298,87.005 33.831 C 86.472 34.364,85.798 34.800,85.506 34.800 C 85.215 34.800,84.717 35.160,84.400 35.600 C 84.083 36.040,83.591 36.400,83.308 36.400 C 83.025 36.400,82.228 36.940,81.537 37.600 C 80.846 38.260,80.110 38.800,79.901 38.800 C 79.692 38.800,79.017 39.340,78.400 40.000 C 77.783 40.660,77.124 41.200,76.935 41.200 C 76.746 41.200,76.144 41.610,75.596 42.111 C 75.048 42.613,73.970 43.461,73.200 43.996 C 72.430 44.531,71.350 45.433,70.800 46.000 C 70.250 46.567,69.170 47.471,68.400 48.009 C 67.630 48.547,65.059 50.970,62.686 53.394 C 57.506 58.685,58.685 57.506,53.394 62.686 C 50.970 65.059,48.547 67.630,48.009 68.400 C 47.471 69.170,46.567 70.250,46.000 70.800 C 45.433 71.350,44.531 72.430,43.996 73.200 C 43.461 73.970,42.613 75.048,42.111 75.596 C 41.610 76.144,41.200 76.746,41.200 76.935 C 41.200 77.124,40.660 77.783,40.000 78.400 C 39.340 79.017,38.800 79.692,38.800 79.901 C 38.800 80.110,38.260 80.846,37.600 81.537 C 36.940 82.228,36.400 83.025,36.400 83.308 C 36.400 83.591,36.040 84.083,35.600 84.400 C 35.160 84.717,34.800 85.162,34.800 85.388 C 34.799 85.615,34.354 86.317,33.811 86.949 C 33.267 87.581,32.716 88.436,32.584 88.849 C 32.453 89.262,32.178 89.600,31.973 89.600 C 31.768 89.600,31.600 89.836,31.600 90.125 C 31.600 90.413,31.240 91.036,30.800 91.508 C 30.360 91.980,30.000 92.554,30.000 92.783 C 30.000 93.012,29.848 93.200,29.663 93.200 C 29.477 93.200,28.895 94.055,28.368 95.100 C 27.842 96.145,27.303 97.090,27.170 97.200 C 27.038 97.310,26.230 98.750,25.374 100.400 C 24.519 102.050,23.680 103.460,23.509 103.533 C 23.339 103.607,23.200 104.012,23.200 104.433 C 23.200 104.855,23.020 105.200,22.800 105.200 C 22.580 105.200,22.400 105.560,22.400 106.000 C 22.400 106.440,22.220 106.800,22.000 106.800 C 21.780 106.800,21.600 107.160,21.600 107.600 C 21.600 108.040,21.420 108.400,21.200 108.400 C 20.980 108.400,20.800 108.670,20.800 109.000 C 20.800 109.330,20.620 109.600,20.400 109.600 C 20.180 109.600,20.000 109.960,20.000 110.400 C 20.000 110.840,19.820 111.200,19.600 111.200 C 19.380 111.200,19.200 111.560,19.200 112.000 C 19.200 112.440,19.020 112.800,18.800 112.800 C 18.580 112.800,18.400 113.160,18.400 113.600 C 18.400 114.040,18.220 114.400,18.000 114.400 C 17.780 114.400,17.600 114.672,17.600 115.005 C 17.600 115.338,17.392 116.013,17.138 116.505 C 16.167 118.382,16.000 118.807,16.000 119.395 C 16.000 119.728,15.820 120.000,15.600 120.000 C 15.380 120.000,15.200 120.360,15.200 120.800 C 15.200 121.240,15.020 121.600,14.800 121.600 C 14.580 121.600,14.400 122.039,14.400 122.576 C 14.400 123.113,14.220 123.664,14.000 123.800 C 13.780 123.936,13.600 124.397,13.600 124.824 C 13.600 125.251,13.420 125.600,13.200 125.600 C 12.980 125.600,12.800 126.050,12.800 126.600 C 12.800 127.150,12.620 127.600,12.400 127.600 C 12.180 127.600,12.000 127.949,12.000 128.376 C 12.000 128.803,11.820 129.264,11.600 129.400 C 11.380 129.536,11.200 130.076,11.200 130.600 C 11.200 131.124,11.020 131.664,10.800 131.800 C 10.580 131.936,10.400 132.476,10.400 133.000 C 10.400 133.524,10.220 134.064,10.000 134.200 C 9.780 134.336,9.600 134.876,9.600 135.400 C 9.600 135.924,9.433 136.456,9.228 136.583 C 9.023 136.709,8.733 137.800,8.582 139.006 C 8.431 140.213,8.149 141.200,7.954 141.200 C 7.759 141.200,7.600 141.740,7.600 142.400 C 7.600 143.060,7.420 143.600,7.200 143.600 C 6.980 143.600,6.800 144.230,6.800 145.000 C 6.800 145.770,6.620 146.400,6.400 146.400 C 6.180 146.400,6.000 147.120,6.000 148.000 C 6.000 148.880,5.820 149.600,5.600 149.600 C 5.380 149.600,5.200 150.320,5.200 151.200 C 5.200 152.080,5.020 152.800,4.800 152.800 C 4.580 152.800,4.400 153.520,4.400 154.400 C 4.400 155.280,4.220 156.000,4.000 156.000 C 3.780 156.000,3.600 156.799,3.600 157.776 C 3.600 158.753,3.420 159.664,3.200 159.800 C 2.980 159.936,2.800 160.836,2.800 161.800 C 2.800 162.764,2.620 163.664,2.400 163.800 C 2.180 163.936,2.000 165.016,2.000 166.200 C 2.000 167.384,1.820 168.464,1.600 168.600 C 1.380 168.736,1.200 170.061,1.200 171.544 C 1.200 173.167,1.001 174.439,0.700 174.740 C 0.311 175.129,0.200 180.743,0.200 200.087 C 0.200 219.608,0.307 224.969,0.700 225.100 C 1.036 225.212,1.200 226.176,1.200 228.033 C 1.200 229.611,1.372 230.800,1.600 230.800 C 1.822 230.800,2.000 231.867,2.000 233.200 C 2.000 234.533,2.178 235.600,2.400 235.600 C 2.620 235.600,2.800 236.590,2.800 237.800 C 2.800 239.010,2.980 240.000,3.200 240.000 C 3.420 240.000,3.600 240.720,3.600 241.600 C 3.600 242.480,3.780 243.200,4.000 243.200 C 4.220 243.200,4.400 244.100,4.400 245.200 C 4.400 246.300,4.580 247.200,4.800 247.200 C 5.020 247.200,5.200 247.920,5.200 248.800 C 5.200 249.680,5.380 250.400,5.600 250.400 C 5.820 250.400,6.000 251.030,6.000 251.800 C 6.000 252.570,6.180 253.200,6.400 253.200 C 6.620 253.200,6.800 253.830,6.800 254.600 C 6.800 255.370,6.980 256.000,7.200 256.000 C 7.420 256.000,7.600 256.630,7.600 257.400 C 7.600 258.170,7.780 258.800,8.000 258.800 C 8.220 258.800,8.400 259.229,8.400 259.754 C 8.400 260.778,9.440 264.553,10.037 265.695 C 10.237 266.077,10.400 266.741,10.400 267.171 C 10.400 267.601,10.580 268.064,10.800 268.200 C 11.020 268.336,11.200 268.797,11.200 269.224 C 11.200 269.651,11.380 270.000,11.600 270.000 C 11.820 270.000,12.000 270.439,12.000 270.976 C 12.000 271.513,12.180 272.064,12.400 272.200 C 12.620 272.336,12.800 272.887,12.800 273.424 C 12.800 273.961,12.980 274.400,13.200 274.400 C 13.420 274.400,13.600 274.760,13.600 275.200 C 13.600 275.640,13.780 276.000,14.000 276.000 C 14.220 276.000,14.400 276.439,14.400 276.976 C 14.400 277.513,14.580 278.064,14.800 278.200 C 15.020 278.336,15.200 278.797,15.200 279.224 C 15.200 279.651,15.380 280.000,15.600 280.000 C 15.820 280.000,16.000 280.360,16.000 280.800 C 16.000 281.240,16.180 281.600,16.400 281.600 C 16.620 281.600,16.799 281.915,16.797 282.300 C 16.794 283.076,20.811 291.322,21.295 291.533 C 21.463 291.607,21.600 292.012,21.600 292.433 C 21.600 292.855,21.780 293.200,22.000 293.200 C 22.220 293.200,22.400 293.478,22.400 293.817 C 22.400 294.156,22.760 294.820,23.200 295.292 C 23.640 295.764,24.000 296.387,24.000 296.675 C 24.000 296.964,24.180 297.200,24.400 297.200 C 24.620 297.200,24.800 297.476,24.800 297.813 C 24.800 298.581,26.779 302.553,27.251 302.733 C 27.443 302.807,27.600 303.044,27.600 303.261 C 27.600 303.478,28.140 304.441,28.800 305.400 C 29.460 306.359,30.000 307.297,30.000 307.484 C 30.000 307.671,30.360 308.083,30.800 308.400 C 31.240 308.717,31.600 309.257,31.600 309.600 C 31.600 309.943,31.960 310.483,32.400 310.800 C 32.840 311.117,33.200 311.657,33.200 312.000 C 33.200 312.343,33.560 312.883,34.000 313.200 C 34.440 313.517,34.800 314.057,34.800 314.400 C 34.800 314.743,35.160 315.283,35.600 315.600 C 36.040 315.917,36.400 316.425,36.400 316.728 C 36.400 317.031,36.940 317.783,37.600 318.400 C 38.260 319.017,38.800 319.692,38.800 319.901 C 38.800 320.110,39.340 320.846,40.000 321.537 C 40.660 322.228,41.200 322.892,41.200 323.013 C 41.200 323.261,41.775 323.984,43.100 325.401 C 43.595 325.930,44.000 326.534,44.000 326.741 C 44.000 326.949,44.900 328.038,46.000 329.161 C 47.100 330.285,48.000 331.370,48.000 331.572 C 48.000 332.072,56.042 340.180,57.100 340.747 C 59.334 341.942,63.689 340.992,63.933 339.256 C 64.006 338.737,64.410 337.747,64.831 337.056 C 66.443 334.413,65.722 332.553,61.145 327.544 C 59.464 325.705,57.577 323.570,56.951 322.800 C 56.325 322.030,55.702 321.310,55.567 321.200 C 55.039 320.771,49.600 313.792,49.600 313.544 C 49.600 313.400,51.355 311.960,53.500 310.345 C 63.400 302.891,67.583 295.868,66.411 288.666 C 65.296 281.814,59.480 276.162,51.400 274.079 C 50.520 273.852,49.080 273.479,48.200 273.249 C 47.320 273.020,45.970 272.738,45.200 272.621 C 44.430 272.505,42.720 272.212,41.400 271.971 C 40.080 271.729,38.190 271.385,37.200 271.206 C 34.410 270.701,31.177 270.044,29.200 269.579 C 28.210 269.346,26.770 269.028,26.000 268.872 C 24.601 268.589,24.281 268.175,22.847 264.800 C 21.022 260.507,16.716 245.417,15.542 239.200 C 15.313 237.990,14.962 236.190,14.761 235.200 C 13.806 230.482,13.143 225.805,12.324 218.000 C 11.634 211.415,11.628 188.619,12.315 182.200 C 13.320 172.809,14.373 165.787,15.555 160.600 C 15.755 159.720,16.109 158.100,16.342 157.000 C 17.291 152.503,20.735 140.579,22.003 137.400 C 22.178 136.960,22.717 135.520,23.200 134.200 C 23.683 132.880,24.240 131.395,24.439 130.900 C 24.638 130.405,24.962 129.595,25.159 129.100 C 28.499 120.732,35.700 106.653,39.674 100.722 C 40.513 99.469,41.200 98.254,41.200 98.022 C 41.200 97.790,41.380 97.600,41.600 97.600 C 41.820 97.600,42.000 97.364,42.000 97.075 C 42.000 96.787,42.315 96.202,42.700 95.775 C 43.085 95.349,44.384 93.560,45.586 91.800 C 46.788 90.040,49.104 86.890,50.733 84.800 C 53.450 81.312,54.924 79.524,58.791 75.020 C 63.686 69.321,79.273 54.605,83.007 52.158 C 84.214 51.368,83.993 51.166,87.001 55.800 C 90.080 60.543,91.291 62.585,94.531 68.500 C 96.146 71.447,99.487 79.656,100.595 83.400 C 104.745 97.426,104.873 106.901,101.102 121.250 L 99.881 125.901 100.740 127.677 C 101.633 129.521,103.919 131.200,105.536 131.200 C 107.353 131.200,110.800 128.921,110.800 127.720 C 110.800 127.428,110.962 126.877,111.161 126.495 C 111.360 126.113,111.705 125.080,111.928 124.200 C 112.151 123.320,112.515 121.880,112.737 121.000 C 113.193 119.192,113.751 116.244,114.375 112.354 C 115.713 104.017,114.570 91.461,111.521 81.000 C 111.072 79.460,110.563 77.840,110.390 77.400 C 110.218 76.960,109.486 75.070,108.764 73.200 C 106.245 66.670,100.321 55.596,95.622 48.633 C 93.772 45.891,93.085 44.000,93.938 44.000 C 94.124 44.000,94.799 43.550,95.438 43.000 C 96.077 42.451,96.810 42.001,97.067 42.000 C 97.323 42.000,97.593 41.865,97.667 41.700 C 98.149 40.615,114.367 31.699,122.800 27.882 C 128.809 25.162,135.658 22.447,139.600 21.222 C 140.370 20.983,142.350 20.351,144.000 19.818 C 154.659 16.374,166.930 13.926,181.600 12.319 C 187.747 11.645,212.286 11.648,218.400 12.322 C 227.686 13.347,229.149 13.572,238.400 15.393 C 246.015 16.892,260.045 20.849,264.600 22.782 C 265.040 22.969,266.480 23.517,267.800 24.001 C 269.120 24.484,271.010 25.245,272.000 25.690 C 272.990 26.136,274.160 26.641,274.600 26.812 C 278.033 28.143,290.975 34.541,292.422 35.622 C 293.257 36.246,292.880 38.400,291.936 38.400 C 291.751 38.400,291.600 38.636,291.600 38.925 C 291.600 39.213,291.285 39.807,290.900 40.245 C 290.515 40.683,289.942 41.482,289.627 42.020 C 289.312 42.559,288.167 44.440,287.082 46.200 C 285.170 49.303,280.672 58.358,279.632 61.200 C 279.350 61.970,278.966 62.960,278.780 63.400 C 278.305 64.518,277.178 67.928,276.730 69.600 C 276.524 70.370,276.170 71.630,275.944 72.400 C 273.873 79.457,273.689 91.436,275.577 96.200 C 277.807 101.824,284.392 109.200,287.183 109.200 C 287.602 109.200,288.091 109.405,289.895 110.338 C 290.387 110.592,291.064 110.800,291.400 110.800 C 291.736 110.800,292.323 110.961,292.705 111.157 C 297.884 113.818,307.902 112.333,314.255 107.962 C 317.801 105.523,321.550 100.337,323.628 95.000 C 324.720 92.195,325.227 86.083,324.722 81.800 C 323.192 68.816,324.082 65.451,327.974 69.501 C 331.392 73.058,332.622 78.619,332.280 88.967 C 331.823 102.765,328.004 113.796,321.301 120.675 C 318.597 123.450,317.753 123.636,304.400 124.395 C 283.587 125.578,276.065 126.958,268.045 131.068 C 258.751 135.831,253.547 142.738,250.767 154.000 C 244.769 178.300,264.545 199.442,288.600 194.446 C 289.700 194.217,291.187 193.913,291.905 193.769 C 292.623 193.625,293.308 193.349,293.429 193.154 C 293.549 192.959,293.999 192.800,294.429 192.800 C 294.859 192.800,295.523 192.635,295.905 192.434 C 296.287 192.232,297.320 191.764,298.200 191.393 C 303.428 189.190,308.684 186.197,313.617 182.615 C 315.826 181.011,323.632 174.837,324.000 174.402 C 324.631 173.658,331.396 168.264,333.600 166.747 C 342.305 160.756,348.349 160.929,354.834 167.354 C 358.830 171.313,362.257 176.780,368.017 188.384 C 370.880 194.153,372.114 196.803,375.148 203.700 C 379.045 212.559,381.876 217.579,385.306 221.710 C 387.043 223.803,387.054 223.929,386.104 230.800 L 385.800 233.000 384.200 232.926 C 380.426 232.750,368.711 227.730,365.923 225.094 C 365.635 224.822,364.680 224.066,363.800 223.414 C 362.920 222.761,360.490 220.578,358.400 218.561 C 356.310 216.544,354.060 214.453,353.400 213.914 C 349.604 210.814,343.111 207.330,338.600 205.971 C 337.720 205.706,336.640 205.353,336.200 205.186 C 335.760 205.020,334.320 204.670,333.000 204.409 C 331.680 204.148,329.850 203.770,328.932 203.569 C 321.728 201.994,304.053 202.975,292.200 205.608 C 291.100 205.852,289.524 206.149,288.697 206.268 C 287.871 206.387,287.095 206.645,286.974 206.842 C 286.852 207.039,286.371 207.200,285.905 207.200 C 285.438 207.200,284.504 207.381,283.828 207.601 C 283.153 207.822,280.686 208.624,278.347 209.384 C 268.661 212.528,257.701 217.668,253.800 220.894 C 253.360 221.258,251.830 222.415,250.400 223.467 C 228.054 239.892,220.689 266.743,232.240 289.679 C 234.164 293.501,240.049 302.296,242.306 304.725 C 242.584 305.024,243.303 305.929,243.904 306.735 C 244.504 307.541,245.092 308.290,245.210 308.400 C 245.625 308.786,253.421 318.560,255.393 321.166 C 256.489 322.615,257.794 324.248,258.293 324.796 C 258.792 325.344,259.200 325.901,259.200 326.035 C 259.200 326.168,259.515 326.647,259.900 327.098 C 263.121 330.875,269.191 340.522,272.130 346.534 C 273.715 349.777,274.229 350.906,275.619 354.200 C 276.224 355.632,278.292 362.154,278.727 364.000 C 279.695 368.109,280.000 369.586,280.000 370.159 C 280.000 370.649,274.689 373.600,273.807 373.600 C 273.688 373.600,272.738 373.978,271.696 374.440 C 270.653 374.902,269.395 375.442,268.900 375.640 C 268.405 375.838,267.595 376.177,267.100 376.393 C 258.166 380.296,237.349 385.342,222.600 387.180 C 213.401 388.326,209.739 388.484,197.600 388.256 C 184.104 388.003,179.055 387.610,169.400 386.062 C 164.095 385.212,164.312 385.583,165.982 380.200 C 171.112 363.669,175.139 343.616,176.386 328.400 C 176.576 326.090,176.863 322.794,177.025 321.076 C 178.413 306.337,168.119 292.305,151.600 286.418 C 150.830 286.144,149.840 285.766,149.400 285.578 C 143.386 283.017,123.455 280.000,112.542 280.000 C 95.799 280.000,93.653 276.810,100.338 261.854 C 106.301 248.511,107.241 240.335,103.651 233.042 C 99.888 225.398,89.685 220.767,77.800 221.308 C 72.893 221.532,71.816 221.759,68.606 223.246 C 66.345 224.294,61.863 228.558,60.790 230.682 C 60.479 231.297,59.724 232.552,59.112 233.472 C 58.501 234.392,58.000 235.301,58.000 235.494 C 58.000 236.260,55.302 238.357,53.717 238.822 C 51.433 239.493,47.973 238.859,44.028 237.046 C 33.589 232.250,29.259 209.389,33.827 183.181 C 35.775 172.003,37.461 169.200,42.237 169.200 C 49.557 169.200,54.348 174.391,55.220 183.269 C 55.965 190.846,57.305 194.551,60.677 198.359 C 66.310 204.721,75.938 204.113,79.050 197.200 C 80.347 194.318,80.435 193.685,80.350 187.839 C 80.248 180.812,80.226 180.880,84.368 175.600 C 89.628 168.894,91.081 166.955,93.126 163.918 C 94.266 162.223,95.200 160.648,95.200 160.418 C 95.200 160.188,95.335 159.999,95.500 159.997 C 95.665 159.995,96.006 159.590,96.259 159.097 C 96.511 158.604,97.186 157.314,97.759 156.232 C 100.390 151.259,97.244 146.683,91.919 147.736 C 90.390 148.039,88.358 149.988,87.181 152.281 C 85.766 155.039,81.219 161.644,77.656 166.117 C 71.230 174.183,70.325 175.803,69.157 181.315 C 68.769 183.145,68.769 184.304,69.160 186.855 C 69.431 188.628,69.559 190.174,69.444 190.289 C 68.329 191.404,66.400 186.787,66.400 183.005 C 66.400 172.291,60.111 163.478,49.400 159.181 C 39.673 155.279,28.736 160.343,25.598 170.200 C 25.318 171.080,24.948 172.160,24.775 172.600 C 24.602 173.040,24.349 173.940,24.212 174.600 C 24.076 175.260,23.790 176.520,23.577 177.400 C 17.078 204.275,22.127 234.157,34.834 244.028 C 35.805 244.783,36.690 245.511,36.800 245.648 C 38.331 247.542,46.613 249.967,51.600 249.981 C 59.612 250.003,63.990 247.193,68.823 238.927 C 72.398 232.813,73.669 232.138,80.855 232.539 C 90.226 233.061,94.807 236.382,94.798 242.646 C 94.796 244.115,94.574 245.238,93.546 249.000 C 92.924 251.276,92.083 253.344,89.805 258.200 C 83.396 271.861,84.171 281.348,92.136 286.737 C 96.350 289.589,100.337 290.389,114.400 291.207 C 126.134 291.889,132.915 292.747,139.600 294.393 C 140.590 294.637,142.030 294.985,142.800 295.167 C 155.208 298.094,164.125 306.002,165.616 315.400 C 166.191 319.027,165.357 331.272,163.994 339.200 C 163.786 340.410,163.324 343.110,162.967 345.200 C 161.704 352.608,160.156 359.811,158.800 364.600 C 158.551 365.480,158.191 366.830,158.000 367.600 C 157.809 368.370,157.461 369.675,157.227 370.500 C 156.992 371.325,156.639 372.585,156.442 373.300 C 155.862 375.402,154.740 378.936,154.377 379.800 C 154.192 380.240,153.985 380.960,153.917 381.400 C 153.845 381.861,153.428 382.252,152.934 382.323 C 151.660 382.505,137.733 378.332,133.600 376.529 C 131.877 375.777,130.999 375.427,129.200 374.770 C 128.430 374.488,126.900 373.860,125.800 373.374 C 124.700 372.888,122.900 372.092,121.800 371.605 C 112.984 367.707,91.453 355.146,89.600 352.821 C 87.525 350.217,82.965 349.374,80.489 351.136 C 79.822 351.611,78.943 352.000,78.536 352.000 C 78.022 352.000,77.642 352.488,77.297 353.594 C 76.719 355.447,76.647 357.200,77.150 357.200 C 77.343 357.200,77.599 357.697,77.721 358.305 C 77.983 359.616,79.262 361.200,80.059 361.200 C 80.369 361.200,80.883 361.560,81.200 362.000 C 81.517 362.440,82.007 362.800,82.288 362.800 C 82.570 362.800,82.800 362.980,82.800 363.200 C 82.800 363.420,83.030 363.600,83.312 363.600 C 83.593 363.600,84.083 363.960,84.400 364.400 C 84.717 364.840,85.257 365.200,85.600 365.200 C 85.943 365.200,86.483 365.560,86.800 366.000 C 87.117 366.440,87.657 366.800,88.000 366.800 C 88.343 366.800,88.883 367.160,89.200 367.600 C 89.517 368.040,90.057 368.400,90.400 368.400 C 90.743 368.400,91.283 368.760,91.600 369.200 C 91.917 369.640,92.329 370.000,92.516 370.000 C 92.703 370.000,93.641 370.540,94.600 371.200 C 95.559 371.860,96.522 372.400,96.739 372.400 C 96.956 372.400,97.193 372.557,97.267 372.749 C 97.447 373.221,101.419 375.200,102.187 375.200 C 102.524 375.200,102.800 375.380,102.800 375.600 C 102.800 375.820,103.036 376.000,103.325 376.000 C 103.613 376.000,104.236 376.360,104.708 376.800 C 105.180 377.240,105.844 377.600,106.183 377.600 C 106.522 377.600,106.800 377.780,106.800 378.000 C 106.800 378.220,107.160 378.400,107.600 378.400 C 108.040 378.400,108.400 378.580,108.400 378.800 C 108.400 379.020,108.760 379.200,109.200 379.200 C 109.640 379.200,110.000 379.380,110.000 379.600 C 110.000 379.820,110.270 380.000,110.600 380.000 C 110.930 380.000,111.200 380.180,111.200 380.400 C 111.200 380.620,111.560 380.800,112.000 380.800 C 112.440 380.800,112.800 380.980,112.800 381.200 C 112.800 381.420,113.160 381.600,113.600 381.600 C 114.040 381.600,114.400 381.780,114.400 382.000 C 114.400 382.220,114.839 382.400,115.376 382.400 C 115.913 382.400,116.464 382.580,116.600 382.800 C 116.736 383.020,117.197 383.200,117.624 383.200 C 118.051 383.200,118.400 383.380,118.400 383.600 C 118.400 383.820,118.760 384.000,119.200 384.000 C 119.640 384.000,120.000 384.180,120.000 384.400 C 120.000 384.620,120.360 384.800,120.800 384.800 C 121.240 384.800,121.600 384.980,121.600 385.200 C 121.600 385.420,122.140 385.600,122.800 385.600 C 123.460 385.600,124.000 385.780,124.000 386.000 C 124.000 386.220,124.360 386.400,124.800 386.400 C 125.240 386.400,125.600 386.580,125.600 386.800 C 125.600 387.020,125.962 387.200,126.405 387.200 C 126.848 387.200,127.523 387.359,127.905 387.553 C 128.287 387.748,129.140 388.129,129.800 388.400 C 130.460 388.671,131.313 389.052,131.695 389.247 C 132.077 389.441,132.741 389.600,133.171 389.600 C 133.601 389.600,134.064 389.780,134.200 390.000 C 134.336 390.220,134.876 390.400,135.400 390.400 C 135.924 390.400,136.456 390.567,136.583 390.772 C 136.709 390.977,137.800 391.267,139.006 391.418 C 140.213 391.569,141.200 391.851,141.200 392.046 C 141.200 392.241,141.740 392.400,142.400 392.400 C 143.060 392.400,143.600 392.580,143.600 392.800 C 143.600 393.020,144.230 393.200,145.000 393.200 C 145.770 393.200,146.400 393.380,146.400 393.600 C 146.400 393.820,147.120 394.000,148.000 394.000 C 148.880 394.000,149.600 394.180,149.600 394.400 C 149.600 394.620,150.320 394.800,151.200 394.800 C 152.080 394.800,152.800 394.980,152.800 395.200 C 152.800 395.420,153.509 395.600,154.376 395.600 C 155.243 395.600,156.064 395.780,156.200 396.000 C 156.336 396.220,157.247 396.400,158.224 396.400 C 159.201 396.400,160.000 396.580,160.000 396.800 C 160.000 397.020,160.990 397.200,162.200 397.200 C 163.410 397.200,164.400 397.380,164.400 397.600 C 164.400 397.822,165.467 398.000,166.800 398.000 C 168.133 398.000,169.200 398.178,169.200 398.400 C 169.200 398.628,170.389 398.800,171.967 398.800 C 173.824 398.800,174.788 398.964,174.900 399.300 C 175.144 400.032,224.856 400.032,225.100 399.300 C 225.212 398.965,226.171 398.800,228.010 398.800 C 229.518 398.800,230.864 398.620,231.000 398.400 C 231.136 398.180,232.317 398.000,233.624 398.000 C 234.941 398.000,236.000 397.822,236.000 397.600 C 236.000 397.380,236.900 397.200,238.000 397.200 C 239.100 397.200,240.000 397.020,240.000 396.800 C 240.000 396.580,240.900 396.400,242.000 396.400 C 243.100 396.400,244.000 396.220,244.000 396.000 C 244.000 395.780,244.720 395.600,245.600 395.600 C 246.480 395.600,247.200 395.420,247.200 395.200 C 247.200 394.980,247.920 394.800,248.800 394.800 C 249.680 394.800,250.400 394.620,250.400 394.400 C 250.400 394.180,251.120 394.000,252.000 394.000 C 252.880 394.000,253.600 393.820,253.600 393.600 C 253.600 393.380,254.129 393.200,254.776 393.200 C 255.423 393.200,256.064 393.020,256.200 392.800 C 256.336 392.580,256.977 392.400,257.624 392.400 C 258.271 392.400,258.800 392.241,258.800 392.046 C 258.800 391.851,259.787 391.569,260.994 391.418 C 262.200 391.267,263.291 390.977,263.417 390.772 C 263.544 390.567,264.076 390.400,264.600 390.400 C 265.124 390.400,265.664 390.220,265.800 390.000 C 265.936 389.780,266.476 389.600,267.000 389.600 C 267.524 389.600,268.042 389.456,268.151 389.279 C 268.260 389.103,269.261 388.710,270.375 388.407 C 271.489 388.104,272.400 387.708,272.400 387.528 C 272.400 387.347,272.850 387.200,273.400 387.200 C 273.950 387.200,274.400 387.020,274.400 386.800 C 274.400 386.580,274.760 386.400,275.200 386.400 C 275.640 386.400,276.000 386.220,276.000 386.000 C 276.000 385.780,276.540 385.600,277.200 385.600 C 277.860 385.600,278.400 385.420,278.400 385.200 C 278.400 384.980,278.760 384.800,279.200 384.800 C 279.640 384.800,280.000 384.620,280.000 384.400 C 280.000 384.180,280.272 384.000,280.605 384.000 C 281.193 384.000,281.618 383.833,283.495 382.862 C 283.987 382.608,284.662 382.400,284.995 382.400 C 285.328 382.400,285.600 382.220,285.600 382.000 C 285.600 381.780,285.960 381.600,286.400 381.600 C 286.840 381.600,287.200 381.420,287.200 381.200 C 287.200 380.980,287.560 380.800,288.000 380.800 C 288.440 380.800,288.800 380.620,288.800 380.400 C 288.800 380.180,289.160 380.000,289.600 380.000 C 290.040 380.000,290.400 379.820,290.400 379.600 C 290.400 379.380,290.670 379.200,291.000 379.200 C 291.330 379.200,291.600 379.020,291.600 378.800 C 291.600 378.580,291.960 378.400,292.400 378.400 C 292.840 378.400,293.200 378.220,293.200 378.000 C 293.200 377.780,293.560 377.600,294.000 377.600 C 294.440 377.600,294.800 377.420,294.800 377.200 C 294.800 376.980,295.160 376.800,295.600 376.800 C 296.040 376.800,296.400 376.641,296.400 376.447 C 296.400 376.254,297.840 375.411,299.600 374.575 C 301.360 373.740,302.800 372.952,302.800 372.826 C 302.800 372.699,303.385 372.336,304.100 372.020 C 304.815 371.703,305.749 371.120,306.175 370.722 C 306.602 370.325,307.104 370.000,307.292 370.000 C 307.480 370.000,308.020 369.640,308.492 369.200 C 308.964 368.760,309.587 368.400,309.875 368.400 C 310.164 368.400,310.400 368.232,310.400 368.027 C 310.400 367.822,310.766 367.538,311.213 367.396 C 311.660 367.254,312.462 366.702,312.995 366.169 C 313.528 365.636,314.202 365.200,314.494 365.200 C 314.785 365.200,315.283 364.840,315.600 364.400 C 315.917 363.960,316.425 363.600,316.728 363.600 C 317.031 363.600,317.783 363.060,318.400 362.400 C 319.017 361.740,319.737 361.200,320.000 361.200 C 320.263 361.200,320.983 360.660,321.600 360.000 C 322.217 359.340,322.836 358.800,322.977 358.800 C 323.260 358.800,323.937 358.269,325.401 356.900 C 325.930 356.405,326.528 356.000,326.728 356.000 C 326.929 356.000,328.123 355.010,329.382 353.800 C 330.642 352.590,331.834 351.600,332.032 351.600 C 332.230 351.600,334.445 349.512,336.955 346.959 C 342.456 341.364,341.364 342.456,346.959 336.955 C 349.512 334.445,351.600 332.230,351.600 332.032 C 351.600 331.834,352.590 330.642,353.800 329.382 C 355.010 328.123,356.000 326.929,356.000 326.728 C 356.000 326.528,356.405 325.930,356.900 325.401 C 358.269 323.937,358.800 323.260,358.800 322.977 C 358.800 322.836,359.340 322.217,360.000 321.600 C 360.660 320.983,361.200 320.263,361.200 320.000 C 361.200 319.737,361.740 319.017,362.400 318.400 C 363.060 317.783,363.600 317.031,363.600 316.728 C 363.600 316.425,363.960 315.917,364.400 315.600 C 364.840 315.283,365.200 314.785,365.200 314.494 C 365.200 314.202,365.636 313.528,366.169 312.995 C 366.702 312.462,367.254 311.660,367.396 311.213 C 367.538 310.766,367.822 310.400,368.027 310.400 C 368.232 310.400,368.400 310.080,368.400 309.688 C 368.400 309.297,368.760 308.717,369.200 308.400 C 369.640 308.083,370.000 307.627,370.000 307.387 C 370.000 307.147,370.325 306.602,370.722 306.175 C 371.120 305.749,371.703 304.815,372.020 304.100 C 372.336 303.385,372.699 302.800,372.826 302.800 C 372.952 302.800,373.740 301.360,374.575 299.600 C 375.411 297.840,376.254 296.400,376.447 296.400 C 376.641 296.400,376.800 296.040,376.800 295.600 C 376.800 295.160,376.980 294.800,377.200 294.800 C 377.420 294.800,377.600 294.440,377.600 294.000 C 377.600 293.560,377.780 293.200,378.000 293.200 C 378.220 293.200,378.400 292.840,378.400 292.400 C 378.400 291.960,378.546 291.600,378.725 291.600 C 378.904 291.600,379.298 290.970,379.600 290.200 C 379.902 289.430,380.296 288.800,380.475 288.800 C 380.654 288.800,380.800 288.440,380.800 288.000 C 380.800 287.560,380.980 287.200,381.200 287.200 C 381.420 287.200,381.600 286.840,381.600 286.400 C 381.600 285.960,381.780 285.600,382.000 285.600 C 382.220 285.600,382.400 285.328,382.400 284.995 C 382.400 284.662,382.580 284.032,382.800 283.595 C 383.020 283.158,383.380 282.442,383.600 282.005 C 383.820 281.568,384.000 280.938,384.000 280.605 C 384.000 280.272,384.180 280.000,384.400 280.000 C 384.620 280.000,384.800 279.640,384.800 279.200 C 384.800 278.760,384.980 278.400,385.200 278.400 C 385.420 278.400,385.600 277.961,385.600 277.424 C 385.600 276.887,385.780 276.336,386.000 276.200 C 386.220 276.064,386.400 275.603,386.400 275.176 C 386.400 274.749,386.580 274.400,386.800 274.400 C 387.020 274.400,387.200 273.950,387.200 273.400 C 387.200 272.850,387.347 272.400,387.528 272.400 C 387.708 272.400,388.104 271.489,388.407 270.375 C 388.710 269.261,389.103 268.260,389.279 268.151 C 389.456 268.042,389.600 267.524,389.600 267.000 C 389.600 266.476,389.780 265.936,390.000 265.800 C 390.220 265.664,390.400 265.124,390.400 264.600 C 390.400 264.076,390.567 263.544,390.772 263.417 C 390.977 263.291,391.267 262.200,391.418 260.994 C 391.569 259.787,391.851 258.800,392.046 258.800 C 392.241 258.800,392.400 258.271,392.400 257.624 C 392.400 256.977,392.580 256.336,392.800 256.200 C 393.020 256.064,393.200 255.423,393.200 254.776 C 393.200 254.129,393.380 253.600,393.600 253.600 C 393.820 253.600,394.000 252.880,394.000 252.000 C 394.000 251.120,394.180 250.400,394.400 250.400 C 394.620 250.400,394.800 249.680,394.800 248.800 C 394.800 247.920,394.980 247.200,395.200 247.200 C 395.420 247.200,395.600 246.480,395.600 245.600 C 395.600 244.720,395.780 244.000,396.000 244.000 C 396.220 244.000,396.400 243.100,396.400 242.000 C 396.400 240.900,396.580 240.000,396.800 240.000 C 397.020 240.000,397.200 239.100,397.200 238.000 C 397.200 236.900,397.380 236.000,397.600 236.000 C 397.822 236.000,398.000 234.941,398.000 233.624 C 398.000 232.317,398.180 231.136,398.400 231.000 C 398.620 230.864,398.800 229.518,398.800 228.010 C 398.800 226.171,398.965 225.212,399.300 225.100 C 399.693 224.969,399.800 219.591,399.800 200.000 C 399.800 180.409,399.693 175.031,399.300 174.900 C 398.965 174.788,398.800 173.829,398.800 171.990 C 398.800 170.482,398.620 169.136,398.400 169.000 C 398.180 168.864,398.000 167.694,398.000 166.400 C 398.000 165.106,397.820 163.936,397.600 163.800 C 397.380 163.664,397.200 162.764,397.200 161.800 C 397.200 160.836,397.020 159.936,396.800 159.800 C 396.580 159.664,396.400 158.753,396.400 157.776 C 396.400 156.799,396.220 156.000,396.000 156.000 C 395.780 156.000,395.600 155.280,395.600 154.400 C 395.600 153.520,395.420 152.800,395.200 152.800 C 394.980 152.800,394.800 152.080,394.800 151.200 C 394.800 150.320,394.620 149.600,394.400 149.600 C 394.180 149.600,394.000 148.880,394.000 148.000 C 394.000 147.120,393.820 146.400,393.600 146.400 C 393.380 146.400,393.200 145.871,393.200 145.224 C 393.200 144.577,393.020 143.936,392.800 143.800 C 392.580 143.664,392.400 143.023,392.400 142.376 C 392.400 141.729,392.220 141.200,392.000 141.200 C 391.780 141.200,391.600 140.771,391.600 140.246 C 391.600 139.222,390.560 135.447,389.963 134.305 C 389.763 133.923,389.600 133.336,389.600 133.000 C 389.600 132.664,389.441 132.077,389.247 131.695 C 389.052 131.313,388.671 130.460,388.400 129.800 C 388.129 129.140,387.748 128.287,387.553 127.905 C 387.359 127.523,387.200 126.848,387.200 126.405 C 387.200 125.962,387.020 125.600,386.800 125.600 C 386.580 125.600,386.400 125.240,386.400 124.800 C 386.400 124.360,386.220 124.000,386.000 124.000 C 385.780 124.000,385.600 123.460,385.600 122.800 C 385.600 122.140,385.420 121.600,385.200 121.600 C 384.980 121.600,384.800 121.240,384.800 120.800 C 384.800 120.360,384.620 120.000,384.400 120.000 C 384.180 120.000,384.000 119.640,384.000 119.200 C 384.000 118.760,383.820 118.400,383.600 118.400 C 383.380 118.400,383.200 118.128,383.200 117.795 C 383.200 117.462,383.043 116.877,382.850 116.495 C 381.446 113.708,380.800 112.269,380.800 111.931 C 380.800 110.466,377.495 108.400,375.152 108.400 C 370.989 108.400,367.367 113.444,369.188 116.705 C 369.592 117.429,371.832 122.306,372.952 124.900 C 373.309 125.725,373.855 126.985,374.166 127.700 C 374.478 128.415,375.214 130.260,375.803 131.800 C 376.392 133.340,377.031 134.960,377.225 135.400 C 379.251 140.017,383.810 156.622,385.243 164.600 C 387.396 176.588,387.957 182.178,388.248 194.547 C 388.529 206.497,388.538 206.489,384.755 197.789 C 383.227 194.275,380.263 187.980,378.167 183.800 C 367.521 162.564,362.118 156.277,350.802 151.956 C 346.595 150.349,338.749 151.414,332.800 154.399 C 328.567 156.523,328.108 156.788,327.593 157.408 C 327.323 157.734,326.869 158.000,326.584 158.000 C 326.300 158.000,326.007 158.136,325.933 158.303 C 325.860 158.470,324.990 159.235,324.000 160.003 C 323.010 160.771,321.750 161.784,321.200 162.253 C 320.650 162.722,318.921 164.162,317.357 165.453 C 315.794 166.744,313.651 168.520,312.595 169.400 C 311.538 170.280,310.298 171.260,309.837 171.577 C 309.377 171.894,308.910 172.269,308.800 172.411 C 308.690 172.552,306.901 173.805,304.824 175.195 C 285.035 188.442,268.509 186.551,262.042 170.300 C 259.880 164.867,260.835 155.432,264.142 149.544 C 269.579 139.864,278.829 136.721,305.800 135.389 C 318.553 134.759,321.721 134.099,326.000 131.177 C 332.606 126.666,338.760 116.280,341.274 105.400 C 343.046 97.732,343.392 94.619,343.396 86.300 C 343.398 81.955,343.490 78.402,343.600 78.406 C 344.219 78.426,348.007 82.916,351.019 87.200 C 354.233 91.772,355.574 92.800,358.324 92.800 C 359.660 92.800,360.864 92.619,361.001 92.399 C 361.137 92.178,361.659 92.100,362.161 92.226 C 363.218 92.491,364.400 91.049,364.400 89.494 C 364.400 88.980,364.620 88.340,364.890 88.070 C 365.277 87.683,365.277 87.415,364.890 86.795 C 364.620 86.364,364.400 85.558,364.400 85.005 C 364.400 84.452,364.220 84.000,364.000 84.000 C 363.780 84.000,363.600 83.757,363.600 83.459 C 363.600 83.162,363.060 82.354,362.400 81.663 C 361.740 80.972,361.200 80.208,361.200 79.964 C 361.200 79.720,360.660 79.017,360.000 78.400 C 359.340 77.783,358.800 77.164,358.800 77.023 C 358.800 76.752,358.486 76.352,356.700 74.349 C 356.095 73.671,355.600 72.966,355.600 72.784 C 355.600 72.602,354.700 71.529,353.600 70.400 C 352.500 69.271,351.600 68.181,351.600 67.978 C 351.600 67.775,349.512 65.555,346.959 63.045 C 344.406 60.536,342.162 58.329,341.972 58.141 C 341.783 57.953,339.647 55.775,337.226 53.300 C 334.806 50.825,332.664 48.800,332.466 48.800 C 332.269 48.800,331.077 47.810,329.818 46.600 C 328.558 45.390,327.383 44.400,327.206 44.400 C 327.029 44.400,326.281 43.859,325.542 43.199 C 323.650 41.505,323.264 41.200,323.013 41.200 C 322.892 41.200,322.228 40.660,321.537 40.000 C 320.846 39.340,320.126 38.800,319.937 38.800 C 319.748 38.800,319.028 38.260,318.337 37.600 C 317.646 36.940,316.878 36.400,316.629 36.400 C 316.380 36.400,315.917 36.040,315.600 35.600 C 315.283 35.160,314.743 34.800,314.400 34.800 C 314.057 34.800,313.517 34.440,313.200 34.000 C 312.883 33.560,312.343 33.200,312.000 33.200 C 311.657 33.200,311.117 32.840,310.800 32.400 C 310.483 31.960,309.943 31.600,309.600 31.600 C 309.257 31.600,308.717 31.240,308.400 30.800 C 308.083 30.360,307.671 30.000,307.484 30.000 C 307.297 30.000,306.359 29.460,305.400 28.800 C 304.441 28.140,303.478 27.600,303.261 27.600 C 303.044 27.600,302.807 27.465,302.733 27.300 C 302.523 26.826,298.562 24.800,297.846 24.800 C 297.491 24.800,297.200 24.620,297.200 24.400 C 297.200 24.180,296.964 24.000,296.675 24.000 C 296.387 24.000,295.764 23.640,295.292 23.200 C 294.820 22.760,294.156 22.400,293.817 22.400 C 293.478 22.400,293.200 22.220,293.200 22.000 C 293.200 21.780,292.840 21.600,292.400 21.600 C 291.960 21.600,291.600 21.454,291.600 21.275 C 291.600 21.096,290.970 20.702,290.200 20.400 C 289.430 20.098,288.800 19.704,288.800 19.525 C 288.800 19.346,288.547 19.200,288.238 19.200 C 287.753 19.200,286.480 18.648,283.505 17.150 C 283.123 16.957,282.538 16.800,282.205 16.800 C 281.872 16.800,281.600 16.620,281.600 16.400 C 281.600 16.180,281.240 16.000,280.800 16.000 C 280.360 16.000,280.000 15.820,280.000 15.600 C 280.000 15.380,279.651 15.200,279.224 15.200 C 278.797 15.200,278.336 15.020,278.200 14.800 C 278.064 14.580,277.513 14.400,276.976 14.400 C 276.439 14.400,276.000 14.220,276.000 14.000 C 276.000 13.780,275.728 13.600,275.395 13.600 C 275.062 13.600,274.387 13.392,273.895 13.138 C 271.969 12.142,271.583 12.000,270.805 12.000 C 270.362 12.000,270.000 11.859,270.000 11.687 C 270.000 11.515,269.145 11.125,268.100 10.820 C 267.055 10.515,265.930 10.132,265.600 9.970 C 264.462 9.409,260.706 8.400,259.754 8.400 C 259.229 8.400,258.800 8.220,258.800 8.000 C 258.800 7.780,258.170 7.600,257.400 7.600 C 256.630 7.600,256.000 7.420,256.000 7.200 C 256.000 6.980,255.471 6.800,254.824 6.800 C 254.177 6.800,253.536 6.620,253.400 6.400 C 253.264 6.180,252.533 6.000,251.776 6.000 C 251.019 6.000,250.400 5.820,250.400 5.600 C 250.400 5.380,249.680 5.200,248.800 5.200 C 247.920 5.200,247.200 5.020,247.200 4.800 C 247.200 4.580,246.300 4.400,245.200 4.400 C 244.100 4.400,243.200 4.220,243.200 4.000 C 243.200 3.780,242.390 3.600,241.400 3.600 C 240.410 3.600,239.600 3.420,239.600 3.200 C 239.600 2.980,238.700 2.800,237.600 2.800 C 236.500 2.800,235.600 2.620,235.600 2.400 C 235.600 2.178,234.533 2.000,233.200 2.000 C 231.867 2.000,230.800 1.822,230.800 1.600 C 230.800 1.372,229.611 1.200,228.033 1.200 C 226.215 1.200,225.211 1.033,225.104 0.713 C 224.944 0.231,186.917 -0.126,178.402 0.275 M305.143 43.432 C 305.504 43.735,307.184 44.932,308.876 46.092 C 314.367 49.855,321.173 55.377,321.187 56.081 C 321.194 56.474,320.608 57.043,319.805 57.424 C 314.152 60.107,311.739 68.523,313.438 79.630 C 315.793 95.022,307.497 104.153,294.705 100.247 C 287.602 98.078,284.857 93.321,285.330 84.000 C 285.546 79.746,285.811 78.401,287.968 70.600 C 288.818 67.528,293.078 58.062,295.530 53.800 C 297.849 49.768,298.713 48.349,300.155 46.200 C 302.925 42.075,303.285 41.875,305.143 43.432 M144.672 81.354 C 141.971 84.055,141.868 95.403,144.521 97.997 C 146.807 100.231,150.668 99.969,152.589 97.449 C 153.574 96.158,153.600 95.960,153.600 89.615 L 153.600 83.106 152.047 81.553 C 149.849 79.355,146.755 79.271,144.672 81.354 M247.953 81.553 L 246.400 83.106 246.400 89.615 C 246.400 95.960,246.426 96.158,247.411 97.449 C 250.041 100.898,256.122 99.689,256.950 95.552 C 257.278 93.908,257.272 85.661,256.941 84.004 C 256.133 79.963,250.955 78.551,247.953 81.553 M187.200 80.760 C 184.328 81.370,182.042 83.173,180.555 86.000 C 179.655 87.712,179.255 99.786,179.951 104.256 C 182.417 120.102,202.881 126.776,214.220 115.431 C 219.253 110.396,220.137 107.568,220.172 96.400 C 220.206 85.466,219.659 83.934,214.800 81.346 C 213.303 80.549,190.475 80.064,187.200 80.760 M208.993 97.200 C 208.980 105.779,206.146 109.727,200.000 109.727 C 194.127 109.727,191.188 105.987,190.883 98.127 C 190.619 91.315,189.626 91.966,200.090 92.092 L 209.000 92.200 208.993 97.200 M326.233 214.413 C 337.434 216.370,342.868 218.960,349.467 225.488 C 359.199 235.115,370.544 241.734,380.800 243.767 C 383.312 244.265,383.353 244.507,381.843 250.001 C 380.540 254.743,377.969 262.871,377.225 264.600 C 377.036 265.040,376.661 266.030,376.393 266.800 C 376.125 267.570,375.567 268.963,375.153 269.896 C 374.739 270.828,374.400 271.685,374.400 271.800 C 374.400 271.999,373.987 272.953,371.717 278.000 C 369.920 281.993,365.169 291.266,363.571 293.896 C 362.707 295.318,362.000 296.561,362.000 296.657 C 362.000 297.585,347.870 317.422,344.942 320.606 C 344.534 321.050,343.300 322.490,342.200 323.806 C 331.130 337.055,312.679 352.362,295.186 362.808 C 290.721 365.475,290.610 365.481,289.979 363.083 C 289.736 362.157,289.346 360.680,289.113 359.800 C 286.836 351.209,281.184 338.421,277.153 332.738 C 276.739 332.154,276.400 331.555,276.400 331.406 C 276.400 331.151,271.949 324.487,270.919 323.201 C 270.654 322.870,269.304 321.090,267.919 319.244 C 266.534 317.398,265.047 315.418,264.615 314.844 C 263.289 313.080,257.456 305.832,256.907 305.265 C 256.621 304.971,255.896 304.074,255.294 303.271 C 254.692 302.468,253.781 301.331,253.268 300.744 C 252.755 300.157,251.092 297.994,249.572 295.938 C 248.052 293.882,246.616 291.972,246.382 291.693 C 245.739 290.929,242.271 285.155,241.700 283.900 C 240.005 280.171,239.614 278.972,238.441 273.894 C 236.996 267.646,238.316 257.016,241.309 250.800 C 249.363 234.069,269.272 221.424,296.000 216.065 C 298.022 215.660,299.262 215.451,305.600 214.444 C 308.745 213.945,323.426 213.923,326.233 214.413 M32.523 281.573 C 33.445 281.778,35.280 282.136,36.600 282.370 C 53.882 285.424,57.779 287.842,54.705 293.602 C 53.338 296.162,44.539 304.000,43.032 304.000 C 42.816 304.000,38.000 296.972,38.000 296.656 C 38.000 296.560,37.309 295.338,36.464 293.941 C 33.964 289.803,30.400 282.756,30.400 281.949 C 30.400 281.078,30.344 281.088,32.523 281.573 " stroke="none" fill="#040505" fill-rule="evenodd"></path><path id="path2" d="M186.200 12.443 C 178.613 13.011,166.003 14.791,160.800 16.028 C 159.810 16.263,158.190 16.635,157.200 16.853 C 154.741 17.396,150.293 18.533,147.800 19.256 C 145.707 19.863,135.817 23.122,133.972 23.811 C 131.784 24.630,130.983 24.952,129.200 25.728 C 128.430 26.063,126.829 26.719,125.642 27.186 C 120.926 29.039,109.374 34.961,103.800 38.381 C 102.260 39.326,100.427 40.427,99.727 40.828 C 93.621 44.321,93.504 44.508,95.538 47.522 C 113.662 74.371,119.085 98.081,112.778 122.902 C 111.118 129.437,109.590 131.315,105.804 131.477 C 104.702 131.524,103.701 131.571,103.580 131.581 C 103.460 131.592,103.119 132.275,102.824 133.100 C 102.166 134.937,100.931 137.710,98.343 143.161 L 96.367 147.322 97.335 148.361 C 101.062 152.364,97.916 159.923,87.059 173.048 C 80.773 180.647,80.229 181.895,80.876 187.242 C 83.224 206.665,61.588 209.523,55.798 190.555 C 55.470 189.480,55.025 186.635,54.810 184.232 C 54.079 176.059,51.624 172.329,45.600 170.237 C 40.281 168.389,37.490 170.050,35.917 176.000 C 32.205 190.038,31.451 209.784,34.230 220.200 C 34.523 221.300,34.877 222.650,35.015 223.200 C 35.631 225.647,37.840 230.129,39.505 232.310 C 44.887 239.361,54.957 240.536,58.039 234.473 C 62.866 224.978,68.192 221.226,77.322 220.889 C 102.303 219.966,112.602 235.821,102.143 259.100 C 101.625 260.255,100.738 262.220,100.174 263.468 C 96.984 270.522,96.386 274.919,98.365 276.767 C 100.122 278.409,107.528 279.604,115.923 279.601 C 119.124 279.600,123.432 279.970,130.200 280.826 C 158.212 284.371,174.172 295.520,177.165 313.633 C 178.496 321.686,175.824 343.749,171.138 363.400 C 170.928 364.280,170.600 365.720,170.408 366.600 C 170.217 367.480,169.867 368.875,169.630 369.700 C 168.987 371.942,168.539 373.544,167.825 376.157 C 167.470 377.454,166.737 379.871,166.196 381.529 C 165.014 385.146,164.437 384.596,170.409 385.541 C 187.784 388.288,206.900 388.682,222.400 386.612 C 235.049 384.924,243.320 383.241,253.200 380.345 C 253.970 380.119,255.097 379.838,255.705 379.721 C 256.313 379.604,256.908 379.349,257.029 379.154 C 257.149 378.959,257.676 378.800,258.200 378.800 C 258.724 378.800,259.264 378.620,259.400 378.400 C 259.536 378.180,260.076 378.000,260.600 378.000 C 261.124 378.000,261.664 377.820,261.800 377.600 C 261.936 377.380,262.399 377.200,262.829 377.200 C 263.259 377.200,263.923 377.041,264.305 376.847 C 264.687 376.652,265.540 376.271,266.200 376.000 C 266.860 375.729,267.713 375.348,268.095 375.153 C 268.477 374.959,268.974 374.800,269.199 374.800 C 269.424 374.800,270.462 374.419,271.504 373.953 C 272.547 373.488,273.985 372.858,274.700 372.553 C 279.401 370.552,279.772 370.269,279.172 369.148 C 278.967 368.765,278.800 367.959,278.800 367.355 C 278.800 366.751,278.632 365.704,278.427 365.028 C 278.222 364.353,277.844 362.990,277.588 362.000 C 277.332 361.010,276.960 359.887,276.761 359.505 C 276.562 359.123,276.400 358.536,276.400 358.200 C 276.400 357.864,276.241 357.277,276.047 356.895 C 275.713 356.240,275.438 355.574,274.520 353.200 C 273.126 349.595,267.369 338.793,264.754 334.876 C 259.916 327.627,259.108 326.557,247.795 312.410 C 236.725 298.565,234.140 294.873,231.258 288.785 C 229.059 284.139,228.220 281.509,226.799 274.800 C 226.248 272.201,226.478 259.944,227.129 257.200 C 227.364 256.210,227.721 254.680,227.923 253.800 C 231.167 239.635,246.028 223.262,263.200 214.935 C 269.041 212.103,269.048 212.099,272.600 210.800 C 273.920 210.317,275.360 209.778,275.800 209.602 C 276.598 209.283,283.747 207.107,286.400 206.376 C 314.406 198.656,341.748 202.074,355.400 215.001 C 356.500 216.043,358.570 218.000,360.000 219.351 C 361.430 220.702,363.320 222.345,364.200 223.001 C 365.080 223.658,365.890 224.305,366.000 224.440 C 366.623 225.202,373.420 228.904,376.400 230.104 C 380.249 231.655,384.521 232.839,384.899 232.461 C 385.083 232.277,385.515 230.319,385.860 228.111 L 386.486 224.095 384.572 221.747 C 380.910 217.257,378.247 212.456,374.284 203.200 C 369.232 191.400,363.200 179.592,359.086 173.447 C 351.955 162.794,345.064 160.433,336.293 165.638 C 334.104 166.936,326.002 173.026,325.200 173.974 C 325.090 174.105,324.010 175.016,322.800 176.000 C 321.590 176.984,320.510 177.891,320.400 178.016 C 317.528 181.274,305.735 188.728,298.600 191.794 C 297.720 192.172,296.640 192.637,296.200 192.827 C 284.708 197.790,270.112 196.043,261.123 188.628 C 243.860 174.390,245.739 144.699,264.687 132.291 C 266.275 131.251,267.672 130.400,267.791 130.400 C 267.911 130.400,268.862 130.022,269.904 129.560 C 272.600 128.366,273.178 128.152,275.200 127.599 C 276.190 127.329,277.450 126.963,278.000 126.787 C 281.259 125.743,290.444 124.657,301.400 124.022 C 315.738 123.190,316.558 123.106,318.325 122.287 C 320.824 121.130,324.802 116.282,326.433 112.406 C 326.663 111.859,327.095 110.869,327.393 110.206 C 334.008 95.464,333.296 72.305,326.109 68.458 C 324.295 67.488,324.035 71.306,325.224 81.431 C 327.973 104.837,307.946 119.572,286.966 109.581 C 280.627 106.562,276.674 101.682,274.346 94.000 C 273.513 91.255,273.642 79.844,274.549 76.000 C 274.938 74.350,275.400 72.370,275.576 71.600 C 276.026 69.626,278.701 61.820,279.677 59.632 C 282.924 52.350,285.553 47.484,289.653 41.167 C 291.164 38.838,292.400 36.767,292.400 36.563 C 292.400 35.568,276.691 27.944,267.400 24.430 C 266.080 23.931,264.640 23.369,264.200 23.182 C 263.523 22.895,259.228 21.476,254.600 20.011 C 247.084 17.632,234.677 14.964,224.800 13.603 C 214.095 12.128,197.181 11.619,186.200 12.443 M150.101 79.621 C 153.645 80.606,154.534 82.947,154.337 90.779 C 154.128 99.039,150.247 102.498,144.999 99.100 C 139.891 95.793,141.222 80.312,146.685 79.488 C 147.298 79.395,147.980 79.294,148.200 79.262 C 148.420 79.230,149.275 79.392,150.101 79.621 M255.251 80.441 C 257.828 82.264,259.033 92.950,257.096 96.800 C 255.101 100.765,249.336 101.158,246.732 97.506 C 244.903 94.942,245.219 83.484,247.181 81.222 C 248.932 79.203,252.951 78.814,255.251 80.441 M211.827 80.022 C 216.901 80.924,219.713 83.555,220.783 88.400 C 221.628 92.225,221.143 103.988,220.016 107.000 C 212.113 128.133,183.229 126.032,179.352 104.042 C 177.321 92.521,179.466 83.402,184.800 80.888 C 187.388 79.668,206.408 79.059,211.827 80.022 M31.500 283.500 C 31.878 284.325,32.574 285.720,33.047 286.600 C 33.520 287.480,34.563 289.439,35.364 290.953 C 36.165 292.467,37.176 294.205,37.610 294.815 C 38.045 295.425,38.400 296.025,38.400 296.149 C 38.400 296.274,39.300 297.754,40.400 299.439 C 41.500 301.124,42.400 302.660,42.400 302.851 C 42.400 305.092,52.626 296.664,54.431 292.937 C 56.109 289.469,53.366 286.457,47.200 284.998 C 45.133 284.509,43.729 284.227,38.100 283.167 C 36.835 282.929,35.045 282.569,34.123 282.367 C 30.931 281.668,30.706 281.766,31.500 283.500 M66.251 341.917 C 66.142 342.095,66.400 342.457,66.826 342.723 C 67.735 343.291,67.845 342.988,67.026 342.168 C 66.710 341.852,66.361 341.739,66.251 341.917 " stroke="none" fill="#6abae2" fill-rule="evenodd"></path><path id="path3" d="M186.352 11.781 C 186.224 11.910,184.067 12.197,181.559 12.419 C 168.835 13.546,154.933 16.285,144.000 19.818 C 142.350 20.351,140.370 20.983,139.600 21.222 C 138.209 21.654,134.622 22.948,132.900 23.639 C 131.821 24.072,130.329 24.669,129.100 25.159 C 119.695 28.913,98.360 40.140,97.667 41.700 C 97.593 41.865,97.323 42.000,97.067 42.000 C 96.810 42.001,96.077 42.451,95.438 43.000 C 94.799 43.550,94.124 44.000,93.938 44.000 C 93.085 44.000,93.772 45.891,95.622 48.633 C 100.321 55.596,106.245 66.670,108.764 73.200 C 109.486 75.070,110.218 76.960,110.390 77.400 C 110.767 78.358,112.176 83.160,112.739 85.400 C 113.234 87.374,113.805 90.489,114.370 94.307 C 114.922 98.040,114.926 108.925,114.375 112.354 C 113.751 116.244,113.193 119.192,112.737 121.000 C 112.515 121.880,112.151 123.320,111.928 124.200 C 111.705 125.080,111.360 126.113,111.161 126.495 C 110.962 126.877,110.800 127.428,110.800 127.720 C 110.800 129.271,106.811 131.452,104.698 131.056 C 103.632 130.857,103.534 130.892,104.147 131.253 C 107.537 133.247,111.001 129.894,112.778 122.902 C 119.085 98.081,113.662 74.371,95.538 47.522 C 93.504 44.508,93.621 44.321,99.727 40.828 C 100.427 40.427,102.260 39.326,103.800 38.381 C 109.374 34.961,120.926 29.039,125.642 27.186 C 126.829 26.719,128.430 26.063,129.200 25.728 C 132.452 24.312,134.752 23.474,140.972 21.437 C 148.161 19.083,151.777 18.061,157.300 16.825 C 158.345 16.591,159.965 16.220,160.900 16.000 C 185.375 10.243,219.633 10.875,245.600 17.564 C 249.911 18.675,253.219 19.574,254.600 20.011 C 259.228 21.476,263.523 22.895,264.200 23.182 C 264.640 23.369,266.080 23.931,267.400 24.430 C 276.691 27.944,292.400 35.568,292.400 36.563 C 292.400 36.767,291.164 38.838,289.653 41.167 C 285.553 47.484,282.924 52.350,279.677 59.632 C 278.701 61.820,276.026 69.626,275.576 71.600 C 275.400 72.370,274.938 74.350,274.549 76.000 C 273.642 79.844,273.513 91.255,274.346 94.000 C 276.674 101.682,280.627 106.562,286.966 109.581 C 307.946 119.572,327.973 104.837,325.224 81.431 C 324.035 71.306,324.295 67.488,326.109 68.458 C 333.296 72.305,334.008 95.464,327.393 110.206 C 327.095 110.869,326.663 111.859,326.433 112.406 C 324.802 116.282,320.824 121.130,318.325 122.287 C 316.558 123.106,315.738 123.190,301.400 124.022 C 290.444 124.657,281.259 125.743,278.000 126.787 C 277.450 126.963,276.190 127.329,275.200 127.599 C 273.178 128.152,272.600 128.366,269.904 129.560 C 268.862 130.022,267.911 130.400,267.791 130.400 C 267.672 130.400,266.275 131.251,264.687 132.291 C 245.677 144.740,243.874 174.652,261.281 188.777 C 270.255 196.059,284.809 197.746,296.200 192.827 C 296.640 192.637,297.720 192.172,298.600 191.794 C 305.735 188.728,317.528 181.274,320.400 178.016 C 320.510 177.891,321.590 176.984,322.800 176.000 C 324.010 175.016,325.090 174.105,325.200 173.974 C 326.002 173.026,334.104 166.936,336.293 165.638 C 345.064 160.433,351.955 162.794,359.086 173.447 C 363.200 179.592,369.232 191.400,374.284 203.200 C 378.247 212.456,380.910 217.257,384.572 221.747 L 386.486 224.095 385.860 228.111 C 385.515 230.319,385.083 232.277,384.899 232.461 C 384.595 232.765,380.443 231.708,378.000 230.704 C 377.450 230.478,376.640 230.160,376.200 229.997 C 373.801 229.110,366.620 225.197,366.000 224.440 C 365.890 224.305,365.080 223.658,364.200 223.001 C 363.320 222.345,361.430 220.702,360.000 219.351 C 358.570 218.000,356.500 216.043,355.400 215.001 C 341.748 202.074,314.406 198.656,286.400 206.376 C 283.747 207.107,276.598 209.283,275.800 209.602 C 275.360 209.778,273.920 210.317,272.600 210.800 C 251.751 218.427,235.600 233.089,228.978 250.400 C 228.599 251.390,228.124 252.920,227.923 253.800 C 227.721 254.680,227.364 256.210,227.129 257.200 C 226.478 259.944,226.248 272.201,226.799 274.800 C 229.694 288.465,232.112 292.797,247.795 312.410 C 259.108 326.557,259.916 327.627,264.754 334.876 C 267.369 338.793,273.126 349.595,274.520 353.200 C 275.438 355.574,275.713 356.240,276.047 356.895 C 276.241 357.277,276.400 357.864,276.400 358.200 C 276.400 358.536,276.562 359.123,276.761 359.505 C 276.960 359.887,277.332 361.010,277.588 362.000 C 277.844 362.990,278.222 364.353,278.427 365.028 C 278.632 365.704,278.800 366.751,278.800 367.355 C 278.800 367.959,278.967 368.765,279.172 369.148 C 279.774 370.273,279.484 370.495,274.800 372.506 C 274.030 372.837,272.547 373.488,271.504 373.953 C 270.462 374.419,269.424 374.800,269.199 374.800 C 268.974 374.800,268.477 374.959,268.095 375.153 C 267.713 375.348,266.860 375.729,266.200 376.000 C 265.540 376.271,264.687 376.652,264.305 376.847 C 263.923 377.041,263.259 377.200,262.829 377.200 C 262.399 377.200,261.936 377.380,261.800 377.600 C 261.664 377.820,261.124 378.000,260.600 378.000 C 260.076 378.000,259.536 378.180,259.400 378.400 C 259.264 378.620,258.724 378.800,258.200 378.800 C 257.676 378.800,257.149 378.959,257.029 379.154 C 256.908 379.349,256.313 379.604,255.705 379.721 C 255.097 379.838,253.925 380.129,253.100 380.367 C 248.818 381.603,246.041 382.325,241.600 383.356 C 237.230 384.370,229.964 385.603,222.400 386.612 C 206.900 388.682,187.784 388.288,170.409 385.541 C 164.437 384.596,165.014 385.146,166.196 381.529 C 166.737 379.871,167.470 377.454,167.825 376.157 C 168.179 374.861,168.624 373.260,168.812 372.600 C 169.842 368.993,170.091 368.058,170.408 366.600 C 170.600 365.720,170.928 364.280,171.138 363.400 C 177.141 338.226,178.945 317.519,175.914 308.600 C 171.390 295.289,159.771 286.829,140.000 282.452 C 133.669 281.050,121.415 279.599,115.923 279.601 C 107.528 279.604,100.122 278.409,98.365 276.767 C 96.386 274.919,96.984 270.522,100.174 263.468 C 100.738 262.220,101.625 260.255,102.143 259.100 C 111.308 238.700,104.802 224.039,85.322 221.193 C 71.721 219.206,63.853 223.036,58.039 234.473 C 54.957 240.536,44.887 239.361,39.505 232.310 C 37.840 230.129,35.631 225.647,35.015 223.200 C 34.877 222.650,34.523 221.300,34.230 220.200 C 31.451 209.784,32.205 190.038,35.917 176.000 C 37.490 170.050,40.281 168.389,45.600 170.237 C 51.624 172.329,54.079 176.059,54.810 184.232 C 55.025 186.635,55.470 189.480,55.798 190.555 C 61.588 209.523,83.224 206.665,80.876 187.242 C 80.229 181.895,80.773 180.647,87.059 173.048 C 93.142 165.695,99.200 155.724,99.200 153.066 C 99.200 150.510,97.059 146.808,96.122 147.745 C 95.971 147.895,96.243 148.295,96.726 148.633 C 98.956 150.195,99.364 153.199,97.759 156.232 C 97.186 157.314,96.511 158.604,96.259 159.097 C 96.006 159.590,95.665 159.995,95.500 159.997 C 95.335 159.999,95.200 160.188,95.200 160.418 C 95.200 160.648,94.266 162.223,93.126 163.918 C 91.081 166.955,89.628 168.894,84.368 175.600 C 80.226 180.880,80.248 180.812,80.350 187.839 C 80.435 193.685,80.347 194.318,79.050 197.200 C 75.938 204.113,66.310 204.721,60.677 198.359 C 57.305 194.551,55.965 190.846,55.220 183.269 C 54.348 174.391,49.557 169.200,42.237 169.200 C 37.461 169.200,35.775 172.003,33.827 183.181 C 29.259 209.389,33.589 232.250,44.028 237.046 C 47.973 238.859,51.433 239.493,53.717 238.822 C 55.302 238.357,58.000 236.260,58.000 235.494 C 58.000 235.301,58.501 234.392,59.112 233.472 C 59.724 232.552,60.479 231.297,60.790 230.682 C 61.817 228.648,66.370 224.267,68.406 223.354 C 72.101 221.694,72.836 221.534,77.800 221.308 C 89.685 220.767,99.888 225.398,103.651 233.042 C 107.241 240.335,106.301 248.511,100.338 261.854 C 93.653 276.810,95.799 280.000,112.542 280.000 C 123.455 280.000,143.386 283.017,149.400 285.578 C 149.840 285.766,150.830 286.144,151.600 286.418 C 168.119 292.305,178.413 306.337,177.025 321.076 C 176.863 322.794,176.576 326.090,176.386 328.400 C 175.527 338.890,173.519 350.944,170.590 363.200 C 169.601 367.339,167.031 376.819,165.982 380.200 C 164.312 385.583,164.095 385.212,169.400 386.062 C 179.055 387.610,184.104 388.003,197.600 388.256 C 211.109 388.510,216.159 388.202,228.600 386.368 C 239.920 384.700,259.438 379.657,267.000 376.447 C 267.440 376.260,268.250 375.921,268.800 375.693 C 269.350 375.466,270.653 374.902,271.696 374.440 C 272.738 373.978,273.688 373.600,273.807 373.600 C 274.689 373.600,280.000 370.649,280.000 370.159 C 280.000 369.586,279.695 368.109,278.727 364.000 C 278.292 362.154,276.224 355.632,275.619 354.200 C 274.229 350.906,273.715 349.777,272.130 346.534 C 269.191 340.522,263.121 330.875,259.900 327.098 C 259.515 326.647,259.200 326.168,259.200 326.035 C 259.200 325.901,258.792 325.344,258.293 324.796 C 257.794 324.248,256.489 322.615,255.393 321.166 C 253.421 318.560,245.625 308.786,245.210 308.400 C 245.092 308.290,244.504 307.541,243.904 306.735 C 243.303 305.929,242.584 305.024,242.306 304.725 C 240.049 302.296,234.164 293.501,232.240 289.679 C 220.689 266.743,228.054 239.892,250.400 223.467 C 251.830 222.415,253.360 221.258,253.800 220.894 C 257.701 217.668,268.661 212.528,278.347 209.384 C 280.686 208.624,283.153 207.822,283.828 207.601 C 284.504 207.381,285.438 207.200,285.905 207.200 C 286.371 207.200,286.852 207.039,286.974 206.842 C 287.095 206.645,287.871 206.387,288.697 206.268 C 289.524 206.149,291.100 205.852,292.200 205.608 C 304.053 202.975,321.728 201.994,328.932 203.569 C 329.850 203.770,331.680 204.148,333.000 204.409 C 334.320 204.670,335.760 205.020,336.200 205.186 C 336.640 205.353,337.720 205.706,338.600 205.971 C 343.111 207.330,349.604 210.814,353.400 213.914 C 354.060 214.453,356.310 216.544,358.400 218.561 C 360.490 220.578,362.920 222.761,363.800 223.414 C 364.680 224.066,365.635 224.822,365.923 225.094 C 368.711 227.730,380.426 232.750,384.200 232.926 L 385.800 233.000 386.104 230.800 C 387.054 223.929,387.043 223.803,385.306 221.710 C 381.876 217.579,379.045 212.559,375.148 203.700 C 368.991 189.703,363.686 179.306,359.586 173.200 C 354.810 166.088,349.707 162.400,344.641 162.400 C 341.297 162.400,338.070 163.670,333.600 166.747 C 331.396 168.264,324.631 173.658,324.000 174.402 C 323.632 174.837,315.826 181.011,313.617 182.615 C 308.684 186.197,303.428 189.190,298.200 191.393 C 297.320 191.764,296.287 192.232,295.905 192.434 C 295.523 192.635,294.859 192.800,294.429 192.800 C 293.999 192.800,293.549 192.959,293.429 193.154 C 293.308 193.349,292.623 193.625,291.905 193.769 C 291.187 193.913,289.700 194.217,288.600 194.446 C 273.783 197.523,259.337 190.668,253.099 177.600 C 246.224 163.196,250.512 143.726,262.616 134.388 C 270.874 128.016,280.288 125.765,304.400 124.395 C 318.973 123.567,319.369 123.436,323.727 118.029 C 332.961 106.574,335.518 77.352,327.974 69.501 C 324.082 65.451,323.192 68.816,324.722 81.800 C 325.227 86.083,324.720 92.195,323.628 95.000 C 321.550 100.337,317.801 105.523,314.255 107.962 C 310.950 110.236,310.000 110.645,304.954 111.968 C 301.983 112.747,294.885 112.277,292.705 111.157 C 292.323 110.961,291.736 110.800,291.400 110.800 C 291.064 110.800,290.387 110.592,289.895 110.338 C 288.091 109.405,287.602 109.200,287.183 109.200 C 284.392 109.200,277.807 101.824,275.577 96.200 C 273.677 91.407,273.870 79.556,275.967 72.300 C 276.205 71.475,276.559 70.215,276.753 69.500 C 277.190 67.888,278.325 64.471,278.780 63.400 C 278.966 62.960,279.350 61.970,279.632 61.200 C 280.672 58.358,285.170 49.303,287.082 46.200 C 288.167 44.440,289.312 42.559,289.627 42.020 C 289.942 41.482,290.515 40.683,290.900 40.245 C 291.285 39.807,291.600 39.213,291.600 38.925 C 291.600 38.636,291.751 38.400,291.936 38.400 C 292.880 38.400,293.257 36.246,292.422 35.622 C 290.975 34.541,278.033 28.143,274.600 26.812 C 274.160 26.641,272.990 26.136,272.000 25.690 C 271.010 25.245,269.120 24.484,267.800 24.001 C 266.480 23.517,265.040 22.969,264.600 22.782 C 261.803 21.595,251.264 18.393,245.600 17.010 C 241.811 16.084,240.091 15.718,233.400 14.412 C 230.025 13.754,224.618 12.981,219.000 12.354 C 215.003 11.908,186.722 11.412,186.352 11.781 M146.685 79.488 C 141.222 80.312,139.891 95.793,144.999 99.100 C 150.247 102.498,154.128 99.039,154.337 90.779 C 154.548 82.370,152.558 78.634,148.200 79.262 C 147.980 79.294,147.298 79.395,146.685 79.488 M249.483 79.767 C 244.269 81.659,243.752 96.789,248.812 99.406 C 254.326 102.258,257.800 98.545,257.800 89.800 C 257.800 81.084,255.037 77.752,249.483 79.767 M187.800 80.053 C 179.987 81.473,176.912 90.205,179.352 104.042 C 183.229 126.032,212.113 128.133,220.016 107.000 C 221.143 103.988,221.628 92.225,220.783 88.400 C 219.713 83.555,216.901 80.924,211.827 80.022 C 208.976 79.515,190.628 79.539,187.800 80.053 M152.047 81.553 L 153.600 83.106 153.600 89.615 C 153.600 95.960,153.574 96.158,152.589 97.449 C 149.959 100.898,143.878 99.689,143.050 95.552 C 142.722 93.908,142.728 85.661,143.059 84.004 C 143.867 79.963,149.045 78.551,152.047 81.553 M255.328 81.354 C 258.029 84.055,258.132 95.403,255.479 97.997 C 253.193 100.231,249.332 99.969,247.411 97.449 C 246.426 96.158,246.400 95.960,246.400 89.615 L 246.400 83.106 247.953 81.553 C 250.151 79.355,253.245 79.271,255.328 81.354 M214.800 81.346 C 219.659 83.934,220.206 85.466,220.172 96.400 C 220.137 107.568,219.253 110.396,214.220 115.431 C 202.881 126.776,182.417 120.102,179.951 104.256 C 179.255 99.786,179.655 87.712,180.555 86.000 C 182.042 83.173,184.328 81.370,187.200 80.760 C 190.475 80.064,213.303 80.549,214.800 81.346 M190.937 92.619 C 190.409 93.995,191.052 102.960,191.782 104.400 C 194.857 110.469,202.353 111.603,206.696 106.658 C 208.565 104.529,208.985 102.800,208.993 97.200 L 209.000 92.200 200.090 92.092 C 192.262 91.998,191.151 92.062,190.937 92.619 M30.400 281.949 C 30.400 282.756,33.964 289.803,36.464 293.941 C 37.309 295.338,38.000 296.560,38.000 296.656 C 38.000 296.972,42.816 304.000,43.032 304.000 C 44.539 304.000,53.338 296.162,54.705 293.602 C 57.779 287.842,53.882 285.424,36.600 282.370 C 35.280 282.136,33.445 281.778,32.523 281.573 C 30.344 281.088,30.400 281.078,30.400 281.949 M34.123 282.367 C 35.045 282.569,36.835 282.929,38.100 283.167 C 49.681 285.347,50.727 285.658,52.906 287.571 C 55.096 289.494,55.466 290.798,54.431 292.937 C 52.626 296.664,42.400 305.092,42.400 302.851 C 42.400 302.660,41.500 301.124,40.400 299.439 C 39.300 297.754,38.400 296.274,38.400 296.149 C 38.400 296.025,38.045 295.425,37.610 294.815 C 37.176 294.205,36.165 292.467,35.364 290.953 C 34.563 289.439,33.520 287.480,33.047 286.600 C 30.388 281.651,30.412 281.555,34.123 282.367 " stroke="none" fill="#364e59" fill-rule="evenodd"></path><path id="path4" d="M302.350 43.094 C 302.029 43.482,301.041 44.880,300.155 46.200 C 298.713 48.349,297.849 49.768,295.530 53.800 C 293.078 58.062,288.818 67.528,287.968 70.600 C 285.811 78.401,285.546 79.746,285.330 84.000 C 284.857 93.321,287.602 98.078,294.705 100.247 C 307.497 104.153,315.793 95.022,313.438 79.630 C 311.739 68.523,314.152 60.107,319.805 57.424 C 320.608 57.043,321.194 56.474,321.187 56.081 C 321.173 55.377,314.367 49.855,308.876 46.092 C 307.184 44.932,305.504 43.735,305.143 43.432 C 303.988 42.464,302.974 42.341,302.350 43.094 M308.384 46.336 C 313.686 50.134,320.759 55.694,320.783 56.081 C 320.792 56.236,320.165 56.664,319.389 57.032 C 316.443 58.430,313.903 62.244,312.833 66.877 C 312.273 69.304,312.272 78.014,312.832 79.474 C 313.617 81.520,313.417 89.127,312.517 91.438 C 309.807 98.399,303.732 101.997,297.400 100.389 C 291.337 98.851,288.730 97.137,287.129 93.636 C 283.106 84.844,287.839 66.886,298.785 49.400 C 300.162 47.200,301.584 44.906,301.944 44.303 C 302.913 42.682,303.577 42.892,308.384 46.336 M81.316 53.467 C 75.270 58.343,63.171 69.921,58.791 75.020 C 54.924 79.524,53.450 81.312,50.733 84.800 C 49.104 86.890,46.788 90.040,45.586 91.800 C 44.384 93.560,43.085 95.349,42.700 95.775 C 42.315 96.202,42.000 96.787,42.000 97.075 C 42.000 97.364,41.820 97.600,41.600 97.600 C 41.380 97.600,41.200 97.790,41.200 98.022 C 41.200 98.254,40.513 99.469,39.674 100.722 C 35.700 106.653,28.499 120.732,25.159 129.100 C 24.962 129.595,24.638 130.405,24.439 130.900 C 24.240 131.395,23.683 132.880,23.200 134.200 C 22.717 135.520,22.178 136.960,22.003 137.400 C 20.735 140.579,17.291 152.503,16.342 157.000 C 16.109 158.100,15.755 159.720,15.555 160.600 C 15.173 162.277,14.577 165.487,13.960 169.200 C 10.665 189.012,11.000 216.633,14.761 235.200 C 14.962 236.190,15.313 237.990,15.542 239.200 C 16.716 245.417,21.022 260.507,22.847 264.800 C 24.281 268.175,24.601 268.589,26.000 268.872 C 26.770 269.028,28.210 269.346,29.200 269.579 C 31.177 270.044,34.410 270.701,37.200 271.206 C 38.190 271.385,40.080 271.729,41.400 271.971 C 42.720 272.212,44.430 272.505,45.200 272.621 C 50.426 273.411,55.488 275.176,58.800 277.365 C 70.998 285.427,68.850 298.788,53.500 310.345 C 51.355 311.960,49.600 313.400,49.600 313.544 C 49.600 313.792,55.039 320.771,55.567 321.200 C 55.702 321.310,56.325 322.030,56.951 322.800 C 57.577 323.570,59.464 325.705,61.145 327.544 C 65.747 332.580,66.445 334.409,64.799 337.110 C 64.359 337.830,64.000 338.729,64.000 339.106 C 64.000 339.484,64.471 338.908,65.047 337.826 C 66.913 334.322,66.313 332.269,62.139 327.870 C 57.088 322.546,50.400 314.405,50.400 313.580 C 50.400 313.393,51.075 312.748,51.900 312.146 C 55.911 309.218,57.178 308.188,59.356 306.080 C 69.162 296.590,69.783 286.497,61.051 278.516 C 57.035 274.845,53.373 273.584,39.200 270.992 C 25.507 268.487,24.637 268.229,24.048 266.484 C 23.773 265.668,23.389 264.640,23.195 264.200 C 22.864 263.447,21.376 258.955,19.818 254.000 C 11.224 226.677,9.618 187.765,15.981 161.000 C 16.190 160.120,16.576 158.410,16.838 157.200 C 17.100 155.990,17.653 153.740,18.066 152.200 C 20.459 143.272,23.705 133.723,26.699 126.800 C 27.127 125.810,27.903 124.010,28.423 122.800 C 29.424 120.470,34.489 110.430,35.940 107.900 C 36.413 107.075,37.182 105.726,37.648 104.902 C 38.115 104.078,38.984 102.683,39.581 101.802 C 40.177 100.921,40.765 99.930,40.887 99.600 C 41.519 97.889,51.610 84.197,56.511 78.400 C 63.046 70.670,82.199 52.400,83.766 52.400 C 84.133 52.400,89.245 59.976,90.637 62.582 C 90.877 63.032,91.549 64.210,92.129 65.200 C 92.710 66.190,93.888 68.440,94.748 70.200 C 96.133 73.034,96.788 74.476,98.018 77.400 C 103.437 90.276,104.620 105.854,101.177 119.000 C 99.732 124.515,99.575 125.621,100.006 127.224 C 100.407 128.712,103.026 131.508,103.539 130.995 C 103.679 130.855,103.477 130.563,103.091 130.347 C 100.108 128.678,99.672 126.620,101.135 121.104 C 104.870 107.018,104.731 97.379,100.595 83.400 C 99.487 79.656,96.146 71.447,94.531 68.500 C 92.121 64.100,91.592 63.174,90.121 60.772 C 83.887 50.594,84.376 51.000,81.316 53.467 M343.396 86.300 C 343.392 94.619,343.046 97.732,341.274 105.400 C 338.760 116.280,332.606 126.666,326.000 131.177 C 321.721 134.099,318.553 134.759,305.800 135.389 C 278.829 136.721,269.579 139.864,264.142 149.544 C 260.802 155.491,259.869 164.992,262.095 170.400 C 263.101 172.843,263.467 173.534,264.908 175.705 C 267.646 179.833,273.644 183.665,277.200 183.558 C 277.859 183.539,277.545 183.348,276.277 183.000 C 255.757 177.359,256.554 146.659,277.400 139.694 C 283.291 137.726,289.712 136.864,305.000 135.989 C 319.419 135.164,321.362 134.800,325.505 132.150 C 329.442 129.631,332.383 126.442,335.409 121.410 C 337.371 118.146,340.005 112.102,340.817 109.000 C 340.989 108.340,341.389 106.810,341.706 105.600 C 343.520 98.659,344.000 94.637,344.000 86.378 C 344.000 79.312,344.027 79.061,344.686 80.011 C 345.063 80.555,345.708 81.360,346.120 81.800 C 346.531 82.240,348.140 84.296,349.696 86.368 C 354.135 92.280,355.001 93.121,356.957 93.414 C 358.767 93.686,362.000 93.026,362.000 92.385 C 362.000 91.879,361.315 91.890,361.000 92.400 C 360.864 92.620,359.660 92.800,358.324 92.800 C 355.574 92.800,354.233 91.772,351.019 87.200 C 348.007 82.916,344.219 78.426,343.600 78.406 C 343.490 78.402,343.398 81.955,343.396 86.300 M370.363 110.100 C 368.891 111.377,368.400 112.486,368.400 114.534 C 368.400 116.240,368.701 117.030,372.471 125.200 C 372.928 126.190,373.459 127.405,373.651 127.900 C 373.843 128.395,374.180 129.250,374.400 129.800 C 374.620 130.350,374.956 131.205,375.146 131.700 C 375.337 132.195,375.685 133.050,375.920 133.600 C 376.155 134.150,376.576 135.320,376.855 136.200 C 377.135 137.080,377.507 137.971,377.682 138.180 C 377.857 138.389,378.000 138.963,378.000 139.456 C 378.000 139.949,378.180 140.464,378.400 140.600 C 378.620 140.736,378.800 141.276,378.800 141.800 C 378.800 142.324,378.959 142.851,379.154 142.971 C 379.349 143.092,379.604 143.687,379.721 144.295 C 379.838 144.903,380.129 146.075,380.367 146.900 C 382.860 155.537,383.882 160.069,385.364 169.056 C 386.923 178.502,388.003 190.602,387.995 198.508 L 387.990 203.400 387.041 201.400 C 386.519 200.300,385.786 198.710,385.411 197.866 C 381.644 189.380,380.363 186.674,377.287 180.697 C 365.982 158.731,357.372 150.822,344.745 150.805 C 337.353 150.795,330.707 153.826,321.355 161.473 C 319.790 162.753,316.190 165.705,313.355 168.033 C 305.499 174.484,294.741 181.200,292.263 181.200 C 291.924 181.200,291.549 181.359,291.430 181.552 C 291.310 181.746,290.714 182.024,290.106 182.170 C 289.498 182.316,288.280 182.617,287.400 182.839 C 286.520 183.061,284.090 183.399,282.000 183.591 L 278.200 183.939 282.400 183.807 C 289.572 183.581,305.435 176.733,308.800 172.411 C 308.910 172.269,309.377 171.894,309.837 171.577 C 310.298 171.260,311.538 170.280,312.595 169.400 C 313.651 168.520,315.794 166.744,317.357 165.453 C 318.921 164.162,320.650 162.722,321.200 162.253 C 321.750 161.784,323.010 160.771,324.000 160.003 C 324.990 159.235,325.860 158.470,325.933 158.303 C 326.007 158.136,326.300 158.000,326.584 158.000 C 326.869 158.000,327.323 157.734,327.593 157.408 C 328.108 156.788,328.567 156.523,332.800 154.399 C 338.749 151.414,346.595 150.349,350.802 151.956 C 362.118 156.277,367.521 162.564,378.167 183.800 C 380.263 187.980,383.227 194.275,384.755 197.789 C 388.538 206.489,388.529 206.497,388.248 194.547 C 387.957 182.178,387.396 176.588,385.243 164.600 C 383.810 156.622,379.251 140.017,377.225 135.400 C 377.031 134.960,376.392 133.340,375.803 131.800 C 375.214 130.260,374.478 128.415,374.166 127.700 C 373.855 126.985,373.309 125.725,372.952 124.900 C 371.832 122.306,369.592 117.429,369.188 116.705 C 368.151 114.848,368.886 112.255,371.000 110.314 C 372.432 109.000,371.855 108.806,370.363 110.100 M91.136 147.338 C 89.403 148.108,88.617 149.030,86.014 153.345 C 83.773 157.061,80.175 162.191,77.000 166.196 C 76.340 167.028,74.941 168.793,73.891 170.117 C 71.388 173.274,69.247 177.687,69.000 180.200 C 68.817 182.055,68.832 182.098,69.205 180.800 C 71.002 174.548,71.125 174.333,77.662 166.117 C 81.223 161.640,85.771 155.029,87.181 152.281 C 88.703 149.316,91.569 147.166,93.600 147.468 C 93.710 147.484,94.340 147.613,95.000 147.755 C 96.132 147.998,96.156 147.978,95.424 147.406 C 94.516 146.697,92.644 146.668,91.136 147.338 M37.000 158.050 C 27.402 161.332,24.183 167.448,21.130 188.200 C 20.416 193.053,20.411 212.307,21.123 216.400 C 24.791 237.494,32.936 247.801,47.852 250.225 C 57.542 251.799,63.630 248.652,69.311 239.133 C 72.609 233.604,73.310 233.135,78.800 232.779 L 82.600 232.532 79.200 232.483 C 73.340 232.400,72.236 233.091,68.783 238.997 C 62.614 249.548,54.938 252.330,42.596 248.486 C 41.269 248.073,37.116 246.039,36.800 245.648 C 36.690 245.511,35.805 244.783,34.834 244.028 C 22.127 234.157,17.078 204.275,23.577 177.400 C 23.790 176.520,24.076 175.260,24.212 174.600 C 24.349 173.940,24.602 173.040,24.775 172.600 C 24.948 172.160,25.318 171.080,25.598 170.200 C 28.736 160.343,39.673 155.279,49.400 159.181 C 60.111 163.478,66.400 172.291,66.400 183.005 C 66.400 186.769,68.329 191.405,69.435 190.299 C 69.545 190.189,69.363 188.411,69.031 186.349 L 68.428 182.600 68.656 185.900 C 69.112 192.512,67.448 189.003,66.806 182.000 C 65.713 170.072,58.887 161.243,48.472 158.285 C 46.450 157.711,38.470 157.547,37.000 158.050 M305.400 214.464 C 298.074 215.567,299.302 215.709,308.000 214.765 C 327.144 212.685,339.058 216.281,351.290 227.830 C 356.848 233.077,361.489 236.524,366.200 238.905 C 368.676 240.156,369.652 240.603,373.000 242.020 C 373.773 242.348,377.156 243.409,380.731 244.446 C 382.590 244.986,382.707 245.546,381.640 248.800 C 381.269 249.929,380.740 251.755,380.015 254.400 C 379.744 255.390,379.360 256.513,379.161 256.895 C 378.962 257.277,378.800 257.941,378.800 258.371 C 378.800 258.801,378.620 259.264,378.400 259.400 C 378.180 259.536,378.000 260.076,378.000 260.600 C 378.000 261.124,377.820 261.664,377.600 261.800 C 377.380 261.936,377.200 262.399,377.200 262.829 C 377.200 263.259,377.041 263.923,376.847 264.305 C 376.652 264.687,376.292 265.495,376.047 266.100 C 375.801 266.705,375.396 267.695,375.146 268.300 C 374.897 268.905,374.537 269.805,374.346 270.300 C 374.156 270.795,373.834 271.605,373.631 272.100 C 373.428 272.595,372.933 273.810,372.532 274.800 C 371.482 277.385,364.632 291.033,363.196 293.400 C 362.528 294.500,361.863 295.670,361.718 296.000 C 360.470 298.846,349.154 314.704,344.000 320.831 C 340.090 325.479,339.207 326.426,332.817 332.817 C 326.426 339.207,325.479 340.090,320.831 344.000 C 314.275 349.515,298.407 360.800,297.209 360.800 C 296.984 360.800,296.800 360.959,296.800 361.153 C 296.800 361.348,296.485 361.613,296.100 361.742 C 295.370 361.988,293.606 362.980,291.836 364.140 C 290.861 364.778,290.800 364.778,290.800 364.138 C 290.800 363.763,290.632 362.904,290.427 362.228 C 290.222 361.553,289.838 360.190,289.574 359.200 C 289.001 357.055,287.682 352.922,287.213 351.800 C 287.029 351.360,286.467 349.920,285.965 348.600 C 284.042 343.547,277.950 332.291,274.912 328.178 C 274.740 327.946,274.420 327.474,274.200 327.129 C 271.054 322.198,267.173 317.169,249.870 295.600 C 248.731 294.181,244.822 288.475,244.046 287.100 C 243.581 286.275,242.867 285.012,242.459 284.293 C 241.341 282.321,240.049 278.321,238.841 273.094 C 234.445 254.082,250.588 231.906,275.600 222.596 C 276.590 222.227,277.760 221.770,278.200 221.580 C 281.515 220.146,289.192 217.985,295.600 216.683 C 297.910 216.214,299.449 215.758,299.020 215.670 C 297.142 215.286,282.649 219.197,275.600 221.991 C 255.777 229.845,242.427 243.116,238.570 258.800 C 237.908 261.492,237.824 271.229,238.441 273.894 C 239.614 278.972,240.005 280.171,241.700 283.900 C 242.271 285.155,245.739 290.929,246.382 291.693 C 246.616 291.972,248.052 293.882,249.572 295.938 C 251.092 297.994,252.755 300.157,253.268 300.744 C 253.781 301.331,254.692 302.468,255.294 303.271 C 255.896 304.074,256.621 304.971,256.907 305.265 C 257.456 305.832,263.289 313.080,264.615 314.844 C 265.047 315.418,266.534 317.398,267.919 319.244 C 269.304 321.090,270.654 322.870,270.919 323.201 C 271.949 324.487,276.400 331.151,276.400 331.406 C 276.400 331.555,276.739 332.154,277.153 332.738 C 281.184 338.421,286.836 351.209,289.113 359.800 C 289.346 360.680,289.736 362.157,289.979 363.083 C 290.610 365.481,290.721 365.475,295.186 362.808 C 305.964 356.372,316.337 348.821,325.388 340.822 C 328.563 338.015,339.994 326.446,342.200 323.806 C 343.300 322.490,344.534 321.050,344.942 320.606 C 347.870 317.422,362.000 297.585,362.000 296.657 C 362.000 296.561,362.707 295.318,363.571 293.896 C 365.169 291.266,369.920 281.993,371.717 278.000 C 373.987 272.953,374.400 271.999,374.400 271.800 C 374.400 271.685,374.739 270.828,375.153 269.896 C 375.567 268.963,376.125 267.570,376.393 266.800 C 376.661 266.030,377.036 265.040,377.225 264.600 C 377.969 262.871,380.540 254.743,381.843 250.001 C 383.353 244.507,383.312 244.265,380.800 243.767 C 370.544 241.734,359.199 235.115,349.467 225.488 C 342.868 218.960,337.434 216.370,326.233 214.413 C 323.399 213.918,308.788 213.954,305.400 214.464 M85.092 233.427 C 90.207 234.548,92.856 236.376,93.605 239.304 C 93.844 240.237,94.132 241.268,94.244 241.596 C 94.512 242.377,93.696 246.772,92.721 249.800 C 91.870 252.441,91.932 252.290,89.584 257.400 C 87.107 262.791,85.517 267.844,85.366 270.800 L 85.233 273.400 85.781 270.400 C 86.683 265.465,87.372 263.375,89.803 258.200 C 92.076 253.362,92.923 251.280,93.546 249.000 C 94.994 243.703,95.117 242.155,94.308 239.446 C 93.290 236.038,88.044 232.711,83.892 232.840 C 82.933 232.870,83.243 233.021,85.092 233.427 M85.349 276.690 C 85.942 286.115,95.882 291.600,112.369 291.600 C 118.091 291.600,129.377 292.857,136.400 294.277 C 157.972 298.637,166.784 307.429,165.251 323.062 C 165.017 325.448,164.720 328.480,164.591 329.800 C 163.667 339.235,161.553 351.378,159.193 360.800 C 158.945 361.790,158.645 363.187,158.527 363.904 C 158.408 364.621,158.151 365.306,157.956 365.427 C 157.760 365.548,157.600 366.078,157.600 366.605 C 157.600 367.131,157.439 367.976,157.242 368.481 C 157.045 368.987,156.660 370.210,156.388 371.200 C 156.116 372.190,155.576 373.990,155.189 375.200 C 154.801 376.410,154.242 378.269,153.946 379.331 C 153.268 381.759,152.748 382.224,151.300 381.695 C 150.695 381.474,149.390 381.068,148.400 380.792 C 144.343 379.664,143.770 379.487,143.105 379.151 C 142.723 378.958,142.059 378.800,141.629 378.800 C 141.199 378.800,140.736 378.620,140.600 378.400 C 140.464 378.180,139.924 378.000,139.400 378.000 C 138.876 378.000,138.336 377.820,138.200 377.600 C 138.064 377.380,137.601 377.200,137.171 377.200 C 136.741 377.200,136.077 377.041,135.695 376.847 C 134.960 376.473,133.201 375.724,131.700 375.146 C 131.205 374.956,130.395 374.644,129.900 374.454 C 126.907 373.301,125.416 372.628,117.544 368.879 C 114.323 367.345,110.543 365.415,109.144 364.590 C 106.488 363.025,105.015 362.174,102.500 360.752 C 101.675 360.286,98.342 358.081,95.093 355.852 C 85.810 349.485,85.778 349.467,83.806 349.467 C 82.117 349.467,78.382 351.315,78.940 351.874 C 79.058 351.991,79.727 351.679,80.428 351.180 C 82.965 349.373,87.499 350.185,89.600 352.821 C 91.453 355.146,112.984 367.707,121.800 371.605 C 122.900 372.092,124.700 372.888,125.800 373.374 C 126.900 373.860,128.430 374.488,129.200 374.770 C 130.999 375.427,131.877 375.777,133.600 376.529 C 137.733 378.332,151.660 382.505,152.934 382.323 C 153.428 382.252,153.845 381.861,153.917 381.400 C 153.985 380.960,154.192 380.240,154.377 379.800 C 154.756 378.898,155.889 375.314,156.464 373.200 C 156.674 372.430,157.027 371.170,157.249 370.400 C 157.471 369.630,157.809 368.370,158.000 367.600 C 158.191 366.830,158.551 365.480,158.800 364.600 C 159.591 361.808,160.371 358.518,161.218 354.400 C 162.143 349.903,162.331 348.915,162.966 345.200 C 163.323 343.110,163.786 340.410,163.994 339.200 C 165.357 331.272,166.191 319.027,165.616 315.400 C 164.120 305.971,155.146 298.041,142.700 295.149 C 141.875 294.957,140.435 294.609,139.500 294.375 C 133.071 292.767,126.096 291.887,114.400 291.207 C 93.741 290.005,87.897 287.109,85.732 277.000 L 85.218 274.600 85.349 276.690 " stroke="none" fill="#425c3c" fill-rule="evenodd"></path></g></svg>