<svg id="svg" version="1.1" xmlns="http://www.w3.org/2000/svg" xmlns:xlink="http://www.w3.org/1999/xlink" width="400" height="400" viewBox="0, 0, 400,400"><g id="svgg"><path id="path0" d="M184.500 0.272 C 183.785 0.370,183.200 0.619,183.200 0.825 C 183.200 1.031,182.581 1.200,181.824 1.200 C 181.067 1.200,180.336 1.380,180.200 1.600 C 180.064 1.820,179.524 2.000,179.000 2.000 C 178.476 2.000,177.936 2.180,177.800 2.400 C 177.664 2.620,177.113 2.800,176.576 2.800 C 176.039 2.800,175.600 2.980,175.600 3.200 C 175.600 3.420,175.060 3.600,174.400 3.600 C 173.740 3.600,173.200 3.780,173.200 4.000 C 173.200 4.220,172.761 4.400,172.224 4.400 C 171.687 4.400,171.136 4.580,171.000 4.800 C 170.864 5.020,170.403 5.200,169.976 5.200 C 169.549 5.200,169.200 5.380,169.200 5.600 C 169.200 5.820,168.660 6.000,168.000 6.000 C 167.340 6.000,166.800 6.180,166.800 6.400 C 166.800 6.620,166.440 6.800,166.000 6.800 C 165.560 6.800,165.200 6.980,165.200 7.200 C 165.200 7.420,164.761 7.600,164.224 7.600 C 163.687 7.600,163.136 7.780,163.000 8.000 C 162.864 8.220,162.495 8.400,162.179 8.400 C 161.363 8.400,158.400 9.729,158.400 10.094 C 158.400 10.262,158.121 10.400,157.779 10.400 C 157.438 10.400,155.683 11.147,153.879 12.061 C 152.076 12.974,150.196 13.919,149.703 14.161 C 149.210 14.402,148.805 14.735,148.803 14.900 C 148.801 15.065,148.440 15.200,148.000 15.200 C 147.560 15.200,147.200 15.380,147.200 15.600 C 147.200 15.820,146.840 16.000,146.400 16.000 C 145.960 16.000,145.600 16.180,145.600 16.400 C 145.600 16.620,145.330 16.800,145.000 16.800 C 144.670 16.800,144.400 16.980,144.400 17.200 C 144.400 17.420,144.130 17.600,143.800 17.600 C 143.470 17.600,143.200 17.780,143.200 18.000 C 143.200 18.220,142.930 18.400,142.600 18.400 C 142.270 18.400,142.000 18.580,142.000 18.800 C 142.000 19.020,141.680 19.200,141.288 19.200 C 140.897 19.200,140.317 19.560,140.000 20.000 C 139.683 20.440,139.143 20.800,138.800 20.800 C 138.457 20.800,137.917 21.160,137.600 21.600 C 137.283 22.040,136.743 22.400,136.400 22.400 C 136.057 22.400,135.517 22.760,135.200 23.200 C 134.883 23.640,134.303 24.000,133.912 24.000 C 133.520 24.000,133.200 24.159,133.200 24.354 C 133.200 24.549,132.615 24.987,131.900 25.328 C 131.185 25.669,130.203 26.319,129.717 26.774 C 129.231 27.228,128.680 27.600,128.492 27.600 C 128.304 27.600,127.632 28.140,127.000 28.800 C 126.368 29.460,125.690 30.000,125.494 30.000 C 125.298 30.000,124.446 30.720,123.600 31.600 C 122.754 32.480,121.859 33.200,121.609 33.200 C 121.360 33.200,120.131 34.239,118.878 35.510 C 117.625 36.780,115.970 38.258,115.200 38.794 C 113.442 40.017,103.600 49.901,103.600 50.443 C 103.600 50.664,102.520 51.904,101.200 53.200 C 99.880 54.496,98.800 55.760,98.800 56.009 C 98.800 56.259,98.080 57.154,97.200 58.000 C 96.320 58.846,95.600 59.731,95.600 59.969 C 95.600 60.206,95.465 60.400,95.300 60.401 C 95.135 60.401,94.280 61.481,93.400 62.800 C 92.520 64.119,91.665 65.199,91.500 65.199 C 91.335 65.200,91.200 65.520,91.200 65.912 C 91.200 66.303,90.840 66.883,90.400 67.200 C 89.960 67.517,89.600 68.057,89.600 68.400 C 89.600 68.743,89.240 69.283,88.800 69.600 C 88.360 69.917,88.000 70.457,88.000 70.800 C 88.000 71.143,87.640 71.683,87.200 72.000 C 86.760 72.317,86.400 72.814,86.400 73.105 C 86.400 73.396,86.040 74.020,85.600 74.492 C 85.160 74.964,84.576 75.856,84.303 76.475 C 84.029 77.094,83.669 77.600,83.502 77.600 C 83.336 77.600,83.200 77.836,83.200 78.125 C 83.200 78.413,82.840 79.036,82.400 79.508 C 81.960 79.980,81.600 80.644,81.600 80.983 C 81.600 81.322,81.420 81.600,81.200 81.600 C 80.980 81.600,80.800 81.960,80.800 82.400 C 80.800 82.840,80.620 83.200,80.400 83.200 C 80.180 83.200,80.000 83.545,80.000 83.967 C 80.000 84.388,79.850 84.793,79.667 84.867 C 79.202 85.053,74.800 94.184,74.800 94.962 C 74.800 95.313,74.620 95.600,74.400 95.600 C 74.180 95.600,74.000 95.949,74.000 96.376 C 74.000 96.803,73.820 97.264,73.600 97.400 C 73.380 97.536,73.200 98.087,73.200 98.624 C 73.200 99.161,73.020 99.600,72.800 99.600 C 72.580 99.600,72.400 99.960,72.400 100.400 C 72.400 100.840,72.220 101.200,72.000 101.200 C 71.780 101.200,71.600 101.740,71.600 102.400 C 71.600 103.060,71.420 103.600,71.200 103.600 C 70.980 103.600,70.800 103.960,70.800 104.400 C 70.800 104.840,70.620 105.200,70.400 105.200 C 70.180 105.200,70.000 105.740,70.000 106.400 C 70.000 107.060,69.820 107.600,69.600 107.600 C 69.380 107.600,69.200 108.039,69.200 108.576 C 69.200 109.113,69.020 109.664,68.800 109.800 C 68.580 109.936,68.400 110.487,68.400 111.024 C 68.400 111.561,68.220 112.000,68.000 112.000 C 67.780 112.000,67.600 112.540,67.600 113.200 C 67.600 113.860,67.420 114.400,67.200 114.400 C 66.980 114.400,66.800 115.019,66.800 115.776 C 66.800 116.533,66.620 117.264,66.400 117.400 C 66.180 117.536,66.000 118.177,66.000 118.824 C 66.000 119.471,65.820 120.000,65.600 120.000 C 65.380 120.000,65.200 120.720,65.200 121.600 C 65.200 122.480,65.020 123.200,64.800 123.200 C 64.580 123.200,64.400 123.920,64.400 124.800 C 64.400 125.680,64.220 126.400,64.000 126.400 C 63.780 126.400,63.600 127.210,63.600 128.200 C 63.600 129.190,63.420 130.000,63.200 130.000 C 62.980 130.000,62.800 130.900,62.800 132.000 C 62.800 133.100,62.620 134.000,62.400 134.000 C 62.178 134.000,62.000 135.067,62.000 136.400 C 62.000 137.733,61.822 138.800,61.600 138.800 C 61.373 138.800,61.200 139.973,61.200 141.520 C 61.200 143.016,61.032 144.411,60.826 144.620 C 59.915 145.545,59.561 173.818,60.362 181.600 C 60.600 183.910,60.900 187.105,61.030 188.700 C 61.160 190.295,61.431 191.600,61.633 191.600 C 61.835 191.600,62.000 192.680,62.000 194.000 C 62.000 195.333,62.178 196.400,62.400 196.400 C 62.620 196.400,62.800 197.300,62.800 198.400 C 62.800 199.500,62.980 200.400,63.200 200.400 C 63.420 200.400,63.600 201.210,63.600 202.200 C 63.600 203.190,63.780 204.000,64.000 204.000 C 64.220 204.000,64.400 204.720,64.400 205.600 C 64.400 206.480,64.580 207.200,64.800 207.200 C 65.020 207.200,65.200 207.819,65.200 208.576 C 65.200 209.333,65.380 210.064,65.600 210.200 C 65.820 210.336,66.000 210.977,66.000 211.624 C 66.000 212.271,66.180 212.800,66.400 212.800 C 66.620 212.800,66.800 213.329,66.800 213.976 C 66.800 214.623,66.980 215.264,67.200 215.400 C 67.420 215.536,67.600 216.166,67.600 216.800 C 67.600 217.434,67.780 218.064,68.000 218.200 C 68.220 218.336,68.400 218.799,68.400 219.229 C 68.400 219.659,68.580 220.368,68.800 220.805 C 69.020 221.242,69.380 221.958,69.600 222.395 C 69.820 222.832,70.000 223.462,70.000 223.795 C 70.000 224.128,70.180 224.400,70.400 224.400 C 70.620 224.400,70.800 224.940,70.800 225.600 C 70.800 226.260,70.980 226.800,71.200 226.800 C 71.420 226.800,71.600 227.160,71.600 227.600 C 71.600 228.040,71.780 228.400,72.000 228.400 C 72.220 228.400,72.400 228.940,72.400 229.600 C 72.400 230.260,72.580 230.800,72.800 230.800 C 73.020 230.800,73.200 231.160,73.200 231.600 C 73.200 232.040,73.380 232.400,73.600 232.400 C 73.820 232.400,74.000 232.850,74.000 233.400 C 74.000 233.950,74.180 234.400,74.400 234.400 C 74.620 234.400,74.800 234.593,74.800 234.829 C 74.800 235.400,73.775 236.400,73.189 236.400 C 72.932 236.400,72.217 236.940,71.600 237.600 C 70.983 238.260,70.318 238.800,70.121 238.800 C 69.223 238.800,59.704 248.089,58.791 249.856 C 58.466 250.485,57.705 251.477,57.100 252.060 C 56.495 252.644,56.000 253.343,56.000 253.614 C 56.000 253.884,55.684 254.397,55.297 254.753 C 54.911 255.109,54.340 255.895,54.030 256.500 C 53.719 257.105,53.315 257.600,53.132 257.600 C 52.950 257.600,52.800 257.836,52.800 258.125 C 52.800 258.413,52.475 258.998,52.078 259.425 C 51.680 259.851,51.097 260.785,50.780 261.500 C 50.464 262.215,50.069 262.800,49.902 262.800 C 49.736 262.800,49.600 263.160,49.600 263.600 C 49.600 264.040,49.420 264.400,49.200 264.400 C 48.980 264.400,48.800 264.760,48.800 265.200 C 48.800 265.640,48.620 266.000,48.400 266.000 C 48.180 266.000,48.000 266.349,48.000 266.776 C 48.000 267.203,47.820 267.664,47.600 267.800 C 47.380 267.936,47.200 268.487,47.200 269.024 C 47.200 269.561,47.020 270.000,46.800 270.000 C 46.580 270.000,46.400 270.349,46.400 270.776 C 46.400 271.203,46.220 271.664,46.000 271.800 C 45.780 271.936,45.600 272.487,45.600 273.024 C 45.600 273.561,45.420 274.000,45.200 274.000 C 44.980 274.000,44.800 274.529,44.800 275.176 C 44.800 275.823,44.620 276.464,44.400 276.600 C 44.180 276.736,44.000 277.341,44.000 277.944 C 44.000 278.547,43.838 279.211,43.641 279.420 C 43.263 279.821,43.167 280.367,42.245 287.400 C 41.928 289.820,41.653 291.837,41.634 291.882 C 41.615 291.927,40.925 292.081,40.100 292.223 C 38.092 292.571,33.434 294.122,33.267 294.499 C 33.193 294.665,32.876 294.800,32.561 294.800 C 32.247 294.800,31.677 294.960,31.295 295.156 C 30.913 295.352,29.745 295.920,28.700 296.419 C 27.655 296.918,26.800 297.477,26.800 297.663 C 26.800 297.848,26.530 298.000,26.200 298.000 C 25.870 298.000,25.600 298.180,25.600 298.400 C 25.600 298.620,25.280 298.800,24.888 298.800 C 24.497 298.800,23.917 299.160,23.600 299.600 C 23.283 300.040,22.779 300.400,22.480 300.400 C 22.182 300.400,21.246 301.120,20.400 302.000 C 19.554 302.880,18.660 303.600,18.412 303.600 C 17.152 303.600,9.898 312.054,8.029 315.700 C 7.719 316.305,7.315 316.800,7.132 316.800 C 6.950 316.800,6.800 317.160,6.800 317.600 C 6.800 318.040,6.620 318.400,6.400 318.400 C 6.180 318.400,6.000 318.760,6.000 319.200 C 6.000 319.640,5.820 320.000,5.600 320.000 C 5.380 320.000,5.200 320.360,5.200 320.800 C 5.200 321.240,5.020 321.600,4.800 321.600 C 4.580 321.600,4.400 321.960,4.400 322.400 C 4.400 322.840,4.220 323.200,4.000 323.200 C 3.780 323.200,3.600 323.560,3.600 324.000 C 3.600 324.440,3.420 324.800,3.200 324.800 C 2.980 324.800,2.800 325.250,2.800 325.800 C 2.800 326.350,2.620 326.800,2.400 326.800 C 2.180 326.800,2.000 327.340,2.000 328.000 C 2.000 328.660,1.820 329.200,1.600 329.200 C 1.380 329.200,1.200 329.905,1.200 330.767 C 1.200 331.664,0.987 332.405,0.700 332.500 C -0.028 332.743,-0.028 358.458,0.700 358.700 C 0.987 358.796,1.200 359.536,1.200 360.433 C 1.200 361.295,1.380 362.000,1.600 362.000 C 1.820 362.000,2.000 362.540,2.000 363.200 C 2.000 363.860,2.180 364.400,2.400 364.400 C 2.620 364.400,2.800 364.850,2.800 365.400 C 2.800 365.950,2.980 366.400,3.200 366.400 C 3.420 366.400,3.600 366.850,3.600 367.400 C 3.600 367.950,3.780 368.400,4.000 368.400 C 4.220 368.400,4.400 368.760,4.400 369.200 C 4.400 369.640,4.580 370.000,4.800 370.000 C 5.020 370.000,5.200 370.360,5.200 370.800 C 5.200 371.240,5.380 371.600,5.600 371.600 C 5.820 371.600,6.000 371.960,6.000 372.400 C 6.000 372.840,6.180 373.200,6.400 373.200 C 6.620 373.200,6.800 373.430,6.800 373.712 C 6.800 373.993,7.160 374.483,7.600 374.800 C 8.040 375.117,8.400 375.609,8.400 375.892 C 8.400 378.227,21.773 391.600,24.108 391.600 C 24.391 391.600,24.883 391.960,25.200 392.400 C 25.517 392.840,26.007 393.200,26.288 393.200 C 26.570 393.200,26.800 393.380,26.800 393.600 C 26.800 393.820,27.160 394.000,27.600 394.000 C 28.040 394.000,28.400 394.180,28.400 394.400 C 28.400 394.620,28.760 394.800,29.200 394.800 C 29.640 394.800,30.000 394.980,30.000 395.200 C 30.000 395.420,30.360 395.600,30.800 395.600 C 31.240 395.600,31.600 395.780,31.600 396.000 C 31.600 396.220,32.050 396.400,32.600 396.400 C 33.150 396.400,33.600 396.580,33.600 396.800 C 33.600 397.020,34.050 397.200,34.600 397.200 C 35.150 397.200,35.600 397.380,35.600 397.600 C 35.600 397.820,36.140 398.000,36.800 398.000 C 37.460 398.000,38.000 398.180,38.000 398.400 C 38.000 398.620,38.705 398.800,39.567 398.800 C 40.465 398.800,41.204 399.013,41.300 399.300 C 41.431 399.692,47.807 399.826,70.960 399.921 L 100.453 400.043 102.026 398.372 C 103.553 396.751,104.295 394.000,103.205 394.000 C 102.988 394.000,102.531 393.332,102.190 392.515 C 100.408 388.250,101.674 388.434,73.000 388.268 C 49.277 388.131,46.984 388.026,42.800 386.885 C 34.054 384.499,24.877 377.996,19.535 370.400 C 1.438 344.663,15.797 309.281,46.742 303.360 C 52.530 302.253,53.321 301.168,53.995 293.400 C 54.243 290.540,54.627 287.390,54.848 286.400 C 56.521 278.900,57.182 276.937,60.034 271.000 C 74.925 240.001,111.156 226.259,142.673 239.657 C 144.833 240.575,147.078 241.658,147.662 242.063 C 148.246 242.468,148.834 242.800,148.970 242.800 C 149.105 242.800,149.977 243.290,150.908 243.890 C 151.839 244.489,152.968 245.179,153.418 245.424 C 154.324 245.915,154.315 245.908,159.400 250.098 C 161.380 251.730,163.630 253.782,164.400 254.658 C 167.098 257.729,167.822 258.611,168.788 260.000 C 169.323 260.770,169.886 261.490,170.039 261.600 C 171.111 262.373,175.903 271.286,177.387 275.267 C 178.667 278.699,181.246 280.400,185.169 280.400 C 186.730 280.400,187.682 280.567,192.400 281.670 C 211.222 286.070,227.068 301.964,231.784 321.170 C 238.743 349.516,222.453 377.899,194.400 386.306 C 193.035 386.715,191.214 387.120,186.869 387.979 C 185.483 388.253,173.380 388.400,152.218 388.400 C 114.719 388.400,115.847 388.264,114.922 392.889 C 114.800 393.500,114.453 394.000,114.150 394.000 C 113.806 394.000,113.600 394.448,113.600 395.200 C 113.600 395.860,113.780 396.400,114.000 396.400 C 114.220 396.400,114.400 396.688,114.400 397.040 C 114.400 397.391,114.968 398.210,115.662 398.858 L 116.924 400.037 155.329 399.919 C 185.612 399.825,193.769 399.694,193.900 399.300 C 193.996 399.013,194.736 398.800,195.633 398.800 C 196.495 398.800,197.200 398.620,197.200 398.400 C 197.200 398.180,197.740 398.000,198.400 398.000 C 199.060 398.000,199.600 397.820,199.600 397.600 C 199.600 397.380,200.140 397.200,200.800 397.200 C 201.460 397.200,202.000 397.020,202.000 396.800 C 202.000 396.580,202.540 396.400,203.200 396.400 C 203.860 396.400,204.400 396.220,204.400 396.000 C 204.400 395.780,204.760 395.600,205.200 395.600 C 205.640 395.600,206.000 395.420,206.000 395.200 C 206.000 394.980,206.349 394.800,206.776 394.800 C 207.203 394.800,207.664 394.620,207.800 394.400 C 207.936 394.180,208.397 394.000,208.824 394.000 C 209.251 394.000,209.600 393.820,209.600 393.600 C 209.600 393.380,209.836 393.200,210.125 393.200 C 210.413 393.200,211.036 392.840,211.508 392.400 C 211.980 391.960,212.563 391.600,212.803 391.600 C 213.402 391.600,215.639 390.418,216.309 389.748 C 216.610 389.447,217.016 389.200,217.210 389.200 C 217.405 389.200,218.014 388.750,218.564 388.200 C 219.114 387.650,219.728 387.200,219.928 387.200 C 220.262 387.200,222.239 385.440,226.700 381.171 C 227.635 380.276,228.400 379.365,228.400 379.146 C 228.400 378.927,229.300 377.871,230.400 376.800 C 231.500 375.729,232.400 374.660,232.400 374.426 C 232.400 374.192,232.538 374.000,232.706 374.000 C 232.874 374.000,233.456 373.280,234.000 372.400 C 234.544 371.520,235.126 370.800,235.294 370.800 C 235.462 370.800,235.600 370.522,235.600 370.183 C 235.600 369.844,235.960 369.180,236.400 368.708 C 236.840 368.236,237.200 367.613,237.200 367.325 C 237.200 367.036,237.380 366.800,237.600 366.800 C 237.820 366.800,238.000 366.440,238.000 366.000 C 238.000 365.560,238.180 365.200,238.400 365.200 C 238.620 365.200,238.800 364.840,238.800 364.400 C 238.800 363.960,238.980 363.600,239.200 363.600 C 239.420 363.600,239.600 363.364,239.600 363.075 C 239.600 362.786,239.944 361.838,240.364 360.968 C 240.785 360.098,241.255 358.712,241.410 357.888 C 241.564 357.065,241.850 356.293,242.045 356.172 C 242.240 356.051,242.400 355.423,242.400 354.776 C 242.400 354.129,242.580 353.600,242.800 353.600 C 243.020 353.600,243.200 353.060,243.200 352.400 C 243.200 351.740,243.380 351.200,243.600 351.200 C 243.820 351.200,244.000 350.300,244.000 349.200 C 244.000 348.100,244.180 347.200,244.400 347.200 C 244.622 347.200,244.800 346.133,244.800 344.800 C 244.800 343.467,244.978 342.400,245.200 342.400 C 245.435 342.400,245.600 341.000,245.600 339.000 L 245.600 335.600 246.800 335.600 C 247.460 335.600,248.000 335.420,248.000 335.200 C 248.000 334.967,249.333 334.800,251.200 334.800 C 253.067 334.800,254.400 334.633,254.400 334.400 C 254.400 334.174,255.533 334.000,257.000 334.000 C 258.467 334.000,259.600 333.826,259.600 333.600 C 259.600 333.380,260.500 333.200,261.600 333.200 C 262.700 333.200,263.600 333.020,263.600 332.800 C 263.600 332.580,264.500 332.400,265.600 332.400 C 266.700 332.400,267.600 332.220,267.600 332.000 C 267.600 331.780,268.309 331.600,269.176 331.600 C 270.043 331.600,270.864 331.420,271.000 331.200 C 271.136 330.980,271.957 330.800,272.824 330.800 C 273.691 330.800,274.400 330.620,274.400 330.400 C 274.400 330.180,274.940 330.000,275.600 330.000 C 276.260 330.000,276.800 329.820,276.800 329.600 C 276.800 329.380,277.520 329.200,278.400 329.200 C 279.280 329.200,280.000 329.020,280.000 328.800 C 280.000 328.580,280.540 328.400,281.200 328.400 C 281.860 328.400,282.400 328.220,282.400 328.000 C 282.400 327.780,282.940 327.600,283.600 327.600 C 284.260 327.600,284.800 327.420,284.800 327.200 C 284.800 326.980,285.340 326.800,286.000 326.800 C 286.660 326.800,287.200 326.620,287.200 326.400 C 287.200 326.180,287.562 326.000,288.005 326.000 C 288.448 326.000,289.123 325.832,289.505 325.626 C 289.887 325.420,291.640 324.769,293.400 324.179 C 295.160 323.590,296.771 322.948,296.980 322.754 C 297.189 322.559,297.684 322.400,298.080 322.400 C 298.476 322.400,298.800 322.220,298.800 322.000 C 298.800 321.780,299.072 321.600,299.405 321.600 C 299.738 321.600,300.323 321.439,300.705 321.242 C 301.087 321.045,302.660 320.281,304.200 319.544 C 305.740 318.807,307.060 318.068,307.133 317.902 C 307.207 317.736,307.612 317.600,308.033 317.600 C 308.455 317.600,308.800 317.420,308.800 317.200 C 308.800 316.980,309.160 316.800,309.600 316.800 C 310.040 316.800,310.400 316.620,310.400 316.400 C 310.400 316.180,310.760 316.000,311.200 316.000 C 311.640 316.000,312.000 315.820,312.000 315.600 C 312.000 315.380,312.236 315.200,312.525 315.200 C 312.813 315.200,313.436 314.840,313.908 314.400 C 314.380 313.960,315.044 313.600,315.383 313.600 C 315.722 313.600,316.000 313.420,316.000 313.200 C 316.000 312.980,316.278 312.800,316.617 312.800 C 316.956 312.800,317.620 312.440,318.092 312.000 C 318.564 311.560,319.187 311.200,319.475 311.200 C 319.764 311.200,320.000 311.020,320.000 310.800 C 320.000 310.580,320.236 310.400,320.525 310.400 C 320.813 310.400,321.398 310.085,321.825 309.700 C 322.251 309.315,323.287 308.640,324.127 308.200 C 324.967 307.760,325.957 307.130,326.327 306.800 C 326.697 306.470,327.495 305.945,328.100 305.632 C 328.705 305.320,329.200 304.915,329.200 304.732 C 329.200 304.550,329.443 304.400,329.741 304.400 C 330.038 304.400,330.846 303.860,331.537 303.200 C 332.228 302.540,332.937 302.000,333.112 302.000 C 333.288 302.000,334.228 301.280,335.200 300.400 C 336.172 299.520,337.124 298.800,337.315 298.800 C 337.506 298.800,338.354 298.080,339.200 297.200 C 340.046 296.320,340.845 295.600,340.977 295.600 C 341.109 295.600,342.189 294.655,343.377 293.500 C 344.565 292.345,346.384 290.680,347.420 289.800 C 350.513 287.173,354.593 282.938,359.400 277.364 C 360.280 276.343,361.765 274.693,362.700 273.696 C 363.635 272.699,364.400 271.712,364.400 271.502 C 364.400 271.293,364.940 270.617,365.600 270.000 C 366.260 269.383,366.800 268.708,366.800 268.499 C 366.800 268.290,367.340 267.554,368.000 266.863 C 368.660 266.172,369.200 265.417,369.200 265.185 C 369.200 264.953,369.636 264.328,370.169 263.795 C 370.702 263.262,371.254 262.460,371.396 262.013 C 371.538 261.566,371.810 261.200,372.000 261.200 C 372.190 261.200,372.460 260.841,372.599 260.402 C 372.738 259.964,373.068 259.379,373.331 259.102 C 374.158 258.236,375.200 256.451,375.200 255.902 C 375.200 255.613,375.560 255.117,376.000 254.800 C 376.440 254.483,376.800 253.903,376.800 253.512 C 376.800 253.120,376.980 252.800,377.200 252.800 C 377.420 252.800,377.600 252.480,377.600 252.088 C 377.600 251.697,377.960 251.117,378.400 250.800 C 378.840 250.483,379.200 249.903,379.200 249.512 C 379.200 249.120,379.380 248.800,379.600 248.800 C 379.820 248.800,380.000 248.440,380.000 248.000 C 380.000 247.560,380.180 247.200,380.400 247.200 C 380.620 247.200,380.800 246.840,380.800 246.400 C 380.800 245.960,380.980 245.600,381.200 245.600 C 381.420 245.600,381.600 245.240,381.600 244.800 C 381.600 244.360,381.780 244.000,382.000 244.000 C 382.220 244.000,382.400 243.640,382.400 243.200 C 382.400 242.760,382.546 242.400,382.725 242.400 C 382.904 242.400,383.298 241.770,383.600 241.000 C 383.902 240.230,384.296 239.600,384.475 239.600 C 384.654 239.600,384.800 239.240,384.800 238.800 C 384.800 238.360,384.980 238.000,385.200 238.000 C 385.420 238.000,385.600 237.640,385.600 237.200 C 385.600 236.760,385.780 236.400,386.000 236.400 C 386.220 236.400,386.400 236.164,386.400 235.875 C 386.400 235.586,386.760 234.605,387.200 233.694 C 387.640 232.784,388.000 231.771,388.000 231.443 C 388.000 231.115,388.180 230.736,388.400 230.600 C 388.627 230.460,388.800 228.463,388.800 225.976 C 388.800 223.325,388.642 221.600,388.400 221.600 C 388.180 221.600,388.000 221.245,388.000 220.812 C 388.000 218.988,382.910 212.800,381.409 212.800 C 381.074 212.800,380.800 212.664,380.800 212.497 C 380.800 212.029,377.788 211.200,376.086 211.200 C 375.247 211.200,374.340 210.980,374.070 210.710 C 373.683 210.323,373.415 210.323,372.795 210.710 C 372.364 210.980,371.198 211.200,370.205 211.200 C 369.212 211.200,368.400 211.380,368.400 211.600 C 368.400 211.820,368.040 212.000,367.600 212.000 C 367.160 212.000,366.800 212.180,366.800 212.400 C 366.800 212.620,366.440 212.800,366.000 212.800 C 365.560 212.800,365.200 212.980,365.200 213.200 C 365.200 213.420,364.840 213.600,364.400 213.600 C 363.960 213.600,363.600 213.780,363.600 214.000 C 363.600 214.220,363.240 214.400,362.800 214.400 C 362.360 214.400,362.000 214.580,362.000 214.800 C 362.000 215.020,361.651 215.200,361.224 215.200 C 360.797 215.200,360.336 215.380,360.200 215.600 C 360.064 215.820,359.603 216.000,359.176 216.000 C 358.749 216.000,358.400 216.180,358.400 216.400 C 358.400 216.620,358.040 216.800,357.600 216.800 C 357.160 216.800,356.800 216.980,356.800 217.200 C 356.800 217.420,356.440 217.600,356.000 217.600 C 355.560 217.600,355.200 217.780,355.200 218.000 C 355.200 218.220,354.660 218.400,354.000 218.400 C 353.340 218.400,352.800 218.580,352.800 218.800 C 352.800 219.020,352.440 219.200,352.000 219.200 C 351.560 219.200,351.200 219.380,351.200 219.600 C 351.200 219.820,350.660 220.000,350.000 220.000 C 349.340 220.000,348.800 220.180,348.800 220.400 C 348.800 220.620,348.260 220.800,347.600 220.800 C 346.940 220.800,346.400 220.980,346.400 221.200 C 346.400 221.420,345.961 221.600,345.424 221.600 C 344.887 221.600,344.336 221.780,344.200 222.000 C 344.064 222.220,343.513 222.400,342.976 222.400 C 342.439 222.400,342.000 222.580,342.000 222.800 C 342.000 223.020,341.280 223.200,340.400 223.200 C 339.520 223.200,338.800 223.380,338.800 223.600 C 338.800 223.820,338.200 224.000,337.467 224.000 C 336.733 224.000,335.999 224.134,335.834 224.299 C 335.670 224.463,334.065 224.828,332.268 225.110 C 330.471 225.391,327.920 225.812,326.600 226.044 C 325.280 226.276,322.940 226.548,321.400 226.648 C 319.860 226.747,318.240 227.008,317.800 227.228 C 316.279 227.986,289.658 227.255,287.800 226.405 C 287.360 226.203,286.100 225.947,285.000 225.835 C 280.216 225.348,276.000 224.645,276.000 224.336 C 276.000 224.151,275.370 224.000,274.600 224.000 C 273.830 224.000,273.200 223.820,273.200 223.600 C 273.200 223.380,272.660 223.200,272.000 223.200 C 271.340 223.200,270.800 223.020,270.800 222.800 C 270.800 222.580,270.271 222.400,269.624 222.400 C 268.977 222.400,268.336 222.220,268.200 222.000 C 268.064 221.780,267.423 221.600,266.776 221.600 C 266.129 221.600,265.600 221.420,265.600 221.200 C 265.600 220.980,265.150 220.800,264.600 220.800 C 264.050 220.800,263.600 220.620,263.600 220.400 C 263.600 220.180,263.060 220.000,262.400 220.000 C 261.740 220.000,261.200 219.820,261.200 219.600 C 261.200 219.380,260.928 219.200,260.595 219.200 C 260.262 219.200,259.677 219.040,259.295 218.844 C 258.913 218.648,257.700 218.088,256.600 217.600 C 255.500 217.112,254.287 216.552,253.905 216.356 C 253.523 216.160,252.938 216.000,252.605 216.000 C 252.272 216.000,252.000 215.820,252.000 215.600 C 252.000 215.380,251.640 215.200,251.200 215.200 C 250.760 215.200,250.400 215.020,250.400 214.800 C 250.400 214.580,250.040 214.400,249.600 214.400 C 249.160 214.400,248.800 214.220,248.800 214.000 C 248.800 213.780,248.455 213.600,248.033 213.600 C 247.612 213.600,247.207 213.465,247.133 213.300 C 246.966 212.924,244.836 211.625,243.900 211.329 C 243.515 211.207,243.200 210.948,243.200 210.753 C 243.200 210.559,242.840 210.400,242.400 210.400 C 241.960 210.400,241.599 210.265,241.597 210.100 C 241.594 209.724,239.303 208.400,238.656 208.400 C 238.392 208.400,237.917 208.040,237.600 207.600 C 237.283 207.160,236.743 206.800,236.400 206.800 C 236.057 206.800,235.517 206.440,235.200 206.000 C 234.883 205.560,234.391 205.200,234.108 205.200 C 233.825 205.200,233.028 204.660,232.337 204.000 C 231.646 203.340,230.920 202.800,230.722 202.800 C 230.525 202.800,229.914 202.350,229.364 201.800 C 228.814 201.250,228.207 200.800,228.014 200.800 C 227.822 200.800,226.944 200.125,226.061 199.300 C 225.179 198.475,223.246 196.720,221.765 195.400 C 217.203 191.333,208.000 182.049,207.997 181.510 C 207.995 181.230,207.365 180.337,206.597 179.527 C 205.828 178.716,205.200 177.942,205.200 177.805 C 205.200 177.668,204.661 176.981,204.002 176.278 C 203.343 175.575,202.803 174.857,202.802 174.682 C 202.801 174.507,202.350 173.914,201.800 173.364 C 201.250 172.814,200.800 172.220,200.800 172.044 C 200.800 171.868,200.350 171.201,199.800 170.562 C 199.251 169.923,198.801 169.175,198.800 168.900 C 198.800 168.625,198.620 168.400,198.400 168.400 C 198.180 168.400,198.000 168.164,198.000 167.875 C 198.000 167.587,197.640 166.964,197.200 166.492 C 196.760 166.020,196.400 165.356,196.400 165.017 C 196.400 164.678,196.220 164.400,196.000 164.400 C 195.780 164.400,195.600 164.130,195.600 163.800 C 195.600 163.470,195.420 163.200,195.200 163.200 C 194.980 163.200,194.800 162.930,194.800 162.600 C 194.800 162.270,194.620 162.000,194.400 162.000 C 194.180 162.000,194.000 161.640,194.000 161.200 C 194.000 160.760,193.820 160.400,193.600 160.400 C 193.380 160.400,193.200 160.130,193.200 159.800 C 193.200 159.470,193.020 159.200,192.800 159.200 C 192.580 159.200,192.400 158.840,192.400 158.400 C 192.400 157.960,192.220 157.600,192.000 157.600 C 191.780 157.600,191.600 157.329,191.600 156.998 C 191.600 156.667,191.150 155.463,190.600 154.323 C 190.050 153.183,189.600 152.014,189.600 151.725 C 189.600 151.436,189.420 151.200,189.200 151.200 C 188.980 151.200,188.800 150.922,188.800 150.582 C 188.800 149.793,187.023 148.000,186.242 148.000 C 185.915 148.000,185.536 147.820,185.400 147.600 C 185.078 147.079,181.200 147.077,181.200 147.598 C 181.200 147.816,180.390 148.817,179.400 149.821 C 176.210 153.057,177.631 157.989,185.502 171.000 C 186.567 172.760,187.699 174.641,188.019 175.180 C 188.338 175.718,188.915 176.517,189.300 176.955 C 189.685 177.393,190.000 177.972,190.000 178.242 C 190.000 178.512,190.145 178.793,190.323 178.867 C 190.501 178.940,191.254 179.900,191.997 181.000 C 192.740 182.100,193.450 183.090,193.576 183.200 C 193.702 183.310,194.340 184.120,194.995 185.000 C 200.611 192.550,212.027 204.166,218.871 209.294 C 219.674 209.896,220.571 210.619,220.865 210.903 C 222.077 212.069,233.736 220.000,234.239 220.000 C 234.358 220.000,235.208 220.510,236.128 221.134 C 237.548 222.097,249.755 228.222,252.200 229.199 C 252.640 229.375,253.630 229.793,254.400 230.129 C 258.077 231.732,270.797 235.696,275.000 236.549 C 275.660 236.683,277.100 236.987,278.200 237.223 C 293.007 240.408,313.640 240.752,329.400 238.076 C 337.587 236.686,351.546 232.910,356.300 230.800 C 356.795 230.580,357.605 230.238,358.100 230.041 C 362.539 228.269,368.003 225.719,370.912 224.062 C 373.624 222.516,376.800 223.543,376.800 225.966 C 376.800 228.704,361.059 256.838,358.429 258.800 C 358.282 258.910,357.723 259.630,357.186 260.400 C 356.650 261.170,355.994 262.070,355.729 262.400 C 355.464 262.730,354.095 264.440,352.687 266.200 C 346.863 273.483,334.204 285.723,326.971 291.065 C 326.327 291.541,324.900 292.610,323.800 293.442 C 309.591 304.179,287.454 314.610,269.900 318.839 C 269.075 319.037,267.635 319.391,266.700 319.625 C 263.852 320.337,258.174 321.423,254.200 322.017 C 250.208 322.612,244.233 323.167,244.027 322.960 C 243.691 322.624,242.812 319.794,242.806 319.028 C 242.799 318.187,242.110 315.811,241.551 314.705 C 241.358 314.323,241.200 313.736,241.200 313.400 C 241.200 313.064,241.041 312.477,240.847 312.095 C 240.652 311.713,240.310 310.950,240.086 310.400 C 234.780 297.379,226.078 286.723,214.783 279.417 C 210.569 276.691,202.716 272.800,201.428 272.800 C 201.109 272.800,200.736 272.620,200.600 272.400 C 200.464 272.180,199.924 272.000,199.400 272.000 C 198.876 272.000,198.348 271.840,198.227 271.644 C 198.106 271.449,197.421 271.196,196.704 271.084 C 195.987 270.971,194.140 270.592,192.600 270.240 C 191.060 269.888,189.327 269.600,188.749 269.600 C 187.422 269.600,187.384 269.549,184.454 263.889 C 182.373 259.870,179.211 254.679,178.430 254.000 C 178.304 253.890,177.575 252.990,176.812 252.000 C 168.843 241.670,155.654 232.139,143.600 228.000 C 142.830 227.736,141.840 227.372,141.400 227.193 C 140.960 227.014,140.150 226.750,139.600 226.606 C 139.050 226.463,137.970 226.165,137.200 225.943 C 135.484 225.449,133.027 224.915,129.600 224.291 C 126.156 223.664,109.091 223.701,105.400 224.343 C 103.860 224.611,101.924 224.932,101.097 225.057 C 100.271 225.182,99.495 225.445,99.374 225.642 C 99.252 225.839,98.780 226.000,98.324 226.000 C 97.438 226.000,91.480 227.965,88.522 229.233 C 87.538 229.655,86.557 230.000,86.342 230.000 C 85.735 230.000,83.661 225.171,80.414 216.200 C 79.233 212.937,78.065 209.080,77.173 205.500 C 76.968 204.675,76.620 203.280,76.400 202.400 C 75.554 199.014,75.172 197.323,74.777 195.200 C 70.585 172.671,71.167 148.525,76.407 127.600 C 76.655 126.610,76.955 125.213,77.073 124.496 C 77.192 123.779,77.449 123.094,77.644 122.973 C 77.840 122.852,78.000 122.396,78.000 121.959 C 78.000 118.366,87.376 95.516,92.015 87.800 C 92.677 86.700,93.334 85.530,93.476 85.200 C 93.618 84.870,94.244 83.848,94.867 82.928 C 95.490 82.008,96.000 81.159,96.000 81.040 C 96.000 80.370,103.870 69.374,107.767 64.600 C 112.508 58.792,120.467 50.569,126.000 45.763 C 126.990 44.904,127.890 44.096,128.000 43.969 C 128.110 43.842,130.009 42.303,132.221 40.548 C 138.199 35.806,144.580 31.450,150.600 28.001 C 151.260 27.623,152.610 26.843,153.600 26.267 C 161.834 21.484,176.111 15.557,186.000 12.816 C 186.990 12.541,188.213 12.155,188.719 11.958 C 193.914 9.932,195.857 15.916,191.200 19.600 C 190.733 19.970,188.523 23.368,185.998 27.600 C 182.845 32.884,179.236 40.041,176.517 46.400 C 175.416 48.975,175.255 49.392,174.745 51.000 C 174.465 51.880,174.093 52.771,173.918 52.980 C 173.743 53.189,173.600 53.763,173.600 54.256 C 173.600 54.749,173.420 55.264,173.200 55.400 C 172.980 55.536,172.800 56.076,172.800 56.600 C 172.800 57.124,172.641 57.651,172.446 57.771 C 172.251 57.892,171.996 58.487,171.879 59.095 C 171.762 59.703,171.459 60.920,171.206 61.800 C 169.342 68.291,167.678 76.775,166.735 84.600 C 166.046 90.320,166.031 110.488,166.712 115.400 C 167.478 120.928,168.030 124.317,168.698 127.600 C 169.034 129.250,169.401 131.136,169.513 131.790 C 170.043 134.879,172.560 137.200,175.379 137.200 C 176.293 137.200,177.237 137.397,177.477 137.637 C 178.228 138.388,180.800 136.678,180.800 135.429 C 180.800 135.083,180.980 134.800,181.200 134.800 C 181.437 134.800,181.600 133.333,181.600 131.200 C 181.600 129.067,181.437 127.600,181.200 127.600 C 180.980 127.600,180.800 126.790,180.800 125.800 C 180.800 124.810,180.620 124.000,180.400 124.000 C 180.180 124.000,180.000 123.021,180.000 121.824 C 180.000 120.627,179.820 119.536,179.600 119.400 C 179.380 119.264,179.200 117.903,179.200 116.376 C 179.200 114.792,179.028 113.600,178.800 113.600 C 178.552 113.600,178.400 111.400,178.400 107.800 C 178.400 104.200,178.248 102.000,178.000 102.000 C 177.780 102.000,177.600 101.111,177.600 100.024 C 177.600 98.937,177.780 97.936,178.000 97.800 C 178.238 97.653,178.400 95.129,178.400 91.576 C 178.400 87.859,178.551 85.600,178.800 85.600 C 179.029 85.600,179.200 84.400,179.200 82.800 C 179.200 81.200,179.371 80.000,179.600 80.000 C 179.822 80.000,180.000 78.933,180.000 77.600 C 180.000 76.267,180.178 75.200,180.400 75.200 C 180.620 75.200,180.800 74.491,180.800 73.624 C 180.800 72.757,180.980 71.936,181.200 71.800 C 181.420 71.664,181.600 70.843,181.600 69.976 C 181.600 69.109,181.780 68.400,182.000 68.400 C 182.220 68.400,182.400 67.871,182.400 67.224 C 182.400 66.577,182.580 65.936,182.800 65.800 C 183.020 65.664,183.200 64.933,183.200 64.176 C 183.200 63.419,183.380 62.800,183.600 62.800 C 183.820 62.800,184.000 62.260,184.000 61.600 C 184.000 60.940,184.180 60.400,184.400 60.400 C 184.620 60.400,184.800 59.860,184.800 59.200 C 184.800 58.540,184.980 58.000,185.200 58.000 C 185.420 58.000,185.600 57.550,185.600 57.000 C 185.600 56.450,185.780 56.000,186.000 56.000 C 186.220 56.000,186.400 55.561,186.400 55.024 C 186.400 54.487,186.580 53.936,186.800 53.800 C 187.020 53.664,187.200 53.203,187.200 52.776 C 187.200 52.349,187.380 52.000,187.600 52.000 C 187.820 52.000,188.000 51.651,188.000 51.224 C 188.000 50.797,188.180 50.336,188.400 50.200 C 188.620 50.064,188.800 49.513,188.800 48.976 C 188.800 48.439,188.980 48.000,189.200 48.000 C 189.420 48.000,189.600 47.640,189.600 47.200 C 189.600 46.760,189.780 46.400,190.000 46.400 C 190.220 46.400,190.400 46.151,190.400 45.846 C 190.400 45.541,190.669 44.776,190.998 44.146 C 191.326 43.516,191.596 42.685,191.598 42.300 C 191.599 41.915,191.780 41.600,192.000 41.600 C 192.220 41.600,192.400 41.330,192.400 41.000 C 192.400 40.670,192.580 40.400,192.800 40.400 C 193.020 40.400,193.200 40.040,193.200 39.600 C 193.200 39.160,193.380 38.800,193.600 38.800 C 193.820 38.800,194.000 38.530,194.000 38.200 C 194.000 37.870,194.180 37.600,194.400 37.600 C 194.620 37.600,194.800 37.330,194.800 37.000 C 194.800 36.670,194.980 36.400,195.200 36.400 C 195.420 36.400,195.600 36.040,195.600 35.600 C 195.600 35.160,195.780 34.800,196.000 34.800 C 196.220 34.800,196.400 34.480,196.400 34.088 C 196.400 33.697,196.760 33.117,197.200 32.800 C 197.640 32.483,198.000 31.943,198.000 31.600 C 198.000 31.257,198.360 30.717,198.800 30.400 C 199.240 30.083,199.600 29.543,199.600 29.200 C 199.600 28.857,199.960 28.317,200.400 28.000 C 200.840 27.683,201.200 27.191,201.200 26.908 C 201.200 26.625,201.734 25.834,202.386 25.151 C 203.039 24.468,203.803 23.390,204.084 22.755 C 204.365 22.120,204.731 21.600,204.898 21.600 C 205.064 21.600,205.200 21.251,205.200 20.824 C 205.200 20.397,205.380 19.936,205.600 19.800 C 205.820 19.664,206.000 18.764,206.000 17.800 C 206.000 16.836,206.197 15.925,206.438 15.776 C 206.707 15.610,206.777 14.945,206.620 14.053 C 206.478 13.254,206.263 11.835,206.141 10.900 C 206.019 9.965,205.758 9.200,205.560 9.200 C 205.362 9.200,205.200 8.840,205.200 8.400 C 205.200 7.960,205.020 7.600,204.800 7.600 C 204.580 7.600,204.400 7.280,204.400 6.888 C 204.400 6.497,204.040 5.917,203.600 5.600 C 203.160 5.283,202.800 4.802,202.800 4.532 C 202.800 4.262,202.125 3.537,201.300 2.920 C 200.475 2.304,199.740 1.665,199.667 1.500 C 199.593 1.335,199.203 1.200,198.800 1.200 C 198.397 1.200,197.992 0.975,197.900 0.700 C 197.732 0.194,187.453 -0.134,184.500 0.272 M316.000 22.000 C 316.000 22.226,314.867 22.400,313.400 22.400 C 311.933 22.400,310.800 22.574,310.800 22.800 C 310.800 23.020,310.080 23.200,309.200 23.200 C 308.320 23.200,307.600 23.380,307.600 23.600 C 307.600 23.820,307.060 24.000,306.400 24.000 C 305.740 24.000,305.200 24.180,305.200 24.400 C 305.200 24.620,304.732 24.800,304.160 24.800 C 303.589 24.800,302.464 25.082,301.660 25.426 C 298.870 26.622,294.999 28.602,294.867 28.900 C 294.793 29.065,294.506 29.200,294.229 29.200 C 293.951 29.200,293.398 29.560,293.000 30.000 C 292.602 30.440,292.106 30.800,291.898 30.800 C 291.691 30.800,291.017 31.340,290.400 32.000 C 289.783 32.660,289.079 33.200,288.834 33.200 C 288.314 33.200,281.600 39.822,281.600 40.335 C 281.600 40.525,281.060 41.246,280.400 41.937 C 279.740 42.628,279.200 43.374,279.200 43.596 C 279.200 43.818,279.050 44.000,278.868 44.000 C 278.685 44.000,278.280 44.495,277.968 45.100 C 277.656 45.705,277.290 46.290,277.153 46.400 C 276.686 46.777,274.800 50.773,274.800 51.387 C 274.800 51.856,274.330 52.000,272.800 52.000 C 271.700 52.000,270.800 52.180,270.800 52.400 C 270.800 52.620,270.080 52.800,269.200 52.800 C 268.320 52.800,267.600 52.980,267.600 53.200 C 267.600 53.420,267.161 53.600,266.624 53.600 C 266.087 53.600,265.536 53.780,265.400 54.000 C 265.264 54.220,264.803 54.400,264.376 54.400 C 263.949 54.400,263.600 54.580,263.600 54.800 C 263.600 55.020,263.240 55.200,262.800 55.200 C 262.360 55.200,262.000 55.380,262.000 55.600 C 262.000 55.820,261.640 56.000,261.200 56.000 C 260.760 56.000,260.400 56.146,260.400 56.325 C 260.400 56.504,259.770 56.898,259.000 57.200 C 258.230 57.502,257.600 57.874,257.600 58.026 C 257.600 58.178,257.052 58.530,256.383 58.807 C 255.713 59.085,254.614 59.826,253.940 60.456 C 253.267 61.085,252.593 61.600,252.442 61.600 C 251.974 61.600,248.213 65.331,247.202 66.800 C 246.672 67.570,245.914 68.491,245.519 68.847 C 245.124 69.203,244.800 69.664,244.800 69.871 C 244.800 70.079,244.481 70.598,244.092 71.025 C 243.229 71.969,240.400 77.516,240.400 78.263 C 240.400 78.558,240.220 78.800,240.000 78.800 C 239.780 78.800,239.600 79.250,239.600 79.800 C 239.600 80.350,239.420 80.800,239.200 80.800 C 238.980 80.800,238.800 81.340,238.800 82.000 C 238.800 82.660,238.620 83.200,238.400 83.200 C 238.180 83.200,238.000 83.920,238.000 84.800 C 238.000 85.680,237.820 86.400,237.600 86.400 C 237.375 86.400,237.200 87.525,237.200 88.976 C 237.200 90.393,237.020 91.664,236.800 91.800 C 236.571 91.941,236.400 93.996,236.400 96.600 C 236.400 99.204,236.571 101.259,236.800 101.400 C 237.020 101.536,237.200 102.717,237.200 104.024 C 237.200 105.341,237.378 106.400,237.600 106.400 C 237.820 106.400,238.000 107.120,238.000 108.000 C 238.000 108.880,238.180 109.600,238.400 109.600 C 238.620 109.600,238.800 110.140,238.800 110.800 C 238.800 111.460,238.980 112.000,239.200 112.000 C 239.420 112.000,239.600 112.349,239.600 112.776 C 239.600 113.203,239.780 113.664,240.000 113.800 C 240.220 113.936,240.400 114.487,240.400 115.024 C 240.400 115.561,240.580 116.000,240.800 116.000 C 241.020 116.000,241.200 116.360,241.200 116.800 C 241.200 117.240,241.380 117.600,241.600 117.600 C 241.820 117.600,242.000 117.949,242.000 118.376 C 242.000 118.803,242.175 119.261,242.389 119.393 C 242.603 119.526,243.074 120.256,243.435 121.017 C 243.796 121.778,244.251 122.400,244.446 122.400 C 244.641 122.400,244.800 122.586,244.800 122.813 C 244.800 123.041,245.430 123.857,246.200 124.627 C 246.970 125.397,247.600 126.202,247.600 126.415 C 247.600 126.900,251.550 130.800,252.040 130.800 C 252.238 130.800,253.141 131.520,254.048 132.400 C 254.955 133.280,255.945 134.000,256.248 134.000 C 256.552 134.000,256.800 134.180,256.800 134.400 C 256.800 134.620,257.036 134.800,257.325 134.800 C 257.613 134.800,258.198 135.115,258.625 135.500 C 259.705 136.475,264.360 138.800,265.233 138.800 C 265.629 138.800,266.064 138.980,266.200 139.200 C 266.336 139.420,266.887 139.600,267.424 139.600 C 267.961 139.600,268.400 139.761,268.400 139.958 C 268.400 140.155,269.075 140.416,269.900 140.538 C 270.725 140.661,272.732 140.956,274.361 141.194 C 278.869 141.855,371.385 141.576,372.060 140.900 C 372.335 140.625,373.053 140.400,373.656 140.400 C 374.259 140.400,374.842 140.256,374.951 140.079 C 375.060 139.903,376.061 139.510,377.175 139.207 C 378.289 138.904,379.200 138.508,379.200 138.328 C 379.200 138.147,379.560 138.000,380.000 138.000 C 380.440 138.000,380.800 137.820,380.800 137.600 C 380.800 137.380,381.036 137.200,381.325 137.200 C 381.613 137.200,382.236 136.840,382.708 136.400 C 383.180 135.960,383.778 135.600,384.036 135.600 C 384.295 135.600,384.797 135.276,385.153 134.881 C 385.509 134.486,386.430 133.728,387.200 133.196 C 387.970 132.665,389.091 131.684,389.691 131.015 C 390.292 130.347,391.147 129.401,391.591 128.914 C 392.036 128.427,392.400 127.824,392.400 127.575 C 392.400 127.325,392.907 126.644,393.527 126.060 C 394.147 125.477,394.911 124.415,395.225 123.700 C 395.538 122.985,395.931 122.400,396.098 122.400 C 396.264 122.400,396.400 122.040,396.400 121.600 C 396.400 121.160,396.580 120.800,396.800 120.800 C 397.020 120.800,397.200 120.440,397.200 120.000 C 397.200 119.560,397.380 119.200,397.600 119.200 C 397.820 119.200,398.000 118.851,398.000 118.424 C 398.000 117.997,398.180 117.536,398.400 117.400 C 398.620 117.264,398.800 116.749,398.800 116.256 C 398.800 115.763,399.025 115.135,399.300 114.860 C 399.675 114.485,399.800 111.697,399.800 103.713 C 399.800 95.552,399.683 93.028,399.300 92.900 C 399.025 92.808,398.800 92.208,398.800 91.567 C 398.800 90.925,398.620 90.400,398.400 90.400 C 398.180 90.400,398.000 89.961,398.000 89.424 C 398.000 88.887,397.820 88.336,397.600 88.200 C 397.380 88.064,397.200 87.603,397.200 87.176 C 397.200 86.749,397.020 86.400,396.800 86.400 C 396.580 86.400,396.400 86.080,396.400 85.688 C 396.400 85.297,396.040 84.717,395.600 84.400 C 395.160 84.083,394.800 83.543,394.800 83.200 C 394.800 82.857,394.440 82.317,394.000 82.000 C 393.560 81.683,393.200 81.169,393.200 80.858 C 393.200 80.120,386.280 73.200,385.542 73.200 C 385.231 73.200,384.717 72.840,384.400 72.400 C 384.083 71.960,383.543 71.600,383.200 71.600 C 382.857 71.600,382.317 71.240,382.000 70.800 C 381.683 70.360,381.103 70.000,380.712 70.000 C 380.320 70.000,380.000 69.820,380.000 69.600 C 380.000 69.380,379.651 69.200,379.224 69.200 C 378.797 69.200,378.336 69.020,378.200 68.800 C 378.064 68.580,377.513 68.400,376.976 68.400 C 376.439 68.400,376.000 68.220,376.000 68.000 C 376.000 67.780,375.463 67.600,374.808 67.600 C 373.832 67.600,373.571 67.400,373.374 66.500 C 373.242 65.895,373.033 65.130,372.910 64.800 C 372.709 64.260,372.435 62.882,371.740 58.900 C 371.615 58.185,371.352 57.600,371.156 57.600 C 370.960 57.600,370.800 57.060,370.800 56.400 C 370.800 55.740,370.620 55.200,370.400 55.200 C 370.180 55.200,370.000 54.851,370.000 54.424 C 370.000 53.997,369.820 53.536,369.600 53.400 C 369.380 53.264,369.200 52.713,369.200 52.176 C 369.200 51.639,369.020 51.200,368.800 51.200 C 368.580 51.200,368.400 50.840,368.400 50.400 C 368.400 49.960,368.220 49.600,368.000 49.600 C 367.780 49.600,367.600 49.322,367.600 48.983 C 367.600 48.644,367.240 47.980,366.800 47.508 C 366.360 47.036,366.000 46.413,366.000 46.125 C 366.000 45.836,365.820 45.600,365.600 45.600 C 365.380 45.600,365.200 45.364,365.200 45.075 C 365.200 44.787,364.840 44.164,364.400 43.692 C 363.960 43.220,363.600 42.724,363.600 42.591 C 363.600 42.457,362.700 41.471,361.600 40.400 C 360.500 39.329,359.600 38.305,359.600 38.126 C 359.599 37.720,357.798 35.600,357.454 35.600 C 357.315 35.600,356.459 34.880,355.552 34.000 L 353.904 32.400 350.552 32.400 C 348.708 32.400,347.200 32.559,347.200 32.753 C 347.200 32.948,346.825 33.205,346.368 33.324 C 345.784 33.477,345.564 33.819,345.632 34.471 C 345.685 34.982,345.592 36.238,345.425 37.263 C 344.937 40.250,345.402 41.371,348.266 44.114 C 356.037 51.554,361.200 62.506,361.200 71.550 C 361.200 73.361,361.426 74.189,362.282 75.509 C 363.600 77.541,363.444 77.466,369.000 78.726 C 392.091 83.964,395.349 116.709,373.800 126.974 C 368.388 129.552,371.652 129.400,321.800 129.400 C 274.716 129.400,276.095 129.441,271.400 127.918 C 245.132 119.400,240.831 83.289,264.297 68.278 C 268.217 65.770,276.116 63.204,279.931 63.199 C 281.806 63.196,283.429 61.844,284.574 59.333 C 290.724 45.847,299.214 38.458,312.751 34.813 C 315.852 33.978,321.505 33.647,325.621 34.059 C 330.698 34.568,334.400 33.279,334.400 31.001 C 334.400 30.718,334.670 30.382,335.000 30.255 C 335.675 29.996,335.890 25.600,335.227 25.600 C 335.022 25.600,334.740 25.240,334.600 24.800 C 334.460 24.360,334.128 24.000,333.861 24.000 C 333.595 24.000,333.117 23.640,332.800 23.200 C 332.338 22.559,331.765 22.400,329.912 22.400 C 328.637 22.400,327.600 22.221,327.600 22.000 C 327.600 21.752,325.400 21.600,321.800 21.600 C 318.200 21.600,316.000 21.752,316.000 22.000 " stroke="none" fill="#040404" fill-rule="evenodd"></path><path id="path1" d="M334.636 31.531 C 333.186 34.333,332.202 34.616,324.396 34.464 C 317.929 34.338,311.693 34.974,310.819 35.848 C 310.522 36.145,314.795 35.601,316.160 35.168 C 317.816 34.642,325.263 34.713,327.363 35.274 C 329.355 35.807,331.688 35.275,333.455 33.885 C 334.471 33.086,335.797 30.864,335.459 30.526 C 335.349 30.416,334.978 30.868,334.636 31.531 M344.661 36.312 C 343.532 39.844,344.043 41.156,348.188 45.376 C 350.043 47.265,351.879 49.348,352.267 50.005 C 352.655 50.662,353.114 51.200,353.286 51.200 C 353.459 51.200,353.600 51.470,353.600 51.800 C 353.600 52.130,353.752 52.400,353.937 52.400 C 354.123 52.400,354.700 53.255,355.220 54.300 C 356.374 56.619,356.350 56.583,356.617 56.317 C 357.305 55.628,352.296 48.725,348.303 44.861 C 344.824 41.495,344.060 39.630,345.000 36.800 C 345.366 35.698,345.606 34.617,345.533 34.398 C 345.460 34.179,345.067 35.040,344.661 36.312 M308.800 36.400 C 308.267 36.745,308.267 36.788,308.800 36.788 C 309.130 36.788,309.670 36.613,310.000 36.400 C 310.533 36.055,310.533 36.012,310.000 36.012 C 309.670 36.012,309.130 36.187,308.800 36.400 M304.265 38.247 C 303.640 38.586,303.206 38.939,303.300 39.033 C 303.487 39.220,306.000 38.046,306.000 37.771 C 306.000 37.462,305.418 37.622,304.265 38.247 M301.200 40.000 C 300.650 40.430,300.380 40.782,300.600 40.782 C 300.820 40.782,301.450 40.430,302.000 40.000 C 302.550 39.570,302.820 39.218,302.600 39.218 C 302.380 39.218,301.750 39.570,301.200 40.000 M297.582 42.545 C 295.010 44.566,289.878 50.011,290.221 50.355 C 290.353 50.486,290.635 50.281,290.849 49.898 C 291.893 48.033,296.435 43.757,299.967 41.315 C 300.058 41.252,300.050 41.117,299.948 41.015 C 299.847 40.913,298.782 41.602,297.582 42.545 M118.992 52.900 L 115.400 56.600 119.100 53.008 C 122.536 49.672,122.982 49.200,122.692 49.200 C 122.632 49.200,120.967 50.865,118.992 52.900 M287.402 54.450 C 286.613 55.797,286.019 57.046,286.083 57.225 C 286.147 57.403,286.878 56.301,287.707 54.775 C 289.571 51.345,289.356 51.116,287.402 54.450 M284.750 59.863 C 283.536 62.286,282.378 63.100,279.400 63.629 C 271.059 65.110,268.790 65.929,263.715 69.292 C 259.601 72.018,252.463 79.796,253.304 80.637 C 253.400 80.733,254.166 79.774,255.007 78.506 C 260.163 70.725,268.226 65.735,277.800 64.400 C 281.267 63.916,282.157 63.634,283.282 62.665 C 284.299 61.788,286.204 58.471,285.878 58.145 C 285.781 58.047,285.273 58.820,284.750 59.863 M357.606 59.076 C 357.603 59.558,357.780 60.064,358.000 60.200 C 358.509 60.515,358.509 59.588,358.000 58.800 C 357.685 58.312,357.611 58.364,357.606 59.076 M358.406 61.476 C 358.403 61.958,358.580 62.464,358.800 62.600 C 359.309 62.915,359.309 61.988,358.800 61.200 C 358.485 60.712,358.411 60.764,358.406 61.476 M359.228 64.276 C 359.213 64.978,359.380 65.664,359.600 65.800 C 360.080 66.096,360.080 64.916,359.600 63.800 C 359.310 63.126,359.252 63.200,359.228 64.276 M360.070 69.000 C 360.057 70.100,360.195 71.720,360.377 72.600 C 360.692 74.125,360.708 74.087,360.707 71.800 C 360.706 70.480,360.568 68.860,360.400 68.200 C 360.137 67.165,360.091 67.275,360.070 69.000 M360.800 74.883 C 360.800 75.731,363.308 78.400,364.105 78.400 C 364.461 78.400,364.864 78.580,365.000 78.800 C 365.136 79.020,365.946 79.200,366.800 79.200 C 367.654 79.200,368.464 79.380,368.600 79.600 C 368.736 79.820,369.366 80.000,370.000 80.000 C 370.634 80.000,371.264 80.180,371.400 80.400 C 371.536 80.620,371.997 80.800,372.424 80.800 C 372.851 80.800,373.200 80.980,373.200 81.200 C 373.200 81.420,373.560 81.600,374.000 81.600 C 374.440 81.600,374.800 81.780,374.800 82.000 C 374.800 82.220,375.025 82.403,375.300 82.407 C 376.756 82.428,383.972 89.644,383.993 91.100 C 383.997 91.375,384.180 91.600,384.400 91.600 C 384.620 91.600,384.800 91.960,384.800 92.400 C 384.800 92.840,384.980 93.200,385.200 93.200 C 385.420 93.200,385.600 93.549,385.600 93.976 C 385.600 94.403,385.780 94.864,386.000 95.000 C 386.220 95.136,386.400 95.651,386.400 96.144 C 386.400 96.637,386.603 97.242,386.850 97.490 C 387.141 97.781,387.306 100.031,387.316 103.870 C 387.328 108.399,387.418 109.422,387.699 108.200 C 390.621 95.494,380.854 81.425,367.274 78.778 C 364.524 78.242,362.465 77.084,361.765 75.681 C 361.148 74.442,360.800 74.155,360.800 74.883 M251.467 84.102 C 249.341 89.190,248.593 97.437,249.771 102.800 C 250.611 106.626,251.856 110.277,252.202 109.932 C 252.300 109.833,252.019 108.799,251.576 107.634 C 248.964 100.759,248.973 92.016,251.600 85.102 C 252.478 82.792,252.366 81.951,251.467 84.102 M386.400 111.200 C 386.400 111.860,386.220 112.400,386.000 112.400 C 385.780 112.400,385.600 112.665,385.600 112.988 C 385.600 113.519,385.196 114.349,383.538 117.222 C 382.181 119.573,376.979 124.800,375.995 124.800 C 375.778 124.800,375.600 124.991,375.600 125.224 C 375.600 125.955,379.254 123.259,381.307 121.012 C 384.502 117.516,388.251 110.000,386.800 110.000 C 386.580 110.000,386.400 110.540,386.400 111.200 M252.400 110.725 C 252.400 113.081,260.441 121.838,265.100 124.556 C 266.338 125.278,265.429 124.394,263.900 123.389 C 260.216 120.968,253.200 113.016,253.200 111.261 C 253.200 111.034,253.020 110.736,252.800 110.600 C 252.580 110.464,252.400 110.520,252.400 110.725 M373.470 126.279 C 372.848 126.605,372.426 126.960,372.533 127.066 C 372.742 127.276,375.200 126.100,375.200 125.790 C 375.200 125.492,374.694 125.635,373.470 126.279 M271.600 127.600 C 271.930 127.813,272.470 127.988,272.800 127.988 C 273.333 127.988,273.333 127.945,272.800 127.600 C 272.470 127.387,271.930 127.212,271.600 127.212 C 271.067 127.212,271.067 127.255,271.600 127.600 M274.600 128.400 C 275.784 128.909,277.187 128.909,276.400 128.400 C 276.070 128.187,275.350 128.022,274.800 128.034 C 273.884 128.054,273.867 128.085,274.600 128.400 M367.600 128.400 C 366.805 128.914,367.804 128.914,369.000 128.400 L 369.800 128.056 369.000 128.034 C 368.560 128.022,367.930 128.187,367.600 128.400 M300.531 129.100 C 312.593 129.159,332.213 129.159,344.131 129.100 C 356.049 129.041,346.180 128.993,322.200 128.993 C 298.220 128.993,288.469 129.041,300.531 129.100 M72.537 161.000 C 72.539 162.760,72.609 163.430,72.693 162.489 C 72.778 161.549,72.777 160.109,72.691 159.289 C 72.605 158.470,72.536 159.240,72.537 161.000 M72.542 168.600 C 72.541 170.580,72.608 171.440,72.692 170.512 C 72.776 169.584,72.777 167.964,72.695 166.912 C 72.612 165.860,72.543 166.620,72.542 168.600 M206.600 199.200 C 208.350 200.960,209.871 202.400,209.981 202.400 C 210.091 202.400,208.750 200.960,207.000 199.200 C 205.250 197.440,203.729 196.000,203.619 196.000 C 203.509 196.000,204.850 197.440,206.600 199.200 M108.400 235.809 C 104.470 236.381,102.604 236.738,101.200 237.187 C 100.650 237.363,99.390 237.739,98.400 238.023 C 97.410 238.307,96.429 238.688,96.220 238.870 C 96.011 239.051,95.581 239.200,95.264 239.200 C 91.377 239.200,76.467 249.427,70.597 256.120 C 69.278 257.623,68.008 259.066,67.774 259.326 C 66.211 261.066,62.550 267.017,60.797 270.667 C 59.653 273.050,58.555 275.313,58.358 275.695 C 58.161 276.077,58.000 276.741,58.000 277.171 C 58.000 277.601,57.820 278.064,57.600 278.200 C 57.380 278.336,57.200 278.876,57.200 279.400 C 57.200 279.924,57.020 280.464,56.800 280.600 C 56.580 280.736,56.400 281.229,56.400 281.695 C 56.400 282.162,56.231 283.096,56.024 283.772 C 55.384 285.864,54.858 289.203,54.382 294.200 C 53.843 299.858,53.499 300.939,51.841 302.173 C 50.618 303.085,49.952 303.308,46.400 304.000 C 43.013 304.660,42.199 304.861,41.200 305.284 C 40.650 305.517,39.840 305.838,39.400 305.998 C 7.609 317.545,2.563 361.842,30.884 380.745 C 40.817 387.374,44.540 387.984,75.120 387.993 C 100.173 388.001,99.534 387.950,101.452 390.062 C 101.921 390.578,102.544 391.680,102.836 392.511 L 103.368 394.021 108.751 393.911 L 114.134 393.800 114.524 392.600 C 116.107 387.728,113.953 388.002,150.761 387.987 C 184.504 387.974,186.325 387.890,193.298 386.021 C 226.010 377.251,242.616 339.214,226.728 309.445 C 225.183 306.551,223.437 303.762,222.818 303.200 C 222.697 303.090,221.846 302.010,220.927 300.800 C 219.024 298.296,213.690 293.028,211.600 291.590 C 210.830 291.060,209.962 290.395,209.671 290.113 C 209.381 289.831,208.989 289.600,208.800 289.600 C 208.611 289.600,208.212 289.375,207.913 289.100 C 204.252 285.735,189.747 280.844,183.319 280.807 C 179.936 280.788,178.328 279.136,175.913 273.200 C 175.690 272.650,175.316 271.840,175.083 271.400 C 174.850 270.960,174.176 269.683,173.584 268.562 C 166.912 255.925,154.591 245.005,140.800 239.505 C 140.250 239.286,139.487 238.948,139.105 238.753 C 138.723 238.559,138.059 238.400,137.629 238.400 C 137.199 238.400,136.748 238.240,136.627 238.044 C 136.506 237.849,135.821 237.592,135.104 237.473 C 134.387 237.355,132.990 237.063,132.000 236.825 C 125.399 235.236,115.319 234.802,108.400 235.809 M369.467 239.900 C 369.368 240.065,368.795 241.100,368.194 242.200 C 367.593 243.300,366.746 244.830,366.311 245.600 C 365.616 246.831,365.610 246.891,366.260 246.096 C 367.142 245.018,370.134 239.600,369.847 239.600 C 369.737 239.600,369.566 239.735,369.467 239.900 M300.300 240.689 C 301.015 240.778,302.185 240.778,302.900 240.689 C 303.615 240.601,303.030 240.528,301.600 240.528 C 300.170 240.528,299.585 240.601,300.300 240.689 M309.100 240.689 C 309.815 240.778,310.985 240.778,311.700 240.689 C 312.415 240.601,311.830 240.528,310.400 240.528 C 308.970 240.528,308.385 240.601,309.100 240.689 M364.253 248.791 C 363.121 250.502,362.825 251.518,363.843 250.200 C 364.582 249.244,365.685 247.200,365.463 247.200 C 365.377 247.200,364.832 247.916,364.253 248.791 M360.473 254.600 C 360.222 255.150,360.083 255.600,360.163 255.600 C 360.243 255.600,360.603 255.150,360.963 254.600 C 361.324 254.050,361.463 253.600,361.273 253.600 C 361.084 253.600,360.723 254.050,360.473 254.600 M358.496 257.405 C 357.332 259.203,357.600 259.200,358.973 257.400 C 359.560 256.630,359.897 256.002,359.720 256.005 C 359.544 256.008,358.993 256.638,358.496 257.405 M356.068 260.648 C 355.555 261.440,355.322 261.972,355.549 261.831 C 356.182 261.441,357.699 259.199,357.327 259.205 C 357.147 259.208,356.581 259.857,356.068 260.648 M352.348 265.500 C 349.896 268.194,346.698 272.126,347.550 271.400 C 348.067 270.960,349.645 269.205,351.056 267.500 C 353.601 264.426,354.274 263.385,352.348 265.500 M341.663 277.059 C 340.487 278.269,339.598 279.331,339.686 279.419 C 339.774 279.507,340.910 278.504,342.210 277.190 C 343.511 275.875,344.401 274.813,344.187 274.830 C 343.974 274.846,342.838 275.850,341.663 277.059 M335.800 282.668 C 334.480 283.900,331.987 286.053,330.260 287.453 C 328.533 288.854,327.276 290.000,327.467 290.000 C 327.860 290.000,336.591 282.590,337.762 281.264 C 339.062 279.790,338.303 280.334,335.800 282.668 M311.400 300.674 C 310.080 301.468,308.010 302.655,306.800 303.312 C 305.590 303.970,304.420 304.688,304.200 304.909 C 303.731 305.379,307.912 303.164,311.500 301.041 C 312.875 300.227,314.000 299.480,314.000 299.381 C 314.000 299.111,313.988 299.117,311.400 300.674 M277.200 316.000 C 276.376 316.264,276.341 316.326,277.000 316.354 C 277.440 316.373,278.070 316.213,278.400 316.000 C 279.101 315.547,278.614 315.547,277.200 316.000 M272.643 317.230 C 269.888 317.981,268.332 318.711,270.601 318.189 C 273.008 317.635,276.000 316.739,276.000 316.572 C 276.000 316.334,275.770 316.379,272.643 317.230 M266.800 318.806 C 266.378 319.082,266.615 319.123,267.600 318.942 C 269.325 318.625,269.651 318.398,268.367 318.406 C 267.835 318.409,267.130 318.589,266.800 318.806 M243.440 319.866 C 243.808 321.399,244.000 321.544,244.000 320.290 C 244.000 319.717,243.813 319.132,243.584 318.990 C 243.311 318.821,243.262 319.123,243.440 319.866 M263.200 319.621 C 262.770 319.914,263.054 319.954,264.200 319.762 C 266.184 319.430,266.504 319.198,264.967 319.206 C 264.325 319.209,263.530 319.396,263.200 319.621 M259.200 320.412 C 258.781 320.691,259.142 320.733,260.400 320.550 C 262.641 320.225,262.960 319.998,261.167 320.006 C 260.415 320.009,259.530 320.192,259.200 320.412 M254.600 321.203 C 254.085 321.426,254.513 321.467,255.800 321.318 C 256.900 321.191,257.875 321.023,257.967 320.944 C 258.314 320.645,255.364 320.872,254.600 321.203 M248.600 322.008 C 248.092 322.231,248.676 322.274,250.200 322.124 C 251.520 321.995,252.675 321.824,252.767 321.744 C 253.121 321.437,249.357 321.675,248.600 322.008 " stroke="none" fill="#9b8b9b" fill-rule="evenodd"></path><path id="path2" d="M185.043 13.646 C 180.536 15.030,173.824 17.360,171.400 18.381 C 154.169 25.642,140.654 33.903,127.201 45.397 C 120.735 50.922,107.772 64.890,103.998 70.400 C 103.470 71.170,102.924 71.890,102.784 72.000 C 102.645 72.110,101.272 74.090,99.733 76.400 C 92.558 87.174,88.190 95.447,83.681 106.800 C 80.581 114.605,77.322 125.320,75.956 132.200 C 74.636 138.848,74.150 141.946,73.620 147.107 C 73.410 149.146,73.135 150.981,73.009 151.186 C 72.882 151.390,72.777 157.192,72.775 164.079 C 72.771 175.701,72.993 179.723,74.041 187.000 C 74.642 191.170,75.837 197.720,76.414 200.000 C 76.609 200.770,77.059 202.570,77.416 204.000 C 79.938 214.123,85.516 229.197,86.740 229.199 C 87.036 229.200,87.936 228.912,88.740 228.559 C 91.245 227.460,91.733 227.274,94.200 226.480 C 102.937 223.667,107.395 223.011,117.800 223.005 C 126.195 223.000,127.641 223.133,133.600 224.452 C 156.652 229.556,175.589 244.425,186.035 265.623 L 187.525 268.646 191.932 269.516 C 196.224 270.363,201.168 271.816,204.000 273.064 C 215.911 278.314,224.949 285.328,232.104 294.877 C 234.030 297.447,238.400 304.487,238.400 305.020 C 238.400 305.106,238.876 306.217,239.458 307.488 C 241.032 310.929,242.884 316.023,243.099 317.504 C 243.203 318.221,243.449 318.906,243.644 319.027 C 243.840 319.148,244.000 319.978,244.000 320.872 L 244.000 322.496 246.300 322.248 C 259.796 320.795,277.906 316.571,286.600 312.849 C 287.488 312.469,289.029 311.832,290.700 311.153 C 291.305 310.908,292.113 310.548,292.495 310.353 C 292.877 310.159,293.462 310.000,293.795 310.000 C 294.128 310.000,294.400 309.820,294.400 309.600 C 294.400 309.380,294.645 309.200,294.945 309.200 C 295.245 309.200,297.900 307.966,300.845 306.457 C 306.290 303.668,307.006 303.277,311.600 300.586 C 314.392 298.950,323.669 292.838,324.000 292.416 C 324.110 292.276,324.830 291.729,325.600 291.200 C 326.370 290.671,327.090 290.132,327.200 290.002 C 327.310 289.872,328.480 288.899,329.800 287.839 C 336.281 282.636,344.729 274.399,350.200 267.948 C 354.570 262.796,354.761 262.560,355.986 260.800 C 356.523 260.030,357.069 259.310,357.200 259.200 C 357.331 259.090,357.874 258.370,358.406 257.600 C 358.938 256.830,359.605 255.962,359.887 255.671 C 360.169 255.381,360.400 254.989,360.400 254.800 C 360.400 254.611,360.625 254.214,360.900 253.918 C 361.599 253.163,363.200 250.874,363.200 250.629 C 363.200 250.517,363.982 249.204,364.938 247.712 C 369.100 241.216,375.664 228.121,375.719 226.205 C 375.808 223.047,374.717 222.975,369.019 225.760 C 366.589 226.949,362.710 228.723,360.400 229.703 C 353.520 232.622,343.268 235.887,336.800 237.220 C 335.590 237.469,333.970 237.824,333.200 238.008 C 331.881 238.325,329.642 238.681,323.300 239.585 C 311.285 241.296,295.011 240.963,283.200 238.762 C 281.990 238.536,280.010 238.169,278.800 237.946 C 277.590 237.723,275.970 237.385,275.200 237.195 C 274.430 237.006,272.900 236.638,271.800 236.379 C 266.354 235.096,255.454 231.338,249.600 228.725 C 245.444 226.871,239.627 223.873,235.400 221.410 C 231.384 219.069,219.854 211.148,218.800 210.006 C 218.690 209.887,217.610 208.983,216.400 207.999 C 210.337 203.066,202.570 195.298,197.603 189.200 C 196.617 187.990,195.710 186.910,195.586 186.800 C 195.463 186.690,194.929 185.970,194.400 185.200 C 193.871 184.430,193.321 183.710,193.177 183.600 C 191.716 182.481,182.592 167.505,179.652 161.400 C 178.698 159.420,177.753 157.481,177.550 157.091 C 176.150 154.393,176.986 150.814,179.456 148.930 C 180.763 147.933,181.425 145.600,180.400 145.600 C 180.180 145.600,180.000 145.161,180.000 144.624 C 180.000 144.087,179.820 143.536,179.600 143.400 C 179.380 143.264,179.200 142.713,179.200 142.176 C 179.200 141.639,179.020 141.200,178.800 141.200 C 178.580 141.200,178.400 140.660,178.400 140.000 C 178.400 139.340,178.220 138.800,178.000 138.800 C 177.780 138.800,177.600 138.530,177.600 138.200 C 177.600 137.737,177.082 137.600,175.338 137.600 C 171.076 137.600,169.773 135.898,168.281 128.390 C 167.341 123.659,166.939 121.096,166.004 113.884 C 165.481 109.847,165.481 90.153,166.004 86.116 C 167.013 78.330,167.314 76.348,168.056 72.600 C 169.392 65.849,172.726 54.053,174.415 50.100 C 174.627 49.605,174.980 48.750,175.200 48.200 C 175.420 47.650,175.780 46.750,176.000 46.200 C 176.220 45.650,176.566 44.795,176.768 44.300 C 179.610 37.346,189.827 19.256,191.621 18.000 C 193.202 16.894,193.884 13.884,192.800 12.800 C 191.727 11.727,191.047 11.801,185.043 13.646 " stroke="none" fill="#fbea64" fill-rule="evenodd"></path><path id="path3" d="M335.262 31.380 C 334.182 34.366,330.587 36.060,327.100 35.225 C 323.200 34.291,313.455 35.147,308.679 36.843 C 306.187 37.728,300.729 40.469,300.000 41.201 C 299.890 41.312,298.772 42.183,297.516 43.137 C 294.682 45.291,290.000 50.316,290.000 51.205 C 290.000 51.422,289.839 51.600,289.643 51.600 C 289.447 51.600,288.156 53.895,286.774 56.700 C 283.502 63.342,283.137 63.655,277.800 64.400 C 244.450 69.051,239.204 114.529,270.600 126.814 C 272.340 127.495,273.070 127.724,274.800 128.129 C 276.930 128.628,366.702 128.746,368.600 128.252 C 370.717 127.701,375.304 125.616,375.533 125.100 C 375.607 124.935,375.830 124.800,376.029 124.800 C 376.981 124.800,382.209 119.524,383.538 117.222 C 385.196 114.349,385.600 113.519,385.600 112.988 C 385.600 112.665,385.780 112.400,386.000 112.400 C 386.220 112.400,386.400 111.875,386.400 111.233 C 386.400 110.592,386.603 109.999,386.850 109.917 C 387.156 109.815,387.300 107.878,387.300 103.853 C 387.300 100.006,387.143 97.783,386.850 97.490 C 386.603 97.243,386.400 96.637,386.400 96.144 C 386.400 95.651,386.220 95.136,386.000 95.000 C 385.780 94.864,385.600 94.403,385.600 93.976 C 385.600 93.549,385.420 93.200,385.200 93.200 C 384.980 93.200,384.800 92.840,384.800 92.400 C 384.800 91.960,384.620 91.600,384.400 91.600 C 384.180 91.600,383.997 91.375,383.993 91.100 C 383.972 89.644,376.756 82.428,375.300 82.407 C 375.025 82.403,374.800 82.220,374.800 82.000 C 374.800 81.780,374.440 81.600,374.000 81.600 C 373.560 81.600,373.200 81.420,373.200 81.200 C 373.200 80.980,372.851 80.800,372.424 80.800 C 371.997 80.800,371.536 80.620,371.400 80.400 C 371.264 80.180,370.634 80.000,370.000 80.000 C 369.366 80.000,368.736 79.820,368.600 79.600 C 368.464 79.380,367.654 79.200,366.800 79.200 C 365.946 79.200,365.136 79.020,365.000 78.800 C 364.864 78.580,364.461 78.400,364.105 78.400 C 361.878 78.400,360.000 73.774,360.000 68.291 C 360.000 67.057,359.820 65.936,359.600 65.800 C 359.380 65.664,359.200 64.944,359.200 64.200 C 359.200 63.456,359.020 62.736,358.800 62.600 C 358.580 62.464,358.400 61.924,358.400 61.400 C 358.400 60.876,358.220 60.336,358.000 60.200 C 357.780 60.064,357.600 59.513,357.600 58.976 C 357.600 58.439,357.420 58.000,357.200 58.000 C 356.980 58.000,356.800 57.655,356.800 57.233 C 356.800 56.812,356.665 56.407,356.500 56.333 C 356.335 56.260,355.767 55.345,355.237 54.300 C 354.708 53.255,354.123 52.400,353.937 52.400 C 353.752 52.400,353.600 52.130,353.600 51.800 C 353.600 51.470,353.459 51.200,353.286 51.200 C 353.114 51.200,352.655 50.662,352.267 50.005 C 351.879 49.348,350.043 47.265,348.188 45.376 C 344.150 41.265,343.503 39.731,344.550 36.746 C 345.354 34.454,345.362 34.000,344.600 34.000 C 344.270 34.000,344.000 33.820,344.000 33.600 C 344.000 33.380,343.655 33.200,343.233 33.200 C 342.812 33.200,342.407 33.065,342.333 32.900 C 342.115 32.409,338.784 30.800,337.986 30.800 C 337.580 30.800,337.136 30.620,337.000 30.400 C 336.507 29.603,335.750 30.030,335.262 31.380 " stroke="none" fill="#cac2ca" fill-rule="evenodd"></path><path id="path4" d="M188.800 12.012 C 188.378 12.293,188.704 12.335,189.894 12.156 C 194.573 11.449,194.617 13.691,190.057 20.505 C 188.108 23.417,185.706 27.150,184.720 28.800 C 179.467 37.585,170.338 59.075,172.400 57.800 C 172.620 57.664,172.800 57.124,172.800 56.600 C 172.800 56.076,172.980 55.536,173.200 55.400 C 173.420 55.264,173.600 54.749,173.600 54.256 C 173.600 53.763,173.743 53.189,173.918 52.980 C 174.093 52.771,174.465 51.880,174.745 51.000 C 175.255 49.392,175.416 48.975,176.517 46.400 C 179.236 40.041,182.845 32.884,185.998 27.600 C 188.523 23.368,190.733 19.970,191.200 19.600 C 192.278 18.747,194.000 15.457,194.000 14.251 C 194.000 12.046,190.811 10.673,188.800 12.012 M186.000 12.800 C 185.205 13.314,186.204 13.314,187.400 12.800 L 188.200 12.456 187.400 12.434 C 186.960 12.422,186.330 12.587,186.000 12.800 M182.004 13.918 C 181.016 14.258,180.393 14.598,180.618 14.673 C 180.844 14.748,182.012 14.461,183.214 14.034 C 184.416 13.607,185.040 13.268,184.600 13.280 C 184.160 13.291,182.992 13.579,182.004 13.918 M178.400 15.200 C 177.867 15.545,177.867 15.588,178.400 15.588 C 178.730 15.588,179.270 15.413,179.600 15.200 C 180.133 14.855,180.133 14.812,179.600 14.812 C 179.270 14.812,178.730 14.987,178.400 15.200 M174.600 16.467 C 167.470 19.265,158.316 23.545,153.500 26.332 C 152.675 26.809,151.415 27.535,150.700 27.944 C 144.599 31.436,138.241 35.773,132.221 40.548 C 130.009 42.303,128.110 43.842,128.000 43.969 C 127.890 44.096,126.990 44.904,126.000 45.763 C 120.467 50.569,112.508 58.792,107.767 64.600 C 103.870 69.374,96.000 80.370,96.000 81.040 C 96.000 81.159,95.490 82.008,94.867 82.928 C 94.244 83.848,93.618 84.870,93.476 85.200 C 93.334 85.530,92.677 86.700,92.015 87.800 C 88.199 94.146,79.790 113.524,80.531 114.265 C 80.635 114.369,80.942 113.767,81.214 112.927 C 89.212 88.175,108.563 60.343,129.687 43.209 C 135.617 38.400,135.200 38.728,136.800 37.614 C 137.570 37.077,138.290 36.536,138.400 36.410 C 140.421 34.102,166.083 19.600,168.147 19.600 C 168.291 19.600,169.172 19.258,170.104 18.840 C 171.037 18.422,173.105 17.583,174.700 16.977 C 176.295 16.370,177.600 15.812,177.600 15.737 C 177.600 15.449,176.527 15.711,174.600 16.467 M334.900 30.265 C 334.625 30.376,334.400 30.703,334.400 30.992 C 334.400 31.703,331.801 33.941,330.693 34.185 C 330.202 34.292,329.260 34.462,328.600 34.560 C 327.940 34.659,328.322 34.692,329.449 34.634 C 331.837 34.510,333.517 33.485,334.746 31.402 C 335.201 30.631,335.534 30.014,335.487 30.032 C 335.439 30.049,335.175 30.154,334.900 30.265 M319.000 33.871 C 303.312 35.210,291.636 43.846,284.574 59.333 C 283.883 60.850,283.071 61.934,282.255 62.432 C 281.565 62.853,281.201 63.198,281.446 63.199 C 282.435 63.202,284.117 61.369,285.071 59.247 C 292.366 43.018,305.231 34.401,322.167 34.400 C 325.008 34.400,327.258 34.335,327.167 34.255 C 326.890 34.015,320.716 33.724,319.000 33.871 M345.193 36.218 C 343.955 39.474,344.731 41.447,348.806 45.400 C 356.034 52.412,360.756 62.906,360.793 72.039 C 360.805 75.138,362.240 77.210,365.074 78.220 C 366.937 78.885,368.525 78.998,367.600 78.400 C 367.270 78.187,366.603 78.009,366.119 78.006 C 363.394 77.987,361.200 75.108,361.200 71.550 C 361.200 62.498,356.038 51.555,348.249 44.097 C 345.330 41.302,344.804 39.940,345.490 36.945 C 345.933 35.008,345.788 34.653,345.193 36.218 M171.044 60.759 C 170.656 62.141,170.434 63.367,170.550 63.483 C 170.666 63.599,170.874 63.178,171.013 62.547 C 171.152 61.916,171.448 60.914,171.673 60.320 C 171.897 59.727,172.006 59.017,171.914 58.743 C 171.823 58.470,171.431 59.377,171.044 60.759 M277.200 63.600 C 276.295 63.890,276.333 63.920,277.600 63.920 C 278.370 63.920,279.450 63.776,280.000 63.600 C 280.905 63.310,280.867 63.280,279.600 63.280 C 278.830 63.280,277.750 63.424,277.200 63.600 M169.822 65.129 C 169.658 65.859,169.622 66.556,169.742 66.676 C 170.043 66.977,170.520 64.956,170.299 64.317 C 170.201 64.033,169.986 64.398,169.822 65.129 M273.200 64.400 C 272.413 64.909,273.816 64.909,275.000 64.400 C 275.733 64.085,275.716 64.054,274.800 64.034 C 274.250 64.022,273.530 64.187,273.200 64.400 M269.800 65.578 C 268.920 65.995,268.427 66.350,268.705 66.368 C 268.983 66.385,269.523 66.239,269.905 66.041 C 270.287 65.844,271.050 65.496,271.600 65.268 C 272.150 65.040,272.330 64.847,272.000 64.838 C 271.670 64.828,270.680 65.162,269.800 65.578 M264.987 67.868 C 258.813 71.665,252.343 79.323,251.020 84.400 C 250.876 84.950,251.447 84.050,252.287 82.400 C 255.562 75.969,264.142 67.200,267.158 67.200 C 267.375 67.200,267.664 67.020,267.800 66.800 C 268.256 66.061,267.391 66.390,264.987 67.868 M168.978 68.578 C 168.827 69.381,168.804 70.137,168.926 70.260 C 169.048 70.382,169.272 69.825,169.422 69.022 C 169.573 68.219,169.596 67.463,169.474 67.340 C 169.352 67.218,169.128 67.775,168.978 68.578 M168.303 71.600 C 168.142 72.150,168.020 73.050,168.031 73.600 L 168.051 74.600 168.444 73.615 C 168.660 73.074,168.782 72.174,168.716 71.615 L 168.595 70.600 168.303 71.600 M167.388 76.538 C 167.239 77.535,167.199 78.586,167.300 78.875 C 167.400 79.164,167.618 78.443,167.782 77.274 C 167.947 76.105,167.987 75.054,167.871 74.938 C 167.755 74.822,167.538 75.542,167.388 76.538 M370.800 79.740 C 372.230 80.248,374.030 80.968,374.800 81.341 C 376.153 81.995,376.168 81.994,375.230 81.309 C 373.924 80.355,370.065 78.798,369.032 78.808 C 368.574 78.813,369.370 79.232,370.800 79.740 M166.662 81.800 C 166.511 83.120,166.210 85.640,165.993 87.400 C 165.122 94.472,165.925 119.319,167.059 120.376 C 167.191 120.499,167.196 119.520,167.071 118.200 C 166.072 107.715,165.921 104.212,166.131 96.400 C 166.258 91.670,166.564 86.227,166.811 84.303 C 167.058 82.380,167.187 80.490,167.098 80.103 C 167.008 79.717,166.812 80.480,166.662 81.800 M377.568 83.084 C 382.331 86.969,384.978 90.603,386.828 95.795 C 387.220 96.898,387.555 97.509,387.571 97.153 C 387.719 93.871,380.809 84.157,377.059 82.377 C 376.587 82.152,376.816 82.471,377.568 83.084 M250.026 87.062 C 249.788 87.908,249.505 89.320,249.397 90.200 C 249.283 91.129,249.537 90.555,250.000 88.833 C 250.440 87.201,250.723 85.790,250.629 85.696 C 250.535 85.602,250.264 86.217,250.026 87.062 M248.946 96.600 C 248.947 98.800,249.014 99.649,249.095 98.487 C 249.176 97.324,249.176 95.524,249.093 94.487 C 249.011 93.449,248.945 94.400,248.946 96.600 M387.902 101.876 C 388.540 114.162,381.728 124.241,370.200 128.070 L 367.400 129.000 322.000 129.000 C 285.197 129.000,276.221 128.898,274.600 128.461 C 270.541 127.368,266.310 125.483,263.500 123.516 C 262.895 123.092,262.400 122.894,262.400 123.077 C 262.400 123.753,268.763 127.134,271.600 127.965 C 272.590 128.255,273.940 128.697,274.600 128.946 C 276.518 129.672,366.795 129.583,369.200 128.854 C 378.710 125.970,385.356 119.134,387.843 109.680 C 388.442 107.400,388.560 99.930,388.017 98.600 C 387.836 98.156,387.784 99.612,387.902 101.876 M249.280 102.000 C 249.280 102.550,249.424 103.450,249.600 104.000 L 249.920 105.000 249.920 104.000 C 249.920 103.450,249.776 102.550,249.600 102.000 L 249.280 101.000 249.280 102.000 M250.011 105.600 C 250.004 108.919,256.862 119.216,261.000 122.100 C 261.660 122.560,260.927 121.683,259.371 120.151 C 255.466 116.306,250.823 109.020,250.794 106.690 C 250.791 106.420,250.613 105.930,250.400 105.600 C 250.055 105.067,250.012 105.067,250.011 105.600 M79.076 117.915 C 78.484 119.706,78.013 121.493,78.029 121.886 C 78.045 122.279,78.581 120.980,79.220 119.000 C 79.860 117.020,80.331 115.233,80.268 115.029 C 80.205 114.825,79.668 116.124,79.076 117.915 M167.280 122.000 C 167.280 122.770,167.424 123.850,167.600 124.400 C 167.890 125.305,167.920 125.267,167.920 124.000 C 167.920 123.230,167.776 122.150,167.600 121.600 C 167.310 120.695,167.280 120.733,167.280 122.000 M77.442 123.243 C 77.345 123.549,77.152 124.340,77.015 125.000 C 76.877 125.660,76.582 126.920,76.360 127.800 C 71.607 146.625,70.679 170.983,73.966 190.600 C 74.590 194.324,75.150 197.250,75.575 199.000 C 75.789 199.880,76.129 201.372,76.331 202.316 C 76.533 203.260,76.811 204.145,76.949 204.283 C 77.292 204.625,77.251 204.088,76.791 202.200 C 75.442 196.661,74.164 189.275,73.122 181.000 C 72.456 175.703,72.465 153.847,73.136 149.000 C 74.733 137.459,75.007 135.890,76.659 128.837 C 77.401 125.668,77.921 122.987,77.814 122.880 C 77.706 122.773,77.539 122.936,77.442 123.243 M168.068 126.600 C 168.062 127.260,168.211 128.160,168.400 128.600 C 168.870 129.694,168.870 127.867,168.400 126.400 C 168.088 125.425,168.079 125.430,168.068 126.600 M168.856 130.400 C 168.856 130.950,169.011 131.760,169.200 132.200 C 169.513 132.929,169.544 132.912,169.544 132.000 C 169.544 131.450,169.389 130.640,169.200 130.200 C 168.887 129.471,168.856 129.488,168.856 130.400 M169.600 133.572 C 169.600 135.548,172.677 137.626,175.480 137.544 L 177.400 137.487 175.317 137.234 C 173.118 136.967,171.293 135.900,170.560 134.454 C 169.973 133.297,169.600 132.954,169.600 133.572 M178.879 149.585 C 175.976 152.359,176.275 154.570,180.727 163.255 C 197.711 196.382,227.340 221.879,262.200 233.365 C 268.626 235.482,269.464 235.735,272.200 236.379 C 273.300 236.638,274.830 237.006,275.600 237.195 C 288.715 240.426,307.810 241.407,322.400 239.598 C 329.134 238.763,339.011 236.834,342.800 235.615 C 343.350 235.438,344.610 235.066,345.600 234.790 C 350.169 233.512,356.448 231.257,355.561 231.212 C 355.429 231.205,353.179 231.903,350.561 232.763 C 327.176 240.441,300.735 242.070,278.200 237.223 C 277.100 236.987,275.660 236.683,275.000 236.549 C 270.797 235.696,258.077 231.732,254.400 230.129 C 253.630 229.793,252.640 229.375,252.200 229.199 C 249.755 228.222,237.548 222.097,236.128 221.134 C 235.208 220.510,234.358 220.000,234.239 220.000 C 233.736 220.000,222.077 212.069,220.865 210.903 C 220.571 210.619,219.674 209.896,218.871 209.294 C 212.027 204.166,200.611 192.550,194.995 185.000 C 194.340 184.120,193.702 183.310,193.576 183.200 C 193.450 183.090,192.740 182.100,191.997 181.000 C 191.254 179.900,190.501 178.940,190.323 178.867 C 190.145 178.793,190.000 178.512,190.000 178.242 C 190.000 177.972,189.685 177.393,189.300 176.955 C 188.915 176.517,188.338 175.718,188.019 175.180 C 187.699 174.641,186.567 172.760,185.502 171.000 C 177.765 158.210,176.201 152.957,179.248 150.000 C 180.155 149.120,180.721 148.400,180.508 148.400 C 180.294 148.400,179.561 148.933,178.879 149.585 M77.225 205.481 C 77.211 205.966,77.364 206.776,77.564 207.281 C 77.764 207.787,78.244 209.279,78.631 210.597 C 79.019 211.915,79.392 212.815,79.462 212.597 C 79.532 212.379,79.063 210.490,78.420 208.400 C 77.777 206.310,77.239 204.997,77.225 205.481 M79.627 213.647 C 79.612 214.002,79.946 215.172,80.370 216.247 C 80.793 217.321,81.449 219.059,81.828 220.109 C 82.206 221.159,82.596 221.937,82.695 221.839 C 82.854 221.680,80.919 215.902,80.003 213.800 C 79.737 213.190,79.648 213.154,79.627 213.647 M83.012 223.200 C 83.621 225.215,85.966 230.000,86.344 230.000 C 86.558 230.000,87.538 229.655,88.522 229.233 C 91.480 227.965,97.438 226.000,98.324 226.000 C 98.780 226.000,99.252 225.839,99.374 225.642 C 99.495 225.445,100.271 225.182,101.097 225.057 C 101.924 224.932,103.860 224.611,105.400 224.343 C 109.091 223.701,126.156 223.664,129.600 224.291 C 133.027 224.915,135.484 225.449,137.200 225.943 C 137.970 226.165,139.050 226.463,139.600 226.606 C 140.150 226.750,140.960 227.014,141.400 227.193 C 141.840 227.372,142.830 227.736,143.600 228.000 C 155.654 232.139,168.843 241.670,176.812 252.000 C 177.575 252.990,178.304 253.890,178.430 254.000 C 179.211 254.679,182.373 259.870,184.454 263.889 C 187.467 269.709,187.384 269.609,189.149 269.559 L 190.600 269.518 189.263 269.202 C 187.538 268.794,187.510 268.761,185.445 264.778 C 182.335 258.781,181.915 258.094,178.798 253.916 C 159.034 227.417,126.445 216.797,94.600 226.476 C 93.060 226.944,91.629 227.478,91.420 227.663 C 91.211 227.849,90.804 228.000,90.516 228.000 C 90.227 228.000,89.176 228.383,88.180 228.851 C 87.184 229.319,86.318 229.634,86.255 229.551 C 86.031 229.254,84.854 226.569,84.173 224.800 C 83.396 222.784,82.522 221.578,83.012 223.200 M370.600 224.223 C 369.720 224.755,368.370 225.484,367.600 225.843 C 362.398 228.267,358.305 230.034,356.643 230.573 C 356.226 230.708,355.983 230.916,356.102 231.036 C 356.388 231.322,361.771 229.078,368.078 226.043 C 377.314 221.599,378.080 223.150,372.388 234.770 C 358.751 262.610,336.371 286.744,310.269 301.759 C 309.206 302.371,308.424 302.957,308.530 303.063 C 308.876 303.409,319.335 296.801,323.984 293.298 C 324.983 292.546,326.327 291.541,326.971 291.065 C 334.204 285.723,346.863 273.483,352.687 266.200 C 354.095 264.440,355.464 262.730,355.729 262.400 C 355.994 262.070,356.650 261.170,357.186 260.400 C 357.723 259.630,358.282 258.910,358.429 258.800 C 361.059 256.838,376.800 228.704,376.800 225.966 C 376.800 223.444,373.447 222.501,370.600 224.223 M110.094 235.018 C 97.318 236.660,86.997 241.087,77.000 249.213 C 66.919 257.407,58.511 270.647,55.670 282.800 C 54.598 287.387,54.418 288.526,53.995 293.400 C 53.321 301.168,52.530 302.253,46.742 303.360 C 0.539 312.200,0.118 377.808,46.200 387.696 C 47.457 387.966,57.413 388.178,73.000 388.268 C 101.709 388.434,100.405 388.243,102.208 392.558 C 102.559 393.399,102.951 393.983,103.077 393.856 C 103.420 393.513,102.391 391.136,101.435 390.062 C 99.556 387.952,100.175 388.001,75.120 387.993 C 44.540 387.984,40.817 387.374,30.884 380.745 C 2.444 361.763,7.462 318.193,39.500 305.944 C 39.995 305.755,40.805 305.434,41.300 305.230 C 42.206 304.858,43.087 304.645,46.400 304.000 C 53.090 302.697,53.636 302.026,54.382 294.200 C 54.858 289.203,55.384 285.864,56.024 283.772 C 56.231 283.096,56.400 282.162,56.400 281.695 C 56.400 281.229,56.580 280.736,56.800 280.600 C 57.020 280.464,57.200 279.924,57.200 279.400 C 57.200 278.876,57.380 278.336,57.600 278.200 C 57.820 278.064,58.000 277.601,58.000 277.171 C 58.000 276.741,58.161 276.077,58.358 275.695 C 58.555 275.313,59.653 273.050,60.797 270.667 C 62.550 267.017,66.211 261.066,67.774 259.326 C 68.008 259.066,69.278 257.623,70.597 256.120 C 76.513 249.375,91.380 239.200,95.320 239.200 C 95.668 239.200,96.051 239.041,96.170 238.848 C 96.290 238.654,96.796 238.397,97.294 238.276 C 97.792 238.155,98.920 237.851,99.800 237.601 C 109.791 234.764,122.195 234.464,132.000 236.825 C 132.990 237.063,134.387 237.355,135.104 237.473 C 135.821 237.592,136.506 237.849,136.627 238.044 C 136.748 238.240,137.199 238.400,137.629 238.400 C 138.059 238.400,138.723 238.559,139.105 238.753 C 139.487 238.948,140.250 239.286,140.800 239.505 C 154.591 245.005,166.912 255.925,173.584 268.562 C 174.176 269.683,174.850 270.960,175.083 271.400 C 175.316 271.840,175.690 272.650,175.913 273.200 C 178.328 279.136,179.936 280.788,183.319 280.807 C 189.747 280.844,204.252 285.735,207.913 289.100 C 208.212 289.375,208.611 289.600,208.800 289.600 C 208.989 289.600,209.381 289.831,209.671 290.113 C 209.962 290.395,210.830 291.060,211.600 291.590 C 213.690 293.028,219.024 298.296,220.927 300.800 C 221.846 302.010,222.697 303.090,222.818 303.200 C 223.437 303.762,225.183 306.551,226.728 309.445 C 242.616 339.214,226.010 377.251,193.298 386.021 C 186.325 387.890,184.504 387.974,150.761 387.987 C 115.924 388.001,117.354 387.906,115.671 390.324 C 114.755 391.641,113.920 394.000,114.371 394.000 C 114.552 394.000,114.800 393.500,114.922 392.889 C 115.847 388.264,114.719 388.400,152.218 388.400 C 173.380 388.400,185.483 388.253,186.869 387.979 C 191.214 387.120,193.035 386.715,194.400 386.306 C 222.453 377.899,238.743 349.516,231.784 321.170 C 227.068 301.964,211.222 286.070,192.400 281.670 C 187.682 280.567,186.730 280.400,185.169 280.400 C 181.246 280.400,178.667 278.699,177.387 275.267 C 175.903 271.286,171.111 262.373,170.039 261.600 C 169.886 261.490,169.323 260.770,168.788 260.000 C 167.822 258.611,167.098 257.729,164.400 254.658 C 163.630 253.782,161.380 251.730,159.400 250.098 C 154.315 245.908,154.324 245.915,153.418 245.424 C 152.968 245.179,151.839 244.489,150.908 243.890 C 149.977 243.290,149.105 242.800,148.970 242.800 C 148.834 242.800,148.246 242.468,147.662 242.063 C 140.004 236.749,122.362 233.441,110.094 235.018 M191.600 270.000 C 193.067 270.470,194.894 270.470,193.800 270.000 C 193.360 269.811,192.460 269.662,191.800 269.668 C 190.630 269.679,190.625 269.688,191.600 270.000 M195.200 270.800 C 195.530 271.013,196.250 271.178,196.800 271.166 C 197.716 271.146,197.733 271.115,197.000 270.800 C 195.816 270.291,194.413 270.291,195.200 270.800 M198.200 271.600 C 198.336 271.820,198.842 271.997,199.324 271.994 C 200.036 271.989,200.088 271.915,199.600 271.600 C 198.812 271.091,197.885 271.091,198.200 271.600 M200.574 272.357 C 200.724 272.601,201.109 272.800,201.428 272.800 C 202.716 272.800,210.569 276.691,214.783 279.417 C 226.078 286.723,234.780 297.379,240.086 310.400 C 240.310 310.950,240.652 311.713,240.847 312.095 C 241.041 312.477,241.200 313.064,241.200 313.400 C 241.200 313.736,241.358 314.323,241.551 314.705 C 242.110 315.811,242.799 318.187,242.806 319.028 C 242.820 320.844,243.908 322.999,244.860 323.096 C 245.780 323.190,245.782 323.184,244.938 322.823 C 244.285 322.544,243.926 321.793,243.455 319.727 C 238.842 299.490,224.569 282.172,205.800 274.041 C 201.418 272.142,200.198 271.749,200.574 272.357 M306.980 303.572 C 306.560 303.984,298.153 308.217,295.000 309.604 C 291.582 311.108,288.986 312.205,287.400 312.815 C 284.516 313.923,281.915 314.854,280.084 315.433 C 278.921 315.801,278.057 316.190,278.164 316.298 C 278.386 316.519,283.811 314.703,288.600 312.804 C 296.550 309.652,309.333 303.260,307.780 303.213 C 307.549 303.206,307.189 303.368,306.980 303.572 M274.200 317.218 C 273.100 317.613,272.442 317.950,272.738 317.968 C 273.411 318.008,277.600 316.805,277.600 316.572 C 277.600 316.238,276.175 316.509,274.200 317.218 M269.800 318.400 C 269.067 318.715,269.084 318.746,270.000 318.766 C 270.550 318.778,271.270 318.613,271.600 318.400 C 272.387 317.891,270.984 317.891,269.800 318.400 M266.600 319.200 C 265.867 319.515,265.884 319.546,266.800 319.566 C 267.350 319.578,268.070 319.413,268.400 319.200 C 269.187 318.691,267.784 318.691,266.600 319.200 M263.200 320.000 C 262.220 320.314,262.224 320.321,263.400 320.354 C 264.060 320.373,264.870 320.213,265.200 320.000 C 265.958 319.510,264.730 319.510,263.200 320.000 M259.000 320.800 L 257.800 321.105 259.200 321.147 C 259.970 321.169,260.870 321.013,261.200 320.800 C 261.939 320.323,260.876 320.323,259.000 320.800 M254.000 321.600 C 252.609 321.893,252.611 321.895,254.400 321.919 C 255.390 321.933,256.560 321.789,257.000 321.600 C 258.032 321.156,256.107 321.156,254.000 321.600 M247.800 322.400 L 245.800 322.674 248.200 322.697 C 249.520 322.710,251.050 322.576,251.600 322.400 C 252.896 321.985,250.826 321.985,247.800 322.400 " stroke="none" fill="#595446" fill-rule="evenodd"></path></g></svg>